<?xml version="1.0" encoding="utf-8"?>
<!-- Generator: Adobe Illustrator 16.0.0, SVG Export Plug-In . SVG Version: 6.00 Build 0)  -->
<!DOCTYPE svg PUBLIC "-//W3C//DTD SVG 1.1//EN" "http://www.w3.org/Graphics/SVG/1.1/DTD/svg11.dtd">
<svg version="1.1" id="Layer_1" xmlns="http://www.w3.org/2000/svg" xmlns:xlink="http://www.w3.org/1999/xlink" x="0px" y="0px"
	 width="748px" height="1318.564px" viewBox="0 0 748 1318.564" enable-background="new 0 0 748 1318.564" xml:space="preserve">
<g>
	<g>
		<path fill="#8ABBE6" d="M385.366,173.832c22.684,15.466,36.455,47.58,17.244,71.049c-8.004,9.775-18.344,9.836-29.979,11.209
			c-0.307,0.036-0.621,0.059-0.947,0.059c-0.598,0-1.188-0.004-1.77-0.009c-0.584,0.005-1.174,0.009-1.773,0.009
			c-0.324,0-0.639-0.022-0.947-0.059c-7.338-0.204-15.383-1.119-22.021-4.437c-13.498-6.746-18.398-22.678-16.604-36.869
			c2.16-17.107,13.879-29.559,25.891-40.953c5.326-5.051,0.166-11.428,0.166-11.428l-9.441-16.894c0,0,8.447-6.459,15.9,2.981
			c1.48-4.108,3.68-5.861,8.83-5.861c6.111-0.052,7.348,1.752,8.828,5.861c7.453-9.44,15.9-2.981,15.9-2.981l-9.441,16.894
			C385.202,162.404,378.069,168.856,385.366,173.832z"/>
		<path fill="#827C6F" d="M386.202,168.035c0,2.612-2.508,4.729-5.6,4.729h-21.277c-3.092,0-5.6-2.118-5.6-4.729l0,0
			c0-2.612,2.508-4.729,5.6-4.729h21.277C383.694,163.306,386.202,165.423,386.202,168.035L386.202,168.035z"/>
		<rect x="344.829" y="191.555" fill-rule="evenodd" clip-rule="evenodd" fill="none" width="51.623" height="50.152"/>
		<text transform="matrix(1 0 0 1 354.2354 233.9736)" fill="#FFFFFF" font-family="'Helvetica-Bold'" font-size="58.9971">$</text>
	</g>
	<g>
		<path fill-rule="evenodd" clip-rule="evenodd" fill="#8ABBE6" d="M343.856,416.645c0.383-3.598,0.928-6.952,1.023-10.318
			c0.049-1.72-0.619-3.487-1.121-5.187c-0.488-1.664-1.84-2.449-3.469-2.947c-0.162,0.964-0.201,1.845-0.463,2.655
			c-0.916,2.832-2.822,4.68-5.783,5.208c-3.104,0.554-5.674-0.497-7.475-3.091c-1.752-2.527-1.791-5.207-0.201-7.84
			c2.367-3.916,7.805-7.954,14.654-6.057c8.111,2.247,16.414,3.32,24.809,3.563c4.008,0.116,8.049,0.085,12.035-0.291
			c3.98-0.375,7.578-2.067,10.76-4.523c2.967-2.291,5.156-5.119,6.055-8.854c1.441-5.999,2.975-11.976,4.4-17.979
			c0.467-1.97,0.637-4.01,1.088-5.986c0.596-2.613,2.018-4.792,3.904-6.678c2.812-2.81,7.15-3.247,10.373-1.039
			c3.258,2.233,4.455,6.416,2.867,10.03c-1.562,3.559-5.549,5.558-9.365,4.56c-0.955-0.25-1.582-0.05-1.984,0.693
			c-1.197,2.208-2.662,4.352-3.398,6.715c-2.254,7.233-4.547,14.484-6.191,21.869c-1.42,6.371-1.998,12.931-2.893,19.414
			c-0.268,1.928-0.291,3.89-0.557,5.818c-0.057,0.409-0.629,0.964-1.057,1.069c-3.295,0.809-6.582,1.74-9.93,2.224
			c-7.533,1.088-15.115,1.381-22.709,0.562C353.856,419.657,348.618,418.486,343.856,416.645z"/>
		<path fill-rule="evenodd" clip-rule="evenodd" fill="#8ABBE6" d="M346.983,428c-2.117-1.016-4.217-1.982-6.275-3.028
			c-1.1-0.56-1.756-1.486-1.777-2.788c-0.039-2.333,2.381-4.045,4.404-2.885c5.816,3.334,12.195,4.467,18.723,4.874
			c7.721,0.48,15.436,0.266,22.996-1.627c1.998-0.5,3.939-1.262,5.854-2.032c1.736-0.697,3.475-0.255,4.293,1.279
			c0.85,1.586,0.311,3.508-1.434,4.318c-1.832,0.851-3.777,1.459-5.676,2.167c-0.42,0.156-0.854,0.279-1.406,0.458
			c1.008,5.637,2.193,11.134,6.312,15.418c2.047,2.128,2.273,2.124,4.711,0.602c1.545-0.965,3.047-2.007,4.508-3.096
			c2.326-1.733,5.115-1.529,6.766,0.569c1.65,2.102,1.293,4.935-0.941,6.72c-6.35,5.08-13.582,8.46-21.396,10.491
			c-17.4,4.523-34.418,3.609-50.842-4.126c-3.727-1.755-7.195-3.956-10.299-6.687c-1.453-1.278-1.871-2.939-1.389-4.752
			c0.477-1.787,1.729-2.892,3.545-3.295c1.529-0.339,2.828,0.164,4.059,1.081c1.693,1.263,3.457,2.431,5.17,3.666
			c0.6,0.432,1.123,0.424,1.672-0.057c0.529-0.463,1.109-0.874,1.604-1.372C343.218,440.803,346.808,432.363,346.983,428z
			 M344.175,448.877c15.002,5.221,29.686,5.125,44.68,0.161c-2.686-2.703-4.547-5.644-5.674-8.959
			c-1.127-3.31-1.98-6.712-2.982-10.173c-8.891,1.075-17.893,1.142-26.91-0.475C351.618,436.491,349.485,443.214,344.175,448.877z"
			/>
		<g>
			<path fill-rule="evenodd" clip-rule="evenodd" fill="#827C6F" d="M375.827,351.745c0.404-1.052,0.775-2.053,1.176-3.043
				c0.215-0.536,0.434-1.08,0.729-1.573c0.521-0.873,1.291-1.296,2.314-0.945c1.062,0.365,1.529,1.184,1.281,2.244
				c-0.26,1.122-0.697,2.203-1.064,3.3c-0.156,0.467-0.33,0.929-0.51,1.43c1.102,0.711,2.215,1.346,3.236,2.105
				c4.441,3.297,6.152,7.797,5.463,13.184c-0.424,3.311-3.684,4.966-6.357,3.393c-1.738-1.024-2.115-2.668-1.896-4.516
				c0.314-2.677-0.385-5.003-2.287-6.941c-0.115-0.118-0.24-0.229-0.375-0.322c-0.059-0.04-0.154-0.027-0.375-0.058
				c-0.814,2.166-1.641,4.359-2.469,6.552c-0.773,2.053-1.521,4.116-2.34,6.152c-0.277,0.692-0.176,1.089,0.434,1.549
				c1.486,1.125,2.939,2.3,4.344,3.526c2.533,2.208,3.988,5.024,4.59,8.323c0.219,1.201-0.08,1.855-1.369,2.04
				c-2.281,0.327-4.549,0.742-6.578,1.08c-0.734-1.508-1.197-2.805-1.949-3.901c-0.76-1.108-1.811-2.017-2.945-3.242
				c-0.672,1.754-1.244,3.232-1.805,4.714c-0.818,2.163-0.814,2.171-3.105,2.042c-0.609-0.035-1.217-0.133-1.973-0.218
				c0.998-2.68,1.902-5.25,2.924-7.771c0.383-0.948,0.307-1.468-0.543-2.15c-1.643-1.32-3.234-2.738-4.652-4.294
				c-2.723-2.991-3.852-6.557-3.076-10.574c0.912-4.736,2.947-8.802,7.373-11.246c3.299-1.821,6.816-1.836,10.4-1.131
				C374.86,351.541,375.298,351.635,375.827,351.745z M373.38,358.313c-4.361-0.469-6.734,0.87-7.957,4.347
				c-1.084,3.085,0.094,6.123,3.25,8.146C370.235,366.658,371.788,362.538,373.38,358.313z"/>
			<path fill-rule="evenodd" clip-rule="evenodd" fill="#827C6F" d="M355.835,388.164c-2.672-0.437-5.359-0.855-8.031-1.347
				c-0.248-0.046-0.629-0.593-0.582-0.838c0.256-1.37,0.441-2.8,1-4.055c0.816-1.838,3.039-2.687,4.936-2.166
				c1.967,0.54,3.01,1.99,2.967,4.168c-0.023,1.241-0.084,2.482-0.137,3.723C355.983,387.766,355.921,387.88,355.835,388.164z"/>
		</g>
	</g>
	<g>
		<path fill-rule="evenodd" clip-rule="evenodd" fill="#827C6F" d="M329.692,620.306c-1.816-1.823-3.56-3.572-5.255-5.273
			c10.641-10.641,21.307-21.305,32.095-32.093c9.767,2.44,19.705,4.925,29.721,7.429c2.609-4.348,5.203-8.67,7.856-13.09
			c-3.233-1.949-6.429-3.875-9.779-5.894c8.917-4.951,17.715-9.835,26.665-14.803c-0.166,10.212-0.33,20.255-0.496,30.505
			c-3.345-2.004-6.519-3.906-9.787-5.865c-3.602,5.991-7.182,11.945-10.799,17.963c-10.387-2.596-20.739-5.182-31.286-7.817
			C349.013,600.983,339.35,610.649,329.692,620.306z"/>
		<path fill-rule="evenodd" clip-rule="evenodd" fill="#8ABBE6" d="M403.245,591.277c2.704,1.621,5.342,3.201,8.001,4.797
			c0,20.016,0,40.007,0,60.057c-5.258,0-10.453,0-15.75,0c-0.021-0.313-0.06-0.619-0.06-0.924
			c-0.004-16.764-0.005-33.529,0.007-50.295c0.001-0.379,0.077-0.809,0.266-1.127c2.398-4.045,4.824-8.072,7.243-12.104
			C403.02,591.57,403.105,591.47,403.245,591.277z"/>
		<path fill-rule="evenodd" clip-rule="evenodd" fill="#8ABBE6" d="M372.575,656.124c0-17.907,0-35.751,0-53.726
			c5.262,1.313,10.476,2.615,15.741,3.93c0,16.609,0,33.171,0,49.796C383.062,656.124,377.848,656.124,372.575,656.124z"/>
		<path fill-rule="evenodd" clip-rule="evenodd" fill="#8ABBE6" d="M365.414,656.142c-5.283,0-10.456,0-15.717,0
			c-0.021-0.318-0.054-0.598-0.054-0.879c-0.002-14.561-0.004-29.122,0.013-43.683c0-0.361,0.107-0.827,0.345-1.065
			c3.566-3.611,7.162-7.192,10.754-10.779c0.072-0.072,0.166-0.124,0.299-0.222c1.438,0.362,2.896,0.73,4.36,1.099
			C365.414,619.154,365.414,637.607,365.414,656.142z"/>
		<path fill-rule="evenodd" clip-rule="evenodd" fill="#8ABBE6" d="M341.916,656.124c-4.866,0-9.666,0-14.53,0
			c0-8.871,0-17.705,0-26.8c0.802,0.939,1.471,1.725,2.162,2.534c4.166-4.245,8.17-8.328,12.175-12.411
			c0.063,0.041,0.128,0.082,0.193,0.122C341.916,631.722,341.916,643.876,341.916,656.124z"/>
	</g>
	<g>
		<path fill-rule="evenodd" clip-rule="evenodd" fill="#8ABBE6" d="M409.019,859.771c-0.617,0.168-1.357,0.543-2.102,0.547
			c-7.807,0.043-15.613,0.025-23.609,0.025c-0.08-0.902-0.209-1.666-0.211-2.432c-0.018-5.41-0.01-10.82-0.01-16.232
			c0-0.701,0.02-1.402-0.008-2.104c-0.105-2.666-0.6-3.176-3.162-3.297c-0.301-0.016-0.602-0.006-0.902-0.006
			c-5.611,0-11.223-0.016-16.834,0.006c-3.723,0.012-4.059,0.371-4.066,4.199c-0.01,5.51-0.002,11.021-0.002,16.533
			c0,0.988,0,1.979,0,3.34c-3.039,0-5.908,0-8.779,0c-2.906,0-5.816,0.104-8.717-0.031c-2.834-0.129-5.771,0.646-8.434-0.59
			c-0.58-2.506-0.787-46.006-0.27-51.451c12.754-11.295,25.645-22.711,38.703-34.277c12.934,11.455,25.873,22.916,38.654,34.236
			C409.8,813.119,409.608,857.277,409.019,859.771z"/>
		<path fill-rule="evenodd" clip-rule="evenodd" fill="#827C6F" d="M370.618,766.203c-16.758,14.834-33.334,29.506-49.973,44.234
			c-1.842-2.07-3.637-4.084-5.668-6.365c18.498-16.377,36.977-32.736,55.645-49.264c18.684,16.549,37.109,32.869,55.605,49.25
			c-1.936,2.199-3.707,4.215-5.621,6.391C403.899,795.662,387.29,780.958,370.618,766.203z"/>
		<path fill-rule="evenodd" clip-rule="evenodd" fill="#827C6F" d="M345.04,770.304c-4.451,4.025-8.662,7.83-13.152,11.889
			c0-6.867,0-13.377,0-20.072c4.416,0,8.842,0,13.57,0C345.317,764.91,345.181,767.568,345.04,770.304z"/>
	</g>
	<g>
		<path fill-rule="evenodd" clip-rule="evenodd" fill="#8ABBE6" d="M322.12,1056.322c-2.468-0.926-3.206-2.768-3.183-5.307
			c0.087-8.838,0.008-17.672,0.045-26.508c0.018-4.479-0.514-9.021,1.668-13.494c-1.674,0-3.068,0.027-4.459-0.008
			c-2.265-0.041-3.293-1.428-2.651-3.602c0.387-1.312,0.836-2.604,1.333-3.881c0.903-2.326,2.96-3.645,5.583-3.678
			c1.315-0.021,2.962,0.373,3.855-0.27c0.894-0.635,1.05-2.326,1.501-3.562c2.324-6.336,4.653-12.666,6.948-19.01
			c1.107-3.061,3.345-5.014,6.14-6.449c4.912-2.523,10.195-3.615,15.651-4.057c8.994-0.727,18-0.76,27.008-0.254
			c6.225,0.344,12.39,1.082,18.188,3.65c3.485,1.543,5.921,3.896,7.204,7.613c2.416,7.002,5.115,13.902,7.6,20.881
			c0.422,1.195,0.98,1.512,2.176,1.498c1.906-0.029,3.947-0.496,5.639,0.814c0.814,0.629,1.684,1.381,2.133,2.271
			c0.74,1.49,1.264,3.105,1.691,4.721c0.523,1.967-0.553,3.244-2.623,3.312c-0.703,0.029-1.414,0.008-2.119,0.014
			c-0.703,0-1.408,0-2.326,0c0.166,0.531,0.346,0.912,0.414,1.32c0.4,2.283,1.076,4.576,1.098,6.867
			c0.125,10.604,0.008,21.205,0.092,31.809c0.012,2.531-0.721,4.381-3.186,5.307c-5.389,0-10.781,0-16.164,0
			c-2.443-0.834-3.402-2.574-3.223-5.107c0.11-1.533-0.076-3.092,0.048-4.627c0.118-1.387-0.379-1.676-1.698-1.668
			c-16.504,0.041-33.005,0.027-49.506,0.027c-1.456,0-2.916,0.033-4.37-0.014c-0.848-0.029-1.183,0.242-1.154,1.125
			c0.055,1.719-0.077,3.443,0.037,5.156c0.166,2.541-0.78,4.273-3.224,5.107C332.899,1056.322,327.508,1056.322,322.12,1056.322z
			 M406.587,1001.585c-0.188-0.781-0.262-1.209-0.398-1.615c-2.182-6.656-4.33-13.324-6.62-19.943
			c-0.317-0.936-1.249-1.773-2.092-2.379c-0.801-0.57-1.836-0.84-2.809-1.127c-5.082-1.484-10.327-1.992-15.565-2.074
			c-7.726-0.121-15.457-0.037-23.17,0.297c-3.717,0.162-7.42,0.986-11.085,1.719c-2.645,0.523-4.587,1.967-5.471,4.775
			c-1.267,4.035-2.861,7.963-4.179,11.98c-0.86,2.623-1.481,5.33-2.306,8.359C357.572,1006.794,381.98,1006.845,406.587,1001.585z
			 M336.592,1028.601c0.007-0.125,0.014-0.24,0.02-0.365c2.379,0,4.764,0.084,7.139-0.021c2.671-0.111,4.079-1.732,3.555-3.961
			c-0.331-1.416-1.452-2.195-2.671-2.748c-3.452-1.553-6.91-3.092-10.417-4.514c-2.167-0.885-4.42-1.533-6.829-1.035
			c-1.582,0.324-2.461,1.076-2.665,2.678c-0.172,1.346-0.181,2.727-0.189,4.086c-0.025,3.113,0.862,4.389,3.938,4.957
			C331.143,1028.173,333.883,1028.304,336.592,1028.601z M402.999,1028.236c0,0.062,0,0.117,0,0.18c0.262,0,0.529,0.012,0.793-0.008
			c2.982-0.193,6.004,0.014,8.863-1.18c1.643-0.691,2.504-1.857,2.484-3.66c-0.014-1.014,0.006-2.029-0.006-3.043
			c-0.041-3.748-1.576-5.1-5.316-4.707c-0.18,0.02-0.352,0.041-0.523,0.09c-1.236,0.324-2.52,0.531-3.688,1.014
			c-3.582,1.479-7.164,2.969-10.643,4.668c-1.05,0.51-2.133,1.58-2.534,2.648c-0.793,2.119,0.78,3.854,3.432,3.977
			C398.235,1028.32,400.616,1028.236,402.999,1028.236z"/>
		<g>
			<path fill-rule="evenodd" clip-rule="evenodd" fill="#827C6F" d="M341.776,1045.136c-0.005-0.066-0.017-0.131-0.017-0.197
				h-22.787c-0.006,2.025-0.016,4.051-0.035,6.076c-0.023,2.539,0.715,4.381,3.183,5.307h16.166c2.443-0.834,3.39-2.566,3.224-5.107
				c-0.114-1.713,0.018-3.438-0.037-5.156C341.458,1045.587,341.562,1045.306,341.776,1045.136z"/>
		</g>
		<path fill-rule="evenodd" clip-rule="evenodd" fill="#827C6F" d="M420.7,1044.939h-22.937c-0.007,0.029-0.015,0.057-0.021,0.086
			c-0.003,0.035-0.005,0.07-0.009,0.107c0.39,0.221,0.536,0.648,0.468,1.455c-0.124,1.535,0.062,3.094-0.048,4.627
			c-0.18,2.533,0.779,4.273,3.223,5.107h16.164c2.465-0.926,3.197-2.775,3.186-5.307
			C420.71,1048.99,420.704,1046.964,420.7,1044.939z"/>
	</g>
	<g>
		<path fill-rule="evenodd" clip-rule="evenodd" fill="none" stroke="#827C6F" stroke-width="11" stroke-miterlimit="10" d="
			M357.132,1180.395c-17.365,4.996-30.07,21.002-30.07,39.977c0,22.969,18.621,41.592,41.59,41.592
			c22.971,0,41.592-18.623,41.592-41.592c0-18.896-12.602-34.85-29.857-39.914"/>
		<g>
			<path fill-rule="evenodd" clip-rule="evenodd" fill="#8ABBE6" d="M378.366,1171.12c-3.217,10.039-6.406,20-9.6,29.963
				c-0.104,0.012-0.209,0.023-0.312,0.035c-3.197-9.973-6.395-19.947-9.617-29.998C365.399,1171.12,371.808,1171.12,378.366,1171.12
				z"/>
			<path fill-rule="evenodd" clip-rule="evenodd" fill="#8ABBE6" d="M378.155,1167.436c-6.416,0-12.637,0-18.977,0
				c0.102-0.377,0.152-0.701,0.271-1c1.625-4.07,3.281-8.129,4.865-12.213c0.301-0.773,0.646-1.1,1.498-1.072
				c1.93,0.062,3.863-0.014,5.793,0.049c0.377,0.012,0.949,0.314,1.078,0.629C374.517,1158.28,376.288,1162.758,378.155,1167.436z"
				/>
			<path fill-rule="evenodd" clip-rule="evenodd" fill="#8ABBE6" d="M376.446,1153.17c3.566,0,6.992-0.018,10.414,0.025
				c0.355,0.004,0.848,0.277,1.031,0.576c2.695,4.373,5.354,8.771,8.012,13.166c0.061,0.102,0.061,0.238,0.115,0.486
				c-0.467,0.029-0.885,0.074-1.299,0.074c-3.871,0.006-7.736-0.006-11.605,0.01c-0.662,0.002-1.127-0.072-1.42-0.824
				c-1.676-4.291-3.414-8.559-5.123-12.834C376.509,1153.692,376.507,1153.512,376.446,1153.17z"/>
			<path fill-rule="evenodd" clip-rule="evenodd" fill="#8ABBE6" d="M360.89,1153.17c-1.354,3.383-2.604,6.508-3.854,9.633
				c-0.521,1.301-1.006,2.621-1.582,3.896c-0.148,0.33-0.57,0.758-0.873,0.762c-4.428,0.049-8.861,0.035-13.482,0.035
				c0.213-0.449,0.324-0.756,0.49-1.031c2.496-4.131,4.988-8.266,7.52-12.373c0.24-0.389,0.734-0.873,1.117-0.881
				C353.688,1153.143,357.153,1153.17,360.89,1153.17z"/>
			<polygon fill-rule="evenodd" clip-rule="evenodd" fill="#8ABBE6" points="341.603,1171.167 355.089,1171.167 363.784,1198.292 
							"/>
			<polyline fill-rule="evenodd" clip-rule="evenodd" fill="#8ABBE6" points="373.837,1198.292 396.019,1171.167 382.532,1171.167 
							"/>
		</g>
	</g>
</g>
<g>
	<rect x="1284.318" y="158.788" fill="none" width="194" height="64.756"/>
	<text transform="matrix(1 0 0 1 1284.3184 180.3579)"><tspan x="0" y="0" fill="#303030" font-family="'Helvetica-Bold'" font-size="30">Cash</tspan><tspan x="0" y="36" fill="#303030" font-family="'Helvetica'" font-size="30">$S30,000</tspan></text>
	<rect x="897.318" y="379.054" fill="none" width="132.012" height="104.985"/>
	<text transform="matrix(1 0 0 1 909.2422 422.1934)" fill="#827C6F" font-family="'Helvetica-Bold'" font-size="60">28%</text>
	<rect x="897.318" y="175.765" fill="none" width="132.012" height="104.985"/>
	<text transform="matrix(1 0 0 1 942.6113 218.9043)" fill="#827C6F" font-family="'Helvetica-Bold'" font-size="60">1%</text>
	<rect x="897.318" y="784.054" fill="none" width="132.012" height="104.984"/>
	<text transform="matrix(1 0 0 1 909.2422 827.1929)" fill="#827C6F" font-family="'Helvetica-Bold'" font-size="60">40%</text>
	<rect x="897.318" y="581.765" fill="none" width="132.012" height="104.984"/>
	<text transform="matrix(1 0 0 1 942.6113 624.9038)" fill="#827C6F" font-family="'Helvetica-Bold'" font-size="60">6%</text>
	<rect x="897.318" y="1191.054" fill="none" width="132.012" height="104.984"/>
	<text transform="matrix(1 0 0 1 942.6113 1234.1929)" fill="#827C6F" font-family="'Helvetica-Bold'" font-size="60">6%</text>
	<rect x="897.318" y="988.765" fill="none" width="132.012" height="104.984"/>
	<text transform="matrix(1 0 0 1 909.2422 1031.9038)" fill="#827C6F" font-family="'Helvetica-Bold'" font-size="60">19%</text>
	<rect x="1284.318" y="362.275" fill="none" width="194" height="64.756"/>
	<text transform="matrix(1 0 0 1 1284.3184 383.8447)"><tspan x="0" y="0" fill="#303030" font-family="'Helvetica-Bold'" font-size="30">Pension</tspan><tspan x="0" y="36" fill="#303030" font-family="'Helvetica'" font-size="30">$S30,000</tspan></text>
	<rect x="1284.318" y="565.02" fill="none" width="194" height="64.756"/>
	<text transform="matrix(1 0 0 1 1284.3184 586.5894)"><tspan x="0" y="0" fill="#303030" font-family="'Helvetica-Bold'" font-size="30">Stock </tspan><tspan x="0" y="36" fill="#303030" font-family="'Helvetica'" font-size="30">$S30,000</tspan></text>
	<rect x="1284.318" y="769.248" fill="none" width="194" height="64.756"/>
	<text transform="matrix(1 0 0 1 1284.3184 790.8169)"><tspan x="0" y="0" fill="#303030" font-family="'Helvetica-Bold'" font-size="30">Property</tspan><tspan x="0" y="36" fill="#303030" font-family="'Helvetica'" font-size="30">$S30,000</tspan></text>
	<rect x="1284.318" y="972.734" fill="none" width="194" height="64.756"/>
	<text transform="matrix(1 0 0 1 1284.3184 994.3032)"><tspan x="0" y="0" fill="#303030" font-family="'Helvetica-Bold'" font-size="30">Car</tspan><tspan x="0" y="36" fill="#303030" font-family="'Helvetica'" font-size="30">$S30,000</tspan></text>
	<rect x="1274.318" y="1178.443" fill="none" width="194" height="64.756"/>
	<text transform="matrix(1 0 0 1 1274.3184 1200.0132)"><tspan x="0" y="0" fill="#303030" font-family="'Helvetica-Bold'" font-size="30">Others</tspan><tspan x="0" y="36" fill="#303030" font-family="'Helvetica'" font-size="30">$S30,000</tspan></text>
</g>
<rect x="-878.831" y="97.646" fill-rule="evenodd" clip-rule="evenodd" fill="none" stroke="#827C6F" stroke-width="4" stroke-miterlimit="10" width="670.831" height="203.487"/>
<rect x="-878.831" y="301.132" fill-rule="evenodd" clip-rule="evenodd" fill="none" stroke="#827C6F" stroke-width="4" stroke-miterlimit="10" width="670.831" height="203.487"/>
<rect x="-878.831" y="504.619" fill-rule="evenodd" clip-rule="evenodd" fill="none" stroke="#827C6F" stroke-width="4" stroke-miterlimit="10" width="670.831" height="203.486"/>
<rect x="-878.831" y="708.105" fill-rule="evenodd" clip-rule="evenodd" fill="none" stroke="#827C6F" stroke-width="4" stroke-miterlimit="10" width="670.831" height="203.486"/>
<rect x="-878.831" y="911.591" fill-rule="evenodd" clip-rule="evenodd" fill="none" stroke="#827C6F" stroke-width="4" stroke-miterlimit="10" width="670.831" height="203.486"/>
<rect x="-878.831" y="1115.078" fill-rule="evenodd" clip-rule="evenodd" fill="none" stroke="#827C6F" stroke-width="4" stroke-miterlimit="10" width="670.831" height="203.486"/>
<g>
	<path fill="#827C6F" d="M709.654,101.646v1212.918H41.323V101.646H709.654 M713.654,97.646H37.323v1220.918h676.332V97.646
		L713.654,97.646z"/>
</g>
<rect x="-1338.831" y="197.166" fill-rule="evenodd" clip-rule="evenodd" fill="none" stroke="#827C6F" stroke-width="4" stroke-miterlimit="10" width="670.831" height="203.487"/>
<rect x="-1338.831" y="400.653" fill-rule="evenodd" clip-rule="evenodd" fill="none" stroke="#827C6F" stroke-width="4" stroke-miterlimit="10" width="670.831" height="203.487"/>
<rect x="-1338.831" y="604.139" fill-rule="evenodd" clip-rule="evenodd" fill="none" stroke="#827C6F" stroke-width="4" stroke-miterlimit="10" width="670.831" height="203.486"/>
<rect x="-1338.831" y="807.625" fill-rule="evenodd" clip-rule="evenodd" fill="none" stroke="#827C6F" stroke-width="4" stroke-miterlimit="10" width="670.831" height="203.486"/>
<rect x="-1338.831" y="1011.112" fill-rule="evenodd" clip-rule="evenodd" fill="none" stroke="#827C6F" stroke-width="4" stroke-miterlimit="10" width="670.831" height="203.486"/>
<rect x="-1338.831" y="1214.598" fill-rule="evenodd" clip-rule="evenodd" fill="none" stroke="#827C6F" stroke-width="4" stroke-miterlimit="10" width="670.831" height="203.486"/>
<g>
	<rect x="39.59" y="2" fill="#8ABBE6" width="672.064" height="99.675"/>
	<path fill="#827C6F" d="M709.654,4v95.675H41.59V4H709.654 M713.654,0H37.59v103.675h676.064V0L713.654,0z"/>
</g>
<rect x="946.324" y="36.675" fill="none" width="450.756" height="47.407"/>
<text transform="matrix(1 0 0 1 1091.6826 65.4351)" fill="#FFFFFF" font-family="'Helvetica-Bold'" font-size="40">ASSETS</text>
</svg>
