<?xml version="1.0" encoding="utf-8"?>
<!-- Generator: Adobe Illustrator 16.0.0, SVG Export Plug-In . SVG Version: 6.00 Build 0)  -->
<!DOCTYPE svg PUBLIC "-//W3C//DTD SVG 1.1//EN" "http://www.w3.org/Graphics/SVG/1.1/DTD/svg11.dtd">
<svg version="1.1" id="Layer_1" xmlns="http://www.w3.org/2000/svg" xmlns:xlink="http://www.w3.org/1999/xlink" x="0px" y="0px"
	 width="577.629px" height="1196.645px" viewBox="0 0 577.629 1196.645" enable-background="new 0 0 577.629 1196.645"
	 xml:space="preserve">
<path fill="#A09B91" d="M422.717,1272.13c-1.447,7.127-3.706,13.887-7.208,19.75c-2.062,3.453-4.525,6.596-7.468,9.361
	c-2.947,2.758-6.354,5.165-10.212,7.237c-7.716,4.137-17.19,6.972-27.444,8.69c-1.262,0.245-2.562,0.433-3.867,0.616
	c-1.306,0.182-2.587,0.404-3.922,0.539l-3.97,0.463l-4.851,0.629c-6.532,0.791-13.052,2.283-19.449,4.08l-4.737,1.565
	c-0.783,0.274-1.583,0.507-2.352,0.816l-2.303,0.937c-1.521,0.645-3.086,1.217-4.562,1.936l-4.414,2.176
	c-5.746,3.078-11.169,6.602-15.914,10.613c-4.727,4.018-8.889,8.395-12.464,12.993c-1.881,2.414-3.562,4.896-5.098,7.415
	c-1.536-2.521-3.218-5.003-5.1-7.417c-3.572-4.599-7.736-8.976-12.463-12.994c-4.746-4.013-10.168-7.534-15.914-10.612l-4.416-2.178
	c-1.476-0.718-3.041-1.29-4.563-1.934l-2.301-0.936c-0.767-0.312-1.567-0.544-2.352-0.816l-4.738-1.566
	c-6.397-1.797-12.915-3.291-19.45-4.082l-4.848-0.627l-3.972-0.463c-1.335-0.135-2.615-0.358-3.921-0.539
	c-1.304-0.186-2.605-0.373-3.868-0.616c-10.253-1.721-19.728-4.555-27.443-8.689c-3.857-2.073-7.264-4.48-10.211-7.238
	c-2.939-2.767-5.405-5.906-7.468-9.361c-3.502-5.862-5.76-12.621-7.207-19.749h-28.389c1.669,9.752,4.521,19.823,10.305,29.569
	c2.984,5.007,6.779,9.883,11.43,14.254c4.648,4.369,10.098,8.199,15.936,11.334c5.841,3.146,12.039,5.611,18.289,7.554
	c6.258,1.956,12.578,3.382,18.856,4.448c1.573,0.298,3.14,0.527,4.707,0.752c1.563,0.219,3.138,0.481,4.694,0.644l4.681,0.545
	l3.781,0.5c5.005,0.587,9.729,1.723,14.339,2.981l3.347,1.116c0.552,0.193,1.134,0.345,1.664,0.568l1.595,0.659
	c1.053,0.456,2.165,0.833,3.176,1.337l3.042,1.5c3.937,2.134,7.663,4.517,10.964,7.312c3.284,2.808,6.254,5.906,8.872,9.268
	c2.628,3.355,4.813,7.021,6.72,10.817c3.788,7.609,6.211,15.925,7.408,24.353c0.279,1.921,0.474,3.849,0.613,5.759
	c0.039,0.545,0.057,1.078,0.082,1.614h-15.354l30.124,32.812l28.827-32.812h-15.354c0.025-0.536,0.043-1.069,0.084-1.614
	c0.138-1.91,0.334-3.836,0.613-5.759c1.198-8.428,3.62-16.741,7.408-24.352c1.905-3.797,4.092-7.462,6.718-10.818
	c2.62-3.358,5.588-6.459,8.872-9.266c3.301-2.797,7.026-5.178,10.963-7.311l3.041-1.502c1.014-0.505,2.124-0.882,3.176-1.337
	l1.597-0.659c0.53-0.224,1.11-0.377,1.665-0.568l3.346-1.117c4.609-1.26,9.333-2.396,14.339-2.982l3.779-0.5l4.681-0.543
	c1.559-0.161,3.132-0.426,4.696-0.646c1.567-0.223,3.132-0.452,4.705-0.75c6.278-1.067,12.602-2.493,18.856-4.448
	c6.251-1.942,12.449-4.408,18.29-7.555c5.839-3.133,11.287-6.965,15.937-11.334c4.65-4.371,8.445-9.247,11.433-14.254
	c5.782-9.748,8.636-19.816,10.305-29.571h-28.39V1272.13z"/>
<rect x="265.336" y="1054.539" fill="#928D81" width="47.679" height="13.384"/>
<g>
	<rect x="265.336" y="656.616" fill="#928D81" width="47.679" height="13.384"/>
	<rect x="282.484" y="639.468" fill="#928D81" width="13.384" height="47.68"/>
</g>
<g>
	<path fill="#827C6F" d="M340.495,1450.74c2.979,16.83,5.929,33.504,8.918,50.396c-2.432,0.75-4.826,1.539-7.248,2.226
		c-9.498,2.69-19.212,4.229-29.011,5.241c-12.464,1.285-24.952,2.349-37.4,3.771c-10.683,1.221-21.188,3.401-31.352,7.026
		c-0.297,0.105-0.607,0.175-1.084,0.31c-2.957-16.81-5.898-33.521-8.882-50.476c3.575-1.106,7.038-2.291,10.563-3.254
		c10.397-2.836,21.049-4.139,31.748-5.147c12.614-1.191,25.241-2.275,37.824-3.734c8.425-0.979,16.66-3.037,24.662-5.928
		C339.583,1451.044,339.938,1450.931,340.495,1450.74z M298.585,1475.546c0.104-1.08,0.119-2.451,0.397-3.766
		c0.256-1.209-0.308-1.525-1.275-1.619c-1.814-0.174-3.63-0.324-5.504-0.49c-0.268-1.447-0.536-2.901-0.823-4.455
		c-1.955,0.215-3.754,0.414-5.693,0.629c0.234,1.347,0.405,2.5,0.643,3.642c0.183,0.867-0.049,1.319-0.93,1.697
		c-3.507,1.504-5.108,4.069-4.981,7.733c0.126,3.64,1.927,6.162,5.511,7.385c1.816,0.619,3.739,0.921,5.6,1.421
		c1.267,0.34,2.55,0.674,3.745,1.192c1.135,0.49,1.647,1.512,1.539,2.771c-0.104,1.207-0.928,1.854-1.976,2.135
		c-1.175,0.311-2.399,0.639-3.598,0.613c-2.376-0.052-4.747-0.339-7.28-0.541c-0.292,1.52-0.616,3.207-1.01,5.256
		c2.943,0.36,5.758,0.705,8.705,1.065c0.297,1.504,0.627,3.183,0.969,4.918c1.984-0.244,3.775-0.463,5.581-0.686
		c-0.325-1.939-0.61-3.643-0.894-5.33c0.406-0.174,0.664-0.285,0.924-0.393c3.147-1.291,5.342-3.351,5.465-6.986
		c0.13-3.822-1.478-6.693-4.994-8.254c-1.746-0.775-3.646-1.213-5.491-1.752c-1.396-0.408-2.829-0.689-4.223-1.109
		c-1.113-0.338-1.689-1.205-1.699-2.346c-0.009-1.186,0.717-1.912,1.79-2.273c0.619-0.207,1.271-0.424,1.913-0.438
		C293.467,1475.517,295.941,1475.546,298.585,1475.546z M259.89,1498.218c4.491-0.014,8.11-3.561,8.06-7.899
		c-0.052-4.443-3.733-8.127-8.1-8.103c-4.338,0.021-7.81,3.646-7.815,8.15C252.03,1494.833,255.429,1498.232,259.89,1498.218z
		 M315.713,1480.025c-0.01,4.446,3.644,8.176,8.012,8.178c4.269,0.004,7.892-3.738,7.89-8.148c-0.001-4.315-3.46-7.815-7.78-7.873
		C319.384,1472.123,315.722,1475.658,315.713,1480.025z"/>
	<path fill="#827C6F" d="M238.721,1528.349c-2.973-16.891-5.909-33.571-8.874-50.418c1.06-0.396,2.13-0.797,3.326-1.243
		c2.716,15.354,5.41,30.579,8.132,45.965c0.742-0.246,1.31-0.429,1.872-0.623c9.468-3.287,19.218-5.412,29.147-6.547
		c12.398-1.418,24.837-2.474,37.248-3.775c11.437-1.199,22.783-2.928,33.801-6.371c0.173-0.055,0.362-0.055,0.703-0.102
		c0.271,1.442,0.538,2.858,0.85,4.516c-3.161,0.941-6.277,1.957-9.443,2.793c-9.4,2.477-18.991,3.875-28.648,4.863
		c-12.929,1.319-25.877,2.483-38.781,4.014c-9.548,1.131-18.908,3.297-28.001,6.5
		C239.661,1528.056,239.265,1528.173,238.721,1528.349z"/>
	<path fill="#FFFFFF" d="M298.585,1475.546c-2.646,0-5.118-0.029-7.589,0.021c-0.643,0.014-1.294,0.229-1.913,0.438
		c-1.073,0.361-1.799,1.088-1.79,2.273c0.01,1.141,0.586,2.008,1.699,2.346c1.393,0.42,2.826,0.701,4.223,1.108
		c1.846,0.539,3.745,0.978,5.491,1.752c3.518,1.562,5.124,4.433,4.994,8.255c-0.123,3.637-2.316,5.694-5.465,6.985
		c-0.26,0.107-0.518,0.219-0.925,0.394c0.283,1.688,0.568,3.391,0.895,5.329c-1.807,0.224-3.598,0.441-5.581,0.687
		c-0.342-1.736-0.672-3.414-0.97-4.918c-2.946-0.361-5.761-0.705-8.704-1.066c0.394-2.049,0.718-3.735,1.01-5.256
		c2.533,0.203,4.904,0.49,7.28,0.541c1.197,0.025,2.423-0.303,3.598-0.612c1.047-0.279,1.87-0.929,1.975-2.136
		c0.109-1.26-0.403-2.28-1.537-2.771c-1.196-0.521-2.479-0.854-3.746-1.193c-1.86-0.5-3.783-0.801-5.6-1.42
		c-3.584-1.223-5.385-3.746-5.511-7.385c-0.127-3.664,1.475-6.23,4.981-7.734c0.881-0.377,1.112-0.83,0.93-1.697
		c-0.237-1.141-0.408-2.295-0.643-3.641c1.939-0.215,3.738-0.414,5.693-0.629c0.287,1.553,0.557,3.008,0.823,4.455
		c1.874,0.166,3.688,0.315,5.504,0.49c0.969,0.094,1.531,0.409,1.275,1.618C298.705,1473.095,298.69,1474.466,298.585,1475.546z"/>
	<path fill="#FFFFFF" d="M259.89,1498.218c-4.461,0.015-7.86-3.385-7.855-7.852c0.006-4.506,3.478-8.129,7.815-8.15
		c4.366-0.024,8.048,3.658,8.1,8.103C268,1494.658,264.381,1498.205,259.89,1498.218z"/>
	<path fill="#FFFFFF" d="M315.713,1480.025c0.009-4.367,3.671-7.902,8.12-7.845c4.32,0.058,7.779,3.558,7.78,7.873
		c0.002,4.41-3.621,8.152-7.89,8.148C319.356,1488.201,315.704,1484.472,315.713,1480.025z"/>
</g>
<path fill="#827C6F" d="M57.971,1112.811c9.242-3.844,18.158-7.788,27.259-11.24c5.335-2.024,10.722-1.031,15.57,1.979
	c4.138,2.581,8.288,5.176,12.176,8.114c7.423,5.617,15.73,8.327,24.972,8.532c3.363,0.077,6.725,0.339,10.075,0.672
	c2.005,0.191,3.523,1.191,3.805,3.427c0.301,2.415-0.941,4.035-3.042,4.714c-2.165,0.704-4.471,1.27-6.731,1.326
	c-7.013,0.16-14.052,0.416-21.04-0.063c-4.887-0.339-9.703-1.807-14.539-2.818c-1.089-0.229-2.126-0.679-3.292-0.787
	c4.579,4.637,9.646,8.729,16.332,8.96c8.942,0.309,17.915,0.021,26.855-0.396c2.332-0.108,4.771-1.353,6.847-2.595
	c3.395-2.022,4.452-5.342,3.952-9.196c-0.493-3.85-2.626-6.463-6.315-7.386c-2.895-0.724-5.931-0.973-8.922-1.185
	c-2.6-0.191-5.226-0.045-7.839-0.045c-0.064-0.32-0.128-0.646-0.186-0.975c5.085-2.816,10.062-5.865,15.294-8.384
	c4.458-2.146,6.488-1.415,10.427,2.127c3.459-1.108,6.533-2.53,9.748-3.01c3.952-0.59,6.149,1.537,6.86,5.854
	c1.562-0.666,3.017-1.53,4.592-1.901c2.21-0.52,4.509-0.941,6.764-0.909c2.396,0.024,4.144,1.595,5.079,3.753
	c0.942,2.171,0.327,4.259-1.288,5.886c-1.614,1.627-3.305,3.261-5.213,4.517c-15.557,10.26-31.256,20.303-46.736,30.685
	c-7.404,4.964-14.628,4.996-22.288,0.974c-7.77-4.079-15.718-7.832-23.391-12.086c-5.373-2.983-10.184-3.017-15.039,0.833
	c-1.716,1.357-3.669,2.421-5.783,3.791C67.976,1134.983,63.101,1124.186,57.971,1112.811z"/>
<g>
	<g>
		<g>
			<path fill="#99C4E9" d="M78.644,1062.591c-2.096-1.782-4.345-3.459-6.744-5.021c-1.202-0.787-2.437-1.539-3.731-2.252
				c-0.642-0.363-1.312-0.702-1.991-1.041l-1.059-0.483c-0.172-0.083-0.381-0.15-0.573-0.224l-0.296-0.107
				c-0.111-0.032-0.273-0.048-0.408-0.072l1.216-0.333l1.013-0.251c0.662-0.16,1.308-0.301,1.95-0.435
				c1.285-0.27,2.557-0.494,3.832-0.698c2.547-0.396,5.107-0.665,7.692-0.826c5.117-0.289,10.353-0.134,15.679,0.783
				c5.306,0.912,10.725,2.5,15.833,5.191c5.104,2.657,9.832,6.361,13.623,10.746l1.407,1.656c0.466,0.554,0.851,1.151,1.276,1.729
				c0.829,1.166,1.676,2.329,2.345,3.555l0.904,1.558c0.227,0.401,0.468,0.801,0.679,1.205l1.163,2.454l7.23-3.334
				c-2.045,11.283-7.155,19.929-12.922,27.105c-1.847-1.448-3.683-2.792-5.498-4.034c-1.913-1.209-3.804-2.303-5.68-3.264
				c-0.983-0.452-1.954-0.873-2.912-1.26c-0.969-0.376-1.872-0.771-2.876-1.022c-1.971-0.527-3.798-1.016-5.721-1.104l7.227-3.333
				l-0.667-1.443l-0.889-1.524c-0.357-0.705-0.825-1.289-1.256-1.906c-0.224-0.299-0.412-0.637-0.657-0.911l-0.722-0.832
				c-1.922-2.213-4.176-3.988-6.807-5.377c-5.259-2.749-12.179-3.827-19.385-3.385c-1.818,0.115-3.651,0.304-5.464,0.586
				c-0.904,0.146-1.806,0.304-2.68,0.488c-0.438,0.091-0.87,0.185-1.28,0.285l-0.974,0.247c-0.019-0.058-0.064-0.107-0.058-0.172
				l0.055-0.203c0.042-0.137,0.066-0.271,0.129-0.412c0.114-0.278,0.225-0.559,0.353-0.839c0.266-0.56,0.54-1.126,0.849-1.685
				c0.602-1.124,1.274-2.241,1.987-3.341C75.264,1066.843,76.87,1064.677,78.644,1062.591z"/>
		</g>
	</g>
</g>
<path fill="#827C6F" d="M381.657,1112.811c9.242-3.844,18.158-7.788,27.26-11.24c5.334-2.024,10.723-1.031,15.568,1.979
	c4.139,2.581,8.291,5.176,12.178,8.114c7.424,5.617,15.729,8.327,24.973,8.532c3.361,0.077,6.726,0.339,10.074,0.672
	c2.004,0.191,3.523,1.191,3.805,3.427c0.302,2.415-0.94,4.035-3.043,4.714c-2.164,0.704-4.471,1.27-6.729,1.326
	c-7.015,0.16-14.053,0.416-21.039-0.063c-4.889-0.339-9.705-1.807-14.541-2.818c-1.088-0.229-2.127-0.679-3.291-0.787
	c4.578,4.637,9.646,8.729,16.332,8.96c8.94,0.309,17.914,0.021,26.854-0.396c2.332-0.108,4.771-1.353,6.847-2.595
	c3.395-2.022,4.453-5.342,3.953-9.196c-0.494-3.85-2.625-6.463-6.314-7.386c-2.895-0.724-5.932-0.973-8.924-1.185
	c-2.601-0.191-5.226-0.045-7.838-0.045c-0.064-0.32-0.129-0.646-0.188-0.975c5.086-2.816,10.062-5.865,15.297-8.384
	c4.457-2.146,6.486-1.415,10.427,2.127c3.459-1.108,6.532-2.53,9.748-3.01c3.95-0.59,6.147,1.537,6.858,5.854
	c1.562-0.666,3.019-1.53,4.592-1.901c2.211-0.52,4.511-0.941,6.765-0.909c2.396,0.024,4.145,1.595,5.08,3.753
	c0.94,2.171,0.325,4.259-1.289,5.886c-1.613,1.627-3.306,3.261-5.213,4.517c-15.558,10.26-31.255,20.303-46.736,30.685
	c-7.402,4.964-14.627,4.996-22.287,0.974c-7.77-4.079-15.719-7.832-23.393-12.086c-5.371-2.983-10.183-3.017-15.037,0.833
	c-1.717,1.357-3.67,2.421-5.783,3.791C391.661,1134.983,386.788,1124.186,381.657,1112.811z"/>
<g>
	<g>
		<g>
			<path fill="#E78372" d="M448.423,1090.37c-2.645,0.759-5.286,1.703-7.915,2.836c-1.321,0.566-2.631,1.178-3.94,1.861
				c-0.658,0.333-1.312,0.704-1.97,1.082l-0.987,0.613c-0.164,0.099-0.336,0.234-0.504,0.354l-0.254,0.187
				c-0.089,0.075-0.19,0.2-0.285,0.301l0.396-1.197l0.352-0.982c0.232-0.639,0.475-1.255,0.718-1.864
				c0.486-1.219,1.004-2.402,1.54-3.576c1.079-2.342,2.271-4.622,3.569-6.864c2.593-4.42,5.62-8.695,9.332-12.624
				c3.697-3.914,8.021-7.547,13.089-10.312c5.038-2.778,10.74-4.666,16.49-5.396l2.157-0.255c0.72-0.082,1.43-0.071,2.146-0.105
				c1.43-0.045,2.865-0.105,4.259,0.016l1.798,0.108c0.459,0.034,0.925,0.054,1.379,0.103l2.688,0.39l1.226-7.867
				c8.264,7.95,12.636,16.991,15.42,25.768c-2.229,0.735-4.364,1.521-6.403,2.345c-2.064,0.924-4.021,1.895-5.86,2.924
				c-0.922,0.567-1.811,1.145-2.662,1.728c-0.851,0.599-1.678,1.132-2.444,1.829c-1.53,1.35-2.948,2.602-4.086,4.152l1.226-7.864
				l-1.571-0.243l-1.762-0.104c-0.785-0.093-1.53-0.027-2.282-0.009c-0.373,0.021-0.759-0.01-1.123,0.042l-1.092,0.141
				c-2.907,0.375-5.636,1.27-8.246,2.692c-5.201,2.857-9.931,8.021-13.552,14.269c-0.909,1.578-1.768,3.208-2.535,4.875
				c-0.379,0.833-0.746,1.672-1.077,2.501c-0.166,0.416-0.328,0.827-0.473,1.225l-0.334,0.946c-0.058-0.016-0.125-0.006-0.176-0.046
				l-0.139-0.159c-0.09-0.109-0.189-0.204-0.271-0.335c-0.169-0.249-0.341-0.496-0.504-0.758c-0.317-0.531-0.64-1.073-0.933-1.639
				c-0.604-1.124-1.162-2.303-1.684-3.505C450.092,1095.538,449.178,1093.002,448.423,1090.37z"/>
		</g>
	</g>
</g>
<g>
	<path fill="#E3715D" d="M177.563,704.312c-0.418,0-0.826,0.031-1.229,0.081c-2.507-13.499-11.64-25.011-24.333-31.816
		c-3.811,6.778-11.068,11.364-19.399,11.364c-10.185,0-18.765-6.85-21.402-16.19c-0.134,0.034-0.27-0.725-0.403-0.689
		c-3.038-2.375-7.19-4.964-11.18-8.645c-1.014-0.935-2.408-2.224-3.798-2.538c-1.528-0.345-2.3,0.796-2.578,2.141
		c-0.58,2.815-0.204,5.92-0.307,8.773c-0.114,3.189-0.216,6.383-0.322,9.577c-6.871,4.995-12.259,11.536-15.513,19.02h-8.977
		c-3.044,0-5.511,2.466-5.511,5.511v18.108c0,3.043,2.467,5.511,5.511,5.511h7.485c3.376,10.535,10.877,19.53,20.859,25.507v11.76
		c0,1.74,1.41,3.149,3.15,3.149h12.071c1.739,0,3.149-1.409,3.149-3.149v-4.885c3.39,0.619,6.901,0.947,10.498,0.947
		c3.599,0,7.107-0.336,10.497-0.958v4.896c0,1.74,1.411,3.149,3.15,3.149h11.286c1.739,0,3.149-1.409,3.149-3.149v-11.312
		c12.576-7.251,21.389-19.216,23.243-33.083c0.296,0.025,0.597,0.042,0.902,0.042c4.493,0,8.136-2.938,8.136-6.56
		S182.056,704.312,177.563,704.312z M96.959,700.046c-3.861,0-7.088-2.683-7.941-6.284c1.06,1.496,2.803,2.477,4.778,2.477
		c3.234,0,5.856-2.622,5.856-5.855c0-3.232-2.622-5.854-5.856-5.854c-0.145,0-0.287,0.012-0.427,0.021
		c1.085-0.53,2.302-0.839,3.591-0.839c4.513,0,8.169,3.657,8.169,8.168S101.473,700.046,96.959,700.046z"/>
	<g>
		<circle fill="#827C6F" cx="132.815" cy="657.728" r="18.239"/>
		<path fill="#FFFFFF" d="M138.273,652.383c-1.581-0.213-3.056-0.427-4.536-0.596c-0.386-0.044-0.792,0.034-1.179,0.107
			c-0.671,0.131-1.162,0.506-1.252,1.216c-0.085,0.684,0.19,1.245,0.829,1.538c0.798,0.361,1.632,0.646,2.434,1.001
			c1.059,0.47,2.159,0.882,3.141,1.486c1.977,1.215,2.707,3.06,2.322,5.332c-0.366,2.165-1.841,3.219-3.825,3.738
			c-0.164,0.042-0.326,0.089-0.583,0.161c0.033,1.031,0.066,2.07,0.106,3.255c-1.096-0.01-2.184-0.023-3.39-0.036
			c-0.065-1.066-0.128-2.094-0.184-3.018c-1.732-0.451-3.387-0.884-5.116-1.333c0.398-1.194,0.727-2.177,1.023-3.062
			c1.499,0.324,2.893,0.688,4.308,0.908c0.713,0.11,1.473,0.013,2.199-0.079c0.648-0.083,1.192-0.404,1.352-1.117
			c0.166-0.744-0.06-1.396-0.697-1.778c-0.673-0.407-1.413-0.708-2.142-1.015c-1.071-0.446-2.197-0.78-3.232-1.297
			c-2.044-1.017-2.917-2.669-2.702-4.854c0.218-2.198,1.38-3.604,3.597-4.222c0.557-0.155,0.731-0.406,0.691-0.938
			c-0.05-0.701-0.06-1.405-0.092-2.229c1.175,0.027,2.268,0.052,3.453,0.079c0.046,0.953,0.092,1.843,0.134,2.729
			c1.107,0.249,2.179,0.485,3.25,0.734c0.571,0.133,0.882,0.368,0.633,1.069C138.541,650.929,138.422,651.746,138.273,652.383z"/>
	</g>
</g>
<g>
	<circle fill="#827C6F" cx="455.603" cy="755.574" r="16.821"/>
	<path fill="#FFFFFF" d="M460.638,750.645c-1.459-0.195-2.819-0.395-4.183-0.55c-0.357-0.04-0.732,0.032-1.088,0.102
		c-0.62,0.12-1.071,0.466-1.156,1.12c-0.079,0.63,0.176,1.148,0.765,1.419c0.736,0.333,1.505,0.595,2.245,0.922
		c0.978,0.434,1.991,0.813,2.896,1.372c1.823,1.12,2.497,2.819,2.144,4.917c-0.338,1.996-1.698,2.968-3.528,3.446
		c-0.15,0.039-0.301,0.084-0.537,0.148c0.03,0.951,0.062,1.91,0.099,3.001c-1.012-0.009-2.016-0.021-3.126-0.033
		c-0.062-0.981-0.12-1.931-0.171-2.783c-1.597-0.417-3.123-0.814-4.718-1.229c0.364-1.102,0.671-2.006,0.941-2.822
		c1.382,0.299,2.669,0.633,3.975,0.837c0.656,0.103,1.356,0.011,2.026-0.073c0.598-0.074,1.1-0.371,1.246-1.029
		c0.152-0.687-0.054-1.288-0.643-1.643c-0.62-0.375-1.303-0.653-1.977-0.935c-0.988-0.412-2.025-0.72-2.979-1.196
		c-1.887-0.938-2.691-2.462-2.493-4.478c0.202-2.028,1.274-3.324,3.317-3.894c0.514-0.144,0.675-0.376,0.637-0.867
		c-0.046-0.646-0.054-1.295-0.083-2.054c1.083,0.024,2.09,0.047,3.184,0.072c0.043,0.878,0.085,1.7,0.124,2.518
		c1.021,0.229,2.009,0.447,2.998,0.678c0.526,0.124,0.812,0.34,0.583,0.985C460.883,749.303,460.775,750.056,460.638,750.645z"/>
</g>
<g>
	<path fill="#E3715D" d="M508.48,676.705c-0.374,0.098-0.731,0.222-1.078,0.36c-5.146-10.904-15.232-18.78-27.337-22.179
		c-0.044-0.016-0.088-0.029-0.137-0.045c-5.843-1.889-11.035-2.728-15.604-2.882l-4.142,9.87l9.268,12.319l-13.798,3.631
		l9.157,13.532l-6.31,10.817l12.906,7.797l-10.221,16.595l9.664,10.997c1.203-0.229,2.408-0.488,3.612-0.806
		c3.21-0.845,6.26-1.968,9.138-3.319l1.149,4.366c0.407,1.553,1.996,2.479,3.55,2.071l10.064-2.649
		c1.552-0.407,2.478-1.997,2.068-3.548l-2.655-10.089c9.514-9.419,14.565-22.159,12.966-34.962c0.27-0.048,0.542-0.104,0.813-0.174
		c4.009-1.056,6.566-4.53,5.716-7.761C516.424,677.417,512.486,675.65,508.48,676.705z"/>
	<path fill="#E3715D" d="M435.275,720.49l19.424-10.849l-13.191-12.888l13.705-6.854l-7.639-16.899l14.185-0.414l-7.701-12.074
		l10.864-8.51c-11.803-4.993-20.953-3.158-25.018-1.808c-0.028-0.078-0.057-0.133-0.093-0.127c-2.545-2.482-6.093-5.273-9.382-9.049
		c-0.834-0.957-1.982-2.278-3.228-2.707c-1.364-0.471-2.187,0.498-2.578,1.703c-0.813,2.524-0.781,5.407-1.164,8.014
		c-0.423,2.914-0.837,5.83-1.256,8.747c-6.801,3.89-12.396,9.345-16.13,15.879l-8.23-0.901c-2.792-0.306-5.302,1.708-5.606,4.497
		l-1.819,16.603c-0.305,2.789,1.708,5.3,4.499,5.604l6.862,0.753c2.037,9.998,8.01,18.997,16.56,25.479l-1.18,10.781
		c-0.175,1.596,0.975,3.028,2.569,3.204l11.066,1.213c1.596,0.174,3.029-0.977,3.203-2.571l0.49-4.479
		c1.902,0.568,10.754,2.99,12.757,3.35L435.275,720.49z M423.812,678.918c-3.539-0.388-6.229-3.172-6.646-6.56
		c0.821,1.479,2.319,2.552,4.13,2.75c2.966,0.324,5.631-1.815,5.955-4.779c0.326-2.964-1.813-5.631-4.778-5.956
		c-0.132-0.015-0.264-0.017-0.395-0.024c1.05-0.377,2.195-0.538,3.377-0.407c4.138,0.453,7.123,4.173,6.67,8.309
		C431.668,676.387,427.95,679.372,423.812,678.918z"/>
</g>
<g>
	<g>
		<g>
			<polygon fill="#A09B91" points="1011.312,767.538 1022.959,755.893 1022.959,769.131 1022.959,958.288 1030.92,958.288 
				1011.312,977.893 991.709,958.288 999.667,958.288 999.667,769.131 999.667,755.893 			"/>
		</g>
	</g>
</g>
<g>
	<g>
		<g>
			<path fill="#A09B91" d="M689.2,767.139c0.515-1.245,1.146-2.478,1.774-3.647c0.607-1.169,1.304-2.294,2.032-3.354
				c0.69-1.066,1.515-2.04,2.304-2.938c0.412-0.438,0.857-0.82,1.283-1.194c0.207-0.208,0.456-0.298,0.683-0.431l0.346-0.175
				c0.119-0.021,0.252,0.13,0.369,0.196l-0.003-0.156l-0.005-0.076c-0.001-0.008,0.002,0.02,0.004,0.027l0.018,0.15l0.015,0.151
				l0.039,0.237c0.058,0.326,0.079,0.62,0.177,1.009l0.236,1.112l0.322,1.176c0.445,1.58,1.04,3.218,1.732,4.848
				c2.457,5.811,6.258,11.472,10.718,16.688c4.511,5.203,9.631,10.109,15.38,14.446l2.107,1.672l2.229,1.556l4.451,3.122
				l4.663,2.896c1.572,0.943,3.068,1.981,4.721,2.828l4.86,2.657l2.428,1.332c0.822,0.427,1.672,0.813,2.507,1.223l5.027,2.427
				l2.513,1.216l2.582,1.104l5.174,2.196c1.731,0.721,3.427,1.509,5.211,2.13l10.599,3.945l10.809,3.512l2.702,0.879
				c0.905,0.281,1.829,0.521,2.743,0.782l5.496,1.542c7.281,2.184,14.771,3.8,22.184,5.628c3.727,0.86,7.503,1.558,11.251,2.345
				c3.764,0.736,7.489,1.608,11.294,2.192c30.249,5.41,61.032,8.648,91.938,10.576l11.601,0.657l5.801,0.329
				c1.934,0.112,3.875,0.141,5.812,0.215l23.256,0.764l10.341,0.109l0.112-7.96c6.351,6.604,12.794,13.209,19.328,19.813
				c-6.534,6.466-13.161,12.931-19.88,19.394l0.111-7.958l-10.516-0.112l-23.701-0.777c-1.976-0.075-3.95-0.104-5.926-0.221
				l-5.927-0.335l-11.854-0.672c-31.604-1.973-63.225-5.283-94.65-10.904c-3.938-0.607-7.845-1.514-11.765-2.284
				c-3.915-0.82-7.842-1.549-11.746-2.449c-7.793-1.916-15.618-3.615-23.35-5.923l-5.812-1.634
				c-0.968-0.278-1.939-0.531-2.903-0.831l-2.884-0.935l-11.531-3.751l-11.42-4.25c-1.912-0.669-3.777-1.527-5.66-2.31l-5.637-2.396
				c-7.487-3.294-14.86-6.971-22.079-11.051c-1.832-0.948-3.572-2.13-5.354-3.203l-5.311-3.309l-5.169-3.616l-2.581-1.813
				l-2.5-1.972c-6.742-5.111-13.043-11.058-18.773-17.686c-0.713-0.834-1.437-1.652-2.137-2.502l-2.01-2.652
				c-0.662-0.893-1.347-1.759-1.985-2.675l-1.853-2.815c-2.475-3.749-4.628-7.81-6.48-12.1c-1.031-2.434-1.951-4.947-2.704-7.614
				l-0.543-2.02c-0.165-0.692-0.309-1.416-0.458-2.123c-0.155-0.686-0.268-1.488-0.385-2.252l-0.084-0.581l-0.072-0.672
				l-0.064-0.673l-0.033-0.462l-0.026-0.569c0.133,0.31,0.274,0.703,0.415,0.923l0.419,0.55c0.281,0.35,0.558,0.745,0.851,1.015
				c0.58,0.584,1.149,1.166,1.739,1.682c1.2,0.999,2.366,1.938,3.611,2.733c1.215,0.82,2.436,1.563,3.702,2.223
				C686.694,765.983,687.908,766.604,689.2,767.139z"/>
		</g>
	</g>
</g>
<g>
	<rect x="265.336" y="238.526" fill="#928D81" width="47.679" height="13.384"/>
	<rect x="282.484" y="221.378" fill="#928D81" width="13.384" height="47.679"/>
</g>
<path fill="#827C6F" d="M432.843,302.836c-0.005,5.733-0.005,11.466,0.011,17.201c0.017,6.478,5.139,11.627,11.604,11.634
	c23.157,0.021,46.312,0.016,69.472,0.001c5.893-0.003,10.44-3.845,11.574-9.676c0.044-0.233,0.161-0.451,0.244-0.675
	c0-23.645,0-47.286,0-70.925c-0.507-1.781-1.772-3.005-3.046-4.25c-6.83-6.688-13.659-13.383-20.452-20.111
	c-1.857-1.84-4.027-2.707-6.622-2.705c-16.982,0.015-33.969-0.001-50.954,0.012c-6.776,0.007-11.812,5.099-11.822,11.9
	c0,0.001,0,0.003,0,0.005l-0.006-0.005v0.213c-0.03,2.131-0.433,4.401,0,6.373L432.843,302.836L432.843,302.836z M444.355,309.024
	l0.008,0.004v-52.583c0,0.001,0.001,0.001,0.002,0.002c0-0.463,0-0.929,0-1.395c-0.001-6.05-0.006-12.103-0.002-18.154
	c0-1.817,0.227-2.045,1.994-2.045c14.401-0.001,28.804-0.001,43.208-0.001c0.396,0,0.795,0,1.378,0c0,0.509,0,0.934,0,1.359
	c0,4.558-0.012,9.117,0.001,13.676c0.013,4.943,3.252,8.188,8.188,8.201c4.52,0.013,9.037,0.003,13.556,0.003
	c0.438,0,0.878,0,1.492,0c0,0.512,0,0.938,0,1.365c0,19.567,0,39.134,0,58.7c0,1.772-0.239,2.007-2.036,2.007
	c-21.904,0-43.812-0.001-65.719-0.003c-1.867,0-2.057-0.197-2.058-2.094C444.363,315.051,444.356,312.038,444.355,309.024z"/>
<rect x="451.771" y="288.551" fill="#827C6F" width="56.64" height="6.062"/>
<rect x="451.771" y="304.617" fill="#827C6F" width="56.64" height="6.062"/>
<g>
	<rect x="381.598" y="305.753" fill="#FFFFFF" width="76.813" height="43.831"/>
	<g>
		<path fill="#E3715D" d="M463.944,304.506c0,15.447,0,30.895,0,46.341c-0.11,0.252-0.234,0.5-0.333,0.758
			c-0.801,2.131-2.804,3.532-5.089,3.532c-25.679,0.002-51.355,0.002-77.031,0c-2.326,0-4.324-1.424-5.115-3.615
			c-0.083-0.232-0.204-0.45-0.308-0.675c0-15.447,0-30.893,0-46.341c0.104-0.224,0.223-0.442,0.308-0.675
			c0.791-2.19,2.789-3.612,5.114-3.614c25.676-0.002,51.354-0.002,77.032,0c2.323,0.001,4.322,1.423,5.113,3.614
			C463.72,304.062,463.841,304.282,463.944,304.506z M381.598,349.584c25.655,0,51.231,0,76.813,0c0-7.317,0-14.57,0-21.862
			c-25.62,0-51.198,0-76.813,0C381.598,335.022,381.598,342.277,381.598,349.584z M381.598,316.628c25.655,0,51.231,0,76.812,0
			c0-3.653,0-7.246,0-10.875c-25.619,0-51.198,0-76.812,0C381.598,309.394,381.598,312.985,381.598,316.628z"/>
		<path fill="#E3715D" d="M403.469,344.115c-5.479,0-10.9,0-16.367,0c0-3.627,0-7.218,0-10.877c5.424,0,10.863,0,16.367,0
			C403.469,336.822,403.469,340.435,403.469,344.115z"/>
		<path fill="#E3715D" d="M425.533,344.112c0-1.818,0-3.579,0-5.395c1.8,0,3.581,0,5.409,0c0,1.792,0,3.573,0,5.395
			C429.147,344.112,427.387,344.112,425.533,344.112z"/>
		<path fill="#E3715D" d="M441.916,344.115c-1.82,0-3.581,0-5.386,0c0-1.796,0-3.558,0-5.386c1.763,0,3.543,0,5.386,0
			C441.916,340.485,441.916,342.265,441.916,344.115z"/>
		<path fill="#E3715D" d="M452.908,344.137c-1.824,0-3.565,0-5.373,0c0-1.794,0-3.576,0-5.418c1.759,0,3.538,0,5.373,0
			C452.908,340.504,452.908,342.283,452.908,344.137z"/>
		<path fill="#827C6F" d="M458.41,316.628c-25.58,0-51.156,0-76.812,0v13.006l0,0c0-0.639,0-1.274,0-1.913
			c25.615,0,51.192,0,76.812,0V314.57h-0.001C458.41,315.256,458.41,315.938,458.41,316.628z"/>
	</g>
</g>
<rect x="448.125" y="263.094" fill="none" width="62.141" height="16.86"/>
<g enable-background="new    ">
	<path fill="#E3715D" d="M451.312,263.792h2.376v11.031h5.352v1.989h-7.728V263.792z"/>
	<path fill="#E3715D" d="M471.637,270.167c0,4.366-2.646,6.858-6.24,6.858c-3.67,0-5.988-2.802-5.988-6.626
		c0-3.999,2.512-6.819,6.182-6.819C469.396,263.58,471.637,266.458,471.637,270.167z M461.92,270.36
		c0,2.646,1.332,4.752,3.612,4.752c2.298,0,3.593-2.125,3.593-4.849c0-2.453-1.217-4.771-3.593-4.771
		C463.176,265.492,461.92,267.675,461.92,270.36z"/>
	<path fill="#E3715D" d="M476.006,273.123l-1.12,3.689h-2.453l4.173-13.021h3.033l4.23,13.021h-2.551l-1.178-3.689H476.006z
		 M479.734,271.326l-1.023-3.207c-0.252-0.792-0.464-1.681-0.656-2.434h-0.039c-0.193,0.753-0.387,1.661-0.619,2.434l-1.004,3.207
		H479.734z"/>
	<path fill="#E3715D" d="M485.688,276.812v-13.021h2.705l3.361,5.583c0.869,1.449,1.623,2.956,2.221,4.366h0.039
		c-0.154-1.739-0.213-3.419-0.213-5.409v-4.54h2.203v13.021h-2.453l-3.4-5.718c-0.83-1.43-1.7-3.033-2.338-4.501l-0.058,0.02
		c0.097,1.68,0.116,3.399,0.116,5.544v4.655H485.688z"/>
	<path fill="#E3715D" d="M498.692,274.224c0.772,0.444,1.933,0.831,3.149,0.831c1.525,0,2.375-0.715,2.375-1.777
		c0-0.985-0.656-1.564-2.317-2.163c-2.145-0.773-3.517-1.913-3.517-3.787c0-2.125,1.777-3.747,4.598-3.747
		c1.41,0,2.454,0.309,3.13,0.656l-0.579,1.913c-0.464-0.251-1.372-0.618-2.589-0.618c-1.507,0-2.163,0.812-2.163,1.564
		c0,1.005,0.753,1.468,2.492,2.145c2.26,0.85,3.36,1.989,3.36,3.863c0,2.086-1.584,3.902-4.945,3.902
		c-1.372,0-2.801-0.387-3.516-0.812L498.692,274.224z"/>
</g>
<path fill="#8ABBE6" d="M110.737,302.79c-0.035-17.156-0.031-34.313,0.006-51.47c0-1.333-0.396-2.329-1.264-3.308
	c-4.35-4.917-8.672-9.862-12.952-14.841c-0.443-0.516-0.744-1.312-0.777-1.993c-0.098-2.159-0.03-4.328-0.049-6.492
	c-0.003-0.463-0.103-0.928-0.152-1.329c-1.44-0.429-27.069-0.33-27.992,0.105c-0.031,0.424-0.098,0.899-0.098,1.376
	c-0.013,2.052-0.03,4.105,0.003,6.157c0.016,0.913-0.27,1.631-0.878,2.322c-4.246,4.814-8.432,9.682-12.696,14.473
	c-1.032,1.159-1.47,2.336-1.47,3.905c0.042,27.875,0.03,55.751,0.024,83.629c0,1.081-0.09,2.163-0.109,3.241
	c-0.098,5.036,1.871,9.13,7.302,9.838c0.701,0.091,1.415,0.088,2.125,0.088c13.208,0.006,26.42,0.006,39.632,0.002
	c0.559,0,1.125,0.024,1.677-0.039c0.73-0.084,1.452-0.198,2.163-0.427c0.043-0.016,0.086-0.028,0.132-0.047
	c0.609-0.209,1.208-0.506,1.794-0.958c-0.054-0.031-0.098-0.057-0.15-0.087c1.796-1.421,3.72-3.605,3.72-3.605V306.1
	c0.008-0.121,0.014-0.243,0.014-0.375C110.741,304.75,110.739,303.77,110.737,302.79z"/>
<rect x="451.771" y="245.737" fill="#827C6F" width="33.148" height="6.062"/>
<path fill="#827C6F" d="M167.65,300.669c-1.689,2.22-3.402,4.204-4.814,6.378c-3.827,5.901-6.285,12.362-7.272,19.336
	c-0.125,0.883,0.14,1.935,0.535,2.757c0.586,1.221,1.734,1.276,2.615,0.219c0.499-0.593,0.859-1.306,1.239-1.987
	c1.996-3.587,3.906-7.223,5.987-10.758c1.971-3.359,4.312-6.455,7.254-9.051c1.912-1.687,4.069-2.964,6.696-2.43
	c1.604,0.328,3.226,0.979,4.626,1.835c3.514,2.15,6.002,5.342,8.125,8.805c2.858,4.663,4.857,9.644,5.599,15.109
	c0.723,5.352-1.268,9.485-5.434,12.692c-3.375,2.601-7.308,4.016-11.36,5.121c-6.147,1.677-12.438,2.545-18.776,2.895
	c-7.111,0.392-14.237,0.526-21.36,0.756c-7.924,0.255-15.819-0.061-23.612-1.637c-5.604-1.133-10.972-2.914-15.552-6.516
	c-5.121-4.027-7.666-9.434-8.238-15.813c-0.203-2.287,0.614-4.417,1.737-6.394c2.236-3.937,5.461-6.98,8.933-9.778
	c5.638-4.538,11.837-8.194,18.271-11.462c0.194-0.097,0.406-0.158,0.792-0.085c-0.222,0.301-0.429,0.607-0.663,0.899
	c-3.647,4.598-7.165,9.289-9.54,14.704c-0.607,1.388-1.042,2.879-1.336,4.368c-0.182,0.914-0.054,1.935,0.137,2.865
	c0.167,0.829,0.641,1.579,1.644,1.995c0.212-0.41,0.432-0.78,0.607-1.169c2.662-5.993,6.093-11.463,10.798-16.078
	c5.771-5.664,12.682-9.239,20.53-11.056c0.312-0.073,0.638-0.087,1.289-0.176c-0.374,0.556-0.562,0.881-0.797,1.17
	c-4.619,5.731-8.562,11.864-11.062,18.832c-0.959,2.676-1.725,5.41-1.803,8.28c-0.04,1.407,0.276,1.984,1.182,2.251
	c0.935,0.279,2.059-0.237,2.594-1.288c0.404-0.795,0.695-1.649,1.042-2.475c2.882-6.84,6.791-12.961,12.666-17.635
	c4.546-3.621,9.717-5.641,15.606-5.558C166.888,300.596,167.247,300.638,167.65,300.669z"/>
<text transform="matrix(1 0 0 1 57.7114 293.4287)" fill="#FFFFFF" font-family="'MyriadPro-Semibold'" font-size="22">MILK</text>
<g>
	<rect x="-908.183" y="218.234" fill="none" stroke="#928D81" stroke-miterlimit="10" width="573.934" height="289.823"/>
	<rect x="-908.183" y="91.633" fill="none" stroke="#928D81" stroke-miterlimit="10" width="573.934" height="126.602"/>
	<rect x="-908.183" y="1052.352" fill="none" stroke="#928D81" stroke-miterlimit="10" width="573.934" height="289.823"/>
	<rect x="-908.183" y="925.75" fill="none" stroke="#928D81" stroke-miterlimit="10" width="573.934" height="126.602"/>
	<rect x="-908.183" y="635.928" fill="none" stroke="#928D81" stroke-miterlimit="10" width="573.934" height="289.823"/>
	<rect x="-908.183" y="509.326" fill="none" stroke="#928D81" stroke-miterlimit="10" width="573.934" height="126.602"/>
</g>
<g>
	<rect x="949.417" y="974.218" fill="none" width="160" height="41.814"/>
	<text transform="matrix(1 0 0 1 980.2793 986.4414)" fill="#555555" font-family="'Helvetica'" font-size="17">Cash outflow </text>
	<text transform="matrix(1 0 0 1 990.6602 1006.8408)" fill="#555555" font-family="'Helvetica'" font-size="17">S$ 15,000</text>
	<rect x="949.417" y="541.946" fill="none" width="160" height="42.709"/>
	<text transform="matrix(1 0 0 1 984.0527 554.1689)" fill="#555555" font-family="'Helvetica'" font-size="17">Expenditure </text>
	<text transform="matrix(1 0 0 1 990.6602 574.5684)" fill="#555555" font-family="'Helvetica'" font-size="17">S$ 12,000</text>
	<rect x="687.426" y="541.946" fill="none" width="160" height="42.709"/>
	<text transform="matrix(1 0 0 1 737.1855 554.1689)" fill="#555555" font-family="'Helvetica'" font-size="17">Savings </text>
	<text transform="matrix(1 0 0 1 733.3965 574.5684)" fill="#555555" font-family="'Helvetica'" font-size="17">S$ 3,000</text>
	<rect x="913.143" y="112.772" fill="none" width="232.547" height="60"/>
	<text transform="matrix(1 0 0 1 968.9414 124.9951)" fill="#555555" font-family="'Helvetica'" font-size="17">Debt repayment </text>
	<text transform="matrix(1 0 0 1 995.3867 145.3955)" fill="#555555" font-family="'Helvetica'" font-size="17">S$ 2,000</text>
	<rect x="687.426" y="111.772" fill="none" width="160" height="60"/>
	<text transform="matrix(1 0 0 1 730.0977 123.9951)" fill="#555555" font-family="'Helvetica'" font-size="17">Expenses </text>
	<text transform="matrix(1 0 0 1 728.6699 144.3955)" fill="#555555" font-family="'Helvetica'" font-size="17">S$ 10,000</text>
	<rect x="686.35" y="974.218" fill="none" width="160" height="41.814"/>
	<text transform="matrix(1 0 0 1 720.0508 986.4414)" fill="#555555" font-family="'Helvetica'" font-size="17">Cash intflow </text>
	<text transform="matrix(1 0 0 1 727.5938 1006.8408)" fill="#555555" font-family="'Helvetica'" font-size="17">S$ 30,000</text>
	<rect x="821.928" y="1403.672" fill="none" width="160" height="43.143"/>
	<text transform="matrix(1 0 0 1 853.2676 1415.8945)" fill="#555555" font-family="'Helvetica'" font-size="17">Net cashflow </text>
	<text transform="matrix(1 0 0 1 863.1719 1436.2949)" fill="#555555" font-family="'Helvetica'" font-size="17">S$ 15,000</text>
</g>
<g>
	<g>
		<g>
			<polygon fill="#A09B91" points="1000.68,314.591 1012.328,302.946 1012.328,316.184 1012.328,427.705 1020.289,427.705 
				1000.68,447.31 981.078,427.705 989.036,427.705 989.036,316.184 989.036,302.946 			"/>
		</g>
	</g>
</g>
<path fill="none" stroke="#928D81" stroke-width="22" stroke-miterlimit="10" d="M1002.331,373.128H745.792c0,0-75-1.761-75-64.729"
	/>
<path fill="#A09B91" d="M461.665,502.992V398.431v-6.96v-13.238h-23.406v7.453l0.114,0.156v5.629v45.944H195.129l-0.294,0.004
	c-0.291,0.009-28.842,0.556-47.524-17.589c-10.691-10.384-16.135-25.275-16.182-44.26l-22,0.054
	c0.062,25.136,7.75,45.318,22.854,59.987c23.433,22.759,56.66,23.809,62.572,23.809c0.3,0,0.531-0.002,0.686-0.005h243.131v43.577
	h-7.958l19.603,19.604l19.608-19.604H461.665L461.665,502.992z"/>
<path fill="#A09B91" d="M461.665,919.604V815.043v-6.96v-13.238h-23.406v7.453l0.114,0.156v5.629v45.944H195.129l-0.294,0.004
	c-0.291,0.009-28.842,0.556-47.524-17.589c-10.691-10.384-16.135-25.275-16.182-44.261l-22,0.055
	c0.062,25.136,7.75,45.317,22.854,59.986c23.433,22.76,56.66,23.81,62.572,23.81c0.3,0,0.531-0.002,0.686-0.005h243.131v43.577
	h-7.958l19.603,19.604l19.608-19.604L461.665,919.604L461.665,919.604z"/>
<g>
	<rect x="1.708" y="1.838" fill="#8ABBE6" width="573.934" height="91.633"/>
	<path fill="#827C6F" d="M573.934,3.677v87.956H3.416V3.677H573.934 M577.35,0H0v95.31h577.35V0L577.35,0z"/>
</g>
<g>
	<path fill="#827C6F" d="M574.629,94.633v1099.012H3V94.633H574.629 M577.629,91.633H0v1105.012h577.629V91.633L577.629,91.633z"/>
</g>
</svg>
