<?xml version="1.0" encoding="utf-8"?>
<!-- Generator: Adobe Illustrator 16.0.0, SVG Export Plug-In . SVG Version: 6.00 Build 0)  -->
<!DOCTYPE svg PUBLIC "-//W3C//DTD SVG 1.1//EN" "http://www.w3.org/Graphics/SVG/1.1/DTD/svg11.dtd">
<svg version="1.1" id="Layer_1" xmlns="http://www.w3.org/2000/svg" xmlns:xlink="http://www.w3.org/1999/xlink" x="0px" y="0px"
	 width="748px" height="913.368px" viewBox="0 0 748 913.368" enable-background="new 0 0 748 913.368" xml:space="preserve">
<g>
	<path fill="#E3715D" d="M406.898,253.116c-0.617,0.168-1.357,0.543-2.104,0.547c-7.807,0.043-15.613,0.024-23.607,0.024
		c-0.08-0.901-0.211-1.666-0.213-2.432c-0.018-5.41-0.01-10.82-0.01-16.232c0-0.7,0.021-1.401-0.008-2.104
		c-0.105-2.666-0.602-3.176-3.162-3.297c-0.301-0.017-0.602-0.006-0.902-0.006c-5.609,0-11.223-0.017-16.834,0.006
		c-3.723,0.012-4.059,0.371-4.063,4.198c-0.01,5.511-0.002,11.021-0.002,16.533c0,0.988,0,1.979,0,3.34c-3.039,0-5.908,0-8.779,0
		c-2.906,0-5.814,0.104-8.717-0.03c-2.834-0.129-5.771,0.646-8.437-0.591c-0.577-2.506-0.784-46.006-0.27-51.45
		c12.754-11.295,25.645-22.711,38.703-34.277c12.934,11.455,25.874,22.916,38.653,34.236
		C407.68,206.464,407.488,250.622,406.898,253.116z"/>
	<path fill="#827C6F" d="M368.498,159.548c-16.758,14.834-33.334,29.506-49.974,44.234c-1.844-2.07-3.639-4.084-5.668-6.365
		c18.496-16.377,36.978-32.736,55.646-49.265c18.684,16.55,37.11,32.869,55.604,49.25c-1.938,2.199-3.707,4.216-5.619,6.392
		C401.779,189.007,385.17,174.303,368.498,159.548z"/>
	<path fill="#827C6F" d="M342.919,163.648c-4.451,4.025-8.662,7.83-13.152,11.89c0-6.867,0-13.377,0-20.072c4.416,0,8.845,0,13.57,0
		C343.197,158.255,343.06,160.913,342.919,163.648z"/>
</g>
<g>
	<g>
		<path fill="#E3715D" d="M320,449.667c-2.468-0.926-3.206-2.769-3.184-5.308c0.088-8.84,0.009-17.674,0.046-26.508
			c0.018-4.479-0.517-9.021,1.668-13.494c-1.675,0-3.068,0.027-4.459-0.008c-2.268-0.041-3.293-1.428-2.651-3.602
			c0.387-1.312,0.836-2.604,1.333-3.882c0.903-2.325,2.96-3.645,5.583-3.678c1.315-0.021,2.962,0.373,3.854-0.27
			c0.895-0.635,1.051-2.326,1.502-3.562c2.321-6.336,4.65-12.666,6.945-19.01c1.107-3.061,3.348-5.014,6.143-6.449
			c4.912-2.522,10.192-3.615,15.648-4.057c8.994-0.728,18-0.76,27.007-0.254c6.229,0.344,12.393,1.082,18.189,3.649
			c3.484,1.543,5.92,3.896,7.203,7.613c2.416,7.002,5.115,13.902,7.6,20.881c0.422,1.195,0.98,1.513,2.178,1.498
			c1.904-0.029,3.945-0.496,5.641,0.814c0.812,0.629,1.684,1.381,2.133,2.271c0.74,1.49,1.264,3.105,1.691,4.721
			c0.521,1.968-0.557,3.244-2.623,3.312c-0.703,0.029-1.414,0.008-2.119,0.014c-0.703,0-1.408,0-2.326,0
			c0.166,0.531,0.346,0.912,0.414,1.32c0.4,2.283,1.076,4.576,1.098,6.867c0.125,10.604,0.01,21.205,0.094,31.809
			c0.012,2.531-0.723,4.383-3.188,5.31c-5.389,0-10.781,0-16.164,0c-2.441-0.834-3.402-2.574-3.223-5.107
			c0.107-1.531-0.076-3.092,0.047-4.627c0.119-1.387-0.379-1.676-1.697-1.668c-16.504,0.041-33.005,0.027-49.506,0.027
			c-1.456,0-2.916,0.032-4.37-0.015c-0.848-0.029-1.183,0.24-1.153,1.125c0.057,1.719-0.075,3.441,0.036,5.154
			c0.166,2.541-0.777,4.273-3.224,5.107C330.779,449.667,325.387,449.667,320,449.667z M404.467,394.93
			c-0.188-0.781-0.262-1.209-0.396-1.615c-2.184-6.655-4.33-13.323-6.619-19.942c-0.318-0.937-1.25-1.773-2.094-2.379
			c-0.803-0.57-1.838-0.841-2.811-1.127c-5.082-1.484-10.326-1.992-15.562-2.074c-7.728-0.121-15.457-0.037-23.17,0.297
			c-3.719,0.162-7.422,0.986-11.085,1.719c-2.646,0.523-4.589,1.967-5.473,4.775c-1.267,4.035-2.859,7.963-4.179,11.979
			c-0.86,2.623-1.481,5.33-2.307,8.359C355.452,400.139,379.859,400.189,404.467,394.93z M334.471,421.945
			c0.007-0.125,0.017-0.239,0.021-0.364c2.379,0,4.764,0.084,7.139-0.021c2.671-0.109,4.079-1.73,3.555-3.959
			c-0.329-1.416-1.45-2.195-2.671-2.748c-3.45-1.553-6.908-3.092-10.417-4.514c-2.167-0.885-4.42-1.533-6.829-1.035
			c-1.58,0.324-2.461,1.076-2.665,2.678c-0.172,1.346-0.181,2.728-0.188,4.086c-0.025,3.113,0.862,4.39,3.938,4.958
			C329.022,421.518,331.762,421.648,334.471,421.945z M400.879,421.581c0,0.062,0,0.116,0,0.18c0.262,0,0.529,0.014,0.793-0.008
			c2.982-0.193,6.004,0.014,8.863-1.181c1.643-0.69,2.504-1.856,2.48-3.659c-0.014-1.015,0.008-2.029-0.006-3.043
			c-0.041-3.748-1.576-5.101-5.312-4.707c-0.184,0.02-0.354,0.041-0.523,0.09c-1.236,0.324-2.52,0.531-3.688,1.014
			c-3.582,1.479-7.164,2.969-10.646,4.668c-1.049,0.51-2.133,1.58-2.533,2.648c-0.793,2.119,0.779,3.854,3.434,3.977
			C396.115,421.665,398.496,421.581,400.879,421.581z"/>
	</g>
	<g>
		<path fill="#827C6F" d="M339.656,438.48c-0.005-0.065-0.02-0.133-0.02-0.196H316.85c-0.006,2.022-0.016,4.051-0.032,6.075
			c-0.023,2.539,0.715,4.382,3.183,5.308h16.166c2.442-0.834,3.39-2.566,3.224-5.107c-0.111-1.713,0.021-3.438-0.036-5.154
			C339.337,438.932,339.442,438.65,339.656,438.48z"/>
	</g>
	<path fill="#827C6F" d="M418.58,438.284h-22.938c-0.008,0.028-0.016,0.057-0.021,0.086c-0.002,0.035-0.004,0.069-0.008,0.104
		c0.389,0.224,0.535,0.648,0.467,1.455c-0.123,1.535,0.062,3.096-0.047,4.627c-0.184,2.533,0.775,4.273,3.223,5.107h16.164
		c2.465-0.927,3.197-2.775,3.188-5.308C418.59,442.335,418.584,440.309,418.58,438.284z"/>
</g>
<g>
	<rect x="1284.318" y="158.788" fill="none" width="194" height="64.756"/>
	<text transform="matrix(1 0 0 1 1284.3184 180.3579)" fill="#303030" font-family="'Helvetica-Bold'" font-size="30">Cash</text>
	<text transform="matrix(1 0 0 1 1284.3184 216.3579)" fill="#303030" font-family="'Helvetica'" font-size="30">$S30,000</text>
	<rect x="897.318" y="379.054" fill="none" width="132.012" height="104.986"/>
	<text transform="matrix(1 0 0 1 909.2422 422.1938)" fill="#827C6F" font-family="'Helvetica-Bold'" font-size="60">28%</text>
	<rect x="897.318" y="175.765" fill="none" width="132.012" height="104.985"/>
	<text transform="matrix(1 0 0 1 942.6113 218.9048)" fill="#827C6F" font-family="'Helvetica-Bold'" font-size="60">1%</text>
	<rect x="897.318" y="784.053" fill="none" width="132.012" height="104.984"/>
	<text transform="matrix(1 0 0 1 909.2422 827.1938)" fill="#827C6F" font-family="'Helvetica-Bold'" font-size="60">40%</text>
	<rect x="897.318" y="581.764" fill="none" width="132.012" height="104.984"/>
	<text transform="matrix(1 0 0 1 942.6113 624.9048)" fill="#827C6F" font-family="'Helvetica-Bold'" font-size="60">6%</text>
	<rect x="897.318" y="1191.053" fill="none" width="132.012" height="104.984"/>
	<text transform="matrix(1 0 0 1 942.6113 1234.1938)" fill="#827C6F" font-family="'Helvetica-Bold'" font-size="60">6%</text>
	<rect x="897.318" y="988.764" fill="none" width="132.012" height="104.984"/>
	<text transform="matrix(1 0 0 1 909.2422 1031.9048)" fill="#827C6F" font-family="'Helvetica-Bold'" font-size="60">19%</text>
	<rect x="1284.318" y="362.275" fill="none" width="194" height="64.756"/>
	<text transform="matrix(1 0 0 1 1284.3184 383.8462)" fill="#303030" font-family="'Helvetica-Bold'" font-size="30">Pension</text>
	<text transform="matrix(1 0 0 1 1284.3184 419.8462)" fill="#303030" font-family="'Helvetica'" font-size="30">$S30,000</text>
	<rect x="1284.318" y="565.02" fill="none" width="194" height="64.758"/>
	<text transform="matrix(1 0 0 1 1284.3184 586.5903)" fill="#303030" font-family="'Helvetica-Bold'" font-size="30">Stock </text>
	<text transform="matrix(1 0 0 1 1284.3184 622.5903)" fill="#303030" font-family="'Helvetica'" font-size="30">$S30,000</text>
	<rect x="1284.318" y="769.249" fill="none" width="194" height="64.756"/>
	<text transform="matrix(1 0 0 1 1284.3184 790.8169)" fill="#303030" font-family="'Helvetica-Bold'" font-size="30">Property</text>
	<text transform="matrix(1 0 0 1 1284.3184 826.8169)" fill="#303030" font-family="'Helvetica'" font-size="30">$S30,000</text>
	<rect x="1284.318" y="972.735" fill="none" width="194" height="64.756"/>
	<text transform="matrix(1 0 0 1 1284.3184 994.3032)" fill="#303030" font-family="'Helvetica-Bold'" font-size="30">Car</text>
	<text transform="matrix(1 0 0 1 1284.3184 1030.3032)" fill="#303030" font-family="'Helvetica'" font-size="30">$S30,000</text>
	<rect x="1274.318" y="1178.444" fill="none" width="194" height="64.756"/>
	<text transform="matrix(1 0 0 1 1274.3184 1200.0142)" fill="#303030" font-family="'Helvetica-Bold'" font-size="30">Others</text>
	<text transform="matrix(1 0 0 1 1274.3184 1236.0142)" fill="#303030" font-family="'Helvetica'" font-size="30">$S30,000</text>
</g>
<rect x="-878.831" y="97.646" fill="none" stroke="#827C6F" stroke-width="4" stroke-miterlimit="10" width="670.831" height="203.487"/>
<rect x="-878.831" y="301.132" fill="none" stroke="#827C6F" stroke-width="4" stroke-miterlimit="10" width="670.831" height="203.488"/>
<rect x="-878.831" y="504.62" fill="none" stroke="#827C6F" stroke-width="4" stroke-miterlimit="10" width="670.831" height="203.486"/>
<rect x="-878.831" y="708.106" fill="none" stroke="#827C6F" stroke-width="4" stroke-miterlimit="10" width="670.831" height="203.484"/>
<rect x="-1338.831" y="197.166" fill="none" stroke="#827C6F" stroke-width="4" stroke-miterlimit="10" width="670.831" height="203.487"/>
<rect x="-1338.831" y="400.653" fill="none" stroke="#827C6F" stroke-width="4" stroke-miterlimit="10" width="670.831" height="203.486"/>
<rect x="-1338.831" y="604.139" fill="none" stroke="#827C6F" stroke-width="4" stroke-miterlimit="10" width="670.831" height="203.486"/>
<rect x="-1338.831" y="807.625" fill="none" stroke="#827C6F" stroke-width="4" stroke-miterlimit="10" width="670.831" height="203.486"/>
<g>
	<rect x="39.59" y="2" fill="#E3715D" width="672.064" height="99.675"/>
	<path fill="#827C6F" d="M709.654,4v95.675H41.59V4H709.654 M713.654,0H37.59v103.675h676.064V0L713.654,0z"/>
</g>
<rect x="946.324" y="36.675" fill="none" width="450.756" height="47.407"/>
<text transform="matrix(1 0 0 1 1091.6826 65.436)" fill="#FFFFFF" font-family="'Helvetica-Bold'" font-size="40">ASSETS</text>
<g>
	<path fill="#E3715D" d="M289.322,579.674c4.321-1.094,8.651-2.154,12.961-3.291c7.527-1.982,15.04-4.037,22.568-6.014
		c3.747-0.982,7.532-1.82,11.281-2.797c8.28-2.156,16.545-4.367,24.821-6.537c2.708-0.711,5.414-1.449,8.155-2.006
		c1.049-0.215,2.299-0.246,3.274,0.121c9.111,3.428,18.178,6.979,27.271,10.457c8.547,3.27,17.113,6.479,25.66,9.754
		c6.053,2.316,12.081,4.693,18.117,7.057c1.318,0.516,2.625,1.062,4.205,1.705c-6.15,2.324-12.053,4.553-17.848,6.742
		c0.865,1.945,1.709,3.775,2.5,5.633c1.512,3.543,1.094,7.186,0.324,10.773c-0.623,2.902-1.57,5.736-2.293,8.625
		c-0.141,0.555-0.078,1.309,0.2,1.785c1.454,2.494,1.356,4.928-0.961,6.486c-1.483,1-1.565,2.049-1.368,3.412
		c0.659,4.586,1.914,8.957,4.84,12.678c0.516,0.654,1.114,1.24,1.854,2.059c-2.7,1.17-5.2,3.02-8.334,3.09
		c-1.996,0.041-2.727-1.787-3.459-3.225c-3.021-5.922-2.623-11.889,0.189-17.746c0.424-0.885,0.438-1.387,0.032-2.244
		c-0.995-2.117-0.149-4.697,1.755-6.016c0.322-0.227,0.762-0.48,0.859-0.811c1.576-5.277,3.227-10.596,1.822-16.158
		c-0.482-1.912-1.613-3.686-2.609-5.43c-0.223-0.393-1.236-0.701-1.697-0.531c-5.301,1.945-10.557,4.006-15.834,6.002
		c-3.998,1.512-8.021,2.967-12.023,4.463c-7.621,2.852-15.262,5.65-22.837,8.617c-1.539,0.605-2.754,0.352-4.078-0.256
		c-7.229-3.314-14.452-6.645-21.689-9.941c-9.093-4.141-18.193-8.262-27.299-12.379c-5.84-2.641-11.692-5.252-17.535-7.889
		c-4.264-1.924-8.518-3.867-12.774-5.801C289.359,579.936,289.341,579.805,289.322,579.674z"/>
	<path fill="#827C6F" d="M325.639,599.774c8.345,3.803,16.447,7.492,24.552,11.188c6.382,2.91,12.741,5.865,19.163,8.688
		c0.87,0.383,2.146,0.393,3.048,0.062c8.151-2.947,16.271-5.986,24.383-9.045c5.158-1.947,10.287-3.973,15.711-6.074
		c2.336,8.139,2.664,16.221,0.672,24.646c-18.951-4.625-34.768,0.646-47.711,15.188c-4.671-7.734-10.424-14.223-18.362-18.559
		c-7.899-4.314-16.359-5.785-25.467-5.248C321.278,613.436,323.104,606.657,325.639,599.774z"/>
</g>
<g>
	<path fill="#E3715D" d="M435.555,772.252c0,23.582,0,47.164,0,70.744c-0.171,0.385-0.358,0.764-0.509,1.156
		c-1.222,3.254-4.279,5.393-7.771,5.393c-39.197,0.004-78.396,0.004-117.596,0c-3.55,0-6.601-2.174-7.808-5.518
		c-0.128-0.355-0.312-0.689-0.471-1.031c0-23.58,0-47.162,0-70.744c0.157-0.342,0.343-0.676,0.471-1.031
		c1.207-3.344,4.257-5.516,7.807-5.518c39.198-0.002,78.396-0.002,117.597,0c3.55,0.002,6.601,2.174,7.808,5.518
		C435.211,771.577,435.396,771.911,435.555,772.252z M309.844,841.069c39.164,0,78.212,0,117.265,0c0-11.168,0-22.242,0-33.373
		c-39.11,0-78.159,0-117.265,0C309.844,818.84,309.844,829.915,309.844,841.069z M309.843,790.76c39.167,0,78.213,0,117.264,0
		c0-5.578,0-11.062,0-16.602c-39.111,0-78.159,0-117.264,0C309.843,779.715,309.843,785.198,309.843,790.76z"/>
	<path fill="#E3715D" d="M343.231,832.721c-8.367,0-16.644,0-24.988,0c0-5.537,0-11.02,0-16.605c8.281,0,16.587,0,24.988,0
		C343.231,821.588,343.231,827.102,343.231,832.721z"/>
	<path fill="#E3715D" d="M376.914,832.715c0-2.775,0-5.463,0-8.234c2.748,0,5.466,0,8.259,0c0,2.736,0,5.453,0,8.234
		C382.432,832.715,379.746,832.715,376.914,832.715z"/>
	<path fill="#E3715D" d="M401.924,832.721c-2.779,0-5.466,0-8.222,0c0-2.742,0-5.432,0-8.223c2.689,0,5.409,0,8.222,0
		C401.924,827.18,401.924,829.897,401.924,832.721z"/>
	<path fill="#E3715D" d="M418.705,832.754c-2.787,0-5.442,0-8.201,0c0-2.74,0-5.459,0-8.27c2.688,0,5.403,0,8.201,0
		C418.705,827.208,418.705,829.924,418.705,832.754z"/>
	<path fill="#827C6F" d="M427.105,790.76c-39.051,0-78.098,0-117.264,0v19.855l0,0c0-0.977,0-1.945,0-2.92
		c39.104,0,78.152,0,117.265,0v-20.08h-0.001C427.105,788.665,427.105,789.706,427.105,790.76z"/>
</g>
<path fill="#827C6F" d="M713.654,97.646H37.323v811.722h-0.021v4h0.021h676.312h0.021L713.654,97.646z M41.323,100.318h668.331
	v809.05H41.323V100.318z"/>
</svg>
