<?xml version="1.0" encoding="utf-8"?>
<!-- Generator: Adobe Illustrator 16.0.0, SVG Export Plug-In . SVG Version: 6.00 Build 0)  -->
<!DOCTYPE svg PUBLIC "-//W3C//DTD SVG 1.1//EN" "http://www.w3.org/Graphics/SVG/1.1/DTD/svg11.dtd">
<svg version="1.1" id="Layer_1" xmlns="http://www.w3.org/2000/svg" xmlns:xlink="http://www.w3.org/1999/xlink" x="0px" y="0px"
	 width="500px" height="465px" viewBox="0 0 500 465" enable-background="new 0 0 500 465" xml:space="preserve">
<path fill="#E3715D" d="M420.751,389.925c-0.392,0-0.774,0.03-1.151,0.076c-2.35-12.651-10.909-23.44-22.805-29.819
	c-3.571,6.354-10.373,10.65-18.182,10.65c-9.546,0-17.587-6.419-20.059-15.174c-0.126,0.031-0.253-0.68-0.378-0.646
	c-2.848-2.226-6.739-4.652-10.479-8.102c-0.95-0.876-2.257-2.084-3.56-2.379c-1.432-0.323-2.155,0.746-2.416,2.007
	c-0.544,2.639-0.191,5.549-0.288,8.223c-0.106,2.99-0.202,5.982-0.302,8.976c-6.439,4.682-11.489,10.812-14.539,17.826h-8.413
	c-2.853,0-5.165,2.312-5.165,5.164v16.973c0,2.853,2.312,5.165,5.165,5.165h7.016c3.164,9.874,10.194,18.304,19.55,23.905v11.021
	c0,1.631,1.321,2.952,2.952,2.952h11.313c1.63,0,2.951-1.321,2.951-2.952v-4.578c3.177,0.581,6.468,0.889,9.839,0.889
	c3.373,0,6.661-0.315,9.838-0.897v4.588c0,1.631,1.322,2.952,2.952,2.952h10.577c1.63,0,2.951-1.321,2.951-2.952v-10.603
	c11.786-6.796,20.046-18.01,21.783-31.006c0.277,0.023,0.56,0.039,0.846,0.039c4.211,0,7.625-2.754,7.625-6.148
	S424.962,389.925,420.751,389.925z M345.208,385.927c-3.619,0-6.644-2.515-7.442-5.89c0.993,1.402,2.627,2.32,4.478,2.32
	c3.031,0,5.488-2.457,5.488-5.487s-2.457-5.487-5.488-5.487c-0.136,0-0.269,0.012-0.4,0.02c1.018-0.498,2.157-0.786,3.366-0.786
	c4.229,0,7.656,3.427,7.656,7.655C352.864,382.5,349.438,385.927,345.208,385.927z"/>
<path fill="#827C6F" d="M379.425,347.133v4.932c0.656-0.084,1.134-0.235,1.436-0.455c0.522-0.387,0.784-1.055,0.784-2.004
	c0-0.724-0.244-1.295-0.735-1.715C380.617,347.646,380.123,347.395,379.425,347.133z"/>
<g>
	<path fill="#FED82F" d="M122.544,456.789l-2.414-1.304c-19.647-10.612-33.512-22.45-41.207-35.188
		c-5.771-9.551-5.957-16.346-5.935-17.621v-58.294l6.081,1.225c2.961,0.599,6.03,0.9,9.12,0.9c17.543,0,31.284-9.693,31.42-9.792
		l3.198-2.289l3.026,2.517c0.011,0.01,2.932,2.385,8.182,4.721c4.797,2.134,12.602,4.676,22.534,4.676h0.001
		c3.177,0,6.433-0.259,9.679-0.768l5.867-0.926v58.029c0.022,1.275-0.162,8.069-5.935,17.622
		c-7.695,12.736-21.559,24.574-41.206,35.188L122.544,456.789z M83.145,402.911c0.021,0.63,0.343,5.665,5.033,13.043
		c8.027,12.623,22.66,22.695,34.366,29.268c11.707-6.571,26.339-16.645,34.366-29.268c4.746-7.466,5.019-12.533,5.034-13.063
		l-0.011-0.147l0.011-0.011V356.29c-1.809,0.138-3.609,0.208-5.391,0.208c-0.001,0-0.001,0-0.002,0
		c-16.884-0.001-28.792-6.128-34.117-9.545c-5.669,3.354-18.498,9.711-34.243,9.711c-1.688,0-3.374-0.073-5.045-0.223
		L83.145,402.911L83.145,402.911z"/>
</g>
<g>
	<path fill="#827C6F" d="M122.544,445.98l-1.987-1.073c-16.176-8.737-27.591-18.483-33.928-28.97
		c-4.751-7.864-4.904-13.459-4.886-14.51v-47.996l5.006,1.01c2.439,0.492,4.965,0.74,7.509,0.74c14.444,0,25.757-7.979,25.87-8.062
		l2.633-1.886l2.492,2.072c0.01,0.008,2.414,1.963,6.736,3.887c3.95,1.757,10.375,3.851,18.553,3.851c0.001,0,0.001,0,0.002,0
		c2.615,0,5.296-0.213,7.969-0.633l4.831-0.763v47.778c0.018,1.052-0.134,6.645-4.886,14.511
		c-6.336,10.485-17.751,20.231-33.927,28.97L122.544,445.98z"/>
</g>
<g>
	<path fill="#FFFFFF" d="M124.292,425.93h-3.495v-7.17c-4.732-0.527-8.263-1.562-10.593-3.099
		c-4.107-2.763-6.125-7.472-6.053-14.124h9.728c0.336,3.025,0.805,5.057,1.405,6.089c0.937,1.608,2.774,2.653,5.513,3.135v-15.386
		l-2.918-0.864c-4.588-1.345-7.825-3.219-9.71-5.62c-1.886-2.401-2.828-5.297-2.828-8.685c0-2.233,0.366-4.263,1.099-6.088
		c0.732-1.826,1.759-3.4,3.081-4.722c1.705-1.705,3.603-2.881,5.692-3.53c1.273-0.408,3.135-0.708,5.585-0.9v-4.792h3.495v4.863
		c3.897,0.312,6.957,1.273,9.181,2.883c4.041,2.57,6.132,6.738,6.276,12.503h-9.476c-0.19-2.139-0.546-3.698-1.068-4.685
		c-0.902-1.705-2.54-2.643-4.913-2.811v13.729c5.691,1.969,9.518,3.711,11.479,5.225c3.227,2.521,4.842,6.076,4.842,10.664
		c0,6.055-2.223,10.449-6.666,13.188c-2.714,1.683-5.933,2.666-9.656,2.955V425.93z M120.796,373.001
		c-2.09,0.048-3.639,0.606-4.648,1.675c-1.009,1.069-1.513,2.528-1.513,4.378c0,2.019,0.757,3.615,2.27,4.792
		c0.84,0.648,2.137,1.249,3.891,1.803V373.001z M124.292,410.652c1.875-0.239,3.241-0.672,4.097-1.297
		c1.497-1.105,2.245-3.016,2.245-5.729c0-2.065-0.701-3.698-2.102-4.899c-0.831-0.696-2.244-1.418-4.239-2.162L124.292,410.652
		L124.292,410.652z"/>
</g>
<g>
	<g>
		<g>
			<g>
				<path fill="#928D81" d="M753.26,159.71c2.118-1.74,4.223-3.571,6.252-5.524c1.027-0.974,2.022-1.982,3.019-3.032
					c0.492-0.53,0.991-1.055,1.472-1.624c0.241-0.286,0.486-0.552,0.724-0.862c0.236-0.33,0.479-0.556,0.705-1.04
					c0.029,0.924,0.027,1.456,0.027,2.135l-0.023,1.897c-0.032,1.24-0.079,2.472-0.149,3.689c-0.144,2.438-0.341,4.854-0.623,7.259
					c-1.213,10.526-3.618,20.975-7.668,31.102c-2.039,5.049-4.437,10.027-7.41,14.761c-2.963,4.734-6.418,9.239-10.339,13.375
					c-3.938,4.131-8.436,7.757-13.202,10.925l-3.663,2.241c-1.226,0.739-2.522,1.328-3.786,1.991l-1.909,0.963
					c-0.636,0.32-1.302,0.56-1.952,0.841l-3.93,1.612c-5.308,1.851-10.715,3.388-16.137,4.201l-4.021,0.646l-3.295,0.478
					c-1.106,0.138-2.17,0.368-3.254,0.555c-1.081,0.188-2.16,0.384-3.208,0.636c-8.508,1.771-16.368,4.688-22.771,8.944
					c-3.199,2.136-6.026,4.612-8.474,7.452c-2.438,2.847-4.483,6.081-6.194,9.636c-3.425,7.114-5.427,15.503-6.567,24.293
					l-0.38,3.325l-0.075,0.666l-0.021,0.249l-0.087,1.001l-0.173,2l7.938,0.629c-6.981,5.292-13.703,11.487-20.21,18.041
					c-6.558-6.516-12.938-13.396-18.879-21.135l7.934,0.628l0.198-2.29l0.1-1.145l0.025-0.287l0.087-0.775l0.444-3.88
					c1.363-10.349,3.729-21.065,8.686-31.429c2.477-5.154,5.625-10.174,9.484-14.674c3.854-4.498,8.376-8.441,13.221-11.668
					c4.846-3.238,9.988-5.776,15.174-7.776c5.191-2.013,10.437-3.48,15.646-4.579c1.306-0.307,2.604-0.543,3.903-0.772
					c1.3-0.226,2.604-0.497,3.896-0.663l3.885-0.561l3.137-0.515c4.152-0.604,8.07-1.773,11.896-3.07l2.775-1.149
					c0.459-0.198,0.94-0.354,1.382-0.585l1.322-0.68c0.872-0.468,1.796-0.856,2.636-1.375l2.521-1.545
					c3.268-2.195,6.357-4.648,9.096-7.526c2.726-2.89,5.188-6.081,7.36-9.54c2.181-3.455,3.993-7.227,5.575-11.135
					c3.143-7.834,5.152-16.392,6.145-25.068c0.233-1.978,0.396-3.961,0.511-5.928c0.058-0.985,0.094-1.958,0.12-2.924l0.019-1.412
					l-0.01-1.174c0.243,0.001,0.488,0.261,0.733,0.416c0.246,0.175,0.486,0.394,0.73,0.593c0.49,0.402,0.963,0.847,1.442,1.287
					c0.948,0.89,1.898,1.823,2.814,2.787C749.736,155.548,751.516,157.586,753.26,159.71z"/>
			</g>
		</g>
	</g>
	<g>
		<g>
			<g>
				<path fill="#928D81" d="M754.362,159.71c1.745-2.124,3.523-4.162,5.383-6.087c0.916-0.963,1.867-1.897,2.815-2.787
					c0.479-0.44,0.953-0.886,1.443-1.288c0.243-0.199,0.483-0.418,0.729-0.593c0.245-0.155,0.491-0.415,0.734-0.416l-0.01,1.174
					l0.018,1.412c0.027,0.966,0.063,1.939,0.121,2.924c0.115,1.967,0.276,3.951,0.509,5.928c0.993,8.676,3.004,17.234,6.146,25.068
					c1.582,3.909,3.395,7.681,5.575,11.136c2.173,3.459,4.636,6.65,7.359,9.54c2.739,2.878,5.83,5.332,9.098,7.527l2.522,1.545
					c0.839,0.519,1.763,0.907,2.635,1.375l1.323,0.68c0.44,0.229,0.923,0.386,1.381,0.585l2.776,1.149
					c3.825,1.297,7.744,2.466,11.896,3.069l3.137,0.516l3.884,0.56c1.291,0.167,2.597,0.438,3.896,0.663
					c1.3,0.23,2.6,0.467,3.904,0.773c5.208,1.098,10.452,2.565,15.645,4.579c5.186,2,10.328,4.537,15.174,7.775
					c4.844,3.227,9.364,7.17,13.221,11.668c3.858,4.5,7.007,9.519,9.483,14.672c4.955,10.362,7.319,21.08,8.685,31.428l0.444,3.881
					l0.087,0.775l0.025,0.285l0.1,1.146l0.198,2.29l7.937-0.628c-5.945,7.737-12.326,14.62-18.885,21.135
					c-6.506-6.554-13.225-12.749-20.204-18.041l7.934-0.628l-0.173-2.001l-0.086-1l-0.021-0.25l-0.076-0.665l-0.379-3.325
					c-1.143-8.79-3.145-17.179-6.567-24.292c-1.711-3.556-3.757-6.789-6.194-9.636c-2.445-2.84-5.271-5.317-8.473-7.451
					c-6.4-4.258-14.262-7.175-22.769-8.946c-1.048-0.25-2.127-0.443-3.209-0.635c-1.083-0.186-2.146-0.416-3.253-0.554l-3.295-0.478
					l-4.022-0.646c-5.421-0.813-10.829-2.353-16.137-4.201l-3.932-1.612c-0.649-0.281-1.314-0.521-1.95-0.842l-1.909-0.962
					c-1.263-0.663-2.562-1.252-3.786-1.991l-3.663-2.241c-4.768-3.169-9.266-6.794-13.203-10.925
					c-3.922-4.137-7.376-8.642-10.34-13.376c-2.975-4.734-5.37-9.713-7.411-14.762c-4.049-10.127-6.455-20.577-7.668-31.103
					c-0.281-2.405-0.48-4.821-0.622-7.259c-0.07-1.217-0.117-2.449-0.151-3.689l-0.022-1.897c0.001-0.679-0.001-1.211,0.028-2.136
					c0.226,0.484,0.468,0.71,0.703,1.04c0.238,0.311,0.482,0.577,0.726,0.863c0.479,0.568,0.979,1.093,1.471,1.624
					c0.994,1.05,1.99,2.058,3.019,3.033C750.143,156.139,752.245,157.971,754.362,159.71z"/>
			</g>
		</g>
	</g>
</g>
<path fill="#827C6F" d="M196.288,49.472c0.532-1.87,1.863-3.155,3.198-4.462c7.174-7.024,14.343-14.055,21.478-21.12
	c1.951-1.932,4.229-2.843,6.955-2.841c17.835,0.015,35.671-0.002,53.508,0.013c7.117,0.007,12.407,5.354,12.417,12.497
	c0.004,2.585,0.605,5.388-0.205,7.689c-0.796,2.248-3.041,3.983-4.656,5.94c-1.428,1.73-2.889,3.438-4.284,5.195
	c-0.601,0.755-1.054,1.626-1.616,2.412c-0.3,0.419-0.693,0.771-1.332,1.03c0-0.486,0-0.975,0-1.462
	c0.001-6.354,0.006-12.71,0.003-19.064c0-1.909-0.239-2.148-2.095-2.148c-15.124-0.002-30.248-0.002-45.374-0.002
	c-0.418,0-0.835,0-1.446,0c0,0.534,0,0.98,0,1.427c0,4.787,0.01,9.575-0.002,14.362c-0.014,5.191-3.416,8.599-8.6,8.613
	c-4.745,0.012-9.49,0.003-14.235,0.003c-0.459,0-0.919,0-1.566,0c0,0.539,0,0.986,0,1.434c0,20.547,0,41.095,0.001,61.642
	c0,1.861,0.251,2.108,2.137,2.108c23.005,0,46.01-0.002,69.015-0.005c1.96,0,2.16-0.206,2.161-2.199
	c0.004-5.847-0.004-11.693,0.021-17.539c0.002-0.471,0.069-1.079,0.358-1.389c3.815-4.08,7.679-8.117,11.622-12.263
	c0.037,0.372,0.091,0.676,0.091,0.978c0.005,10.762,0.022,21.522-0.003,32.284c-0.016,6.802-5.395,12.211-12.184,12.217
	c-24.318,0.021-48.637,0.017-72.955,0.002c-6.188-0.004-10.965-4.037-12.154-10.16c-0.047-0.245-0.17-0.474-0.257-0.709
	C196.288,99.126,196.288,74.299,196.288,49.472z"/>
<g>
	<path fill="#E3715D" d="M286.426,61.417c4.287,3.556,8.52,7.062,12.857,10.661c-1.912,2.239-3.75,4.441-5.643,6.595
		c-8.945,10.192-18.106,20.179-28.429,29.017c-2.37,2.03-4.981,3.785-7.535,5.589c-0.707,0.5-1.585,0.8-2.426,1.055
		c-1.306,0.395-2.129-0.261-1.924-1.618c0.187-1.242,0.429-2.553,1.006-3.644c2.688-5.077,5.271-10.234,8.319-15.093
		c7.024-11.203,15.012-21.729,23.314-32.013C286.104,61.803,286.236,61.643,286.426,61.417z"/>
	<path fill="#E3715D" d="M302.513,68.221c-4.38-3.63-8.606-7.136-12.92-10.71c2.263-2.72,4.423-5.423,6.693-8.029
		c3.335-3.826,6.664-7.664,10.171-11.33c1.527-1.597,3.401-2.913,5.273-4.111c1.975-1.263,4.058-0.963,5.939,0.403
		c1.768,1.283,3.492,2.69,3.694,5.05c0.098,1.136-0.131,2.355-0.474,3.456c-0.357,1.156-0.94,2.267-1.575,3.305
		C314.505,54.117,308.271,60.884,302.513,68.221z"/>
</g>
<path fill="#827C6F" d="M245.092,65.795c7.493,0,14.984,0,22.475,0.002c1.72,0,1.875,0.162,1.875,1.895
	c0,0.762-0.113,1.545,0.024,2.281c0.285,1.511-0.587,2.498-1.45,3.467c-0.246,0.276-0.816,0.367-1.238,0.369
	c-11.895,0.018-23.787,0.015-35.681,0.014c-2.92,0-5.841-0.029-8.762,0.013c-1.134,0.017-1.631-0.413-1.6-1.564
	c0.044-1.607,0.003-3.217,0.013-4.825c0.008-1.427,0.24-1.647,1.741-1.648C230.024,65.794,237.558,65.795,245.092,65.795z"/>
<path fill="#827C6F" d="M261.753,82.063c-1.755,2.677-3.378,5.186-5.055,7.66c-0.16,0.237-0.649,0.354-0.985,0.354
	c-11.176,0.017-22.353,0.008-33.528,0.02c-1.018,0-1.468-0.421-1.448-1.449c0.033-1.65,0.051-3.303-0.005-4.952
	c-0.042-1.206,0.445-1.65,1.647-1.647c9.186,0.026,18.373,0.014,27.558,0.014C253.789,82.062,257.641,82.063,261.753,82.063z"/>
<path fill="#827C6F" d="M238.076,106.078c1.311-1.018,2.533-1.983,3.773-2.926c1.587-1.206,2.873-1.279,4.565-0.255
	c0.972,0.588,1.923,1.211,2.811,1.771c-0.774,2.383-1.514,4.659-2.256,6.942c-0.032-0.008-0.14-0.001-0.191-0.051
	c-1.669-1.612-3.123-1.156-4.569,0.375c-0.632,0.669-1.439,1.175-2.187,1.729c-1.772,1.316-3.594,1.181-5.112-0.419
	c-1.624-1.711-3.209-3.461-4.941-5.334c-0.875,1.67-1.64,3.205-2.474,4.703c-0.752,1.35-2.226,2.068-3.611,1.853
	c-1.542-0.24-2.756-1.274-2.996-2.864c-0.118-0.777,0.023-1.713,0.367-2.422c1.476-3.039,3.04-6.038,4.633-9.018
	c1.315-2.46,4.091-2.794,6.02-0.749C233.961,101.589,235.978,103.806,238.076,106.078z"/>
<path fill="#827C6F" d="M257.206,49.417c-3.474,0-6.944-0.03-10.416,0.018c-1.206,0.017-1.693-0.44-1.654-1.644
	c0.053-1.649,0.034-3.302,0.006-4.953c-0.017-1.018,0.427-1.456,1.448-1.453c7.155,0.014,14.311,0.013,21.467,0
	c0.959-0.001,1.398,0.412,1.391,1.373c-0.018,1.693-0.038,3.388,0.008,5.08c0.029,1.138-0.434,1.602-1.579,1.591
	C264.318,49.395,260.764,49.417,257.206,49.417z"/>
<path fill="#928D81" d="M390.431,302.664l-0.197-2.29l-0.101-1.146l-0.024-0.285l-0.087-0.775l-0.444-3.881
	c-1.364-10.348-3.729-21.064-8.686-31.428c-2.477-5.153-5.625-10.172-9.482-14.672c-3.856-4.498-8.377-8.441-13.222-11.668
	c-4.846-3.237-9.987-5.775-15.174-7.775c-5.19-2.014-10.436-3.481-15.644-4.579c-1.306-0.307-2.605-0.543-3.905-0.773
	c-1.298-0.226-2.604-0.496-3.895-0.663l-3.885-0.56l-3.137-0.516c-4.152-0.604-8.071-1.772-11.896-3.069l-2.776-1.149
	c-0.458-0.199-0.939-0.355-1.381-0.585l-1.323-0.68c-0.873-0.469-1.796-0.857-2.635-1.375l-2.522-1.545
	c-3.268-2.195-6.357-4.648-9.098-7.527c-2.725-2.89-5.188-6.081-7.359-9.54c-2.182-3.455-3.994-7.227-5.576-11.136
	c-3.143-7.834-5.151-16.392-6.146-25.068c-0.231-1.978-0.394-3.961-0.509-5.928c-0.059-0.985-0.094-1.958-0.121-2.924l-0.018-1.412
	l0.01-1.174c-0.006,0-0.014,0.004-0.02,0.004c-0.005-0.271-0.01-0.561-0.021-0.917h-23.233c-0.011,0.357-0.017,0.646-0.021,0.917
	c-0.006,0-0.013-0.004-0.019-0.004l0.01,1.174l-0.018,1.412c-0.027,0.966-0.063,1.939-0.121,2.924
	c-0.115,1.966-0.277,3.95-0.51,5.928c-0.993,8.676-3.002,17.234-6.146,25.068c-1.582,3.908-3.395,7.681-5.575,11.135
	c-2.173,3.459-4.636,6.65-7.36,9.54c-2.738,2.878-5.829,5.331-9.096,7.526l-2.522,1.545c-0.839,0.519-1.762,0.907-2.635,1.375
	l-1.324,0.68c-0.44,0.229-0.922,0.387-1.381,0.585l-2.776,1.149c-3.825,1.297-7.744,2.467-11.896,3.07l-3.136,0.515l-3.884,0.561
	c-1.292,0.166-2.597,0.438-3.895,0.663c-1.299,0.229-2.599,0.466-3.904,0.772c-5.209,1.099-10.454,2.566-15.645,4.579
	c-5.186,2-10.328,4.537-15.174,7.775c-4.844,3.227-9.364,7.17-13.221,11.668c-3.859,4.5-7.007,9.52-9.484,14.674
	c-4.956,10.363-7.321,21.08-8.685,31.429l-0.444,3.88l-0.087,0.775l-0.025,0.287l-0.1,1.145l-0.198,2.29l-7.934-0.628
	c5.943,7.736,12.322,14.62,18.879,21.135c6.507-6.554,13.229-12.749,20.21-18.041l-7.937-0.629l0.173-2l0.086-1.001l0.022-0.249
	l0.076-0.666l0.379-3.325c1.142-8.79,3.144-17.179,6.568-24.293c1.711-3.555,3.757-6.789,6.195-9.636
	c2.446-2.84,5.272-5.316,8.473-7.452c6.402-4.257,14.262-7.175,22.77-8.944c1.047-0.252,2.127-0.445,3.208-0.636
	c1.083-0.187,2.146-0.417,3.253-0.555l3.294-0.478l4.022-0.646c5.421-0.813,10.829-2.353,16.137-4.201l3.93-1.612
	c0.65-0.281,1.315-0.521,1.952-0.841l1.909-0.963c1.263-0.663,2.561-1.252,3.786-1.991l3.663-2.241
	c4.768-3.168,9.265-6.794,13.203-10.925c3.921-4.136,7.375-8.641,10.339-13.375c1.561-2.485,2.956-5.04,4.23-7.634
	c1.275,2.595,2.67,5.15,4.23,7.636c2.965,4.734,6.418,9.239,10.34,13.376c3.938,4.131,8.437,7.756,13.203,10.925l3.664,2.242
	c1.225,0.738,2.522,1.328,3.785,1.99l1.909,0.963c0.636,0.319,1.302,0.56,1.951,0.84l3.931,1.613
	c5.309,1.85,10.716,3.387,16.138,4.201l4.021,0.646l3.295,0.477c1.107,0.139,2.17,0.368,3.253,0.554
	c1.082,0.19,2.161,0.384,3.209,0.636c8.507,1.771,16.367,4.688,22.77,8.945c3.2,2.135,6.025,4.611,8.472,7.451
	c2.438,2.848,4.484,6.08,6.195,9.636c3.424,7.113,5.426,15.503,6.566,24.292l0.379,3.325l0.076,0.665l0.022,0.25l0.086,1
	l0.173,2.001l-7.934,0.628c6.979,5.292,13.697,11.487,20.204,18.041c6.559-6.515,12.938-13.396,18.885-21.135L390.431,302.664z"/>
<g>
	<circle fill="#827C6F" cx="378.812" cy="346.265" r="17.094"/>
	<path fill-rule="evenodd" clip-rule="evenodd" fill="#FFFFFF" d="M383.928,341.256c-1.481-0.199-2.864-0.4-4.251-0.559
		c-0.361-0.041-0.742,0.032-1.104,0.102c-0.629,0.122-1.089,0.474-1.174,1.139c-0.08,0.641,0.178,1.168,0.776,1.441
		c0.748,0.34,1.529,0.605,2.281,0.938c0.992,0.44,2.023,0.827,2.943,1.394c1.853,1.139,2.537,2.867,2.177,4.997
		c-0.343,2.028-1.726,3.017-3.585,3.503c-0.153,0.04-0.306,0.084-0.547,0.15c0.031,0.967,0.062,1.941,0.1,3.051
		c-1.027-0.01-2.047-0.021-3.177-0.033c-0.062-0.999-0.12-1.963-0.173-2.828c-1.623-0.423-3.174-0.828-4.795-1.25
		c0.373-1.119,0.682-2.039,0.959-2.868c1.404,0.304,2.711,0.644,4.037,0.851c0.668,0.104,1.38,0.012,2.061-0.074
		c0.607-0.077,1.117-0.379,1.267-1.047c0.155-0.697-0.056-1.309-0.653-1.668c-0.631-0.381-1.324-0.664-2.008-0.95
		c-1.004-0.419-2.059-0.731-3.029-1.216c-1.916-0.953-2.734-2.502-2.532-4.55c0.204-2.061,1.294-3.378,3.371-3.956
		c0.521-0.146,0.686-0.382,0.647-0.881c-0.047-0.657-0.056-1.316-0.086-2.088c1.102,0.025,2.125,0.049,3.236,0.074
		c0.043,0.893,0.086,1.728,0.126,2.558c1.037,0.233,2.042,0.455,3.046,0.688c0.535,0.125,0.826,0.345,0.593,1.002
		C384.179,339.893,384.067,340.658,383.928,341.256z"/>
</g>
</svg>
