<?xml version="1.0" encoding="utf-8"?>
<!-- Generator: Adobe Illustrator 16.0.0, SVG Export Plug-In . SVG Version: 6.00 Build 0)  -->
<!DOCTYPE svg PUBLIC "-//W3C//DTD SVG 1.1//EN" "http://www.w3.org/Graphics/SVG/1.1/DTD/svg11.dtd">
<svg version="1.1" id="Layer_1" xmlns="http://www.w3.org/2000/svg" xmlns:xlink="http://www.w3.org/1999/xlink" x="0px" y="0px"
	 width="748px" height="1318.564px" viewBox="0 0 748 1318.564" enable-background="new 0 0 748 1318.564" xml:space="preserve">
<g>
	<path fill="#8ABBE6" d="M385.366,161.832c22.684,15.466,36.455,47.58,17.244,71.049c-8.004,9.775-18.345,9.836-29.979,11.209
		c-0.307,0.036-0.621,0.059-0.947,0.059c-0.598,0-1.188-0.004-1.77-0.009c-0.584,0.005-1.174,0.009-1.773,0.009
		c-0.323,0-0.639-0.022-0.946-0.059c-7.338-0.204-15.384-1.119-22.021-4.437c-13.498-6.746-18.397-22.678-16.604-36.869
		c2.159-17.107,13.879-29.559,25.891-40.953c5.326-5.051,0.166-11.428,0.166-11.428l-9.441-16.894c0,0,8.447-6.459,15.9,2.981
		c1.48-4.108,3.68-5.861,8.83-5.861c6.111-0.052,7.348,1.752,8.828,5.861c7.453-9.44,15.899-2.981,15.899-2.981l-9.44,16.894
		C385.202,150.404,378.069,156.856,385.366,161.832z"/>
	<path fill="#827C6F" d="M386.202,156.035c0,2.612-2.508,4.729-5.601,4.729h-21.276c-3.092,0-5.601-2.118-5.601-4.729l0,0
		c0-2.612,2.509-4.729,5.601-4.729h21.276C383.694,151.306,386.202,153.423,386.202,156.035L386.202,156.035z"/>
	<rect x="344.829" y="179.555" fill="none" width="51.623" height="50.152"/>
	<text transform="matrix(1 0 0 1 354.2354 228.9736)" fill="#FFFFFF" font-family="'Helvetica-Bold'" font-size="58.9971">$</text>
</g>
<g>
	<path fill="#8ABBE6" d="M343.856,374.645c0.383-3.598,0.928-6.952,1.022-10.318c0.049-1.72-0.619-3.487-1.121-5.187
		c-0.488-1.664-1.84-2.449-3.469-2.947c-0.162,0.964-0.201,1.845-0.463,2.655c-0.916,2.832-2.822,4.68-5.783,5.208
		c-3.104,0.554-5.674-0.497-7.475-3.091c-1.752-2.527-1.791-5.207-0.201-7.84c2.367-3.916,7.805-7.954,14.654-6.057
		c8.11,2.247,16.413,3.32,24.809,3.563c4.008,0.116,8.049,0.085,12.035-0.291c3.979-0.375,7.578-2.067,10.76-4.523
		c2.967-2.291,5.156-5.119,6.055-8.854c1.441-5.999,2.976-11.976,4.4-17.979c0.467-1.97,0.637-4.01,1.088-5.986
		c0.596-2.613,2.018-4.792,3.904-6.678c2.812-2.81,7.149-3.247,10.373-1.039c3.258,2.233,4.455,6.416,2.866,10.03
		c-1.562,3.559-5.549,5.558-9.364,4.56c-0.955-0.25-1.582-0.05-1.984,0.693c-1.197,2.208-2.662,4.352-3.397,6.715
		c-2.255,7.233-4.548,14.484-6.191,21.869c-1.42,6.371-1.998,12.931-2.894,19.414c-0.268,1.928-0.29,3.89-0.557,5.818
		c-0.057,0.409-0.629,0.964-1.057,1.069c-3.295,0.809-6.582,1.74-9.931,2.224c-7.532,1.088-15.114,1.381-22.709,0.562
		C353.856,377.657,348.618,376.486,343.856,374.645z"/>
	<path fill="#8ABBE6" d="M346.983,386c-2.117-1.016-4.218-1.982-6.275-3.028c-1.1-0.56-1.756-1.485-1.777-2.788
		c-0.039-2.333,2.382-4.044,4.404-2.885c5.816,3.334,12.195,4.467,18.723,4.874c7.722,0.48,15.437,0.267,22.996-1.627
		c1.998-0.5,3.939-1.262,5.854-2.032c1.735-0.697,3.475-0.255,4.293,1.279c0.85,1.586,0.311,3.508-1.435,4.318
		c-1.832,0.851-3.776,1.459-5.676,2.167c-0.42,0.155-0.854,0.278-1.406,0.458c1.009,5.637,2.193,11.134,6.312,15.418
		c2.047,2.128,2.272,2.124,4.711,0.602c1.545-0.965,3.047-2.007,4.508-3.096c2.326-1.733,5.115-1.529,6.767,0.568
		c1.649,2.103,1.293,4.936-0.941,6.721c-6.35,5.08-13.582,8.46-21.396,10.49c-17.399,4.523-34.418,3.609-50.842-4.126
		c-3.727-1.755-7.194-3.956-10.299-6.687c-1.453-1.278-1.871-2.939-1.389-4.752c0.477-1.787,1.729-2.893,3.545-3.295
		c1.529-0.339,2.828,0.164,4.059,1.081c1.693,1.263,3.457,2.431,5.17,3.666c0.601,0.432,1.123,0.424,1.672-0.058
		c0.529-0.463,1.109-0.874,1.604-1.372C343.218,398.803,346.808,390.363,346.983,386z M344.175,406.877
		c15.002,5.221,29.687,5.125,44.681,0.161c-2.687-2.703-4.548-5.645-5.675-8.959c-1.127-3.31-1.979-6.712-2.981-10.173
		c-8.892,1.075-17.894,1.142-26.91-0.476C351.618,394.491,349.485,401.214,344.175,406.877z"/>
	<g>
		<path fill="#827C6F" d="M375.827,309.745c0.404-1.052,0.774-2.053,1.176-3.043c0.215-0.536,0.434-1.08,0.729-1.573
			c0.521-0.873,1.291-1.296,2.313-0.945c1.062,0.365,1.529,1.184,1.281,2.244c-0.26,1.122-0.697,2.203-1.064,3.3
			c-0.155,0.467-0.33,0.929-0.51,1.43c1.103,0.711,2.215,1.346,3.236,2.104c4.44,3.297,6.151,7.797,5.463,13.184
			c-0.424,3.311-3.685,4.966-6.357,3.393c-1.737-1.024-2.114-2.668-1.896-4.516c0.313-2.677-0.385-5.003-2.287-6.941
			c-0.115-0.118-0.24-0.229-0.375-0.322c-0.059-0.04-0.154-0.027-0.375-0.058c-0.814,2.166-1.641,4.359-2.469,6.552
			c-0.773,2.053-1.521,4.116-2.34,6.152c-0.277,0.692-0.177,1.089,0.434,1.549c1.486,1.125,2.938,2.3,4.344,3.526
			c2.533,2.208,3.988,5.024,4.59,8.323c0.22,1.201-0.08,1.855-1.369,2.04c-2.28,0.327-4.549,0.742-6.577,1.08
			c-0.734-1.508-1.197-2.805-1.949-3.901c-0.76-1.108-1.812-2.017-2.945-3.242c-0.672,1.754-1.244,3.232-1.805,4.714
			c-0.818,2.163-0.814,2.171-3.105,2.042c-0.608-0.035-1.217-0.133-1.973-0.218c0.998-2.68,1.902-5.25,2.924-7.771
			c0.383-0.948,0.308-1.468-0.543-2.15c-1.643-1.32-3.234-2.738-4.652-4.294c-2.723-2.991-3.852-6.557-3.075-10.574
			c0.912-4.736,2.946-8.802,7.373-11.246c3.299-1.821,6.815-1.836,10.399-1.131C374.86,309.541,375.298,309.635,375.827,309.745z
			 M373.38,316.313c-4.361-0.469-6.733,0.87-7.957,4.347c-1.084,3.085,0.094,6.123,3.25,8.146
			C370.235,324.658,371.788,320.538,373.38,316.313z"/>
		<path fill="#827C6F" d="M355.835,346.164c-2.672-0.437-5.359-0.855-8.031-1.347c-0.248-0.046-0.629-0.593-0.582-0.838
			c0.256-1.37,0.441-2.8,1-4.055c0.816-1.838,3.039-2.687,4.937-2.166c1.967,0.54,3.01,1.99,2.967,4.168
			c-0.023,1.241-0.084,2.482-0.137,3.723C355.983,345.766,355.921,345.88,355.835,346.164z"/>
	</g>
</g>
<g>
	<path fill="#827C6F" d="M329.692,546.678c-1.816-1.822-3.561-3.571-5.256-5.272c10.642-10.642,21.308-21.305,32.096-32.093
		c9.767,2.439,19.705,4.925,29.721,7.429c2.609-4.348,5.203-8.67,7.856-13.09c-3.233-1.949-6.43-3.875-9.779-5.895
		c8.917-4.951,17.715-9.835,26.665-14.803c-0.166,10.212-0.33,20.255-0.496,30.505c-3.345-2.004-6.519-3.906-9.787-5.865
		c-3.602,5.991-7.182,11.945-10.799,17.964c-10.387-2.597-20.739-5.183-31.286-7.817
		C349.013,527.355,339.35,537.021,329.692,546.678z"/>
	<path fill="#8ABBE6" d="M403.245,517.649c2.704,1.621,5.342,3.2,8.001,4.797c0,20.016,0,40.007,0,60.057c-5.258,0-10.453,0-15.75,0
		c-0.021-0.312-0.061-0.619-0.061-0.924c-0.004-16.764-0.005-33.529,0.008-50.295c0.001-0.379,0.076-0.81,0.266-1.127
		c2.398-4.045,4.824-8.072,7.243-12.104C403.02,517.942,403.105,517.842,403.245,517.649z"/>
	<path fill="#8ABBE6" d="M372.575,582.496c0-17.907,0-35.751,0-53.726c5.262,1.312,10.476,2.614,15.741,3.93
		c0,16.609,0,33.171,0,49.796C383.062,582.496,377.848,582.496,372.575,582.496z"/>
	<path fill="#8ABBE6" d="M365.414,582.514c-5.283,0-10.456,0-15.717,0c-0.021-0.317-0.055-0.598-0.055-0.879
		c-0.002-14.561-0.004-29.122,0.014-43.683c0-0.361,0.106-0.827,0.345-1.065c3.566-3.61,7.162-7.191,10.754-10.778
		c0.072-0.072,0.166-0.124,0.299-0.223c1.438,0.362,2.896,0.73,4.36,1.1C365.414,545.526,365.414,563.979,365.414,582.514z"/>
	<path fill="#8ABBE6" d="M341.916,582.496c-4.866,0-9.666,0-14.53,0c0-8.871,0-17.705,0-26.8c0.802,0.938,1.472,1.725,2.162,2.534
		c4.166-4.245,8.17-8.328,12.175-12.411c0.063,0.041,0.128,0.082,0.193,0.122C341.916,558.094,341.916,570.248,341.916,582.496z"/>
</g>
<g>
	<path fill="#8ABBE6" d="M409.019,933.414c-0.616,0.168-1.356,0.543-2.102,0.547c-7.807,0.043-15.613,0.025-23.609,0.025
		c-0.079-0.902-0.209-1.666-0.211-2.432c-0.018-5.41-0.01-10.82-0.01-16.232c0-0.701,0.021-1.402-0.008-2.104
		c-0.105-2.666-0.601-3.176-3.162-3.297c-0.301-0.018-0.602-0.006-0.902-0.006c-5.61,0-11.223-0.018-16.834,0.006
		c-3.723,0.012-4.059,0.371-4.065,4.197c-0.01,5.512-0.002,11.021-0.002,16.533c0,0.988,0,1.98,0,3.34c-3.039,0-5.908,0-8.779,0
		c-2.906,0-5.816,0.105-8.717-0.029c-2.834-0.129-5.771,0.645-8.435-0.592c-0.579-2.506-0.786-46.006-0.27-51.449
		c12.754-11.296,25.645-22.712,38.703-34.278c12.934,11.455,25.873,22.916,38.653,34.237
		C409.8,886.762,409.608,930.92,409.019,933.414z"/>
	<path fill="#827C6F" d="M370.618,839.847c-16.758,14.834-33.334,29.506-49.974,44.233c-1.842-2.07-3.637-4.084-5.668-6.365
		c18.498-16.376,36.978-32.735,55.646-49.265c18.684,16.551,37.109,32.869,55.604,49.251c-1.936,2.199-3.707,4.215-5.62,6.391
		C403.899,869.306,387.29,854.601,370.618,839.847z"/>
	<path fill="#827C6F" d="M345.04,843.946c-4.451,4.025-8.662,7.83-13.152,11.891c0-6.867,0-13.377,0-20.072c4.416,0,8.843,0,13.57,0
		C345.317,838.554,345.181,841.212,345.04,843.946z"/>
</g>
<g>
	<path fill="#8ABBE6" d="M322.12,1100.716c-2.468-0.926-3.206-2.769-3.184-5.308c0.088-8.838,0.009-17.672,0.046-26.508
		c0.018-4.479-0.515-9.021,1.668-13.494c-1.675,0-3.068,0.027-4.459-0.008c-2.266-0.041-3.293-1.428-2.651-3.602
		c0.387-1.312,0.836-2.604,1.333-3.882c0.903-2.325,2.96-3.645,5.583-3.678c1.315-0.021,2.962,0.373,3.854-0.27
		c0.895-0.635,1.051-2.326,1.502-3.562c2.323-6.336,4.652-12.666,6.947-19.01c1.107-3.061,3.346-5.014,6.141-6.449
		c4.912-2.522,10.194-3.615,15.65-4.057c8.994-0.728,18-0.76,27.008-0.254c6.226,0.344,12.391,1.082,18.188,3.649
		c3.485,1.543,5.921,3.896,7.204,7.613c2.416,7.002,5.115,13.902,7.6,20.881c0.422,1.195,0.98,1.513,2.176,1.498
		c1.906-0.029,3.947-0.496,5.64,0.814c0.813,0.629,1.684,1.381,2.133,2.271c0.74,1.49,1.264,3.105,1.691,4.721
		c0.522,1.968-0.554,3.244-2.623,3.312c-0.703,0.029-1.414,0.008-2.119,0.014c-0.703,0-1.408,0-2.326,0
		c0.166,0.531,0.346,0.912,0.414,1.32c0.4,2.283,1.076,4.576,1.098,6.867c0.125,10.604,0.008,21.205,0.093,31.809
		c0.012,2.531-0.722,4.381-3.187,5.308c-5.389,0-10.781,0-16.164,0c-2.443-0.834-3.402-2.574-3.223-5.107
		c0.109-1.533-0.076-3.092,0.048-4.627c0.118-1.387-0.379-1.676-1.698-1.668c-16.504,0.041-33.005,0.027-49.506,0.027
		c-1.456,0-2.916,0.032-4.37-0.015c-0.848-0.029-1.183,0.242-1.154,1.125c0.056,1.719-0.076,3.443,0.037,5.156
		c0.166,2.541-0.779,4.273-3.224,5.107C332.899,1100.716,327.508,1100.716,322.12,1100.716z M406.587,1045.979
		c-0.188-0.781-0.262-1.209-0.397-1.615c-2.183-6.655-4.33-13.323-6.62-19.942c-0.317-0.937-1.249-1.773-2.093-2.379
		c-0.801-0.57-1.836-0.841-2.809-1.127c-5.082-1.484-10.327-1.992-15.565-2.074c-7.726-0.121-15.456-0.037-23.17,0.297
		c-3.717,0.162-7.42,0.986-11.085,1.719c-2.645,0.523-4.587,1.967-5.471,4.775c-1.267,4.035-2.861,7.963-4.179,11.979
		c-0.86,2.623-1.481,5.33-2.307,8.359C357.572,1051.188,381.98,1051.238,406.587,1045.979z M336.592,1072.994
		c0.007-0.125,0.015-0.239,0.021-0.364c2.379,0,4.764,0.084,7.139-0.021c2.671-0.111,4.079-1.732,3.555-3.961
		c-0.331-1.416-1.452-2.195-2.671-2.748c-3.452-1.553-6.91-3.092-10.417-4.514c-2.167-0.885-4.42-1.533-6.829-1.035
		c-1.582,0.324-2.461,1.076-2.665,2.678c-0.172,1.346-0.181,2.728-0.188,4.086c-0.025,3.113,0.862,4.39,3.938,4.957
		C331.143,1072.566,333.883,1072.697,336.592,1072.994z M402.999,1072.63c0,0.062,0,0.116,0,0.18c0.262,0,0.529,0.012,0.793-0.008
		c2.982-0.193,6.004,0.014,8.863-1.181c1.643-0.69,2.504-1.856,2.483-3.659c-0.014-1.015,0.006-2.029-0.006-3.043
		c-0.041-3.748-1.576-5.101-5.315-4.707c-0.181,0.02-0.353,0.041-0.523,0.09c-1.236,0.324-2.52,0.531-3.688,1.014
		c-3.582,1.479-7.164,2.969-10.644,4.668c-1.05,0.51-2.133,1.58-2.534,2.648c-0.793,2.119,0.78,3.854,3.433,3.977
		C398.235,1072.714,400.616,1072.63,402.999,1072.63z"/>
	<g>
		<path fill="#827C6F" d="M341.776,1089.529c-0.005-0.065-0.018-0.131-0.018-0.196h-22.787c-0.006,2.024-0.016,4.051-0.034,6.075
			c-0.023,2.539,0.715,4.382,3.183,5.308h16.166c2.442-0.834,3.39-2.566,3.224-5.107c-0.113-1.713,0.019-3.438-0.037-5.156
			C341.458,1089.98,341.562,1089.699,341.776,1089.529z"/>
	</g>
	<path fill="#827C6F" d="M420.7,1089.333h-22.938c-0.007,0.028-0.015,0.057-0.021,0.086c-0.003,0.035-0.005,0.069-0.009,0.106
		c0.39,0.222,0.535,0.648,0.468,1.455c-0.124,1.535,0.062,3.094-0.048,4.627c-0.181,2.533,0.778,4.273,3.223,5.107h16.164
		c2.465-0.927,3.197-2.775,3.186-5.308C420.71,1093.384,420.704,1091.357,420.7,1089.333z"/>
</g>
<g>
	<path fill="none" stroke="#827C6F" stroke-width="11" stroke-miterlimit="10" d="M357.132,1199.481
		c-17.365,4.996-30.07,21.002-30.07,39.978c0,22.969,18.621,41.592,41.591,41.592c22.971,0,41.592-18.623,41.592-41.592
		c0-18.896-12.603-34.85-29.857-39.914"/>
	<g>
		<path fill="#8ABBE6" d="M378.366,1190.207c-3.217,10.039-6.406,20-9.601,29.963c-0.104,0.012-0.209,0.022-0.312,0.035
			c-3.197-9.974-6.396-19.947-9.617-29.998C365.399,1190.207,371.808,1190.207,378.366,1190.207z"/>
		<path fill="#8ABBE6" d="M378.155,1186.522c-6.416,0-12.638,0-18.978,0c0.103-0.377,0.152-0.7,0.271-1
			c1.625-4.069,3.281-8.129,4.865-12.213c0.301-0.772,0.646-1.1,1.497-1.071c1.931,0.062,3.863-0.015,5.794,0.049
			c0.377,0.012,0.948,0.313,1.077,0.629C374.517,1177.367,376.288,1181.845,378.155,1186.522z"/>
		<path fill="#8ABBE6" d="M376.446,1172.257c3.565,0,6.992-0.018,10.414,0.025c0.354,0.004,0.848,0.276,1.03,0.576
			c2.695,4.373,5.354,8.771,8.013,13.166c0.061,0.102,0.061,0.237,0.114,0.485c-0.467,0.029-0.885,0.074-1.299,0.074
			c-3.871,0.006-7.735-0.006-11.604,0.01c-0.662,0.002-1.127-0.071-1.42-0.823c-1.677-4.291-3.414-8.56-5.123-12.834
			C376.509,1172.779,376.507,1172.599,376.446,1172.257z"/>
		<path fill="#8ABBE6" d="M360.89,1172.257c-1.354,3.383-2.604,6.508-3.854,9.633c-0.521,1.302-1.006,2.621-1.582,3.896
			c-0.148,0.33-0.57,0.758-0.873,0.762c-4.428,0.049-8.861,0.035-13.482,0.035c0.214-0.449,0.324-0.756,0.49-1.031
			c2.496-4.131,4.988-8.266,7.521-12.373c0.239-0.389,0.733-0.873,1.116-0.881C353.688,1172.229,357.153,1172.257,360.89,1172.257z"
			/>
		<polygon fill="#8ABBE6" points="341.603,1190.254 355.089,1190.254 363.784,1217.379 		"/>
		<polyline fill="#8ABBE6" points="373.837,1217.379 396.019,1190.254 382.532,1190.254 		"/>
	</g>
</g>
<rect x="1284.318" y="131.788" fill="none" width="194" height="64.756"/>
<text transform="matrix(1 0 0 1 1284.3184 153.3574)" fill="#303030" font-family="'Helvetica-Bold'" font-size="30">Cash</text>
<text transform="matrix(1 0 0 1 1284.3184 189.3574)" fill="#303030" font-family="'Helvetica'" font-size="30">$S30,000</text>
<rect x="897.318" y="320.054" fill="none" width="132.012" height="104.985"/>
<text transform="matrix(1 0 0 1 909.2422 373.1934)" fill="#827C6F" font-family="'Helvetica-Bold'" font-size="60">28%</text>
<rect x="897.318" y="148.765" fill="none" width="132.012" height="104.985"/>
<text transform="matrix(1 0 0 1 942.6113 191.9043)" fill="#827C6F" font-family="'Helvetica-Bold'" font-size="60">1%</text>
<rect x="897.318" y="801.884" fill="none" width="132.012" height="104.985"/>
<text transform="matrix(1 0 0 1 909.2422 900.8369)" fill="#827C6F" font-family="'Helvetica-Bold'" font-size="60">40%</text>
<rect x="897.318" y="470.119" fill="none" width="132.012" height="104.984"/>
<text transform="matrix(1 0 0 1 942.6113 538.2764)" fill="#827C6F" font-family="'Helvetica-Bold'" font-size="60">6%</text>
<rect x="897.318" y="1191.054" fill="none" width="132.012" height="104.984"/>
<text transform="matrix(1 0 0 1 942.6113 1254.2803)" fill="#827C6F" font-family="'Helvetica-Bold'" font-size="60">6%</text>
<rect x="897.318" y="966.273" fill="none" width="132.012" height="104.984"/>
<text transform="matrix(1 0 0 1 909.2422 1074.2979)" fill="#827C6F" font-family="'Helvetica-Bold'" font-size="60">19%</text>
<rect x="1284.318" y="303.275" fill="none" width="194" height="64.756"/>
<text transform="matrix(1 0 0 1 1284.3184 334.8447)" fill="#303030" font-family="'Helvetica-Bold'" font-size="30">Pension</text>
<text transform="matrix(1 0 0 1 1284.3184 370.8447)" fill="#303030" font-family="'Helvetica'" font-size="30">$S30,000</text>
<rect x="1284.318" y="453.374" fill="none" width="194" height="64.757"/>
<text transform="matrix(1 0 0 1 1284.3184 499.9619)" fill="#303030" font-family="'Helvetica-Bold'" font-size="30">Stock </text>
<text transform="matrix(1 0 0 1 1284.3184 535.9619)" fill="#303030" font-family="'Helvetica'" font-size="30">$S30,000</text>
<text transform="matrix(1 0 0 1 942.6113 712.6729)" fill="#827C6F" font-family="'Helvetica-Bold'" font-size="60">6%</text>
<text transform="matrix(1 0 0 1 1284.3184 674.3584)" fill="#303030" font-family="'Helvetica-Bold'" font-size="30">Stock </text>
<text transform="matrix(1 0 0 1 1284.3184 710.3584)" fill="#303030" font-family="'Helvetica'" font-size="30">$S30,000</text>
<rect x="1284.318" y="787.079" fill="none" width="194" height="64.755"/>
<text transform="matrix(1 0 0 1 1284.3184 864.46)" fill="#303030" font-family="'Helvetica-Bold'" font-size="30">Property</text>
<text transform="matrix(1 0 0 1 1284.3184 900.46)" fill="#303030" font-family="'Helvetica'" font-size="30">$S30,000</text>
<rect x="1284.318" y="950.243" fill="none" width="194" height="64.756"/>
<text transform="matrix(1 0 0 1 1284.3184 1036.6963)" fill="#303030" font-family="'Helvetica-Bold'" font-size="30">Car</text>
<text transform="matrix(1 0 0 1 1284.3184 1072.6963)" fill="#303030" font-family="'Helvetica'" font-size="30">$S30,000</text>
<rect x="897.318" y="966.273" fill="none" width="132.012" height="104.984"/>
<rect x="1284.318" y="950.243" fill="none" width="194" height="64.756"/>
<rect x="1274.318" y="1178.443" fill="none" width="194" height="64.756"/>
<text transform="matrix(1 0 0 1 1274.3184 1220.1006)" fill="#303030" font-family="'Helvetica-Bold'" font-size="30">Others</text>
<text transform="matrix(1 0 0 1 1274.3184 1256.1006)" fill="#303030" font-family="'Helvetica'" font-size="30">$S30,000</text>
<rect x="1284.318" y="131.788" fill="none" width="194" height="64.756"/>
<text transform="matrix(1 0 0 1 1284.3184 153.3574)" fill="#303030" font-family="'Helvetica-Bold'" font-size="30">Cash</text>
<text transform="matrix(1 0 0 1 1284.3184 189.3574)" fill="#303030" font-family="'Helvetica'" font-size="30">$S30,000</text>
<rect x="897.318" y="320.054" fill="none" width="132.012" height="104.985"/>
<text transform="matrix(1 0 0 1 909.2422 373.1934)" fill="#827C6F" font-family="'Helvetica-Bold'" font-size="60">28%</text>
<rect x="897.318" y="148.765" fill="none" width="132.012" height="104.985"/>
<text transform="matrix(1 0 0 1 942.6113 191.9043)" fill="#827C6F" font-family="'Helvetica-Bold'" font-size="60">1%</text>
<rect x="897.318" y="801.884" fill="none" width="132.012" height="104.985"/>
<rect x="897.318" y="1191.054" fill="none" width="132.012" height="104.984"/>
<rect x="897.318" y="966.273" fill="none" width="132.012" height="104.984"/>
<rect x="1284.318" y="303.275" fill="none" width="194" height="64.756"/>
<text transform="matrix(1 0 0 1 1284.3184 334.8447)" fill="#303030" font-family="'Helvetica-Bold'" font-size="30">Pension</text>
<text transform="matrix(1 0 0 1 1284.3184 370.8447)" fill="#303030" font-family="'Helvetica'" font-size="30">$S30,000</text>
<rect x="1284.318" y="442.018" fill="none" width="194" height="64.757"/>
<rect x="1284.318" y="787.079" fill="none" width="194" height="64.755"/>
<rect x="1284.318" y="950.243" fill="none" width="194" height="64.756"/>
<rect x="897.318" y="966.273" fill="none" width="132.012" height="104.984"/>
<rect x="1284.318" y="950.243" fill="none" width="194" height="64.756"/>
<rect x="1274.318" y="1178.443" fill="none" width="194" height="64.756"/>
<g>
	<path fill="#827C6F" d="M709.654,101.646v1212.919H41.323V101.646H709.654 M713.654,97.646H37.323v1220.919h676.332L713.654,97.646
		L713.654,97.646z"/>
</g>
<rect x="-793.166" y="97.646" fill="none" stroke="#827C6F" stroke-width="4" stroke-miterlimit="10" width="670.832" height="174.139"/>
<rect x="-793.166" y="271.784" fill="none" stroke="#827C6F" stroke-width="4" stroke-miterlimit="10" width="670.832" height="174.139"/>
<rect x="-793.166" y="445.923" fill="none" stroke="#827C6F" stroke-width="4" stroke-miterlimit="10" width="670.832" height="174.138"/>
<rect x="-793.166" y="620.062" fill="none" stroke="#827C6F" stroke-width="4" stroke-miterlimit="10" width="670.832" height="174.138"/>
<rect x="-793.166" y="794.199" fill="none" stroke="#827C6F" stroke-width="4" stroke-miterlimit="10" width="670.832" height="174.138"/>
<rect x="-793.166" y="968.338" fill="none" stroke="#827C6F" stroke-width="4" stroke-miterlimit="10" width="670.832" height="174.139"/>
<rect x="-1253.166" y="182.813" fill="none" stroke="#827C6F" stroke-width="4" stroke-miterlimit="10" width="670.831" height="174.139"/>
<rect x="-1253.166" y="356.952" fill="none" stroke="#827C6F" stroke-width="4" stroke-miterlimit="10" width="670.831" height="174.139"/>
<rect x="-1253.166" y="531.09" fill="none" stroke="#827C6F" stroke-width="4" stroke-miterlimit="10" width="670.831" height="174.138"/>
<rect x="-1253.166" y="705.228" fill="none" stroke="#827C6F" stroke-width="4" stroke-miterlimit="10" width="670.831" height="174.139"/>
<rect x="-1253.166" y="879.367" fill="none" stroke="#827C6F" stroke-width="4" stroke-miterlimit="10" width="670.831" height="174.138"/>
<rect x="-1253.166" y="1053.505" fill="none" stroke="#827C6F" stroke-width="4" stroke-miterlimit="10" width="670.831" height="174.139"/>
<rect x="-793.166" y="1142.477" fill="none" stroke="#827C6F" stroke-width="4" stroke-miterlimit="10" width="670.832" height="174.139"/>
<g>
	
		<rect x="-244.022" y="97.646" fill="none" stroke="#827C6F" stroke-width="4" stroke-miterlimit="10" width="160.107" height="174.139"/>
	
		<rect x="-244.022" y="271.784" fill="none" stroke="#827C6F" stroke-width="4" stroke-miterlimit="10" width="160.107" height="174.139"/>
	
		<rect x="-244.022" y="445.923" fill="none" stroke="#827C6F" stroke-width="4" stroke-miterlimit="10" width="160.107" height="174.138"/>
	
		<rect x="-244.022" y="620.062" fill="none" stroke="#827C6F" stroke-width="4" stroke-miterlimit="10" width="160.107" height="174.138"/>
	
		<rect x="-244.022" y="794.199" fill="none" stroke="#827C6F" stroke-width="4" stroke-miterlimit="10" width="160.107" height="174.138"/>
	
		<rect x="-244.022" y="968.338" fill="none" stroke="#827C6F" stroke-width="4" stroke-miterlimit="10" width="160.107" height="174.139"/>
	
		<rect x="-244.022" y="1142.477" fill="none" stroke="#827C6F" stroke-width="4" stroke-miterlimit="10" width="160.107" height="174.139"/>
</g>
<rect x="-1253.166" y="1227.644" fill="none" stroke="#827C6F" stroke-width="4" stroke-miterlimit="10" width="670.831" height="174.138"/>
<g>
	<rect x="39.59" y="2" fill="#8ABBE6" width="672.064" height="99.675"/>
	<path fill="#827C6F" d="M709.654,4v95.675H41.59V4H709.654 M713.654,0H37.59v103.675h676.064V0L713.654,0z"/>
</g>
<rect x="946.324" y="41.732" fill="none" width="450.756" height="47.407"/>
<text transform="matrix(1 0 0 1 1091.6826 65.4355)" fill="#FFFFFF" font-family="'Helvetica-Bold'" font-size="40">ASSETS</text>
<g>
	<path fill-rule="evenodd" clip-rule="evenodd" fill="#8ABBE6" d="M363.693,659.063c0.264-2.369-0.845-6.599,3.922-6.549
		c4.641,0.049,3.544,4.191,3.843,7.115c25.856,2.648,45.503,14.067,56.75,37.605c-0.19,0.478-0.38,0.954-0.571,1.432
		c-14.476-4.943-24.589,0.135-31.348,13.89c-5.687-4.582-11.296-8.72-18.251-10.461c-6.982-1.746-13.838-1.814-20.841-0.014
		c-6.961,1.791-12.609,5.818-17.921,10.159c-4.277-9.125-22.652-18.208-32.312-14.099c0.868-2.09,1.526-4.143,2.532-6.009
		c3.888-7.215,9.185-13.454,15.719-18.179c5.612-4.057,11.935-7.433,18.399-9.928C349.842,661.623,356.653,660.734,363.693,659.063z
		 M348.359,669.95c-6.167-1.546-24.719,10.998-27.532,18.962c2.901,1.196,5.802,2.391,9.127,3.761
		C333.419,683.129,338.667,674.773,348.359,669.95z"/>
	<path fill-rule="evenodd" clip-rule="evenodd" fill="#827C6F" d="M363.811,707.689c2.602,0,4.978,0,7.468,0
		c0.066,1.294,0.139,2.05,0.141,2.803c0.006,10.321-0.14,20.643,0.057,30.961c0.121,6.374-2.957,10.882-8.204,13.433
		c-7.435,3.61-18.186,1.331-21.266-8.321c-1.008-3.157-1.024-6.761-0.833-10.123c0.109-1.92,2.08-3.561,4.169-2.862
		c1.411,0.471,2.938,2.006,3.455,3.418c0.743,2.023,0.373,4.429,0.917,6.559c0.764,2.995,4.212,4.923,6.535,4.872
		c2.59-0.056,5.549-1.678,6.528-4.833c0.457-1.47,0.843-3.035,0.855-4.562c0.078-9.493,0.038-18.992,0.045-28.488
		C363.679,709.79,363.746,709.033,363.811,707.689z"/>
</g>
</svg>
