<?xml version="1.0" encoding="utf-8"?>
<!-- Generator: Adobe Illustrator 16.0.0, SVG Export Plug-In . SVG Version: 6.00 Build 0)  -->
<!DOCTYPE svg PUBLIC "-//W3C//DTD SVG 1.1//EN" "http://www.w3.org/Graphics/SVG/1.1/DTD/svg11.dtd">
<svg version="1.1" id="Layer_1" xmlns="http://www.w3.org/2000/svg" xmlns:xlink="http://www.w3.org/1999/xlink" x="0px" y="0px"
	 width="500px" height="1413.594px" viewBox="0 0 500 1413.594" enable-background="new 0 0 500 1413.594" xml:space="preserve">
<path fill="#A09B91" d="M384.957,1065.46c-1.447,7.129-3.706,13.887-7.208,19.752c-2.062,3.453-4.526,6.594-7.468,9.359
	c-2.947,2.76-6.354,5.166-10.212,7.235c-7.72,4.14-17.19,6.974-27.444,8.691c-1.262,0.244-2.562,0.432-3.867,0.617
	c-1.306,0.18-2.587,0.402-3.922,0.539l-3.97,0.463l-4.854,0.627c-6.528,0.791-13.051,2.285-19.445,4.082l-4.737,1.562
	c-0.783,0.275-1.583,0.506-2.353,0.816l-2.305,0.938c-1.521,0.646-3.086,1.216-4.562,1.937l-4.412,2.178
	c-5.746,3.078-11.172,6.601-15.914,10.613c-4.729,4.018-8.891,8.395-12.463,12.992c-1.881,2.412-3.562,4.896-5.098,7.416
	c-1.537-2.521-3.218-5.002-5.1-7.416c-3.573-4.601-7.736-8.979-12.463-12.994c-4.747-4.017-10.168-7.535-15.914-10.613l-4.416-2.176
	c-1.476-0.721-3.042-1.291-4.564-1.938l-2.301-0.934c-0.766-0.312-1.568-0.545-2.352-0.816l-4.738-1.565
	c-6.397-1.797-12.916-3.289-19.45-4.08l-4.849-0.629l-3.971-0.465c-1.335-0.136-2.615-0.355-3.921-0.535
	c-1.304-0.188-2.605-0.373-3.868-0.617c-10.253-1.721-19.728-4.557-27.443-8.689c-3.857-2.072-7.264-4.479-10.211-7.236
	c-2.939-2.77-5.405-5.907-7.468-9.36c-3.501-5.863-5.76-12.623-7.207-19.75H76.101c1.668,9.754,4.521,19.822,10.304,29.569
	c2.985,5.007,6.78,9.882,11.43,14.252c4.648,4.37,10.097,8.2,15.936,11.337c5.841,3.145,12.04,5.606,18.29,7.553
	c6.257,1.955,12.578,3.381,18.856,4.447c1.573,0.299,3.14,0.524,4.707,0.752c1.564,0.219,3.138,0.479,4.694,0.643l4.681,0.543
	l3.781,0.502c5.004,0.586,9.729,1.724,14.339,2.979l3.347,1.115c0.552,0.193,1.133,0.348,1.664,0.568l1.595,0.66
	c1.052,0.455,2.165,0.832,3.176,1.336l3.042,1.5c3.937,2.135,7.663,4.518,10.964,7.312c3.284,2.812,6.253,5.908,8.872,9.271
	c2.628,3.354,4.813,7.021,6.72,10.816c3.788,7.608,6.21,15.928,7.407,24.354c0.28,1.92,0.474,3.849,0.613,5.76
	c0.04,0.543,0.058,1.076,0.083,1.613h-15.353l30.124,32.812l28.827-32.812h-15.353c0.021-0.537,0.043-1.069,0.082-1.613
	c0.139-1.911,0.334-3.838,0.611-5.76c1.198-8.428,3.62-16.742,7.408-24.353c1.902-3.798,4.092-7.464,6.718-10.817
	c2.62-3.359,5.588-6.459,8.872-9.27c3.301-2.796,7.023-5.179,10.963-7.312l3.041-1.502c1.013-0.504,2.124-0.881,3.176-1.336
	l1.6-0.66c0.526-0.225,1.107-0.375,1.665-0.566l3.346-1.115c4.609-1.262,9.333-2.396,14.339-2.981l3.779-0.5l4.681-0.545
	c1.558-0.16,3.132-0.424,4.696-0.646c1.563-0.222,3.132-0.45,4.705-0.75c6.274-1.063,12.602-2.489,18.854-4.444
	c6.251-1.943,12.449-4.41,18.29-7.558c5.839-3.133,11.287-6.965,15.938-11.334c4.647-4.371,8.441-9.248,11.433-14.254
	c5.782-9.748,8.635-19.814,10.304-29.569L384.957,1065.46L384.957,1065.46z"/>
<rect x="225.707" y="950.318" fill="#928D81" width="47.679" height="13.385"/>
<path fill="#FFFFFF" d="M220.261,1287.636c-4.461,0.019-7.86-3.385-7.855-7.852c0.006-4.506,3.478-8.129,7.815-8.15
	c4.366-0.024,8.048,3.658,8.1,8.104C228.371,1284.078,224.752,1287.625,220.261,1287.636z"/>
<path fill="#FFFFFF" d="M276.084,1269.445c0.009-4.367,3.671-7.902,8.12-7.849c4.319,0.062,7.778,3.562,7.78,7.873
	c0.002,4.41-3.621,8.152-7.889,8.148C279.727,1277.621,276.074,1273.89,276.084,1269.445z"/>
<path fill="#827C6F" d="M22.088,1012.984c9.242-3.847,18.158-7.787,27.259-11.24c5.335-2.023,10.722-1.031,15.57,1.979
	c4.138,2.582,8.288,5.179,12.176,8.115c7.423,5.617,15.73,8.326,24.972,8.531c3.363,0.078,6.725,0.34,10.075,0.672
	c2.005,0.193,3.523,1.191,3.805,3.428c0.301,2.414-0.941,4.035-3.042,4.713c-2.165,0.705-4.471,1.271-6.731,1.326
	c-7.013,0.16-14.052,0.416-21.04-0.062c-4.887-0.34-9.703-1.81-14.539-2.818c-1.089-0.229-2.126-0.68-3.292-0.787
	c4.579,4.638,9.646,8.729,16.332,8.959c8.942,0.312,17.915,0.021,26.855-0.396c2.332-0.107,4.771-1.354,6.847-2.594
	c3.395-2.023,4.452-5.345,3.952-9.197c-0.493-3.853-2.626-6.461-6.315-7.385c-2.895-0.728-5.931-0.976-8.922-1.188
	c-2.6-0.19-5.226-0.045-7.839-0.045c-0.064-0.32-0.128-0.646-0.186-0.973c5.085-2.818,10.062-5.867,15.294-8.388
	c4.458-2.146,6.488-1.416,10.427,2.127c3.459-1.104,6.533-2.526,9.748-3.01c3.952-0.59,6.149,1.537,6.86,5.854
	c1.562-0.666,3.017-1.531,4.592-1.902c2.21-0.519,4.509-0.938,6.764-0.908c2.396,0.025,4.144,1.597,5.079,3.752
	c0.942,2.172,0.327,4.261-1.288,5.89c-1.614,1.627-3.305,3.26-5.213,4.516c-15.557,10.26-31.256,20.303-46.736,30.686
	c-7.404,4.967-14.628,4.996-22.288,0.978c-7.77-4.08-15.718-7.834-23.391-12.086c-5.373-2.984-10.184-3.021-15.039,0.832
	c-1.716,1.354-3.669,2.422-5.783,3.791C32.092,1035.158,27.218,1024.361,22.088,1012.984z"/>
<g>
	<g>
		<g>
			<path fill="#99C4E9" d="M42.76,962.765c-2.096-1.778-4.345-3.459-6.744-5.02c-1.202-0.787-2.437-1.539-3.731-2.252
				c-0.642-0.363-1.312-0.703-1.991-1.041l-1.059-0.484c-0.172-0.082-0.381-0.146-0.573-0.223l-0.296-0.107
				c-0.111-0.03-0.273-0.049-0.408-0.069l1.216-0.332l1.013-0.252c0.662-0.16,1.308-0.304,1.95-0.438
				c1.285-0.268,2.557-0.494,3.832-0.697c2.547-0.396,5.107-0.666,7.692-0.825c5.117-0.287,10.353-0.136,15.679,0.782
				c5.306,0.912,10.725,2.5,15.833,5.191c5.104,2.658,9.832,6.359,13.623,10.746l1.407,1.653c0.466,0.558,0.851,1.15,1.276,1.729
				c0.829,1.166,1.676,2.33,2.345,3.555l0.904,1.562c0.227,0.397,0.468,0.801,0.679,1.205l1.163,2.455l7.23-3.334
				c-2.045,11.278-7.155,19.928-12.922,27.104c-1.847-1.447-3.683-2.791-5.498-4.033c-1.913-1.209-3.804-2.303-5.68-3.264
				c-0.983-0.453-1.954-0.873-2.912-1.26c-0.969-0.375-1.872-0.771-2.876-1.023c-1.971-0.525-3.798-1.014-5.721-1.104l7.227-3.332
				l-0.667-1.445l-0.889-1.523c-0.357-0.703-0.825-1.287-1.256-1.903c-0.224-0.3-0.412-0.64-0.657-0.91l-0.722-0.832
				c-1.922-2.213-4.176-3.99-6.807-5.377c-5.259-2.75-12.179-3.828-19.385-3.385c-1.818,0.11-3.651,0.303-5.464,0.586
				c-0.904,0.145-1.806,0.303-2.68,0.483c-0.438,0.095-0.87,0.188-1.28,0.285l-0.974,0.248c-0.019-0.057-0.064-0.107-0.058-0.172
				l0.055-0.205c0.042-0.135,0.066-0.27,0.129-0.41c0.114-0.276,0.225-0.559,0.353-0.84c0.266-0.559,0.54-1.125,0.849-1.684
				c0.602-1.123,1.274-2.242,1.987-3.344C39.38,967.017,40.987,964.851,42.76,962.765z"/>
		</g>
	</g>
</g>
<path fill="#827C6F" d="M345.773,1012.984c9.238-3.847,18.154-7.787,27.26-11.24c5.334-2.023,10.723-1.031,15.564,1.979
	c4.143,2.582,8.291,5.179,12.182,8.115c7.424,5.617,15.729,8.326,24.973,8.531c3.361,0.078,6.725,0.34,10.074,0.672
	c2.004,0.193,3.521,1.191,3.805,3.428c0.301,2.414-0.938,4.035-3.043,4.713c-2.164,0.705-4.471,1.271-6.729,1.326
	c-7.018,0.16-14.057,0.416-21.039-0.062c-4.893-0.34-9.705-1.81-14.541-2.818c-1.088-0.229-2.127-0.68-3.291-0.787
	c4.578,4.638,9.646,8.729,16.332,8.959c8.938,0.312,17.914,0.021,26.854-0.396c2.332-0.107,4.771-1.354,6.85-2.594
	c3.395-2.023,4.449-5.345,3.949-9.197c-0.49-3.853-2.625-6.461-6.312-7.385c-2.896-0.728-5.936-0.976-8.924-1.188
	c-2.604-0.19-5.229-0.045-7.838-0.045c-0.064-0.32-0.133-0.646-0.188-0.973c5.086-2.818,10.062-5.867,15.297-8.388
	c4.457-2.146,6.486-1.416,10.426,2.127c3.459-1.104,6.533-2.526,9.748-3.01c3.951-0.59,6.148,1.537,6.859,5.854
	c1.562-0.666,3.018-1.531,4.592-1.902c2.211-0.519,4.51-0.938,6.768-0.908c2.396,0.025,4.145,1.597,5.076,3.752
	c0.941,2.172,0.326,4.261-1.286,5.89c-1.612,1.627-3.308,3.26-5.216,4.516c-15.557,10.26-31.254,20.303-46.732,30.686
	c-7.402,4.967-14.627,4.996-22.287,0.978c-7.771-4.08-15.719-7.834-23.396-12.086c-5.368-2.984-10.182-3.021-15.033,0.832
	c-1.721,1.354-3.674,2.422-5.783,3.791C355.777,1035.158,350.904,1024.361,345.773,1012.984z"/>
<g>
	<g>
		<g>
			<path fill="#E78372" d="M412.54,990.544c-2.646,0.758-5.286,1.703-7.915,2.836c-1.32,0.566-2.631,1.178-3.941,1.861
				c-0.654,0.332-1.31,0.703-1.968,1.082l-0.989,0.61c-0.164,0.101-0.336,0.234-0.504,0.355l-0.253,0.186
				c-0.089,0.076-0.188,0.201-0.286,0.304l0.396-1.197l0.352-0.982c0.232-0.639,0.478-1.256,0.721-1.86
				c0.484-1.224,1.005-2.404,1.541-3.578c1.074-2.34,2.271-4.621,3.566-6.863c2.592-4.42,5.619-8.695,9.331-12.625
				c3.697-3.914,8.021-7.547,13.089-10.312c5.039-2.777,10.74-4.666,16.49-5.396l2.158-0.256c0.719-0.082,1.43-0.07,2.145-0.105
				c1.434-0.045,2.867-0.104,4.264,0.019l1.797,0.106c0.46,0.033,0.926,0.056,1.38,0.104l2.688,0.391l1.229-7.867
				c8.264,7.949,12.637,16.99,15.42,25.771c-2.229,0.734-4.364,1.521-6.403,2.344c-2.062,0.924-4.021,1.896-5.859,2.924
				c-0.924,0.568-1.812,1.146-2.659,1.729c-0.854,0.598-1.684,1.131-2.445,1.828c-1.531,1.35-2.948,2.602-4.086,4.149l1.225-7.86
				l-1.568-0.244l-1.765-0.104c-0.783-0.094-1.526-0.024-2.278-0.01c-0.373,0.021-0.762-0.01-1.123,0.043l-1.095,0.142
				c-2.904,0.375-5.636,1.271-8.245,2.69c-5.199,2.857-9.932,8.021-13.552,14.271c-0.909,1.574-1.769,3.206-2.534,4.875
				c-0.381,0.831-0.747,1.673-1.076,2.5c-0.166,0.416-0.327,0.827-0.475,1.226l-0.334,0.947c-0.059-0.019-0.125-0.007-0.176-0.045
				l-0.139-0.158c-0.093-0.111-0.189-0.205-0.271-0.336c-0.168-0.25-0.34-0.496-0.504-0.759c-0.316-0.53-0.639-1.071-0.933-1.641
				c-0.604-1.125-1.161-2.303-1.687-3.506C414.21,995.712,413.296,993.175,412.54,990.544z"/>
		</g>
	</g>
</g>
<g>
	<g>
		<g>
			<polygon fill="#A09B91" points="971.683,663.863 983.33,652.218 983.33,665.456 983.33,854.613 991.291,854.613 971.683,874.218 
				952.08,854.613 960.038,854.613 960.038,665.456 960.038,652.218 			"/>
		</g>
	</g>
</g>
<g>
	<g>
		<g>
			<path fill="#A09B91" d="M649.57,663.464c0.515-1.245,1.146-2.478,1.771-3.646c0.607-1.17,1.307-2.295,2.032-3.354
				c0.69-1.064,1.514-2.04,2.304-2.938c0.412-0.438,0.857-0.82,1.283-1.194c0.207-0.208,0.456-0.298,0.686-0.431l0.346-0.178
				c0.119-0.021,0.252,0.132,0.369,0.196l-0.003-0.156l-0.005-0.077c-0.003-0.007,0.002,0.021,0.004,0.028l0.018,0.15l0.014,0.147
				l0.039,0.238c0.062,0.326,0.08,0.62,0.181,1.009l0.233,1.112l0.322,1.176c0.445,1.58,1.04,3.217,1.732,4.849
				c2.457,5.812,6.258,11.474,10.718,16.688c4.511,5.203,9.631,10.109,15.38,14.446l2.107,1.672l2.229,1.555l4.451,3.123
				l4.663,2.896c1.57,0.94,3.064,1.979,4.721,2.823l4.86,2.658l2.428,1.332c0.822,0.426,1.672,0.814,2.507,1.224l5.027,2.43
				l2.513,1.215l2.582,1.104l5.174,2.196c1.731,0.722,3.426,1.508,5.211,2.129l10.602,3.947l10.809,3.512l2.702,0.878
				c0.905,0.282,1.829,0.521,2.743,0.782l5.496,1.543c7.277,2.187,14.771,3.8,22.184,5.627c3.729,0.861,7.503,1.562,11.251,2.347
				c3.763,0.735,7.489,1.606,11.294,2.19c30.249,5.41,61.032,8.648,91.938,10.576l11.601,0.658l5.801,0.328
				c1.937,0.11,3.874,0.141,5.812,0.215l23.256,0.764l10.341,0.109l0.112-7.959c6.351,6.604,12.794,13.209,19.328,19.812
				c-6.534,6.466-13.161,12.933-19.88,19.396l0.108-7.959l-10.516-0.111l-23.701-0.776c-1.976-0.074-3.95-0.104-5.926-0.222
				l-5.927-0.336l-11.854-0.672c-31.604-1.973-63.225-5.283-94.65-10.904c-3.938-0.604-7.845-1.514-11.765-2.281
				c-3.915-0.819-7.842-1.551-11.746-2.45c-7.793-1.916-15.619-3.613-23.35-5.922l-5.812-1.635
				c-0.967-0.277-1.938-0.531-2.899-0.832l-2.887-0.935l-11.528-3.752l-11.42-4.25c-1.912-0.668-3.777-1.527-5.66-2.312
				l-5.637-2.396c-7.487-3.295-14.86-6.971-22.079-11.051c-1.832-0.949-3.572-2.131-5.354-3.203l-5.311-3.312l-5.169-3.613
				l-2.581-1.812l-2.5-1.973c-6.742-5.111-13.043-11.061-18.773-17.688c-0.713-0.834-1.437-1.649-2.137-2.502l-2.01-2.649
				c-0.662-0.896-1.351-1.762-1.985-2.678l-1.854-2.812c-2.476-3.749-4.63-7.812-6.479-12.103c-1.031-2.434-1.951-4.944-2.704-7.611
				l-0.543-2.021c-0.165-0.689-0.309-1.416-0.458-2.123c-0.156-0.686-0.268-1.487-0.385-2.252l-0.084-0.581l-0.072-0.672
				l-0.062-0.673l-0.033-0.462l-0.026-0.568c0.133,0.312,0.274,0.702,0.415,0.922l0.419,0.553c0.281,0.35,0.558,0.744,0.852,1.015
				c0.578,0.584,1.148,1.166,1.738,1.682c1.2,1,2.366,1.938,3.611,2.733c1.215,0.82,2.435,1.562,3.702,2.223
				C647.064,662.308,648.278,662.929,649.57,663.464z"/>
		</g>
	</g>
</g>
<path fill="#8ABBE6" d="M75.365,156.17c-0.033-16.127-0.029-32.255,0.006-48.382c0-1.253-0.372-2.19-1.188-3.109
	c-4.089-4.623-8.151-9.271-12.175-13.951c-0.416-0.485-0.699-1.233-0.73-1.873c-0.092-2.03-0.028-4.069-0.046-6.103
	c-0.003-0.436-0.097-0.872-0.143-1.249c-1.354-0.403-25.445-0.31-26.313,0.1c-0.028,0.398-0.092,0.845-0.092,1.293
	c-0.012,1.929-0.028,3.859,0.003,5.788c0.015,0.858-0.254,1.533-0.825,2.183c-3.991,4.525-7.926,9.101-11.935,13.605
	c-0.971,1.089-1.382,2.196-1.382,3.67c0.04,26.204,0.028,52.407,0.022,78.613c0,1.016-0.085,2.033-0.103,3.046
	c-0.092,4.734,1.759,8.583,6.864,9.248c0.659,0.085,1.33,0.083,1.998,0.083c12.415,0.005,24.835,0.005,37.255,0.002
	c0.525,0,1.057,0.023,1.576-0.037c0.687-0.079,1.365-0.186,2.033-0.401c0.041-0.015,0.081-0.026,0.124-0.044
	c0.572-0.197,1.136-0.476,1.687-0.9c-0.051-0.029-0.092-0.053-0.141-0.082c1.688-1.336,3.497-3.389,3.497-3.389v-34.997
	c0.007-0.114,0.014-0.229,0.013-0.352C75.369,158.013,75.367,157.092,75.365,156.17z"/>
<g>
	<path fill="#827C6F" d="M73.768,442.254c-0.004,5.044-0.004,10.088,0.011,15.132c0.017,5.699,4.521,10.229,10.206,10.235
		c20.373,0.018,40.745,0.014,61.118,0.001c5.188-0.003,9.188-3.382,10.187-8.512c0.039-0.205,0.142-0.397,0.215-0.594
		c0-20.8,0-41.6,0-62.397c-0.446-1.567-1.562-2.644-2.68-3.739c-6.013-5.884-12.021-11.774-17.993-17.693
		c-1.637-1.619-3.543-2.382-5.825-2.38c-14.94,0.013-29.885-0.001-44.827,0.011c-5.962,0.006-10.394,4.485-10.401,10.469
		c0,0.001,0,0.003,0,0.005l-0.005-0.005v0.188c-0.022,1.875-0.381,3.872,0,5.606L73.768,442.254L73.768,442.254z M83.896,447.697
		l0.011,0.003v-46.26c0,0.001,0.001,0.001,0.002,0.002c0-0.408,0-0.817,0-1.226c-0.001-5.323-0.01-10.647-0.002-15.971
		c0-1.599,0.195-1.799,1.754-1.799c12.671-0.001,25.341-0.001,38.013-0.001c0.35,0,0.699,0,1.212,0c0,0.447,0,0.821,0,1.195
		c0,4.01-0.009,8.021,0.001,12.032c0.012,4.349,2.861,7.204,7.204,7.215c3.976,0.011,7.95,0.003,11.926,0.003
		c0.386,0,0.771,0,1.312,0c0,0.451,0,0.826,0,1.201c0,17.214,0,34.428,0,51.641c0,1.56-0.211,1.766-1.791,1.766
		c-19.271,0-38.545-0.001-57.816-0.003c-1.643,0-1.81-0.173-1.811-1.842C83.904,453,83.897,450.349,83.896,447.697z"/>
	<rect x="90.42" y="429.687" fill="#827C6F" width="49.829" height="5.333"/>
	<rect x="90.42" y="443.82" fill="#827C6F" width="49.829" height="5.333"/>
	<g>
		<rect x="28.685" y="444.82" fill="#FFFFFF" width="67.577" height="38.56"/>
		<g>
			<path fill="#E3715D" d="M101.129,443.723c0,13.59,0,27.18,0,40.769c-0.098,0.222-0.206,0.44-0.293,0.667
				c-0.704,1.875-2.466,3.107-4.479,3.107c-22.59,0.002-45.18,0.002-67.769,0c-2.046,0-3.804-1.253-4.5-3.18
				c-0.073-0.204-0.18-0.396-0.271-0.594c0-13.589,0-27.178,0-40.769c0.095-0.197,0.196-0.389,0.271-0.594
				c0.696-1.927,2.454-3.178,4.499-3.18c22.589-0.001,45.179-0.001,67.77,0c2.046,0.001,3.808,1.252,4.5,3.18
				C100.932,443.333,101.039,443.525,101.129,443.723z M28.685,483.38c22.57,0,45.071,0,67.577,0c0-6.437,0-12.818,0-19.233
				c-22.539,0-45.042,0-67.577,0C28.685,470.569,28.685,476.952,28.685,483.38z M28.685,454.388c22.57,0,45.071,0,67.575,0
				c0-3.214,0-6.375,0-9.567c-22.538,0-45.042,0-67.575,0C28.685,448.023,28.685,451.183,28.685,454.388z"/>
			<path fill="#E3715D" d="M47.926,478.569c-4.821,0-9.591,0-14.399,0c0-3.191,0-6.351,0-9.57c4.771,0,9.562,0,14.399,0
				C47.926,472.153,47.926,475.332,47.926,478.569z"/>
			<path fill="#E3715D" d="M67.336,478.567c0-1.6,0-3.149,0-4.746c1.584,0,3.146,0,4.759,0c0,1.577,0,3.143,0,4.746
				C70.516,478.567,68.968,478.567,67.336,478.567z"/>
			<path fill="#E3715D" d="M81.75,478.569c-1.604,0-3.15,0-4.738,0c0-1.58,0-3.13,0-4.739c1.551,0,3.117,0,4.738,0
				C81.75,475.376,81.75,476.942,81.75,478.569z"/>
			<path fill="#E3715D" d="M91.42,478.588c-1.605,0-3.137,0-4.729,0c0-1.579,0-3.146,0-4.766c1.552,0,3.113,0,4.729,0
				C91.42,475.393,91.42,476.958,91.42,478.588z"/>
			<path fill="#827C6F" d="M96.26,454.388c-22.504,0-45.005,0-67.575,0v11.442l0,0c0-0.562,0-1.121,0-1.683
				c22.535,0,45.037,0,67.576,0v-11.57H96.26C96.26,453.181,96.26,453.78,96.26,454.388z"/>
		</g>
	</g>
	<rect x="87.212" y="407.291" fill="none" width="54.668" height="14.833"/>
	<g enable-background="new    ">
		<path fill="#E3715D" d="M90.016,407.902h2.091v9.706h4.709v1.751h-6.8V407.902L90.016,407.902z"/>
		<path fill="#E3715D" d="M107.9,413.511c0,3.842-2.329,6.034-5.49,6.034c-3.229,0-5.271-2.464-5.271-5.83c0-3.519,2.21-6,5.439-6
			C105.927,407.715,107.9,410.248,107.9,413.511z M99.349,413.681c0,2.329,1.173,4.182,3.18,4.182c2.021,0,3.16-1.869,3.16-4.267
			c0-2.158-1.069-4.198-3.16-4.198C100.455,409.398,99.349,411.319,99.349,413.681z"/>
		<path fill="#E3715D" d="M111.742,416.112l-0.986,3.247h-2.158l3.672-11.457h2.668l3.724,11.457h-2.243l-1.037-3.247H111.742z
			 M115.023,414.532l-0.9-2.822c-0.222-0.696-0.407-1.479-0.578-2.142h-0.034c-0.17,0.663-0.34,1.462-0.543,2.142l-0.885,2.822
			H115.023z"/>
		<path fill="#E3715D" d="M120.259,419.359v-11.457h2.379l2.958,4.913c0.766,1.274,1.428,2.601,1.954,3.841h0.035
			c-0.137-1.529-0.188-3.008-0.188-4.759v-3.995h1.938v11.457h-2.158l-2.992-5.031c-0.729-1.258-1.496-2.669-2.057-3.961
			l-0.051,0.018c0.085,1.479,0.102,2.991,0.102,4.878v4.097L120.259,419.359L120.259,419.359z"/>
		<path fill="#E3715D" d="M131.7,417.082c0.681,0.391,1.699,0.73,2.771,0.73c1.344,0,2.092-0.629,2.092-1.563
			c0-0.867-0.578-1.377-2.041-1.904c-1.887-0.68-3.094-1.683-3.094-3.331c0-1.87,1.564-3.298,4.047-3.298
			c1.24,0,2.158,0.271,2.753,0.578l-0.51,1.683c-0.408-0.222-1.207-0.544-2.278-0.544c-1.324,0-1.902,0.714-1.902,1.377
			c0,0.884,0.663,1.292,2.191,1.887c1.989,0.748,2.958,1.751,2.958,3.399c0,1.836-1.394,3.434-4.352,3.434
			c-1.207,0-2.465-0.34-3.094-0.714L131.7,417.082z"/>
	</g>
	<rect x="90.42" y="392.021" fill="#827C6F" width="29.163" height="5.333"/>
</g>
<path fill="#827C6F" d="M128.865,154.177c-1.588,2.087-3.198,3.952-4.525,5.996c-3.598,5.547-5.908,11.621-6.836,18.176
	c-0.117,0.831,0.132,1.819,0.503,2.592c0.551,1.148,1.63,1.199,2.458,0.206c0.469-0.557,0.808-1.228,1.165-1.867
	c1.876-3.372,3.672-6.79,5.628-10.113c1.853-3.158,4.054-6.067,6.818-8.508c1.798-1.585,3.825-2.787,6.295-2.284
	c1.508,0.308,3.032,0.919,4.349,1.725c3.304,2.021,5.643,5.022,7.638,8.277c2.687,4.383,4.565,9.065,5.263,14.202
	c0.68,5.031-1.191,8.917-5.108,11.932c-3.172,2.444-6.869,3.775-10.679,4.814c-5.778,1.576-11.691,2.393-17.65,2.721
	c-6.685,0.368-13.383,0.494-20.078,0.711c-7.449,0.24-14.87-0.057-22.196-1.539c-5.268-1.065-10.313-2.738-14.619-6.125
	c-4.813-3.786-7.206-8.868-7.743-14.864c-0.191-2.15,0.577-4.151,1.633-6.01c2.102-3.7,5.134-6.561,8.397-9.191
	c5.3-4.266,11.127-7.703,17.175-10.775c0.183-0.091,0.382-0.148,0.745-0.08c-0.209,0.283-0.403,0.571-0.623,0.845
	c-3.429,4.323-6.735,8.731-8.968,13.822c-0.571,1.305-0.979,2.707-1.257,4.105c-0.171,0.859-0.051,1.819,0.129,2.693
	c0.157,0.779,0.603,1.484,1.545,1.875c0.199-0.385,0.405-0.733,0.57-1.099c2.502-5.633,5.728-10.775,10.15-15.113
	c5.425-5.325,11.921-8.686,19.299-10.393c0.294-0.068,0.6-0.083,1.211-0.166c-0.352,0.522-0.528,0.828-0.749,1.1
	c-4.342,5.388-8.049,11.152-10.398,17.702c-0.902,2.516-1.621,5.085-1.695,7.783c-0.037,1.322,0.26,1.865,1.11,2.116
	c0.879,0.263,1.936-0.223,2.438-1.21c0.38-0.748,0.653-1.55,0.979-2.327c2.709-6.43,6.384-12.183,11.906-16.577
	c4.273-3.403,9.134-5.302,14.67-5.225C128.148,154.108,128.485,154.148,128.865,154.177z"/>
<text transform="matrix(1 0 0 1 29.7598 147.3691)" fill="#FFFFFF" font-family="'MyriadPro-Semibold'" font-size="17">MILK</text>
<g>
	<rect x="-647.967" y="61.812" fill="none" stroke="#928D81" stroke-miterlimit="10" width="500" height="380"/>
	<rect x="-647.967" y="61.812" fill="none" stroke="#928D81" stroke-miterlimit="10" width="500" height="380"/>
	<rect x="-647.967" fill="none" stroke="#928D81" stroke-miterlimit="10" width="500" height="61.812"/>
	<rect x="-647.967" y="503.042" fill="none" stroke="#928D81" stroke-miterlimit="10" width="500" height="380"/>
	<rect x="-647.967" y="503.042" fill="none" stroke="#928D81" stroke-miterlimit="10" width="500" height="380"/>
	<rect x="-647.967" y="441.229" fill="none" stroke="#928D81" stroke-miterlimit="10" width="500" height="61.812"/>
	<rect x="-647.967" y="944.854" fill="none" stroke="#928D81" stroke-miterlimit="10" width="500" height="380"/>
	<rect x="-647.967" y="944.854" fill="none" stroke="#928D81" stroke-miterlimit="10" width="500" height="380"/>
	<rect x="-647.967" y="883.042" fill="none" stroke="#928D81" stroke-miterlimit="10" width="500" height="61.811"/>
	<rect x="-647.967" y="1323.263" fill="none" stroke="#928D81" stroke-miterlimit="10" width="500" height="61.812"/>
</g>
<g>
	<rect x="909.787" y="870.542" fill="none" width="160" height="41.814"/>
	<text transform="matrix(1 0 0 1 940.6504 882.7646)" fill="#555555" font-family="'Helvetica'" font-size="17">Cash outflow </text>
	<text transform="matrix(1 0 0 1 951.0312 903.166)" fill="#555555" font-family="'Helvetica'" font-size="17">S$ 15,000</text>
	<rect x="909.787" y="438.271" fill="none" width="160" height="42.709"/>
	<text transform="matrix(1 0 0 1 944.4238 450.4941)" fill="#555555" font-family="'Helvetica'" font-size="17">Expenditure </text>
	<text transform="matrix(1 0 0 1 951.0312 470.8936)" fill="#555555" font-family="'Helvetica'" font-size="17">S$ 12,000</text>
	<rect x="647.797" y="438.271" fill="none" width="160" height="42.709"/>
	<text transform="matrix(1 0 0 1 697.5566 450.4941)" fill="#555555" font-family="'Helvetica'" font-size="17">Savings </text>
	<text transform="matrix(1 0 0 1 693.7676 470.8936)" fill="#555555" font-family="'Helvetica'" font-size="17">S$ 3,000</text>
	<rect x="873.514" y="9.098" fill="none" width="232.547" height="60"/>
	<text transform="matrix(1 0 0 1 929.3115 21.3203)" fill="#555555" font-family="'Helvetica'" font-size="17">Debt repayment </text>
	<text transform="matrix(1 0 0 1 955.7578 41.7207)" fill="#555555" font-family="'Helvetica'" font-size="17">S$ 2,000</text>
	<rect x="647.797" y="8.098" fill="none" width="160" height="60"/>
	<text transform="matrix(1 0 0 1 690.4688 20.3203)" fill="#555555" font-family="'Helvetica'" font-size="17">Expenses </text>
	<text transform="matrix(1 0 0 1 689.041 40.7207)" fill="#555555" font-family="'Helvetica'" font-size="17">S$ 10,000</text>
	<rect x="646.721" y="870.542" fill="none" width="160" height="41.814"/>
	<text transform="matrix(1 0 0 1 680.4219 882.7646)" fill="#555555" font-family="'Helvetica'" font-size="17">Cash intflow </text>
	<text transform="matrix(1 0 0 1 687.9648 903.166)" fill="#555555" font-family="'Helvetica'" font-size="17">S$ 30,000</text>
	<rect x="782.299" y="1299.998" fill="none" width="160" height="43.143"/>
	<text transform="matrix(1 0 0 1 813.6387 1312.2207)" fill="#555555" font-family="'Helvetica'" font-size="17">Net cashflow </text>
	<text transform="matrix(1 0 0 1 823.543 1332.6191)" fill="#555555" font-family="'Helvetica'" font-size="17">S$ 15,000</text>
</g>
<g>
	<g>
		<g>
			<polygon fill="#A09B91" points="963.047,223.169 974.695,205.531 974.695,225.582 974.695,394.497 982.656,394.497 
				963.047,424.191 943.445,394.497 951.403,394.497 951.403,225.582 951.403,205.531 			"/>
		</g>
	</g>
</g>
<path fill="none" stroke="#928D81" stroke-width="22" stroke-miterlimit="10" d="M964.698,297.654H708.159c0,0-75-1.761-75-64.729
	v-33.587"/>
<rect x="951.403" y="199.338" fill="#928D81" width="23.292" height="65.726"/>
<g>
	<path fill="#FED82F" d="M86.027,784.218l-2.414-1.304c-19.647-10.612-33.512-22.45-41.207-35.188
		c-5.771-9.551-5.957-16.346-5.935-17.621v-58.294l6.08,1.226c2.961,0.599,6.031,0.899,9.121,0.899
		c17.543,0,31.283-9.692,31.42-9.792l3.197-2.289l3.026,2.518c0.011,0.01,2.933,2.385,8.183,4.721
		c4.797,2.134,12.602,4.676,22.533,4.676h0.001c3.177,0,6.433-0.259,9.679-0.768l5.867-0.926v58.028
		c0.022,1.275-0.162,8.069-5.935,17.622c-7.695,12.736-21.56,24.574-41.206,35.188L86.027,784.218z M46.627,730.34
		c0.021,0.63,0.344,5.665,5.033,13.043c8.027,12.623,22.66,22.695,34.366,29.268c11.707-6.57,26.339-16.645,34.366-29.268
		c4.746-7.466,5.02-12.533,5.033-13.063l-0.01-0.146l0.01-0.012v-46.442c-1.809,0.138-3.608,0.208-5.391,0.208
		c-0.001,0-0.001,0-0.002,0c-16.884-0.001-28.792-6.128-34.117-9.545c-5.668,3.354-18.498,9.711-34.242,9.711
		c-1.688,0-3.375-0.073-5.045-0.223L46.627,730.34L46.627,730.34z"/>
</g>
<g>
	<path fill="#827C6F" d="M86.027,773.409l-1.987-1.073c-16.176-8.737-27.591-18.483-33.928-28.97
		c-4.751-7.864-4.904-13.459-4.886-14.511V680.86l5.006,1.01c2.438,0.492,4.965,0.74,7.509,0.74c14.444,0,25.758-7.979,25.87-8.062
		l2.634-1.887l2.491,2.072c0.011,0.008,2.414,1.963,6.735,3.887c3.951,1.758,10.375,3.852,18.554,3.852c0.001,0,0.001,0,0.002,0
		c2.615,0,5.296-0.213,7.97-0.633l4.83-0.764v47.778c0.018,1.052-0.134,6.646-4.886,14.511
		c-6.336,10.485-17.751,20.231-33.927,28.971L86.027,773.409z"/>
</g>
<g>
	<path fill="#FFFFFF" d="M87.775,753.358H84.28v-7.17c-4.732-0.527-8.263-1.562-10.593-3.099c-4.106-2.763-6.125-7.472-6.054-14.124
		h9.729c0.336,3.025,0.805,5.057,1.405,6.089c0.937,1.608,2.774,2.653,5.513,3.135v-15.386l-2.918-0.864
		c-4.588-1.345-7.824-3.219-9.71-5.62c-1.886-2.4-2.828-5.297-2.828-8.685c0-2.233,0.366-4.263,1.099-6.088
		c0.732-1.826,1.76-3.4,3.082-4.722c1.705-1.705,3.603-2.881,5.691-3.53c1.273-0.408,3.135-0.708,5.585-0.9v-4.792h3.495v4.863
		c3.896,0.312,6.957,1.273,9.182,2.883c4.041,2.57,6.131,6.738,6.275,12.503h-9.477c-0.189-2.139-0.545-3.698-1.067-4.685
		c-0.901-1.705-2.54-2.644-4.913-2.812v13.729c5.691,1.969,9.518,3.711,11.479,5.225c3.228,2.521,4.842,6.076,4.842,10.664
		c0,6.055-2.223,10.449-6.665,13.188c-2.714,1.684-5.933,2.666-9.656,2.955V753.358z M84.279,700.43
		c-2.09,0.048-3.639,0.606-4.647,1.675c-1.01,1.069-1.514,2.528-1.514,4.378c0,2.02,0.758,3.615,2.27,4.792
		c0.841,0.648,2.138,1.249,3.892,1.803V700.43z M87.775,738.081c1.875-0.239,3.241-0.672,4.097-1.297
		c1.498-1.105,2.245-3.017,2.245-5.729c0-2.065-0.7-3.698-2.102-4.899c-0.831-0.695-2.244-1.418-4.239-2.162L87.775,738.081
		L87.775,738.081z"/>
</g>
<path fill="#928D81" d="M1234.604,205.434c0,30.428,15.229,53.262,44.043,66.034c20.52,9.096,40.844,9.672,41.699,9.692
	l243.502,0.003v-22h-243.06c-1.433-0.057-17.864-0.859-33.746-8.041c-20.481-9.262-30.438-24.207-30.438-45.688"/>
<path fill="#928D81" d="M1234.604,417.766c0-30.428,15.229-53.262,44.043-66.034c20.52-9.096,40.844-9.672,41.699-9.692
	l243.502-0.003v22h-243.06c-1.433,0.057-17.864,0.859-33.746,8.041c-20.481,9.262-30.438,24.207-30.438,45.688"/>
<polygon fill="#928D81" points="1587.142,400.594 1587.142,271.16 1587.142,231.678 1587.142,211.627 1587.142,205.434 
	1563.85,205.434 1563.85,211.627 1563.85,231.678 1563.85,271.16 1563.85,292.75 1563.848,292.75 1563.848,314.75 1563.848,326.039 
	1563.848,400.593 1555.89,400.593 1575.491,430.287 1595.101,400.593 "/>
<g>
	<rect x="-1057.386" fill="none" stroke="#928D81" stroke-miterlimit="10" width="855.5" height="61.812"/>
	<rect x="-1057.386" fill="none" stroke="#928D81" stroke-miterlimit="10" width="855.5" height="61.812"/>
	<rect x="-1057.386" y="61.812" fill="none" stroke="#928D81" stroke-miterlimit="10" width="855.5" height="231.227"/>
	<rect x="-1057.386" y="291.752" fill="none" stroke="#928D81" stroke-miterlimit="10" width="855.5" height="61.812"/>
	<rect x="-1057.386" y="291.752" fill="none" stroke="#928D81" stroke-miterlimit="10" width="855.5" height="61.812"/>
	<rect x="-1057.386" y="353.564" fill="none" stroke="#928D81" stroke-miterlimit="10" width="855.5" height="231.227"/>
	<rect x="-1057.386" y="585.839" fill="none" stroke="#928D81" stroke-miterlimit="10" width="855.5" height="61.812"/>
	<rect x="-1057.386" y="585.839" fill="none" stroke="#928D81" stroke-miterlimit="10" width="855.5" height="61.812"/>
	<rect x="-1057.386" y="647.651" fill="none" stroke="#928D81" stroke-miterlimit="10" width="855.5" height="231.228"/>
</g>
<polygon fill="#928D81" points="423.025,718.517 423.025,697.706 423.025,679.036 423.025,658.985 423.025,652.792 423.025,283.039 
	399.733,283.039 399.733,652.792 399.733,658.985 399.733,679.036 399.733,697.706 399.733,718.517 399.733,740.109 
	399.731,740.109 399.731,762.109 399.731,816.039 399.731,847.952 391.773,847.952 411.375,877.645 430.984,847.952 423.025,847.95 
	"/>
<path fill="none" stroke="#928D81" stroke-width="23.5" stroke-miterlimit="10" d="M189.5,145.191h141.853
	c0,0,80.026-4.953,80.026,58.947"/>
<path fill="none" stroke="#928D81" stroke-width="23.5" stroke-miterlimit="10" d="M189.5,431.774h141.853
	c0,0,80.026-4.953,80.026,58.947"/>
<path fill="none" stroke="#928D81" stroke-width="23.5" stroke-miterlimit="10" d="M189.5,720.57h141.853
	c0,0,80.026-4.953,80.026,58.947"/>
<rect x="399.733" y="202.164" fill="#928D81" width="23.292" height="236.107"/>
<g>
	<rect x="62.025" y="246.119" fill="#928D81" width="47.679" height="13.388"/>
	<rect x="79.171" y="228.973" fill="#928D81" width="13.385" height="47.679"/>
</g>
<g>
	<rect x="67.581" y="534.188" fill="#928D81" width="47.679" height="13.388"/>
	<rect x="84.728" y="517.042" fill="#928D81" width="13.385" height="47.679"/>
</g>
<path fill="#E3715D" d="M294.363,1304.348c-0.392,0-0.774,0.03-1.151,0.076c-2.35-12.651-10.908-23.44-22.805-29.819
	c-3.57,6.354-10.373,10.65-18.182,10.65c-9.546,0-17.587-6.419-20.059-15.174c-0.127,0.027-0.254-0.684-0.379-0.646
	c-2.848-2.226-6.739-4.648-10.479-8.102c-0.95-0.876-2.257-2.084-3.56-2.379c-1.432-0.323-2.155,0.746-2.416,2.007
	c-0.544,2.639-0.191,5.549-0.288,8.223c-0.106,2.99-0.202,5.982-0.302,8.979c-6.439,4.682-11.489,10.812-14.539,17.822h-8.413
	c-2.853,0-5.165,2.312-5.165,5.164v16.977c0,2.853,2.312,5.165,5.165,5.165h7.016c3.164,9.874,10.194,18.304,19.55,23.901v11.021
	c0,1.631,1.321,2.952,2.952,2.952h11.312c1.631,0,2.951-1.321,2.951-2.952v-4.578c3.178,0.581,6.469,0.889,9.84,0.889
	c3.373,0,6.66-0.312,9.838-0.896v4.588c0,1.631,1.321,2.952,2.951,2.952h10.577c1.63,0,2.951-1.321,2.951-2.952v-10.604
	c11.786-6.796,20.046-18.01,21.783-31.006c0.276,0.023,0.56,0.039,0.846,0.039c4.211,0,7.625-2.754,7.625-6.146
	C301.984,1307.104,298.574,1304.348,294.363,1304.348z M218.82,1300.35c-3.619,0-6.644-2.515-7.442-5.89
	c0.993,1.398,2.627,2.316,4.478,2.316c3.031,0,5.488-2.457,5.488-5.483c0-3.03-2.457-5.487-5.488-5.487
	c-0.136,0-0.269,0.012-0.4,0.02c1.018-0.494,2.157-0.782,3.366-0.782c4.229,0,7.656,3.427,7.656,7.651
	C226.477,1296.923,223.049,1300.35,218.82,1300.35z"/>
<g>
	<circle fill="#827C6F" cx="252.425" cy="1260.688" r="17.094"/>
	<path fill="#FFFFFF" d="M257.54,1255.679c-1.48-0.199-2.863-0.4-4.25-0.559c-0.361-0.041-0.742,0.028-1.104,0.102
		c-0.629,0.122-1.089,0.474-1.175,1.139c-0.079,0.645,0.179,1.168,0.777,1.441c0.748,0.34,1.528,0.604,2.28,0.938
		c0.992,0.44,2.022,0.827,2.942,1.396c1.854,1.139,2.537,2.867,2.178,4.997c-0.343,2.024-1.727,3.017-3.585,3.503
		c-0.153,0.04-0.306,0.084-0.547,0.146c0.03,0.971,0.062,1.941,0.1,3.055c-1.026-0.014-2.047-0.021-3.177-0.033
		c-0.062-0.999-0.12-1.963-0.173-2.828c-1.623-0.423-3.175-0.828-4.796-1.25c0.373-1.119,0.683-2.039,0.96-2.868
		c1.403,0.307,2.711,0.646,4.036,0.854c0.668,0.104,1.381,0.012,2.062-0.074c0.606-0.077,1.117-0.379,1.267-1.047
		c0.155-0.697-0.056-1.312-0.652-1.668c-0.631-0.381-1.324-0.664-2.008-0.95c-1.004-0.419-2.06-0.731-3.029-1.216
		c-1.916-0.953-2.734-2.502-2.532-4.55c0.204-2.062,1.294-3.382,3.371-3.956c0.521-0.146,0.687-0.386,0.647-0.885
		c-0.047-0.653-0.057-1.312-0.086-2.088c1.102,0.025,2.125,0.049,3.235,0.074c0.044,0.893,0.087,1.729,0.126,2.558
		c1.037,0.233,2.043,0.455,3.047,0.688c0.534,0.125,0.825,0.345,0.592,1.002C257.792,1254.315,257.68,1255.081,257.54,1255.679z"/>
</g>
</svg>
