<?xml version="1.0" encoding="utf-8"?>
<!-- Generator: Adobe Illustrator 16.0.0, SVG Export Plug-In . SVG Version: 6.00 Build 0)  -->
<!DOCTYPE svg PUBLIC "-//W3C//DTD SVG 1.1//EN" "http://www.w3.org/Graphics/SVG/1.1/DTD/svg11.dtd">
<svg version="1.1" id="Layer_1" xmlns="http://www.w3.org/2000/svg" xmlns:xlink="http://www.w3.org/1999/xlink" x="0px" y="0px"
	 width="500px" height="1385.078px" viewBox="0 0 500 1385.078" enable-background="new 0 0 500 1385.078" xml:space="preserve">
<path fill="#A09B91" d="M384.957,1065.46c-1.447,7.129-3.706,13.887-7.208,19.752c-2.062,3.453-4.526,6.594-7.468,9.359
	c-2.947,2.76-6.354,5.166-10.212,7.237c-7.718,4.138-17.19,6.972-27.444,8.691c-1.262,0.244-2.562,0.432-3.867,0.617
	c-1.306,0.18-2.587,0.404-3.922,0.539l-3.97,0.463l-4.853,0.627c-6.53,0.791-13.051,2.285-19.447,4.082l-4.737,1.563
	c-0.783,0.275-1.583,0.506-2.353,0.816l-2.303,0.938c-1.521,0.644-3.086,1.216-4.562,1.935l-4.413,2.178
	c-5.746,3.078-11.171,6.6-15.914,10.613c-4.728,4.018-8.89,8.395-12.463,12.992c-1.881,2.413-3.562,4.896-5.098,7.416
	c-1.537-2.521-3.218-5.002-5.1-7.416c-3.573-4.599-7.736-8.978-12.463-12.994c-4.747-4.015-10.168-7.535-15.914-10.613l-4.416-2.176
	c-1.476-0.72-3.042-1.291-4.564-1.937l-2.301-0.934c-0.766-0.312-1.568-0.545-2.352-0.816l-4.738-1.567
	c-6.397-1.796-12.916-3.289-19.45-4.08l-4.849-0.629l-3.971-0.464c-1.335-0.135-2.615-0.356-3.921-0.536
	c-1.304-0.187-2.605-0.373-3.868-0.617c-10.253-1.721-19.728-4.556-27.443-8.689c-3.857-2.074-7.264-4.479-10.211-7.238
	c-2.939-2.768-5.405-5.907-7.468-9.36c-3.501-5.863-5.76-12.623-7.207-19.75H76.101c1.668,9.754,4.521,19.822,10.304,29.569
	c2.985,5.007,6.78,9.882,11.43,14.252c4.648,4.371,10.097,8.201,15.936,11.337c5.841,3.145,12.04,5.608,18.29,7.553
	c6.257,1.955,12.578,3.381,18.856,4.447c1.573,0.299,3.14,0.526,4.707,0.752c1.564,0.219,3.138,0.481,4.694,0.643l4.681,0.543
	l3.781,0.502c5.004,0.586,9.729,1.723,14.339,2.979l3.347,1.117c0.552,0.193,1.133,0.346,1.664,0.568l1.595,0.66
	c1.052,0.455,2.165,0.832,3.176,1.336l3.042,1.5c3.937,2.135,7.663,4.518,10.964,7.312c3.284,2.81,6.253,5.908,8.872,9.269
	c2.628,3.354,4.813,7.021,6.72,10.817c3.788,7.609,6.21,15.927,7.407,24.354c0.28,1.92,0.474,3.848,0.613,5.76
	c0.04,0.543,0.058,1.076,0.083,1.613h-15.353l30.124,32.812l28.827-32.812h-15.353c0.023-0.537,0.043-1.07,0.082-1.613
	c0.139-1.912,0.334-3.838,0.613-5.76c1.198-8.428,3.62-16.742,7.408-24.353c1.904-3.797,4.092-7.463,6.718-10.817
	c2.62-3.359,5.588-6.459,8.872-9.269c3.301-2.795,7.025-5.178,10.963-7.311l3.041-1.502c1.013-0.504,2.124-0.881,3.176-1.336
	l1.598-0.66c0.528-0.224,1.109-0.375,1.665-0.566l3.346-1.116c4.609-1.261,9.333-2.396,14.339-2.982l3.779-0.5l4.681-0.545
	c1.558-0.16,3.132-0.424,4.696-0.646c1.565-0.223,3.132-0.451,4.705-0.75c6.276-1.065,12.602-2.491,18.855-4.446
	c6.251-1.943,12.449-4.41,18.29-7.556c5.839-3.133,11.287-6.965,15.938-11.334c4.649-4.371,8.443-9.248,11.433-14.254
	c5.782-9.748,8.635-19.816,10.304-29.57H384.957L384.957,1065.46z"/>
<rect x="225.707" y="950.318" fill="#928D81" width="47.679" height="13.385"/>
<g>
	<rect x="225.707" y="521.639" fill="#928D81" width="47.679" height="13.386"/>
	<rect x="242.854" y="504.492" fill="#928D81" width="13.384" height="47.679"/>
</g>
<path fill="#827C6F" d="M300.865,1240.16c2.979,16.83,5.929,33.504,8.918,50.395c-2.434,0.75-4.826,1.539-7.248,2.228
	c-9.498,2.688-19.212,4.229-29.012,5.24c-12.463,1.284-24.952,2.35-37.399,3.771c-10.683,1.221-21.188,3.402-31.352,7.027
	c-0.297,0.104-0.607,0.174-1.084,0.309c-2.957-16.809-5.898-33.521-8.882-50.475c3.575-1.107,7.038-2.291,10.563-3.254
	c10.397-2.836,21.049-4.14,31.748-5.148c12.614-1.191,25.24-2.275,37.824-3.734c8.425-0.979,16.66-3.036,24.66-5.928
	C299.954,1240.462,300.309,1240.349,300.865,1240.16z M258.956,1264.964c0.104-1.08,0.119-2.451,0.397-3.766
	c0.256-1.209-0.309-1.525-1.275-1.619c-1.814-0.174-3.63-0.324-5.504-0.49c-0.268-1.447-0.536-2.901-0.823-4.455
	c-1.955,0.215-3.754,0.414-5.693,0.629c0.234,1.349,0.405,2.5,0.643,3.644c0.183,0.865-0.049,1.317-0.93,1.694
	c-3.507,1.507-5.108,4.07-4.981,7.734c0.126,3.639,1.927,6.162,5.511,7.385c1.816,0.619,3.739,0.92,5.6,1.42
	c1.269,0.343,2.552,0.677,3.746,1.193c1.136,0.49,1.647,1.512,1.539,2.771c-0.104,1.207-0.929,1.855-1.976,2.136
	c-1.175,0.311-2.399,0.639-3.599,0.612c-2.375-0.051-4.746-0.338-7.279-0.541c-0.292,1.521-0.616,3.207-1.01,5.257
	c2.943,0.36,5.758,0.704,8.705,1.065c0.297,1.504,0.627,3.183,0.969,4.918c1.984-0.244,3.775-0.463,5.581-0.686
	c-0.325-1.939-0.61-3.646-0.894-5.33c0.405-0.174,0.664-0.285,0.924-0.393c3.146-1.291,5.342-3.353,5.465-6.986
	c0.13-3.822-1.477-6.693-4.994-8.254c-1.746-0.775-3.646-1.213-5.491-1.752c-1.396-0.408-2.83-0.689-4.223-1.109
	c-1.113-0.338-1.689-1.205-1.699-2.346c-0.009-1.188,0.717-1.912,1.79-2.273c0.619-0.207,1.271-0.424,1.913-0.438
	C253.838,1264.936,256.312,1264.964,258.956,1264.964z M220.261,1287.636c4.491-0.014,8.11-3.561,8.06-7.897
	c-0.052-4.443-3.733-8.127-8.1-8.104c-4.338,0.021-7.81,3.646-7.815,8.15C212.4,1284.251,215.8,1287.652,220.261,1287.636z
	 M276.084,1269.445c-0.01,4.444,3.643,8.176,8.012,8.178c4.27,0.004,7.891-3.738,7.889-8.148c0-4.315-3.459-7.815-7.778-7.873
	C279.755,1261.542,276.093,1265.078,276.084,1269.445z"/>
<path fill="#827C6F" d="M199.092,1317.767c-2.973-16.891-5.909-33.569-8.874-50.418c1.06-0.395,2.13-0.797,3.326-1.243
	c2.716,15.354,5.41,30.579,8.132,45.967c0.742-0.246,1.31-0.431,1.872-0.623c9.468-3.287,19.218-5.412,29.147-6.549
	c12.398-1.418,24.837-2.474,37.249-3.773c11.438-1.199,22.783-2.928,33.802-6.371c0.173-0.055,0.362-0.055,0.703-0.104
	c0.271,1.442,0.538,2.858,0.85,4.518c-3.161,0.939-6.278,1.957-9.442,2.793c-9.4,2.478-18.992,3.875-28.648,4.863
	c-12.93,1.318-25.877,2.482-38.781,4.014c-9.548,1.131-18.908,3.297-28.001,6.5C200.031,1317.474,199.636,1317.591,199.092,1317.767
	z"/>
<path fill="#FFFFFF" d="M258.956,1264.964c-2.646,0-5.118-0.029-7.589,0.021c-0.643,0.014-1.294,0.229-1.913,0.438
	c-1.073,0.361-1.799,1.088-1.79,2.273c0.01,1.141,0.586,2.008,1.699,2.346c1.393,0.42,2.827,0.701,4.223,1.108
	c1.846,0.539,3.745,0.978,5.491,1.752c3.519,1.562,5.124,4.433,4.993,8.255c-0.122,3.637-2.315,5.694-5.465,6.985
	c-0.258,0.107-0.518,0.219-0.924,0.394c0.282,1.688,0.567,3.391,0.895,5.329c-1.807,0.224-3.598,0.441-5.581,0.687
	c-0.343-1.736-0.672-3.414-0.97-4.918c-2.946-0.361-5.761-0.705-8.706-1.066c0.394-2.049,0.718-3.733,1.01-5.256
	c2.533,0.203,4.904,0.49,7.279,0.541c1.197,0.025,2.424-0.303,3.599-0.612c1.047-0.277,1.87-0.929,1.976-2.136
	c0.108-1.26-0.404-2.28-1.537-2.77c-1.196-0.521-2.479-0.855-3.746-1.193c-1.86-0.5-3.783-0.801-5.602-1.42
	c-3.584-1.223-5.385-3.746-5.511-7.385c-0.127-3.664,1.475-6.23,4.981-7.734c0.881-0.377,1.112-0.83,0.93-1.697
	c-0.237-1.141-0.408-2.295-0.643-3.641c1.939-0.215,3.738-0.414,5.693-0.629c0.287,1.553,0.558,3.008,0.823,4.455
	c1.873,0.166,3.688,0.313,5.504,0.487c0.969,0.097,1.529,0.41,1.273,1.619C259.075,1262.513,259.061,1263.884,258.956,1264.964z"/>
<path fill="#FFFFFF" d="M220.261,1287.636c-4.461,0.017-7.86-3.385-7.855-7.852c0.006-4.506,3.478-8.129,7.815-8.15
	c4.366-0.024,8.048,3.658,8.1,8.104C228.371,1284.078,224.752,1287.625,220.261,1287.636z"/>
<path fill="#FFFFFF" d="M276.084,1269.445c0.009-4.367,3.671-7.902,8.12-7.847c4.319,0.06,7.778,3.56,7.78,7.873
	c0.002,4.41-3.621,8.152-7.889,8.148C279.727,1277.621,276.074,1273.89,276.084,1269.445z"/>
<path fill="#827C6F" d="M22.088,1012.984c9.242-3.845,18.158-7.787,27.259-11.24c5.335-2.023,10.722-1.031,15.57,1.979
	c4.138,2.582,8.288,5.177,12.176,8.115c7.423,5.617,15.73,8.326,24.972,8.531c3.363,0.078,6.725,0.34,10.075,0.672
	c2.005,0.193,3.523,1.191,3.805,3.428c0.301,2.414-0.941,4.035-3.042,4.713c-2.165,0.705-4.471,1.271-6.731,1.326
	c-7.013,0.16-14.052,0.416-21.04-0.062c-4.887-0.34-9.703-1.808-14.539-2.818c-1.089-0.229-2.126-0.68-3.292-0.787
	c4.579,4.638,9.646,8.729,16.332,8.959c8.942,0.31,17.915,0.021,26.855-0.396c2.332-0.107,4.771-1.353,6.847-2.594
	c3.395-2.023,4.452-5.343,3.952-9.197c-0.493-3.851-2.626-6.461-6.315-7.385c-2.895-0.726-5.931-0.974-8.922-1.187
	c-2.6-0.19-5.226-0.045-7.839-0.045c-0.064-0.32-0.128-0.646-0.186-0.973c5.085-2.818,10.062-5.867,15.294-8.386
	c4.458-2.146,6.488-1.416,10.427,2.127c3.459-1.106,6.533-2.528,9.748-3.01c3.952-0.59,6.149,1.537,6.86,5.854
	c1.562-0.666,3.017-1.531,4.592-1.902c2.21-0.518,4.509-0.938,6.764-0.908c2.396,0.025,4.144,1.597,5.079,3.752
	c0.942,2.172,0.327,4.261-1.288,5.888c-1.614,1.627-3.305,3.26-5.213,4.516c-15.557,10.26-31.256,20.303-46.736,30.686
	c-7.404,4.966-14.628,4.996-22.288,0.976c-7.77-4.08-15.718-7.834-23.391-12.086c-5.373-2.984-10.184-3.019-15.039,0.832
	c-1.716,1.356-3.669,2.422-5.783,3.791C32.092,1035.158,27.218,1024.361,22.088,1012.984z"/>
<g>
	<g>
		<g>
			<path fill="#99C4E9" d="M42.76,962.765c-2.096-1.78-4.345-3.459-6.744-5.02c-1.202-0.787-2.437-1.539-3.731-2.252
				c-0.642-0.363-1.312-0.703-1.991-1.041l-1.059-0.484c-0.172-0.082-0.381-0.147-0.573-0.223l-0.296-0.107
				c-0.111-0.03-0.273-0.049-0.408-0.071l1.216-0.332l1.013-0.252c0.662-0.16,1.308-0.302,1.95-0.437
				c1.285-0.268,2.557-0.494,3.832-0.697c2.547-0.396,5.107-0.666,7.692-0.825c5.117-0.289,10.353-0.136,15.679,0.782
				c5.306,0.912,10.725,2.5,15.833,5.191c5.104,2.658,9.832,6.361,13.623,10.746l1.407,1.655c0.466,0.556,0.851,1.15,1.276,1.729
				c0.829,1.166,1.676,2.33,2.345,3.555l0.904,1.56c0.227,0.399,0.468,0.801,0.679,1.205l1.163,2.455l7.23-3.334
				c-2.045,11.28-7.155,19.928-12.922,27.104c-1.847-1.447-3.683-2.791-5.498-4.033c-1.913-1.209-3.804-2.303-5.68-3.264
				c-0.983-0.453-1.954-0.873-2.912-1.26c-0.969-0.375-1.872-0.771-2.876-1.023c-1.971-0.526-3.798-1.014-5.721-1.104l7.227-3.332
				l-0.667-1.445l-0.889-1.523c-0.357-0.704-0.825-1.288-1.256-1.905c-0.224-0.299-0.412-0.638-0.657-0.91l-0.722-0.832
				c-1.922-2.213-4.176-3.99-6.807-5.377c-5.259-2.75-12.179-3.828-19.385-3.385c-1.818,0.112-3.651,0.303-5.464,0.586
				c-0.904,0.145-1.806,0.303-2.68,0.485c-0.438,0.093-0.87,0.187-1.28,0.285l-0.974,0.248c-0.019-0.057-0.064-0.108-0.058-0.172
				l0.055-0.205c0.042-0.135,0.066-0.27,0.129-0.41c0.114-0.278,0.225-0.559,0.353-0.84c0.266-0.559,0.54-1.125,0.849-1.684
				c0.602-1.123,1.274-2.242,1.987-3.342C39.38,967.017,40.987,964.851,42.76,962.765z"/>
		</g>
	</g>
</g>
<path fill="#827C6F" d="M345.773,1012.984c9.24-3.845,18.156-7.787,27.26-11.24c5.334-2.023,10.723-1.031,15.566,1.979
	c4.141,2.582,8.291,5.177,12.18,8.115c7.424,5.617,15.729,8.326,24.973,8.531c3.361,0.078,6.725,0.34,10.074,0.672
	c2.004,0.193,3.521,1.191,3.805,3.428c0.301,2.414-0.939,4.035-3.043,4.713c-2.164,0.705-4.471,1.271-6.729,1.326
	c-7.016,0.16-14.055,0.416-21.039-0.062c-4.891-0.34-9.705-1.808-14.541-2.818c-1.088-0.229-2.127-0.68-3.291-0.787
	c4.578,4.638,9.646,8.729,16.332,8.959c8.939,0.31,17.914,0.021,26.854-0.396c2.332-0.107,4.771-1.353,6.848-2.594
	c3.395-2.023,4.451-5.343,3.951-9.197c-0.492-3.851-2.625-6.461-6.312-7.385c-2.896-0.726-5.934-0.974-8.924-1.187
	c-2.602-0.19-5.227-0.045-7.838-0.045c-0.064-0.32-0.131-0.646-0.188-0.973c5.086-2.818,10.062-5.867,15.297-8.386
	c4.457-2.146,6.486-1.416,10.426,2.127c3.459-1.106,6.533-2.528,9.748-3.01c3.951-0.59,6.148,1.537,6.859,5.854
	c1.562-0.666,3.018-1.531,4.592-1.902c2.211-0.518,4.51-0.938,6.766-0.908c2.396,0.025,4.145,1.597,5.078,3.752
	c0.941,2.172,0.326,4.261-1.288,5.888c-1.612,1.627-3.306,3.26-5.214,4.516c-15.557,10.26-31.254,20.303-46.734,30.686
	c-7.402,4.966-14.627,4.996-22.287,0.976c-7.771-4.08-15.719-7.834-23.395-12.086c-5.37-2.984-10.182-3.019-15.035,0.832
	c-1.719,1.356-3.672,2.422-5.783,3.791C355.777,1035.158,350.904,1024.361,345.773,1012.984z"/>
<g>
	<g>
		<g>
			<path fill="#E78372" d="M412.54,990.544c-2.646,0.758-5.286,1.703-7.915,2.836c-1.32,0.566-2.631,1.178-3.941,1.861
				c-0.656,0.332-1.31,0.703-1.968,1.082l-0.989,0.612c-0.164,0.099-0.336,0.234-0.504,0.355l-0.253,0.186
				c-0.089,0.076-0.188,0.201-0.286,0.302l0.396-1.197l0.352-0.982c0.232-0.639,0.476-1.256,0.719-1.862
				c0.486-1.222,1.005-2.404,1.541-3.578c1.076-2.34,2.271-4.621,3.568-6.863c2.592-4.42,5.619-8.695,9.331-12.625
				c3.697-3.914,8.021-7.547,13.089-10.312c5.039-2.777,10.74-4.666,16.49-5.396l2.158-0.256c0.719-0.082,1.43-0.07,2.145-0.105
				c1.432-0.045,2.867-0.104,4.262,0.017l1.797,0.108c0.46,0.033,0.926,0.054,1.38,0.103l2.688,0.391l1.228-7.867
				c8.264,7.949,12.637,16.99,15.42,25.769c-2.229,0.734-4.364,1.52-6.403,2.344c-2.063,0.924-4.021,1.896-5.861,2.924
				c-0.922,0.568-1.81,1.146-2.659,1.729c-0.853,0.598-1.682,1.131-2.445,1.828c-1.531,1.35-2.948,2.602-4.086,4.151l1.225-7.862
				l-1.57-0.244l-1.763-0.104c-0.785-0.094-1.528-0.026-2.28-0.01c-0.373,0.021-0.761-0.01-1.123,0.043l-1.094,0.141
				c-2.905,0.375-5.635,1.271-8.246,2.691c-5.199,2.857-9.93,8.021-13.55,14.27c-0.911,1.576-1.769,3.207-2.536,4.875
				c-0.379,0.832-0.747,1.673-1.076,2.5c-0.166,0.416-0.327,0.828-0.473,1.226l-0.334,0.947c-0.059-0.017-0.125-0.007-0.176-0.045
				l-0.139-0.158c-0.093-0.111-0.189-0.205-0.271-0.336c-0.168-0.25-0.34-0.496-0.504-0.759c-0.318-0.53-0.639-1.071-0.933-1.639
				c-0.604-1.125-1.161-2.303-1.685-3.506C414.21,995.712,413.296,993.175,412.54,990.544z"/>
		</g>
	</g>
</g>
<path fill="#E3715D" d="M139.716,570.46c-0.392,0-0.774,0.03-1.151,0.076c-2.35-12.651-10.909-23.44-22.805-29.819
	c-3.571,6.354-10.373,10.65-18.182,10.65c-9.546,0-17.587-6.419-20.059-15.174c-0.126,0.029-0.253-0.682-0.378-0.646
	c-2.848-2.226-6.739-4.65-10.479-8.102c-0.95-0.876-2.257-2.084-3.56-2.379c-1.432-0.323-2.155,0.746-2.416,2.007
	c-0.544,2.639-0.191,5.549-0.288,8.223c-0.106,2.99-0.202,5.982-0.302,8.978c-6.439,4.682-11.489,10.812-14.539,17.824h-8.413
	c-2.853,0-5.165,2.312-5.165,5.164v16.975c0,2.853,2.312,5.165,5.165,5.165h7.016c3.164,9.874,10.194,18.304,19.55,23.903v11.021
	c0,1.631,1.321,2.952,2.952,2.952h11.313c1.63,0,2.951-1.321,2.951-2.952v-4.578c3.177,0.581,6.468,0.889,9.839,0.889
	c3.373,0,6.661-0.313,9.838-0.896v4.588c0,1.631,1.322,2.952,2.952,2.952h10.577c1.63,0,2.951-1.321,2.951-2.952v-10.604
	c11.786-6.796,20.046-18.01,21.783-31.006c0.277,0.023,0.56,0.039,0.846,0.039c4.211,0,7.625-2.754,7.625-6.146
	C147.337,573.216,143.927,570.46,139.716,570.46z M64.173,566.462c-3.619,0-6.644-2.515-7.442-5.89
	c0.993,1.4,2.627,2.318,4.478,2.318c3.031,0,5.488-2.457,5.488-5.485c0-3.03-2.457-5.487-5.488-5.487c-0.136,0-0.269,0.012-0.4,0.02
	c1.018-0.496,2.157-0.784,3.366-0.784c4.229,0,7.656,3.427,7.656,7.653C71.829,563.035,68.402,566.462,64.173,566.462z"/>
<g>
	<circle fill="#827C6F" cx="97.777" cy="526.8" r="17.094"/>
	<path fill="#FFFFFF" d="M102.893,521.791c-1.481-0.199-2.864-0.4-4.251-0.559c-0.361-0.041-0.742,0.03-1.104,0.102
		c-0.629,0.122-1.089,0.474-1.174,1.139c-0.08,0.643,0.178,1.168,0.776,1.441c0.748,0.34,1.529,0.604,2.281,0.938
		c0.992,0.44,2.023,0.827,2.943,1.396c1.853,1.139,2.537,2.867,2.177,4.997c-0.343,2.026-1.726,3.017-3.585,3.503
		c-0.153,0.04-0.306,0.084-0.547,0.148c0.031,0.969,0.062,1.941,0.1,3.053c-1.027-0.012-2.047-0.021-3.177-0.033
		c-0.062-0.999-0.12-1.963-0.173-2.828c-1.623-0.423-3.174-0.828-4.795-1.25c0.373-1.119,0.682-2.039,0.959-2.868
		c1.404,0.305,2.711,0.646,4.037,0.853c0.668,0.104,1.38,0.012,2.061-0.074c0.607-0.077,1.117-0.379,1.267-1.047
		c0.155-0.697-0.056-1.311-0.653-1.668c-0.631-0.381-1.324-0.664-2.008-0.95c-1.004-0.419-2.059-0.731-3.029-1.216
		c-1.916-0.953-2.734-2.502-2.532-4.55c0.204-2.062,1.294-3.38,3.371-3.956c0.521-0.146,0.686-0.384,0.647-0.883
		c-0.047-0.655-0.056-1.314-0.086-2.088c1.102,0.025,2.125,0.049,3.236,0.074c0.043,0.893,0.086,1.729,0.126,2.558
		c1.037,0.233,2.042,0.455,3.046,0.688c0.535,0.125,0.826,0.345,0.593,1.002C103.144,520.428,103.032,521.193,102.893,521.791z"/>
</g>
<g>
	<circle fill="#827C6F" cx="414.856" cy="619.441" r="15.765"/>
	<path fill="#FFFFFF" d="M419.575,614.821c-1.367-0.186-2.645-0.37-3.92-0.518c-0.335-0.038-0.688,0.03-1.021,0.095
		c-0.581,0.111-1.004,0.438-1.083,1.051c-0.074,0.591,0.164,1.077,0.716,1.33c0.69,0.312,1.41,0.558,2.104,0.863
		c0.915,0.407,1.866,0.765,2.714,1.286c1.709,1.052,2.34,2.646,2.009,4.608c-0.314,1.871-1.592,2.782-3.308,3.229
		c-0.142,0.037-0.281,0.078-0.504,0.141c0.027,0.891,0.059,1.79,0.093,2.812c-0.948-0.009-1.889-0.02-2.93-0.031
		c-0.06-0.921-0.112-1.81-0.16-2.606c-1.496-0.393-2.927-0.764-4.422-1.153c0.343-1.032,0.629-1.88,0.884-2.645
		c1.295,0.278,2.501,0.593,3.724,0.782c0.616,0.097,1.272,0.012,1.9-0.066c0.56-0.071,1.029-0.35,1.168-0.965
		c0.143-0.645-0.051-1.207-0.604-1.539c-0.579-0.354-1.221-0.613-1.852-0.876c-0.927-0.388-1.898-0.675-2.793-1.121
		c-1.77-0.879-2.522-2.31-2.337-4.196c0.188-1.899,1.193-3.116,3.108-3.646c0.48-0.137,0.633-0.354,0.598-0.812
		c-0.043-0.604-0.051-1.214-0.078-1.925c1.016,0.022,1.959,0.044,2.984,0.068c0.04,0.821,0.078,1.593,0.114,2.357
		c0.957,0.215,1.883,0.419,2.812,0.634c0.493,0.116,0.762,0.319,0.546,0.926C419.806,613.562,419.704,614.27,419.575,614.821z"/>
</g>
<g>
	<path fill="#E3715D" d="M464.414,545.523c-0.352,0.091-0.688,0.208-1.011,0.337c-4.823-10.221-14.276-17.603-25.621-20.785
		c-0.041-0.017-0.081-0.028-0.127-0.042c-5.478-1.771-10.343-2.559-14.626-2.702l-3.88,9.25l8.685,11.546l-12.932,3.403
		l8.583,12.683l-5.914,10.139l12.096,7.309l-9.578,15.553l9.06,10.307c1.128-0.216,2.257-0.458,3.386-0.755
		c3.008-0.792,5.866-1.845,8.562-3.108l1.077,4.092c0.382,1.455,1.871,2.323,3.327,1.938l9.433-2.481
		c1.454-0.382,2.322-1.871,1.939-3.326l-2.489-9.456c8.916-8.828,13.651-20.768,12.151-32.767c0.253-0.045,0.508-0.099,0.764-0.164
		c3.756-0.989,6.154-4.246,5.356-7.273C471.859,546.19,468.168,544.534,464.414,545.523z"/>
	<path fill="#E3715D" d="M395.805,586.56l18.204-10.167l-12.361-12.077l12.845-6.426l-7.159-15.838l13.294-0.388l-7.218-11.316
		l10.183-7.976c-11.062-4.679-19.638-2.96-23.445-1.694c-0.026-0.071-0.054-0.124-0.088-0.119c-2.385-2.325-5.71-4.94-8.793-8.479
		c-0.779-0.898-1.856-2.136-3.022-2.538c-1.278-0.44-2.049,0.468-2.416,1.597c-0.763,2.365-0.732,5.068-1.092,7.512
		c-0.396,2.729-0.784,5.463-1.179,8.195c-6.374,3.646-11.616,8.76-15.115,14.883l-7.716-0.846c-2.614-0.287-4.969,1.603-5.255,4.215
		l-1.705,15.562c-0.284,2.615,1.603,4.967,4.218,5.253l6.432,0.706c1.909,9.37,7.507,17.804,15.521,23.879l-1.104,10.104
		c-0.164,1.494,0.913,2.839,2.408,3.003l10.372,1.137c1.495,0.164,2.839-0.916,3.002-2.41l0.459-4.197
		c1.784,0.533,10.079,2.805,11.956,3.142L395.805,586.56z M385.062,547.598c-3.318-0.362-5.84-2.973-6.23-6.146
		c0.77,1.386,2.174,2.392,3.871,2.578c2.779,0.304,5.277-1.702,5.581-4.479c0.306-2.776-1.7-5.275-4.479-5.582
		c-0.124-0.014-0.247-0.016-0.37-0.021c0.984-0.354,2.06-0.504,3.165-0.382c3.878,0.425,6.678,3.909,6.251,7.786
		C392.425,545.225,388.939,548.023,385.062,547.598z"/>
</g>
<g>
	<g>
		<g>
			<polygon fill="#A09B91" points="971.683,663.863 983.33,652.218 983.33,665.456 983.33,854.613 991.291,854.613 971.683,874.218 
				952.08,854.613 960.038,854.613 960.038,665.456 960.038,652.218 			"/>
		</g>
	</g>
</g>
<g>
	<g>
		<g>
			<path fill="#A09B91" d="M649.57,663.464c0.515-1.245,1.146-2.478,1.773-3.646c0.607-1.17,1.305-2.295,2.032-3.354
				c0.69-1.066,1.514-2.04,2.304-2.938c0.412-0.438,0.857-0.82,1.283-1.194c0.207-0.208,0.456-0.298,0.684-0.431l0.346-0.176
				c0.119-0.021,0.252,0.13,0.369,0.196l-0.003-0.156l-0.005-0.077c-0.002-0.007,0.002,0.021,0.004,0.028l0.018,0.15l0.014,0.149
				l0.039,0.238c0.06,0.326,0.08,0.62,0.179,1.009l0.235,1.112l0.322,1.176c0.445,1.58,1.04,3.217,1.732,4.848
				c2.457,5.812,6.258,11.473,10.718,16.688c4.511,5.203,9.631,10.109,15.38,14.446l2.107,1.672l2.229,1.555l4.451,3.123
				l4.663,2.896c1.571,0.942,3.066,1.979,4.721,2.825l4.86,2.658l2.428,1.332c0.822,0.426,1.672,0.814,2.507,1.224l5.027,2.428
				l2.513,1.215l2.582,1.104l5.174,2.196c1.731,0.722,3.426,1.508,5.211,2.129l10.6,3.947l10.809,3.512l2.702,0.878
				c0.905,0.282,1.829,0.521,2.743,0.782l5.496,1.543c7.279,2.185,14.771,3.8,22.184,5.627c3.727,0.861,7.503,1.56,11.251,2.345
				c3.763,0.737,7.489,1.608,11.294,2.192c30.249,5.41,61.032,8.648,91.938,10.576l11.601,0.658l5.801,0.328
				c1.935,0.112,3.874,0.141,5.812,0.215l23.256,0.764l10.341,0.109l0.112-7.959c6.351,6.604,12.794,13.209,19.328,19.812
				c-6.534,6.466-13.161,12.931-19.88,19.396l0.11-7.959l-10.516-0.111l-23.701-0.776c-1.976-0.076-3.95-0.105-5.926-0.222
				l-5.927-0.336l-11.854-0.672c-31.604-1.973-63.225-5.283-94.65-10.904c-3.938-0.606-7.845-1.514-11.765-2.282
				c-3.915-0.82-7.842-1.55-11.746-2.451c-7.793-1.916-15.619-3.613-23.35-5.922l-5.812-1.633c-0.967-0.279-1.938-0.533-2.901-0.832
				l-2.885-0.935l-11.53-3.752l-11.42-4.25c-1.912-0.668-3.777-1.527-5.66-2.311l-5.637-2.396
				c-7.487-3.295-14.86-6.971-22.079-11.051c-1.832-0.949-3.572-2.131-5.354-3.203l-5.311-3.311l-5.169-3.615l-2.581-1.812
				l-2.5-1.973c-6.742-5.111-13.043-11.059-18.773-17.686c-0.713-0.834-1.437-1.651-2.137-2.502l-2.01-2.651
				c-0.662-0.894-1.349-1.76-1.985-2.676l-1.854-2.814c-2.475-3.749-4.629-7.81-6.479-12.101c-1.031-2.434-1.951-4.946-2.704-7.613
				l-0.543-2.021c-0.165-0.691-0.309-1.416-0.458-2.123c-0.156-0.686-0.268-1.488-0.385-2.252l-0.084-0.581l-0.072-0.672
				l-0.063-0.673l-0.033-0.462l-0.026-0.568c0.133,0.31,0.274,0.702,0.415,0.922l0.419,0.551c0.281,0.35,0.558,0.745,0.851,1.015
				c0.579,0.584,1.149,1.166,1.739,1.682c1.2,0.999,2.366,1.938,3.611,2.733c1.215,0.82,2.435,1.563,3.702,2.223
				C647.064,662.308,648.278,662.929,649.57,663.464z"/>
		</g>
	</g>
</g>
<g>
	<rect x="225.707" y="76.929" fill="#928D81" width="47.679" height="13.384"/>
	<rect x="242.854" y="59.782" fill="#928D81" width="13.384" height="47.679"/>
</g>
<path fill="#827C6F" d="M395.386,142.604c-0.004,5.044-0.004,10.088,0.011,15.132c0.015,5.699,4.521,10.229,10.206,10.235
	c20.373,0.018,40.745,0.014,61.118,0.001c5.186-0.003,9.188-3.382,10.185-8.512c0.039-0.205,0.142-0.397,0.215-0.594
	c0-20.8,0-41.6,0-62.397c-0.446-1.567-1.562-2.644-2.68-3.739c-6.011-5.884-12.019-11.774-17.993-17.693
	c-1.635-1.619-3.543-2.382-5.825-2.38c-14.94,0.013-29.885-0.001-44.827,0.011c-5.962,0.006-10.394,4.485-10.401,10.469
	c0,0.001,0,0.003,0,0.005l-0.005-0.005v0.188c-0.024,1.875-0.381,3.872,0,5.606L395.386,142.604L395.386,142.604z M405.514,148.047
	l0.009,0.003v-46.26c0,0.001,0.001,0.001,0.002,0.002c0-0.408,0-0.817,0-1.226c-0.001-5.323-0.008-10.647-0.002-15.971
	c0-1.599,0.197-1.799,1.754-1.799c12.671-0.001,25.341-0.001,38.013-0.001c0.35,0,0.699,0,1.212,0c0,0.447,0,0.821,0,1.195
	c0,4.01-0.009,8.021,0.001,12.032c0.012,4.349,2.861,7.204,7.204,7.215c3.976,0.011,7.95,0.003,11.926,0.003
	c0.386,0,0.771,0,1.312,0c0,0.451,0,0.826,0,1.201c0,17.214,0,34.428,0,51.641c0,1.56-0.211,1.766-1.791,1.766
	c-19.271,0-38.545-0.001-57.816-0.003c-1.643,0-1.81-0.173-1.811-1.842C405.521,153.35,405.515,150.699,405.514,148.047z"/>
<rect x="412.038" y="130.037" fill="#827C6F" width="49.829" height="5.333"/>
<rect x="412.038" y="144.17" fill="#827C6F" width="49.829" height="5.333"/>
<g>
	<rect x="350.303" y="145.17" fill="#FFFFFF" width="67.577" height="38.56"/>
	<g>
		<path fill="#E3715D" d="M422.747,144.073c0,13.59,0,27.18,0,40.769c-0.098,0.222-0.206,0.44-0.293,0.667
			c-0.704,1.875-2.466,3.107-4.479,3.107c-22.59,0.002-45.18,0.002-67.769,0c-2.046,0-3.804-1.253-4.5-3.18
			c-0.073-0.204-0.18-0.396-0.271-0.594c0-13.589,0-27.178,0-40.769c0.093-0.197,0.196-0.389,0.271-0.594
			c0.696-1.927,2.454-3.178,4.499-3.18c22.589-0.001,45.179-0.001,67.77,0c2.046,0.001,3.806,1.252,4.5,3.18
			C422.55,143.683,422.656,143.875,422.747,144.073z M350.303,183.73c22.57,0,45.071,0,67.577,0c0-6.437,0-12.818,0-19.233
			c-22.539,0-45.042,0-67.577,0C350.303,170.919,350.303,177.302,350.303,183.73z M350.303,154.738c22.57,0,45.071,0,67.575,0
			c0-3.214,0-6.375,0-9.567c-22.538,0-45.042,0-67.575,0C350.303,148.373,350.303,151.533,350.303,154.738z"/>
		<path fill="#E3715D" d="M369.544,178.919c-4.821,0-9.591,0-14.399,0c0-3.191,0-6.351,0-9.57c4.771,0,9.56,0,14.399,0
			C369.544,172.503,369.544,175.682,369.544,178.919z"/>
		<path fill="#E3715D" d="M388.954,178.917c0-1.6,0-3.149,0-4.746c1.584,0,3.148,0,4.759,0c0,1.577,0,3.143,0,4.746
			C392.134,178.917,390.586,178.917,388.954,178.917z"/>
		<path fill="#E3715D" d="M403.367,178.919c-1.604,0-3.15,0-4.738,0c0-1.58,0-3.13,0-4.739c1.551,0,3.117,0,4.738,0
			C403.367,175.726,403.367,177.292,403.367,178.919z"/>
		<path fill="#E3715D" d="M413.038,178.938c-1.605,0-3.137,0-4.729,0c0-1.579,0-3.146,0-4.766c1.55,0,3.113,0,4.729,0
			C413.038,175.743,413.038,177.308,413.038,178.938z"/>
		<path fill="#827C6F" d="M417.878,154.738c-22.504,0-45.005,0-67.575,0v11.442l0,0c0-0.562,0-1.121,0-1.683
			c22.535,0,45.037,0,67.576,0v-11.57h-0.001C417.878,153.531,417.878,154.13,417.878,154.738z"/>
	</g>
</g>
<rect x="408.83" y="107.641" fill="none" width="54.668" height="14.833"/>
<text transform="matrix(1 0 0 1 410.4268 119.709)" fill="#E3715D" font-family="'MyriadPro-Semibold'" font-size="17">LOANS</text>
<path fill="#8ABBE6" d="M75.365,144.17c-0.033-16.127-0.029-32.255,0.006-48.382c0-1.253-0.372-2.19-1.188-3.109
	c-4.089-4.623-8.151-9.271-12.175-13.951c-0.416-0.485-0.699-1.233-0.73-1.873c-0.092-2.03-0.028-4.069-0.046-6.103
	c-0.003-0.436-0.097-0.872-0.143-1.249c-1.354-0.403-25.445-0.31-26.313,0.1c-0.028,0.398-0.092,0.845-0.092,1.293
	c-0.012,1.929-0.028,3.859,0.003,5.788c0.015,0.858-0.254,1.533-0.825,2.183c-3.991,4.525-7.926,9.101-11.935,13.605
	c-0.971,1.089-1.382,2.196-1.382,3.67c0.04,26.204,0.028,52.407,0.022,78.613c0,1.016-0.085,2.033-0.103,3.046
	c-0.092,4.734,1.759,8.583,6.864,9.248c0.659,0.085,1.33,0.083,1.998,0.083c12.415,0.005,24.835,0.005,37.255,0.002
	c0.525,0,1.057,0.023,1.576-0.037c0.687-0.079,1.365-0.186,2.033-0.401c0.041-0.015,0.081-0.026,0.124-0.044
	c0.572-0.197,1.136-0.476,1.687-0.9c-0.051-0.029-0.092-0.053-0.141-0.082c1.688-1.336,3.497-3.389,3.497-3.389v-34.997
	c0.007-0.114,0.014-0.229,0.013-0.352C75.369,146.013,75.367,145.092,75.365,144.17z"/>
<rect x="412.038" y="92.371" fill="#827C6F" width="29.163" height="5.333"/>
<path fill="#827C6F" d="M128.865,142.177c-1.588,2.087-3.198,3.952-4.525,5.996c-3.598,5.547-5.908,11.621-6.836,18.176
	c-0.117,0.831,0.132,1.819,0.503,2.592c0.551,1.148,1.63,1.199,2.458,0.206c0.469-0.557,0.808-1.228,1.165-1.867
	c1.876-3.372,3.672-6.79,5.628-10.113c1.853-3.158,4.054-6.067,6.818-8.508c1.798-1.585,3.825-2.787,6.295-2.284
	c1.508,0.308,3.032,0.919,4.349,1.725c3.304,2.021,5.643,5.022,7.638,8.277c2.687,4.383,4.565,9.065,5.263,14.202
	c0.68,5.031-1.191,8.917-5.108,11.932c-3.172,2.444-6.869,3.775-10.679,4.814c-5.778,1.576-11.691,2.393-17.65,2.721
	c-6.685,0.368-13.383,0.494-20.078,0.711c-7.449,0.24-14.87-0.057-22.196-1.539c-5.268-1.065-10.313-2.738-14.619-6.125
	c-4.813-3.786-7.206-8.868-7.743-14.864c-0.191-2.15,0.577-4.151,1.633-6.01c2.102-3.7,5.134-6.561,8.397-9.191
	c5.3-4.266,11.127-7.703,17.175-10.775c0.183-0.091,0.382-0.148,0.745-0.08c-0.209,0.283-0.403,0.571-0.623,0.845
	c-3.429,4.323-6.735,8.731-8.968,13.822c-0.571,1.305-0.979,2.707-1.257,4.105c-0.171,0.859-0.051,1.819,0.129,2.693
	c0.157,0.779,0.603,1.484,1.545,1.875c0.199-0.385,0.405-0.733,0.57-1.099c2.502-5.633,5.728-10.775,10.15-15.113
	c5.425-5.325,11.921-8.686,19.299-10.393c0.294-0.068,0.6-0.083,1.211-0.166c-0.352,0.522-0.528,0.828-0.749,1.1
	c-4.342,5.388-8.049,11.152-10.398,17.702c-0.902,2.516-1.621,5.085-1.695,7.783c-0.037,1.322,0.26,1.865,1.11,2.116
	c0.879,0.263,1.936-0.223,2.438-1.21c0.38-0.748,0.653-1.55,0.979-2.327c2.709-6.43,6.384-12.183,11.906-16.577
	c4.273-3.403,9.134-5.302,14.67-5.225C128.148,142.108,128.485,142.148,128.865,142.177z"/>
<text transform="matrix(1 0 0 1 29.7598 135.3691)" fill="#FFFFFF" font-family="'MyriadPro-Semibold'" font-size="17">MILK</text>
<g>
	<rect x="-647.967" y="61.812" fill="none" stroke="#928D81" stroke-miterlimit="10" width="500" height="380"/>
	<rect x="-647.967" y="61.812" fill="none" stroke="#928D81" stroke-miterlimit="10" width="500" height="380"/>
	<rect x="-647.967" fill="none" stroke="#928D81" stroke-miterlimit="10" width="500" height="61.812"/>
	<rect x="-647.967" y="503.042" fill="none" stroke="#928D81" stroke-miterlimit="10" width="500" height="380"/>
	<rect x="-647.967" y="503.042" fill="none" stroke="#928D81" stroke-miterlimit="10" width="500" height="380"/>
	<rect x="-647.967" y="441.229" fill="none" stroke="#928D81" stroke-miterlimit="10" width="500" height="61.812"/>
	<rect x="-647.967" y="944.854" fill="none" stroke="#928D81" stroke-miterlimit="10" width="500" height="380"/>
	<rect x="-647.967" y="944.854" fill="none" stroke="#928D81" stroke-miterlimit="10" width="500" height="380"/>
	<rect x="-647.967" y="883.042" fill="none" stroke="#928D81" stroke-miterlimit="10" width="500" height="61.811"/>
	<rect x="-647.967" y="1323.263" fill="none" stroke="#928D81" stroke-miterlimit="10" width="500" height="61.812"/>
</g>
<g>
	<rect x="909.787" y="870.542" fill="none" width="160" height="41.814"/>
	<text transform="matrix(1 0 0 1 940.6504 882.7646)" fill="#555555" font-family="'Helvetica'" font-size="17">Cash outflow </text>
	<text transform="matrix(1 0 0 1 951.0312 903.166)" fill="#555555" font-family="'Helvetica'" font-size="17">S$ 15,000</text>
	<rect x="909.787" y="438.271" fill="none" width="160" height="42.709"/>
	<text transform="matrix(1 0 0 1 944.4238 450.4941)" fill="#555555" font-family="'Helvetica'" font-size="17">Expenditure </text>
	<text transform="matrix(1 0 0 1 951.0312 470.8936)" fill="#555555" font-family="'Helvetica'" font-size="17">S$ 12,000</text>
	<rect x="647.797" y="438.271" fill="none" width="160" height="42.709"/>
	<text transform="matrix(1 0 0 1 697.5566 450.4941)" fill="#555555" font-family="'Helvetica'" font-size="17">Savings </text>
	<text transform="matrix(1 0 0 1 693.7676 470.8936)" fill="#555555" font-family="'Helvetica'" font-size="17">S$ 3,000</text>
	<rect x="873.514" y="9.098" fill="none" width="232.547" height="60"/>
	<text transform="matrix(1 0 0 1 929.3115 21.3203)" fill="#555555" font-family="'Helvetica'" font-size="17">Debt repayment </text>
	<text transform="matrix(1 0 0 1 955.7578 41.7207)" fill="#555555" font-family="'Helvetica'" font-size="17">S$ 2,000</text>
	<rect x="647.797" y="8.098" fill="none" width="160" height="60"/>
	<text transform="matrix(1 0 0 1 690.4688 20.3203)" fill="#555555" font-family="'Helvetica'" font-size="17">Expenses </text>
	<text transform="matrix(1 0 0 1 689.041 40.7207)" fill="#555555" font-family="'Helvetica'" font-size="17">S$ 10,000</text>
	<rect x="646.721" y="870.542" fill="none" width="160" height="41.814"/>
	<text transform="matrix(1 0 0 1 680.4219 882.7646)" fill="#555555" font-family="'Helvetica'" font-size="17">Cash intflow </text>
	<text transform="matrix(1 0 0 1 687.9648 903.166)" fill="#555555" font-family="'Helvetica'" font-size="17">S$ 30,000</text>
	<rect x="782.299" y="1299.998" fill="none" width="160" height="43.143"/>
	<text transform="matrix(1 0 0 1 813.6387 1312.2207)" fill="#555555" font-family="'Helvetica'" font-size="17">Net cashflow </text>
	<text transform="matrix(1 0 0 1 823.543 1332.6191)" fill="#555555" font-family="'Helvetica'" font-size="17">S$ 15,000</text>
</g>
<g>
	<g>
		<g>
			<polygon fill="#A09B91" points="963.047,223.169 974.695,205.531 974.695,225.582 974.695,394.497 982.656,394.497 
				963.047,424.191 943.445,394.497 951.403,394.497 951.403,225.582 951.403,205.531 			"/>
		</g>
	</g>
</g>
<path fill="none" stroke="#928D81" stroke-width="22" stroke-miterlimit="10" d="M964.698,297.654H708.159c0,0-75-1.761-75-64.729
	v-33.587"/>
<rect x="951.403" y="199.338" fill="#928D81" width="23.292" height="65.726"/>
<path fill="#928D81" d="M423.025,400.594V271.16v-39.482v-20.051v-6.193h-23.292v6.193v20.051v39.482v21.59H156.672
	c-1.433-0.057-17.865-0.859-33.746-8.041c-20.481-9.262-30.438-24.207-30.438-45.688v-33.587h-22v33.587
	c0,30.428,15.229,53.262,44.042,66.034c20.52,9.096,40.844,9.672,41.699,9.692l243.502,0.003v85.843h-7.958l19.602,29.694
	l19.609-29.694H423.025z"/>
<path fill="#928D81" d="M423.025,847.95V718.517v-39.482v-20.051v-6.193h-23.292v6.193v20.051v39.482v21.591H156.672
	c-1.433-0.057-17.865-0.859-33.746-8.041c-20.481-9.263-30.438-24.207-30.438-45.688v-33.587h-22v33.587
	c0,30.428,15.229,53.262,44.042,66.034c20.52,9.096,40.844,9.672,41.699,9.691l243.502,0.004v85.843h-7.958l19.602,29.694
	l19.609-29.694H423.025z"/>
</svg>
