<?xml version="1.0" encoding="utf-8"?>
<!-- Generator: Adobe Illustrator 16.0.0, SVG Export Plug-In . SVG Version: 6.00 Build 0)  -->
<!DOCTYPE svg PUBLIC "-//W3C//DTD SVG 1.1//EN" "http://www.w3.org/Graphics/SVG/1.1/DTD/svg11.dtd">
<svg version="1.1" id="Layer_1" xmlns="http://www.w3.org/2000/svg" xmlns:xlink="http://www.w3.org/1999/xlink" x="0px" y="0px"
	 width="577.629px" height="1185.845px" viewBox="0 0 577.629 1185.845" enable-background="new 0 0 577.629 1185.845"
	 xml:space="preserve">
<path fill="#A09B91" d="M422.717,1272.13c-1.447,7.127-3.706,13.887-7.208,19.75c-2.062,3.453-4.524,6.596-7.468,9.361
	c-2.947,2.758-6.354,5.165-10.212,7.237c-7.716,4.137-17.19,6.972-27.444,8.689c-1.262,0.245-2.562,0.433-3.867,0.616
	c-1.306,0.182-2.587,0.403-3.922,0.539l-3.97,0.463l-4.851,0.629c-6.532,0.791-13.053,2.283-19.449,4.08l-4.737,1.564
	c-0.783,0.274-1.583,0.507-2.352,0.816l-2.304,0.937c-1.521,0.646-3.086,1.218-4.562,1.937l-4.414,2.176
	c-5.746,3.078-11.169,6.603-15.914,10.613c-4.728,4.018-8.89,8.395-12.464,12.993c-1.881,2.414-3.562,4.896-5.098,7.415
	c-1.536-2.521-3.218-5.003-5.1-7.417c-3.572-4.6-7.736-8.977-12.463-12.994c-4.746-4.013-10.168-7.534-15.914-10.612l-4.416-2.178
	c-1.476-0.718-3.041-1.29-4.563-1.935l-2.301-0.936c-0.767-0.312-1.567-0.544-2.352-0.816l-4.738-1.565
	c-6.397-1.797-12.915-3.291-19.45-4.082l-4.848-0.627l-3.972-0.463c-1.335-0.136-2.615-0.358-3.921-0.539
	c-1.304-0.187-2.605-0.373-3.868-0.616c-10.253-1.721-19.728-4.555-27.443-8.689c-3.857-2.072-7.264-4.479-10.211-7.237
	c-2.939-2.768-5.405-5.906-7.468-9.361c-3.502-5.862-5.76-12.621-7.207-19.749h-28.389c1.669,9.752,4.521,19.823,10.305,29.569
	c2.984,5.007,6.779,9.883,11.43,14.254c4.648,4.369,10.098,8.199,15.936,11.334c5.841,3.146,12.039,5.61,18.289,7.554
	c6.258,1.956,12.578,3.382,18.856,4.448c1.573,0.298,3.14,0.526,4.707,0.752c1.563,0.219,3.138,0.48,4.694,0.644l4.681,0.545
	l3.781,0.5c5.005,0.588,9.729,1.724,14.339,2.981l3.347,1.116c0.552,0.192,1.134,0.345,1.664,0.567l1.595,0.659
	c1.053,0.456,2.165,0.833,3.176,1.337l3.042,1.5c3.937,2.135,7.663,4.518,10.964,7.312c3.284,2.808,6.254,5.906,8.872,9.268
	c2.628,3.355,4.813,7.021,6.72,10.817c3.788,7.609,6.211,15.925,7.408,24.353c0.279,1.921,0.474,3.85,0.613,5.76
	c0.039,0.545,0.057,1.077,0.082,1.613h-15.354l30.124,32.812l28.827-32.812h-15.354c0.025-0.536,0.043-1.068,0.084-1.613
	c0.139-1.91,0.334-3.837,0.613-5.76c1.198-8.428,3.62-16.74,7.408-24.352c1.905-3.797,4.092-7.462,6.718-10.818
	c2.62-3.357,5.588-6.459,8.872-9.266c3.301-2.797,7.026-5.178,10.963-7.312l3.041-1.502c1.015-0.505,2.124-0.882,3.176-1.337
	l1.598-0.659c0.529-0.224,1.109-0.377,1.665-0.567l3.346-1.117c4.609-1.26,9.333-2.396,14.339-2.982l3.779-0.5l4.681-0.543
	c1.56-0.161,3.132-0.426,4.696-0.646c1.566-0.223,3.132-0.452,4.705-0.75c6.277-1.067,12.602-2.493,18.855-4.448
	c6.251-1.942,12.449-4.408,18.29-7.555c5.839-3.134,11.287-6.965,15.938-11.334c4.649-4.371,8.444-9.247,11.433-14.254
	c5.782-9.748,8.636-19.816,10.305-29.571h-28.39L422.717,1272.13L422.717,1272.13z"/>
<rect x="265.336" y="1041.705" fill="#928D81" width="47.679" height="13.384"/>
<g>
	<path fill="#827C6F" d="M340.495,1450.74c2.979,16.83,5.929,33.504,8.918,50.396c-2.432,0.75-4.826,1.539-7.248,2.227
		c-9.498,2.689-19.212,4.229-29.011,5.24c-12.464,1.285-24.952,2.35-37.4,3.771c-10.683,1.221-21.188,3.401-31.352,7.026
		c-0.297,0.104-0.607,0.175-1.084,0.31c-2.957-16.81-5.898-33.521-8.882-50.476c3.575-1.106,7.038-2.291,10.563-3.254
		c10.397-2.837,21.049-4.14,31.748-5.147c12.614-1.191,25.241-2.275,37.824-3.734c8.425-0.979,16.66-3.036,24.662-5.928
		C339.583,1451.044,339.938,1450.931,340.495,1450.74z M298.585,1475.546c0.104-1.08,0.119-2.451,0.397-3.766
		c0.256-1.209-0.309-1.525-1.275-1.619c-1.814-0.174-3.63-0.324-5.504-0.49c-0.268-1.447-0.536-2.901-0.823-4.455
		c-1.955,0.215-3.754,0.414-5.693,0.629c0.234,1.348,0.405,2.5,0.643,3.643c0.183,0.866-0.049,1.318-0.93,1.696
		c-3.507,1.505-5.108,4.069-4.981,7.733c0.126,3.64,1.927,6.162,5.511,7.385c1.816,0.619,3.739,0.921,5.6,1.421
		c1.267,0.341,2.55,0.675,3.745,1.192c1.135,0.49,1.646,1.512,1.539,2.771c-0.104,1.207-0.928,1.854-1.977,2.135
		c-1.175,0.311-2.398,0.639-3.598,0.613c-2.376-0.053-4.747-0.339-7.28-0.541c-0.292,1.52-0.616,3.207-1.01,5.256
		c2.943,0.359,5.758,0.705,8.704,1.064c0.298,1.504,0.628,3.184,0.97,4.918c1.983-0.244,3.774-0.463,5.581-0.686
		c-0.325-1.939-0.61-3.644-0.895-5.33c0.406-0.174,0.664-0.285,0.925-0.394c3.146-1.291,5.342-3.351,5.465-6.985
		c0.13-3.822-1.479-6.693-4.994-8.254c-1.746-0.775-3.646-1.213-5.491-1.752c-1.396-0.408-2.829-0.689-4.223-1.109
		c-1.113-0.338-1.689-1.205-1.699-2.346c-0.009-1.187,0.717-1.912,1.79-2.273c0.619-0.207,1.271-0.424,1.913-0.438
		C293.467,1475.517,295.941,1475.546,298.585,1475.546z M259.89,1498.218c4.491-0.014,8.11-3.561,8.06-7.898
		c-0.052-4.443-3.733-8.127-8.1-8.104c-4.338,0.021-7.81,3.646-7.815,8.15C252.03,1494.833,255.429,1498.232,259.89,1498.218z
		 M315.713,1480.025c-0.01,4.445,3.645,8.176,8.012,8.178c4.27,0.004,7.893-3.738,7.891-8.148c-0.001-4.314-3.46-7.814-7.78-7.873
		C319.384,1472.123,315.722,1475.658,315.713,1480.025z"/>
	<path fill="#827C6F" d="M238.721,1528.349c-2.973-16.891-5.909-33.57-8.874-50.418c1.06-0.396,2.13-0.797,3.326-1.243
		c2.716,15.354,5.41,30.579,8.132,45.966c0.742-0.246,1.31-0.43,1.872-0.623c9.468-3.287,19.218-5.412,29.147-6.548
		c12.398-1.418,24.837-2.474,37.248-3.774c11.437-1.199,22.783-2.928,33.801-6.371c0.173-0.055,0.362-0.055,0.703-0.103
		c0.271,1.442,0.538,2.858,0.85,4.517c-3.161,0.94-6.276,1.957-9.442,2.793c-9.4,2.477-18.991,3.875-28.648,4.863
		c-12.929,1.318-25.877,2.482-38.781,4.014c-9.548,1.131-18.908,3.297-28.001,6.5
		C239.661,1528.056,239.265,1528.173,238.721,1528.349z"/>
	<path fill="#FFFFFF" d="M298.585,1475.546c-2.646,0-5.118-0.029-7.589,0.021c-0.643,0.014-1.294,0.229-1.913,0.438
		c-1.073,0.361-1.799,1.088-1.79,2.273c0.01,1.141,0.586,2.008,1.699,2.346c1.393,0.42,2.826,0.701,4.223,1.108
		c1.846,0.538,3.745,0.978,5.491,1.752c3.518,1.562,5.124,4.433,4.994,8.255c-0.123,3.637-2.316,5.693-5.465,6.984
		c-0.261,0.107-0.519,0.22-0.925,0.395c0.282,1.688,0.567,3.391,0.895,5.329c-1.807,0.224-3.598,0.44-5.581,0.687
		c-0.342-1.735-0.672-3.414-0.97-4.918c-2.946-0.36-5.761-0.705-8.704-1.065c0.394-2.05,0.718-3.735,1.01-5.257
		c2.533,0.203,4.904,0.49,7.28,0.541c1.197,0.025,2.423-0.303,3.598-0.611c1.047-0.279,1.87-0.93,1.975-2.137
		c0.109-1.26-0.402-2.279-1.537-2.771c-1.195-0.521-2.479-0.854-3.746-1.193c-1.859-0.5-3.782-0.801-5.599-1.42
		c-3.584-1.223-5.385-3.746-5.511-7.385c-0.127-3.664,1.475-6.23,4.981-7.734c0.881-0.377,1.112-0.83,0.93-1.697
		c-0.237-1.141-0.408-2.295-0.643-3.641c1.939-0.215,3.738-0.414,5.693-0.629c0.287,1.553,0.558,3.008,0.823,4.455
		c1.874,0.166,3.688,0.314,5.504,0.49c0.969,0.094,1.531,0.408,1.275,1.617C298.705,1473.095,298.69,1474.466,298.585,1475.546z"/>
	<path fill="#FFFFFF" d="M259.89,1498.218c-4.461,0.016-7.86-3.385-7.855-7.852c0.006-4.506,3.478-8.129,7.815-8.15
		c4.366-0.024,8.048,3.658,8.1,8.104C268,1494.658,264.381,1498.205,259.89,1498.218z"/>
	<path fill="#FFFFFF" d="M315.713,1480.025c0.009-4.367,3.671-7.902,8.12-7.846c4.32,0.059,7.779,3.559,7.78,7.873
		c0.002,4.41-3.621,8.152-7.891,8.148C319.356,1488.201,315.704,1484.472,315.713,1480.025z"/>
</g>
<path fill="#827C6F" d="M57.971,1099.977c9.242-3.844,18.158-7.787,27.259-11.239c5.335-2.024,10.722-1.031,15.57,1.979
	c4.138,2.581,8.288,5.177,12.176,8.114c7.423,5.617,15.73,8.327,24.972,8.532c3.363,0.077,6.725,0.339,10.075,0.672
	c2.005,0.19,3.523,1.19,3.805,3.427c0.301,2.415-0.941,4.035-3.042,4.714c-2.165,0.704-4.471,1.271-6.731,1.326
	c-7.013,0.16-14.052,0.416-21.04-0.062c-4.887-0.339-9.703-1.808-14.539-2.818c-1.089-0.229-2.126-0.679-3.292-0.787
	c4.579,4.637,9.646,8.729,16.332,8.96c8.942,0.309,17.915,0.021,26.855-0.396c2.332-0.108,4.771-1.354,6.847-2.596
	c3.395-2.021,4.452-5.342,3.952-9.195c-0.493-3.851-2.626-6.464-6.315-7.387c-2.895-0.724-5.931-0.973-8.922-1.185
	c-2.6-0.191-5.226-0.045-7.839-0.045c-0.064-0.32-0.128-0.646-0.186-0.976c5.085-2.815,10.062-5.864,15.294-8.384
	c4.458-2.146,6.488-1.415,10.427,2.127c3.459-1.107,6.533-2.53,9.748-3.01c3.952-0.59,6.149,1.537,6.86,5.854
	c1.562-0.666,3.017-1.529,4.592-1.9c2.21-0.521,4.509-0.941,6.764-0.909c2.396,0.024,4.144,1.595,5.079,3.753
	c0.942,2.171,0.327,4.259-1.288,5.886c-1.614,1.627-3.305,3.261-5.213,4.518c-15.557,10.26-31.256,20.303-46.736,30.685
	c-7.404,4.964-14.628,4.996-22.288,0.975c-7.77-4.079-15.718-7.832-23.391-12.087c-5.373-2.982-10.184-3.017-15.039,0.833
	c-1.716,1.357-3.669,2.422-5.783,3.791C67.976,1122.149,63.101,1111.352,57.971,1099.977z"/>
<g>
	<g>
		<g>
			<path fill="#99C4E9" d="M78.644,1049.757c-2.096-1.782-4.345-3.459-6.744-5.021c-1.202-0.787-2.437-1.539-3.731-2.252
				c-0.642-0.363-1.312-0.702-1.991-1.041l-1.059-0.483c-0.172-0.083-0.381-0.15-0.573-0.224l-0.296-0.107
				c-0.111-0.032-0.273-0.048-0.408-0.072l1.216-0.333l1.013-0.251c0.662-0.16,1.308-0.301,1.95-0.435
				c1.285-0.271,2.557-0.494,3.832-0.698c2.547-0.396,5.107-0.665,7.692-0.826c5.117-0.289,10.353-0.134,15.679,0.783
				c5.306,0.912,10.725,2.5,15.833,5.191c5.104,2.656,9.832,6.36,13.623,10.745l1.407,1.656c0.466,0.554,0.851,1.151,1.276,1.729
				c0.829,1.166,1.676,2.328,2.345,3.555l0.904,1.558c0.227,0.401,0.468,0.802,0.679,1.205l1.163,2.454l7.23-3.334
				c-2.045,11.283-7.155,19.929-12.922,27.105c-1.847-1.448-3.683-2.792-5.498-4.034c-1.913-1.209-3.804-2.304-5.68-3.265
				c-0.983-0.451-1.954-0.873-2.912-1.26c-0.969-0.376-1.872-0.771-2.876-1.021c-1.971-0.527-3.798-1.017-5.721-1.104l7.227-3.333
				l-0.667-1.443l-0.889-1.523c-0.357-0.705-0.825-1.289-1.256-1.906c-0.224-0.299-0.412-0.637-0.657-0.911l-0.722-0.832
				c-1.922-2.213-4.176-3.987-6.807-5.377c-5.259-2.749-12.179-3.827-19.385-3.385c-1.818,0.115-3.651,0.304-5.464,0.586
				c-0.904,0.146-1.806,0.304-2.68,0.488c-0.438,0.091-0.87,0.185-1.28,0.285l-0.974,0.247c-0.019-0.059-0.064-0.107-0.058-0.172
				l0.055-0.203c0.042-0.138,0.066-0.271,0.129-0.412c0.114-0.278,0.225-0.56,0.353-0.839c0.266-0.561,0.54-1.126,0.849-1.686
				c0.602-1.124,1.274-2.241,1.987-3.341C75.264,1054.009,76.87,1051.843,78.644,1049.757z"/>
		</g>
	</g>
</g>
<path fill="#827C6F" d="M381.657,1099.977c9.242-3.844,18.158-7.787,27.26-11.239c5.334-2.024,10.723-1.031,15.568,1.979
	c4.139,2.581,8.291,5.177,12.178,8.114c7.424,5.617,15.729,8.327,24.973,8.532c3.361,0.077,6.727,0.339,10.074,0.672
	c2.004,0.19,3.523,1.19,3.805,3.427c0.303,2.415-0.939,4.035-3.043,4.714c-2.164,0.704-4.471,1.271-6.729,1.326
	c-7.016,0.16-14.053,0.416-21.039-0.062c-4.889-0.339-9.705-1.808-14.541-2.818c-1.088-0.229-2.127-0.679-3.291-0.787
	c4.578,4.637,9.646,8.729,16.332,8.96c8.94,0.309,17.914,0.021,26.854-0.396c2.332-0.108,4.771-1.354,6.848-2.596
	c3.395-2.021,4.453-5.342,3.953-9.195c-0.494-3.851-2.625-6.464-6.314-7.387c-2.895-0.724-5.932-0.973-8.924-1.185
	c-2.602-0.191-5.227-0.045-7.838-0.045c-0.064-0.32-0.129-0.646-0.188-0.976c5.086-2.815,10.062-5.864,15.297-8.384
	c4.457-2.146,6.486-1.415,10.428,2.127c3.459-1.107,6.531-2.53,9.748-3.01c3.949-0.59,6.146,1.537,6.857,5.854
	c1.562-0.666,3.02-1.529,4.592-1.9c2.211-0.521,4.512-0.941,6.766-0.909c2.396,0.024,4.145,1.595,5.08,3.753
	c0.939,2.171,0.324,4.259-1.289,5.886s-3.307,3.261-5.213,4.518c-15.559,10.26-31.256,20.303-46.736,30.685
	c-7.402,4.964-14.627,4.996-22.287,0.975c-7.77-4.079-15.719-7.832-23.393-12.087c-5.371-2.982-10.184-3.017-15.037,0.833
	c-1.717,1.357-3.67,2.422-5.783,3.791C391.661,1122.149,386.788,1111.352,381.657,1099.977z"/>
<g>
	<g>
		<g>
			<path fill="#E78372" d="M448.423,1077.536c-2.645,0.759-5.286,1.703-7.915,2.836c-1.321,0.566-2.631,1.178-3.939,1.861
				c-0.658,0.333-1.312,0.704-1.971,1.082l-0.986,0.612c-0.164,0.1-0.336,0.234-0.504,0.354l-0.255,0.187
				c-0.089,0.075-0.189,0.2-0.284,0.302l0.396-1.197l0.353-0.982c0.231-0.639,0.475-1.255,0.718-1.864
				c0.485-1.219,1.004-2.401,1.54-3.575c1.079-2.343,2.271-4.622,3.568-6.864c2.594-4.42,5.62-8.695,9.332-12.624
				c3.697-3.914,8.021-7.547,13.09-10.312c5.037-2.777,10.739-4.666,16.489-5.396l2.157-0.255c0.72-0.082,1.43-0.071,2.146-0.105
				c1.43-0.045,2.864-0.104,4.259,0.017l1.798,0.107c0.459,0.034,0.925,0.055,1.379,0.104l2.688,0.39l1.227-7.867
				c8.264,7.95,12.636,16.991,15.42,25.769c-2.229,0.734-4.364,1.521-6.403,2.345c-2.063,0.924-4.021,1.896-5.859,2.924
				c-0.922,0.567-1.812,1.146-2.662,1.729c-0.852,0.599-1.678,1.132-2.444,1.829c-1.529,1.35-2.948,2.602-4.086,4.151l1.227-7.864
				l-1.571-0.242l-1.762-0.104c-0.785-0.093-1.53-0.027-2.282-0.009c-0.373,0.021-0.759-0.01-1.123,0.042l-1.092,0.141
				c-2.907,0.375-5.637,1.271-8.246,2.692c-5.201,2.856-9.932,8.021-13.553,14.269c-0.908,1.578-1.768,3.208-2.534,4.875
				c-0.379,0.833-0.746,1.672-1.077,2.501c-0.166,0.416-0.328,0.827-0.474,1.226l-0.334,0.945c-0.058-0.016-0.125-0.006-0.176-0.046
				l-0.139-0.159c-0.09-0.108-0.189-0.204-0.271-0.335c-0.169-0.249-0.341-0.496-0.504-0.758c-0.316-0.531-0.64-1.073-0.933-1.639
				c-0.604-1.124-1.162-2.303-1.685-3.505C450.092,1082.704,449.178,1080.168,448.423,1077.536z"/>
		</g>
	</g>
</g>
<g>
	<g>
		<g>
			<polygon fill="#A09B91" points="1011.312,767.538 1022.959,755.893 1022.959,769.131 1022.959,958.288 1030.92,958.288 
				1011.312,977.893 991.709,958.288 999.667,958.288 999.667,769.131 999.667,755.893 			"/>
		</g>
	</g>
</g>
<g>
	<g>
		<g>
			<path fill="#A09B91" d="M689.2,767.139c0.515-1.245,1.146-2.478,1.773-3.646c0.607-1.169,1.305-2.294,2.032-3.354
				c0.69-1.065,1.516-2.04,2.304-2.938c0.412-0.438,0.857-0.82,1.283-1.194c0.207-0.208,0.456-0.298,0.684-0.431l0.346-0.175
				c0.119-0.021,0.252,0.13,0.369,0.195l-0.003-0.155l-0.005-0.076c-0.001-0.008,0.002,0.02,0.004,0.026l0.018,0.15l0.016,0.151
				l0.038,0.236c0.059,0.326,0.079,0.62,0.178,1.009l0.235,1.112l0.322,1.176c0.445,1.58,1.04,3.219,1.732,4.849
				c2.457,5.811,6.258,11.472,10.718,16.688c4.511,5.203,9.631,10.109,15.38,14.446l2.107,1.672l2.229,1.556l4.451,3.122
				l4.663,2.896c1.572,0.943,3.068,1.981,4.721,2.828l4.86,2.657l2.428,1.332c0.822,0.427,1.672,0.812,2.507,1.223l5.027,2.427
				l2.513,1.216l2.582,1.104l5.174,2.196c1.731,0.721,3.428,1.509,5.211,2.13l10.6,3.944l10.809,3.513l2.702,0.879
				c0.905,0.28,1.829,0.521,2.743,0.782l5.496,1.541c7.281,2.185,14.771,3.801,22.184,5.629c3.728,0.859,7.503,1.558,11.251,2.345
				c3.765,0.735,7.489,1.607,11.294,2.191c30.249,5.41,61.032,8.648,91.938,10.576l11.601,0.657l5.802,0.329
				c1.934,0.112,3.875,0.141,5.812,0.215l23.256,0.764l10.341,0.109l0.112-7.96c6.351,6.604,12.794,13.209,19.328,19.812
				c-6.534,6.467-13.161,12.932-19.88,19.395l0.11-7.958l-10.516-0.112l-23.701-0.776c-1.976-0.075-3.95-0.104-5.926-0.222
				l-5.927-0.335l-11.854-0.672c-31.604-1.973-63.225-5.283-94.649-10.904c-3.938-0.606-7.846-1.514-11.766-2.283
				c-3.915-0.82-7.842-1.55-11.746-2.449c-7.793-1.916-15.617-3.615-23.35-5.923l-5.812-1.635c-0.968-0.277-1.938-0.53-2.902-0.83
				l-2.884-0.936l-11.531-3.751l-11.42-4.25c-1.912-0.669-3.777-1.526-5.66-2.31l-5.637-2.396
				c-7.487-3.294-14.86-6.971-22.079-11.051c-1.832-0.948-3.572-2.13-5.354-3.203l-5.311-3.309l-5.169-3.616l-2.581-1.813
				l-2.5-1.972c-6.742-5.111-13.043-11.058-18.773-17.686c-0.713-0.834-1.437-1.652-2.137-2.503l-2.01-2.651
				c-0.662-0.894-1.348-1.759-1.985-2.675l-1.853-2.815c-2.476-3.749-4.628-7.81-6.48-12.1c-1.031-2.435-1.951-4.947-2.704-7.614
				l-0.543-2.02c-0.165-0.692-0.309-1.416-0.458-2.123c-0.155-0.687-0.268-1.488-0.385-2.252l-0.084-0.581l-0.072-0.673
				l-0.063-0.673l-0.033-0.462l-0.026-0.568c0.133,0.31,0.274,0.703,0.415,0.923l0.419,0.55c0.281,0.35,0.559,0.745,0.852,1.015
				c0.58,0.584,1.148,1.166,1.738,1.683c1.2,0.999,2.366,1.938,3.611,2.732c1.215,0.82,2.437,1.563,3.702,2.224
				C686.694,765.983,687.908,766.604,689.2,767.139z"/>
		</g>
	</g>
</g>
<g>
	<rect x="-908.183" y="218.234" fill="none" stroke="#928D81" stroke-miterlimit="10" width="573.934" height="289.823"/>
	<rect x="-908.183" y="91.633" fill="none" stroke="#928D81" stroke-miterlimit="10" width="573.934" height="126.602"/>
	<rect x="-908.183" y="1052.352" fill="none" stroke="#928D81" stroke-miterlimit="10" width="573.934" height="289.823"/>
	<rect x="-908.183" y="925.75" fill="none" stroke="#928D81" stroke-miterlimit="10" width="573.934" height="126.602"/>
	<rect x="-908.183" y="635.928" fill="none" stroke="#928D81" stroke-miterlimit="10" width="573.934" height="289.823"/>
	<rect x="-908.183" y="509.326" fill="none" stroke="#928D81" stroke-miterlimit="10" width="573.934" height="126.602"/>
</g>
<g>
	<rect x="949.417" y="974.218" fill="none" width="160" height="41.814"/>
	<text transform="matrix(1 0 0 1 980.2793 986.4414)" fill="#555555" font-family="'Helvetica'" font-size="17">Cash outflow </text>
	<text transform="matrix(1 0 0 1 990.6602 1006.8408)" fill="#555555" font-family="'Helvetica'" font-size="17">S$ 15,000</text>
	<rect x="949.417" y="541.946" fill="none" width="160" height="42.709"/>
	<text transform="matrix(1 0 0 1 984.0527 554.1689)" fill="#555555" font-family="'Helvetica'" font-size="17">Expenditure </text>
	<text transform="matrix(1 0 0 1 990.6602 574.5684)" fill="#555555" font-family="'Helvetica'" font-size="17">S$ 12,000</text>
	<rect x="687.426" y="541.946" fill="none" width="160" height="42.709"/>
	<text transform="matrix(1 0 0 1 737.1855 554.1689)" fill="#555555" font-family="'Helvetica'" font-size="17">Savings </text>
	<text transform="matrix(1 0 0 1 733.3965 574.5684)" fill="#555555" font-family="'Helvetica'" font-size="17">S$ 3,000</text>
	<rect x="913.143" y="112.772" fill="none" width="232.547" height="60"/>
	<text transform="matrix(1 0 0 1 968.9414 124.9951)" fill="#555555" font-family="'Helvetica'" font-size="17">Debt repayment </text>
	<text transform="matrix(1 0 0 1 995.3867 145.3955)" fill="#555555" font-family="'Helvetica'" font-size="17">S$ 2,000</text>
	<rect x="687.426" y="111.772" fill="none" width="160" height="60"/>
	<text transform="matrix(1 0 0 1 730.0977 123.9951)" fill="#555555" font-family="'Helvetica'" font-size="17">Expenses </text>
	<text transform="matrix(1 0 0 1 728.6699 144.3955)" fill="#555555" font-family="'Helvetica'" font-size="17">S$ 10,000</text>
	<rect x="686.35" y="974.218" fill="none" width="160" height="41.814"/>
	<text transform="matrix(1 0 0 1 720.0508 986.4414)" fill="#555555" font-family="'Helvetica'" font-size="17">Cash intflow </text>
	<text transform="matrix(1 0 0 1 727.5938 1006.8408)" fill="#555555" font-family="'Helvetica'" font-size="17">S$ 30,000</text>
	<rect x="821.928" y="1403.672" fill="none" width="160" height="43.143"/>
	<text transform="matrix(1 0 0 1 853.2676 1415.8945)" fill="#555555" font-family="'Helvetica'" font-size="17">Net cashflow </text>
	<text transform="matrix(1 0 0 1 863.1719 1436.2949)" fill="#555555" font-family="'Helvetica'" font-size="17">S$ 15,000</text>
</g>
<g>
	<g>
		<g>
			<polygon fill="#A09B91" points="1000.68,314.591 1012.328,302.946 1012.328,316.184 1012.328,427.705 1020.289,427.705 
				1000.68,447.31 981.078,427.705 989.036,427.705 989.036,316.184 989.036,302.946 			"/>
		</g>
	</g>
</g>
<path fill="none" stroke="#928D81" stroke-width="22" stroke-miterlimit="10" d="M1002.331,373.128H745.792c0,0-75-1.761-75-64.729"
	/>
<g>
	<rect x="1.708" y="1.838" fill="#8ABBE6" width="573.934" height="91.633"/>
	<path fill="#827C6F" d="M573.934,3.677v87.956H3.416V3.677H573.934 M577.35,0H0v95.31h577.35V0L577.35,0z"/>
</g>
<g>
	<path fill="#827C6F" d="M574.629,94.604v1088.271H3V94.604H574.629 M577.629,91.633H0v1094.212h577.629V91.633L577.629,91.633z"/>
</g>
<g>
	<g>
		<path fill="#827C6F" d="M118.382,534.013c-0.004,5.044-0.004,10.088,0.01,15.132c0.018,5.699,4.521,10.229,10.207,10.235
			c20.373,0.018,40.744,0.014,61.117,0.001c5.188-0.003,9.189-3.382,10.188-8.512c0.039-0.205,0.141-0.397,0.215-0.594
			c0-20.8,0-41.6,0-62.397c-0.447-1.567-1.562-2.644-2.68-3.739c-6.014-5.884-12.021-11.774-17.994-17.693
			c-1.637-1.619-3.543-2.382-5.824-2.38c-14.941,0.013-29.885-0.001-44.828,0.011c-5.961,0.006-10.393,4.485-10.4,10.469
			c0,0.001,0,0.003,0,0.005l-0.006-0.005v0.188c-0.021,1.875-0.381,3.872,0,5.606L118.382,534.013L118.382,534.013z
			 M128.509,539.456l0.012,0.003v-46.26c0,0.001,0,0.001,0.002,0.002c0-0.408,0-0.817,0-1.226
			c-0.002-5.323-0.01-10.647-0.002-15.971c0-1.599,0.195-1.799,1.754-1.799c12.67-0.001,25.34-0.001,38.012-0.001
			c0.35,0,0.699,0,1.213,0c0,0.447,0,0.821,0,1.195c0,4.01-0.01,8.021,0,12.032c0.012,4.349,2.861,7.204,7.205,7.215
			c3.975,0.011,7.949,0.003,11.926,0.003c0.385,0,0.771,0,1.312,0c0,0.451,0,0.826,0,1.201c0,17.214,0,34.428,0,51.641
			c0,1.56-0.211,1.766-1.791,1.766c-19.271,0-38.545-0.001-57.816-0.003c-1.643,0-1.811-0.173-1.811-1.842
			C128.517,544.759,128.511,542.108,128.509,539.456z"/>
		<rect x="135.034" y="521.446" fill="#827C6F" width="49.828" height="5.333"/>
		<rect x="135.034" y="535.579" fill="#827C6F" width="49.828" height="5.333"/>
		<g>
			<rect x="73.298" y="536.579" fill="#FFFFFF" width="67.578" height="38.56"/>
			<g>
				<path fill="#E3715D" d="M145.743,535.482c0,13.59,0,27.18,0,40.769c-0.098,0.222-0.207,0.44-0.293,0.667
					c-0.705,1.875-2.467,3.107-4.48,3.107c-22.59,0.002-45.18,0.002-67.768,0c-2.047,0-3.805-1.253-4.5-3.18
					c-0.074-0.204-0.18-0.396-0.271-0.594c0-13.589,0-27.178,0-40.769c0.094-0.197,0.195-0.389,0.271-0.594
					c0.695-1.927,2.453-3.178,4.498-3.18c22.59-0.001,45.18-0.001,67.77,0c2.047,0.001,3.809,1.252,4.5,3.18
					C145.546,535.092,145.651,535.284,145.743,535.482z M73.298,575.139c22.57,0,45.072,0,67.578,0c0-6.437,0-12.818,0-19.233
					c-22.539,0-45.043,0-67.578,0C73.298,562.328,73.298,568.711,73.298,575.139z M73.298,546.147c22.57,0,45.072,0,67.576,0
					c0-3.214,0-6.375,0-9.567c-22.539,0-45.043,0-67.576,0C73.298,539.782,73.298,542.942,73.298,546.147z"/>
				<path fill="#E3715D" d="M92.54,570.328c-4.822,0-9.592,0-14.4,0c0-3.191,0-6.351,0-9.57c4.771,0,9.562,0,14.4,0
					C92.54,563.912,92.54,567.091,92.54,570.328z"/>
				<path fill="#E3715D" d="M111.95,570.326c0-1.6,0-3.149,0-4.746c1.584,0,3.146,0,4.758,0c0,1.577,0,3.143,0,4.746
					C115.13,570.326,113.581,570.326,111.95,570.326z"/>
				<path fill="#E3715D" d="M126.362,570.328c-1.604,0-3.15,0-4.738,0c0-1.58,0-3.13,0-4.739c1.551,0,3.117,0,4.738,0
					C126.362,567.135,126.362,568.701,126.362,570.328z"/>
				<path fill="#E3715D" d="M136.034,570.347c-1.605,0-3.137,0-4.73,0c0-1.579,0-3.146,0-4.766c1.553,0,3.113,0,4.73,0
					C136.034,567.152,136.034,568.717,136.034,570.347z"/>
				<path fill="#827C6F" d="M140.874,546.147c-22.504,0-45.006,0-67.576,0v11.442l0,0c0-0.562,0-1.121,0-1.683
					c22.535,0,45.037,0,67.576,0v-11.57l0,0C140.874,544.94,140.874,545.539,140.874,546.147z"/>
			</g>
		</g>
		<rect x="131.825" y="499.05" fill="none" width="54.668" height="14.833"/>
		<g enable-background="new    ">
			<path fill="#E3715D" d="M134.63,499.661h2.09v9.706h4.709v1.751h-6.799V499.661L134.63,499.661z"/>
			<path fill="#E3715D" d="M152.513,505.27c0,3.842-2.328,6.034-5.49,6.034c-3.229,0-5.27-2.464-5.27-5.83c0-3.519,2.209-6,5.439-6
				C150.54,499.474,152.513,502.007,152.513,505.27z M143.962,505.44c0,2.329,1.174,4.182,3.18,4.182c2.021,0,3.16-1.869,3.16-4.267
				c0-2.158-1.068-4.198-3.16-4.198C145.067,501.157,143.962,503.078,143.962,505.44z"/>
			<path fill="#E3715D" d="M156.354,507.871l-0.986,3.247h-2.158l3.672-11.457h2.668l3.725,11.457h-2.244l-1.037-3.247H156.354z
				 M159.636,506.291l-0.9-2.822c-0.221-0.696-0.406-1.479-0.578-2.142h-0.033c-0.17,0.663-0.34,1.462-0.543,2.142l-0.885,2.822
				H159.636z"/>
			<path fill="#E3715D" d="M164.872,511.118v-11.457h2.379l2.959,4.913c0.766,1.274,1.428,2.601,1.953,3.841h0.035
				c-0.137-1.529-0.188-3.008-0.188-4.759v-3.995h1.938v11.457h-2.158l-2.992-5.031c-0.729-1.258-1.496-2.669-2.057-3.961
				l-0.051,0.018c0.086,1.479,0.102,2.991,0.102,4.878v4.097L164.872,511.118L164.872,511.118z"/>
			<path fill="#E3715D" d="M176.313,508.841c0.68,0.391,1.699,0.73,2.77,0.73c1.344,0,2.092-0.629,2.092-1.563
				c0-0.867-0.578-1.377-2.041-1.904c-1.887-0.68-3.094-1.683-3.094-3.331c0-1.87,1.564-3.298,4.047-3.298
				c1.24,0,2.158,0.271,2.754,0.578l-0.51,1.683c-0.408-0.222-1.207-0.544-2.279-0.544c-1.324,0-1.902,0.714-1.902,1.377
				c0,0.884,0.664,1.292,2.191,1.887c1.99,0.748,2.959,1.751,2.959,3.399c0,1.836-1.395,3.434-4.352,3.434
				c-1.207,0-2.465-0.34-3.094-0.714L176.313,508.841z"/>
		</g>
		<rect x="135.034" y="483.78" fill="#827C6F" width="29.162" height="5.333"/>
	</g>
	<g>
		<path fill="#8ABBE6" d="M119.979,247.929c-0.033-16.127-0.029-32.255,0.006-48.382c0-1.253-0.372-2.19-1.188-3.109
			c-4.089-4.623-8.15-9.271-12.175-13.951c-0.416-0.485-0.698-1.233-0.729-1.873c-0.092-2.03-0.028-4.069-0.047-6.103
			c-0.002-0.436-0.097-0.872-0.143-1.249c-1.354-0.403-25.445-0.31-26.312,0.1c-0.028,0.398-0.092,0.845-0.092,1.293
			c-0.013,1.929-0.029,3.859,0.002,5.788c0.016,0.858-0.254,1.533-0.824,2.183c-3.991,4.525-7.926,9.101-11.936,13.605
			c-0.971,1.089-1.382,2.196-1.382,3.67c0.04,26.204,0.028,52.407,0.022,78.613c0,1.016-0.086,2.033-0.104,3.046
			c-0.092,4.734,1.76,8.583,6.864,9.248c0.659,0.085,1.33,0.083,1.998,0.083c12.415,0.005,24.835,0.005,37.255,0.002
			c0.525,0,1.057,0.023,1.576-0.037c0.687-0.079,1.365-0.186,2.033-0.401c0.041-0.015,0.08-0.026,0.123-0.044
			c0.572-0.197,1.137-0.476,1.688-0.9c-0.051-0.029-0.092-0.053-0.141-0.082c1.688-1.336,3.496-3.389,3.496-3.389v-34.997
			c0.008-0.114,0.015-0.229,0.014-0.352C119.982,249.772,119.98,248.851,119.979,247.929z"/>
		<path fill="#827C6F" d="M173.479,245.936c-1.589,2.087-3.198,3.952-4.525,5.996c-3.598,5.547-5.907,11.621-6.836,18.176
			c-0.116,0.831,0.132,1.819,0.503,2.592c0.551,1.148,1.631,1.199,2.458,0.206c0.47-0.557,0.808-1.228,1.165-1.867
			c1.876-3.372,3.672-6.79,5.628-10.113c1.853-3.158,4.054-6.067,6.818-8.508c1.798-1.585,3.825-2.787,6.295-2.284
			c1.508,0.308,3.032,0.919,4.349,1.725c3.305,2.021,5.643,5.022,7.639,8.277c2.687,4.383,4.564,9.065,5.263,14.202
			c0.68,5.031-1.19,8.917-5.108,11.932c-3.172,2.444-6.869,3.775-10.679,4.814c-5.778,1.576-11.69,2.393-17.649,2.721
			c-6.686,0.368-13.384,0.494-20.078,0.711c-7.449,0.24-14.871-0.057-22.196-1.539c-5.269-1.065-10.313-2.738-14.619-6.125
			c-4.813-3.786-7.206-8.868-7.743-14.864c-0.191-2.15,0.577-4.151,1.633-6.01c2.103-3.7,5.135-6.561,8.397-9.191
			c5.3-4.266,11.127-7.703,17.175-10.775c0.184-0.091,0.382-0.148,0.745-0.08c-0.209,0.283-0.403,0.571-0.623,0.845
			c-3.429,4.323-6.735,8.731-8.968,13.822c-0.571,1.305-0.979,2.707-1.258,4.105c-0.17,0.859-0.051,1.819,0.129,2.693
			c0.158,0.779,0.604,1.484,1.546,1.875c0.198-0.385,0.405-0.733,0.569-1.099c2.502-5.633,5.729-10.775,10.15-15.113
			c5.426-5.325,11.921-8.686,19.299-10.393c0.295-0.068,0.6-0.083,1.211-0.166c-0.352,0.522-0.527,0.828-0.748,1.1
			c-4.343,5.388-8.05,11.152-10.398,17.702c-0.902,2.516-1.621,5.085-1.695,7.783c-0.037,1.322,0.26,1.865,1.109,2.116
			c0.88,0.263,1.937-0.223,2.438-1.21c0.38-0.748,0.653-1.55,0.979-2.327c2.709-6.43,6.384-12.183,11.906-16.577
			c4.272-3.403,9.133-5.302,14.67-5.225C172.761,245.867,173.099,245.907,173.479,245.936z"/>
		<text transform="matrix(1 0 0 1 74.373 239.1284)" fill="#FFFFFF" font-family="'MyriadPro-Semibold'" font-size="17">MILK</text>
	</g>
	<g>
		<g>
			<path fill="#FED82F" d="M130.64,875.977l-2.414-1.303c-19.646-10.613-33.512-22.451-41.207-35.189
				c-5.77-9.551-5.957-16.346-5.934-17.621V763.57l6.08,1.225c2.961,0.6,6.031,0.9,9.121,0.9c17.543,0,31.283-9.693,31.42-9.793
				l3.197-2.289l3.025,2.518c0.012,0.01,2.934,2.385,8.184,4.721c4.797,2.135,12.602,4.676,22.533,4.676l0,0
				c3.178,0,6.434-0.258,9.68-0.768l5.867-0.926v58.029c0.021,1.275-0.162,8.068-5.936,17.621
				c-7.695,12.736-21.559,24.574-41.205,35.189L130.64,875.977z M91.241,822.1c0.021,0.629,0.344,5.664,5.033,13.043
				c8.027,12.623,22.66,22.695,34.365,29.268c11.707-6.57,26.34-16.645,34.367-29.268c4.746-7.467,5.02-12.533,5.033-13.064
				l-0.01-0.146l0.01-0.012v-46.441c-1.809,0.137-3.609,0.207-5.391,0.207c-0.002,0-0.002,0-0.002,0
				c-16.885,0-28.793-6.127-34.117-9.545c-5.668,3.354-18.498,9.711-34.242,9.711c-1.689,0-3.375-0.072-5.045-0.223L91.241,822.1
				L91.241,822.1z"/>
		</g>
		<g>
			<path fill="#827C6F" d="M130.64,865.168l-1.986-1.072c-16.176-8.738-27.592-18.484-33.928-28.971
				c-4.752-7.863-4.904-13.459-4.887-14.51v-47.996l5.006,1.01c2.439,0.492,4.965,0.74,7.51,0.74
				c14.443,0,25.758-7.979,25.869-8.062l2.635-1.887l2.49,2.072c0.012,0.008,2.414,1.963,6.736,3.887
				c3.951,1.758,10.375,3.852,18.553,3.852c0.002,0,0.002,0,0.002,0c2.615,0,5.297-0.213,7.971-0.633l4.83-0.764v47.779
				c0.018,1.051-0.135,6.645-4.887,14.51c-6.336,10.486-17.75,20.232-33.926,28.971L130.64,865.168z"/>
		</g>
		<g>
			<path fill="#FFFFFF" d="M132.388,845.117h-3.494v-7.17c-4.732-0.527-8.264-1.562-10.594-3.098
				c-4.105-2.764-6.125-7.473-6.053-14.125h9.729c0.336,3.025,0.805,5.057,1.404,6.09c0.938,1.607,2.775,2.652,5.514,3.135v-15.387
				l-2.918-0.863c-4.588-1.346-7.824-3.219-9.711-5.621c-1.885-2.4-2.828-5.297-2.828-8.684c0-2.234,0.367-4.264,1.1-6.088
				c0.732-1.826,1.76-3.4,3.082-4.723c1.705-1.705,3.602-2.881,5.691-3.529c1.273-0.408,3.135-0.709,5.584-0.9v-4.793h3.496v4.863
				c3.896,0.312,6.957,1.273,9.182,2.883c4.041,2.57,6.131,6.738,6.275,12.504h-9.477c-0.189-2.139-0.545-3.699-1.068-4.686
				c-0.9-1.705-2.539-2.643-4.912-2.811v13.729c5.691,1.969,9.518,3.711,11.479,5.225c3.227,2.521,4.842,6.076,4.842,10.664
				c0,6.055-2.223,10.449-6.666,13.188c-2.713,1.684-5.932,2.666-9.656,2.955V845.117z M128.892,792.189
				c-2.09,0.047-3.639,0.605-4.646,1.674c-1.01,1.07-1.514,2.529-1.514,4.379c0,2.02,0.758,3.615,2.27,4.791
				c0.84,0.648,2.137,1.25,3.891,1.803V792.189z M132.388,829.84c1.875-0.238,3.242-0.672,4.098-1.297
				c1.498-1.105,2.244-3.016,2.244-5.729c0-2.066-0.699-3.699-2.102-4.9c-0.83-0.695-2.244-1.418-4.238-2.162L132.388,829.84
				L132.388,829.84z"/>
		</g>
	</g>
	<g>
		<polygon fill="#928D81" points="467.639,794.275 467.639,773.465 467.639,754.795 467.639,734.744 467.639,728.551 
			467.639,358.798 444.347,358.798 444.347,728.551 444.347,734.744 444.347,754.795 444.347,773.465 444.347,794.275 
			444.347,815.869 444.345,815.869 444.345,837.869 444.345,891.799 444.345,923.711 436.387,923.711 455.988,953.404 
			475.598,923.711 467.639,923.709 		"/>
		<path fill="none" stroke="#928D81" stroke-width="23.5" stroke-miterlimit="10" d="M234.113,236.951h141.853
			c0,0,80.026-4.953,80.026,58.947"/>
		<path fill="none" stroke="#928D81" stroke-width="23.5" stroke-miterlimit="10" d="M234.113,523.534h141.853
			c0,0,80.026-4.953,80.026,58.947"/>
		<path fill="none" stroke="#928D81" stroke-width="23.5" stroke-miterlimit="10" d="M234.113,812.33h141.853
			c0,0,80.026-4.953,80.026,58.947"/>
		<rect x="444.347" y="293.923" fill="#928D81" width="23.292" height="236.107"/>
	</g>
	<g>
		<rect x="106.638" y="337.878" fill="#928D81" width="47.68" height="13.388"/>
		<rect x="123.784" y="320.732" fill="#928D81" width="13.385" height="47.679"/>
	</g>
	<g>
		<rect x="112.194" y="625.947" fill="#928D81" width="47.679" height="13.389"/>
		<rect x="129.341" y="608.801" fill="#928D81" width="13.385" height="47.68"/>
	</g>
</g>
<g>
	<rect x="-919.338" y="96.15" fill="none" stroke="#928D81" stroke-miterlimit="10" width="855.5" height="61.812"/>
	<rect x="-919.338" y="96.15" fill="none" stroke="#928D81" stroke-miterlimit="10" width="855.5" height="61.812"/>
	<rect x="-919.338" y="157.962" fill="none" stroke="#928D81" stroke-miterlimit="10" width="855.5" height="231.227"/>
	<rect x="-919.338" y="387.902" fill="none" stroke="#928D81" stroke-miterlimit="10" width="855.5" height="61.812"/>
	<rect x="-919.338" y="387.902" fill="none" stroke="#928D81" stroke-miterlimit="10" width="855.5" height="61.812"/>
	<rect x="-919.338" y="449.714" fill="none" stroke="#928D81" stroke-miterlimit="10" width="855.5" height="231.228"/>
	<rect x="-919.338" y="681.99" fill="none" stroke="#928D81" stroke-miterlimit="10" width="855.5" height="61.811"/>
	<rect x="-919.338" y="681.99" fill="none" stroke="#928D81" stroke-miterlimit="10" width="855.5" height="61.811"/>
	<rect x="-919.338" y="743.801" fill="none" stroke="#928D81" stroke-miterlimit="10" width="855.5" height="231.229"/>
</g>
</svg>
