<?xml version="1.0" encoding="utf-8"?>
<!-- Generator: Adobe Illustrator 16.0.0, SVG Export Plug-In . SVG Version: 6.00 Build 0)  -->
<!DOCTYPE svg PUBLIC "-//W3C//DTD SVG 1.1//EN" "http://www.w3.org/Graphics/SVG/1.1/DTD/svg11.dtd">
<svg version="1.1" id="Layer_1" xmlns="http://www.w3.org/2000/svg" xmlns:xlink="http://www.w3.org/1999/xlink" x="0px" y="0px"
	 width="577.629px" height="1196.644px" viewBox="0 0 577.629 1196.644" enable-background="new 0 0 577.629 1196.644"
	 xml:space="preserve">
<path fill="#A09B91" d="M422.717,1272.13c-1.447,7.127-3.706,13.887-7.208,19.75c-2.062,3.453-4.526,6.596-7.468,9.361
	c-2.947,2.758-6.354,5.165-10.212,7.238c-7.716,4.136-17.19,6.971-27.444,8.69c-1.262,0.245-2.563,0.433-3.867,0.616
	c-1.306,0.182-2.587,0.405-3.922,0.539l-3.97,0.463l-4.851,0.629c-6.532,0.791-13.051,2.283-19.449,4.08l-4.737,1.566
	c-0.783,0.274-1.583,0.506-2.352,0.816l-2.302,0.936c-1.521,0.645-3.086,1.217-4.562,1.936l-4.414,2.176
	c-5.746,3.078-11.169,6.601-15.914,10.613c-4.727,4.018-8.889,8.395-12.464,12.993c-1.881,2.414-3.562,4.896-5.098,7.415
	c-1.536-2.52-3.218-5.003-5.1-7.417c-3.572-4.599-7.736-8.976-12.463-12.994c-4.746-4.013-10.168-7.534-15.914-10.612l-4.416-2.178
	c-1.476-0.718-3.041-1.29-4.563-1.934l-2.301-0.935c-0.767-0.312-1.567-0.544-2.352-0.817l-4.738-1.566
	c-6.397-1.797-12.915-3.291-19.45-4.082l-4.848-0.627l-3.972-0.463c-1.335-0.135-2.615-0.358-3.921-0.539
	c-1.304-0.185-2.605-0.373-3.868-0.616c-10.253-1.721-19.728-4.555-27.443-8.69c-3.857-2.073-7.264-4.48-10.211-7.238
	c-2.939-2.766-5.405-5.906-7.468-9.361c-3.502-5.862-5.76-12.621-7.207-19.749h-28.389c1.669,9.752,4.521,19.823,10.305,29.569
	c2.984,5.007,6.779,9.883,11.43,14.254c4.648,4.369,10.098,8.199,15.936,11.334c5.841,3.145,12.039,5.611,18.289,7.554
	c6.258,1.956,12.578,3.382,18.856,4.448c1.573,0.298,3.14,0.527,4.707,0.752c1.563,0.219,3.138,0.481,4.694,0.644l4.681,0.544
	l3.781,0.5c5.005,0.587,9.729,1.723,14.339,2.982l3.347,1.116c0.552,0.193,1.134,0.345,1.664,0.568l1.595,0.66
	c1.053,0.456,2.165,0.833,3.176,1.336l3.042,1.501c3.937,2.133,7.663,4.516,10.964,7.312c3.284,2.808,6.254,5.906,8.872,9.268
	c2.628,3.355,4.813,7.021,6.72,10.817c3.788,7.609,6.211,15.925,7.408,24.353c0.279,1.92,0.474,3.848,0.613,5.758
	c0.039,0.545,0.057,1.078,0.082,1.615h-15.354l30.124,32.812l28.827-32.812h-15.353c0.025-0.537,0.043-1.07,0.083-1.615
	c0.138-1.91,0.334-3.836,0.614-5.758c1.198-8.428,3.62-16.742,7.408-24.352c1.905-3.797,4.092-7.462,6.718-10.818
	c2.62-3.359,5.588-6.459,8.872-9.266c3.301-2.797,7.026-5.178,10.963-7.311l3.041-1.502c1.013-0.504,2.124-0.881,3.176-1.336
	l1.596-0.66c0.53-0.223,1.111-0.376,1.665-0.568l3.346-1.117c4.609-1.26,9.333-2.396,14.339-2.982l3.779-0.5l4.681-0.544
	c1.558-0.161,3.132-0.425,4.696-0.645c1.567-0.223,3.132-0.452,4.705-0.75c6.278-1.067,12.602-2.493,18.857-4.448
	c6.251-1.943,12.449-4.408,18.29-7.555c5.839-3.133,11.287-6.965,15.936-11.334c4.651-4.371,8.445-9.247,11.433-14.254
	c5.782-9.748,8.635-19.816,10.304-29.571H422.717z"/>
<rect x="265.336" y="1054.539" fill="#928D81" width="47.679" height="13.384"/>
<g>
	<rect x="265.336" y="656.616" fill="#928D81" width="47.679" height="13.384"/>
	<rect x="282.484" y="639.468" fill="#928D81" width="13.384" height="47.679"/>
</g>
<g>
	<path fill-rule="evenodd" clip-rule="evenodd" fill="#827C6F" d="M340.495,1450.74c2.979,16.83,5.929,33.504,8.918,50.396
		c-2.432,0.75-4.826,1.539-7.248,2.225c-9.498,2.691-19.212,4.229-29.011,5.242c-12.464,1.285-24.952,2.348-37.4,3.771
		c-10.683,1.221-21.188,3.402-31.352,7.027c-0.297,0.105-0.607,0.174-1.084,0.309c-2.957-16.809-5.898-33.521-8.882-50.475
		c3.575-1.107,7.038-2.291,10.563-3.254c10.397-2.836,21.049-4.139,31.748-5.148c12.614-1.191,25.241-2.275,37.824-3.734
		c8.425-0.979,16.66-3.037,24.662-5.928C339.583,1451.044,339.938,1450.931,340.495,1450.74z M298.585,1475.546
		c0.104-1.08,0.119-2.451,0.397-3.766c0.256-1.209-0.307-1.525-1.275-1.619c-1.814-0.174-3.63-0.324-5.504-0.49
		c-0.267-1.447-0.536-2.902-0.823-4.455c-1.955,0.215-3.754,0.414-5.693,0.629c0.234,1.346,0.405,2.5,0.643,3.641
		c0.183,0.867-0.049,1.32-0.93,1.697c-3.507,1.504-5.108,4.07-4.981,7.734c0.126,3.639,1.927,6.162,5.511,7.385
		c1.816,0.619,3.739,0.92,5.6,1.42c1.267,0.34,2.55,0.674,3.746,1.193c1.134,0.49,1.647,1.512,1.538,2.771
		c-0.104,1.207-0.928,1.855-1.975,2.135c-1.175,0.311-2.4,0.639-3.598,0.613c-2.376-0.051-4.747-0.338-7.28-0.541
		c-0.292,1.52-0.616,3.207-1.01,5.256c2.943,0.361,5.758,0.705,8.705,1.066c0.297,1.504,0.627,3.182,0.969,4.918
		c1.984-0.244,3.775-0.463,5.581-0.686c-0.325-1.939-0.61-3.643-0.894-5.33c0.407-0.174,0.665-0.285,0.924-0.393
		c3.148-1.291,5.342-3.35,5.465-6.986c0.13-3.822-1.477-6.693-4.994-8.254c-1.746-0.775-3.646-1.213-5.491-1.752
		c-1.396-0.408-2.83-0.689-4.223-1.109c-1.113-0.338-1.689-1.205-1.699-2.346c-0.009-1.186,0.717-1.912,1.79-2.273
		c0.619-0.207,1.271-0.424,1.913-0.438C293.467,1475.517,295.941,1475.546,298.585,1475.546z M259.89,1498.218
		c4.491-0.014,8.11-3.561,8.06-7.9c-0.052-4.443-3.733-8.127-8.1-8.102c-4.338,0.021-7.81,3.645-7.815,8.15
		C252.03,1494.833,255.429,1498.232,259.89,1498.218z M315.713,1480.025c-0.01,4.447,3.643,8.176,8.012,8.178
		c4.268,0.004,7.891-3.738,7.889-8.148c-0.001-4.316-3.46-7.816-7.78-7.873C319.384,1472.123,315.722,1475.658,315.713,1480.025z"/>
	<path fill-rule="evenodd" clip-rule="evenodd" fill="#827C6F" d="M238.721,1528.349c-2.973-16.891-5.909-33.572-8.874-50.418
		c1.06-0.396,2.13-0.797,3.326-1.244c2.716,15.354,5.41,30.58,8.132,45.965c0.742-0.246,1.31-0.428,1.872-0.623
		c9.468-3.287,19.218-5.412,29.147-6.547c12.398-1.418,24.837-2.473,37.248-3.775c11.437-1.199,22.783-2.928,33.801-6.371
		c0.173-0.055,0.362-0.055,0.703-0.102c0.271,1.443,0.538,2.859,0.85,4.516c-3.161,0.941-6.278,1.957-9.444,2.793
		c-9.4,2.477-18.991,3.875-28.648,4.863c-12.929,1.32-25.877,2.484-38.781,4.014c-9.548,1.131-18.908,3.297-28.001,6.5
		C239.661,1528.056,239.265,1528.173,238.721,1528.349z"/>
	<path fill-rule="evenodd" clip-rule="evenodd" fill="#FFFFFF" d="M298.585,1475.546c-2.645,0-5.118-0.029-7.589,0.021
		c-0.642,0.014-1.294,0.23-1.913,0.438c-1.073,0.361-1.799,1.088-1.79,2.273c0.01,1.141,0.586,2.008,1.699,2.346
		c1.393,0.42,2.826,0.701,4.223,1.109c1.846,0.539,3.745,0.977,5.491,1.752c3.518,1.561,5.124,4.432,4.994,8.254
		c-0.123,3.637-2.316,5.695-5.465,6.986c-0.259,0.107-0.517,0.219-0.924,0.393c0.283,1.688,0.568,3.391,0.894,5.33
		c-1.806,0.223-3.597,0.441-5.581,0.686c-0.342-1.736-0.672-3.414-0.969-4.918c-2.947-0.361-5.762-0.705-8.705-1.066
		c0.394-2.049,0.718-3.736,1.01-5.256c2.533,0.203,4.904,0.49,7.28,0.541c1.197,0.025,2.423-0.303,3.598-0.613
		c1.047-0.279,1.87-0.928,1.975-2.135c0.109-1.26-0.404-2.281-1.538-2.771c-1.196-0.52-2.479-0.854-3.746-1.193
		c-1.86-0.5-3.783-0.801-5.6-1.42c-3.584-1.223-5.385-3.746-5.511-7.385c-0.127-3.664,1.475-6.23,4.981-7.734
		c0.881-0.377,1.112-0.83,0.93-1.697c-0.237-1.141-0.408-2.295-0.643-3.641c1.939-0.215,3.738-0.414,5.693-0.629
		c0.287,1.553,0.557,3.008,0.823,4.455c1.874,0.166,3.689,0.316,5.504,0.49c0.969,0.094,1.531,0.41,1.275,1.619
		C298.705,1473.095,298.69,1474.466,298.585,1475.546z"/>
	<path fill-rule="evenodd" clip-rule="evenodd" fill="#FFFFFF" d="M259.89,1498.218c-4.461,0.014-7.86-3.385-7.855-7.852
		c0.006-4.506,3.478-8.129,7.815-8.15c4.366-0.025,8.048,3.658,8.1,8.102C268,1494.658,264.381,1498.205,259.89,1498.218z"/>
	<path fill-rule="evenodd" clip-rule="evenodd" fill="#FFFFFF" d="M315.713,1480.025c0.009-4.367,3.671-7.902,8.12-7.844
		c4.32,0.057,7.779,3.557,7.78,7.873c0.002,4.41-3.621,8.152-7.889,8.148C319.356,1488.201,315.704,1484.472,315.713,1480.025z"/>
</g>
<path fill-rule="evenodd" clip-rule="evenodd" fill="#827C6F" d="M57.971,1112.81c9.242-3.843,18.158-7.788,27.259-11.24
	c5.335-2.024,10.722-1.031,15.57,1.979c4.138,2.581,8.288,5.175,12.176,8.114c7.423,5.617,15.73,8.327,24.972,8.532
	c3.363,0.077,6.725,0.339,10.075,0.672c2.005,0.192,3.523,1.191,3.805,3.427c0.301,2.415-0.941,4.035-3.042,4.714
	c-2.165,0.704-4.471,1.269-6.731,1.326c-7.013,0.16-14.052,0.416-21.04-0.064c-4.887-0.339-9.703-1.806-14.539-2.818
	c-1.089-0.23-2.126-0.679-3.292-0.787c4.579,4.637,9.646,8.729,16.332,8.96c8.942,0.308,17.915,0.02,26.855-0.397
	c2.332-0.108,4.771-1.352,6.847-2.594c3.395-2.023,4.452-5.342,3.952-9.197c-0.493-3.849-2.626-6.462-6.315-7.385
	c-2.895-0.724-5.931-0.973-8.922-1.185c-2.6-0.191-5.226-0.045-7.839-0.045c-0.064-0.32-0.128-0.646-0.186-0.974
	c5.085-2.817,10.062-5.866,15.294-8.384c4.458-2.146,6.488-1.415,10.427,2.127c3.459-1.108,6.533-2.53,9.748-3.01
	c3.952-0.59,6.149,1.537,6.86,5.854c1.562-0.666,3.017-1.531,4.592-1.902c2.21-0.519,4.509-0.941,6.764-0.909
	c2.396,0.025,4.144,1.595,5.079,3.753c0.942,2.171,0.327,4.259-1.288,5.886c-1.614,1.627-3.305,3.26-5.213,4.516
	c-15.557,10.26-31.256,20.303-46.736,30.685c-7.404,4.964-14.628,4.996-22.288,0.974c-7.77-4.08-15.718-7.833-23.391-12.086
	c-5.373-2.984-10.184-3.017-15.039,0.833c-1.716,1.357-3.669,2.421-5.783,3.791C67.976,1134.983,63.101,1124.186,57.971,1112.81z"/>
<g>
	<g>
		<g>
			<path fill="#99C4E9" d="M78.644,1062.591c-2.096-1.782-4.345-3.459-6.744-5.021c-1.202-0.787-2.437-1.539-3.731-2.252
				c-0.642-0.363-1.312-0.702-1.991-1.041l-1.059-0.483c-0.172-0.083-0.381-0.15-0.573-0.224l-0.296-0.107
				c-0.111-0.032-0.273-0.048-0.408-0.072l1.216-0.333l1.013-0.251c0.662-0.16,1.308-0.301,1.95-0.435
				c1.285-0.269,2.557-0.494,3.832-0.698c2.547-0.397,5.107-0.665,7.692-0.826c5.117-0.289,10.353-0.134,15.679,0.783
				c5.306,0.912,10.725,2.5,15.833,5.192c5.104,2.657,9.832,6.361,13.623,10.746l1.407,1.656c0.466,0.554,0.851,1.151,1.276,1.729
				c0.829,1.166,1.676,2.329,2.345,3.555l0.904,1.558c0.227,0.401,0.468,0.8,0.679,1.205l1.163,2.454l7.23-3.334
				c-2.045,11.283-7.155,19.929-12.922,27.105c-1.847-1.448-3.683-2.792-5.498-4.034c-1.913-1.209-3.804-2.302-5.68-3.263
				c-0.983-0.453-1.954-0.873-2.912-1.26c-0.969-0.376-1.872-0.771-2.876-1.023c-1.971-0.527-3.798-1.015-5.721-1.104l7.227-3.333
				l-0.667-1.444l-0.889-1.524c-0.357-0.705-0.825-1.289-1.256-1.906c-0.224-0.299-0.412-0.637-0.657-0.911l-0.722-0.832
				c-1.922-2.213-4.176-3.989-6.807-5.377c-5.259-2.749-12.179-3.828-19.385-3.385c-1.818,0.115-3.651,0.304-5.464,0.586
				c-0.904,0.146-1.806,0.304-2.68,0.488c-0.438,0.091-0.87,0.185-1.28,0.285l-0.974,0.247c-0.019-0.057-0.064-0.107-0.058-0.172
				l0.055-0.203c0.042-0.137,0.066-0.271,0.129-0.412c0.114-0.278,0.225-0.559,0.353-0.839c0.266-0.559,0.54-1.126,0.849-1.684
				c0.602-1.124,1.274-2.242,1.987-3.341C75.264,1066.843,76.87,1064.677,78.644,1062.591z"/>
		</g>
	</g>
</g>
<path fill-rule="evenodd" clip-rule="evenodd" fill="#827C6F" d="M381.657,1112.81c9.242-3.843,18.158-7.788,27.26-11.24
	c5.334-2.024,10.723-1.031,15.568,1.979c4.139,2.581,8.291,5.175,12.178,8.114c7.424,5.617,15.729,8.327,24.973,8.532
	c3.361,0.077,6.725,0.339,10.074,0.672c2.004,0.192,3.523,1.191,3.805,3.427c0.301,2.415-0.941,4.035-3.043,4.714
	c-2.164,0.704-4.471,1.269-6.73,1.326c-7.014,0.16-14.053,0.416-21.039-0.064c-4.889-0.339-9.705-1.806-14.541-2.818
	c-1.088-0.23-2.127-0.679-3.291-0.787c4.578,4.637,9.646,8.729,16.332,8.96c8.941,0.308,17.914,0.02,26.855-0.397
	c2.332-0.108,4.771-1.352,6.846-2.594c3.395-2.023,4.453-5.342,3.953-9.197c-0.494-3.849-2.625-6.462-6.314-7.385
	c-2.895-0.724-5.932-0.973-8.924-1.185c-2.6-0.191-5.225-0.045-7.838-0.045c-0.064-0.32-0.129-0.646-0.188-0.974
	c5.086-2.817,10.062-5.866,15.297-8.384c4.457-2.146,6.486-1.415,10.426,2.127c3.459-1.108,6.533-2.53,9.748-3.01
	c3.951-0.59,6.148,1.537,6.859,5.854c1.562-0.666,3.018-1.531,4.592-1.902c2.211-0.519,4.51-0.941,6.764-0.909
	c2.396,0.025,4.145,1.595,5.08,3.753c0.941,2.171,0.326,4.259-1.289,5.886c-1.613,1.627-3.305,3.26-5.213,4.516
	c-15.557,10.26-31.254,20.303-46.736,30.685c-7.402,4.964-14.627,4.996-22.287,0.974c-7.77-4.08-15.719-7.833-23.393-12.086
	c-5.371-2.984-10.182-3.017-15.037,0.833c-1.717,1.357-3.67,2.421-5.783,3.791C391.661,1134.983,386.788,1124.186,381.657,1112.81z"
	/>
<g>
	<g>
		<g>
			<path fill="#E78372" d="M448.423,1090.37c-2.645,0.759-5.286,1.703-7.915,2.836c-1.321,0.566-2.631,1.178-3.941,1.861
				c-0.658,0.333-1.311,0.704-1.969,1.082l-0.988,0.614c-0.164,0.098-0.336,0.234-0.504,0.354l-0.253,0.187
				c-0.089,0.075-0.191,0.2-0.286,0.3l0.396-1.197l0.351-0.982c0.233-0.639,0.475-1.255,0.718-1.864
				c0.487-1.219,1.004-2.403,1.54-3.577c1.079-2.341,2.272-4.622,3.57-6.864c2.592-4.42,5.62-8.695,9.332-12.624
				c3.697-3.914,8.02-7.547,13.089-10.312c5.038-2.779,10.74-4.666,16.49-5.396l2.157-0.255c0.72-0.082,1.43-0.071,2.146-0.105
				c1.43-0.045,2.866-0.106,4.259,0.015l1.798,0.109c0.459,0.034,0.925,0.054,1.379,0.102l2.688,0.39l1.226-7.867
				c8.264,7.95,12.636,16.991,15.42,25.767c-2.229,0.736-4.364,1.521-6.403,2.345c-2.065,0.924-4.022,1.894-5.861,2.924
				c-0.922,0.567-1.81,1.144-2.662,1.727c-0.85,0.599-1.678,1.132-2.444,1.829c-1.53,1.35-2.948,2.602-4.086,4.153l1.225-7.864
				l-1.571-0.244l-1.762-0.104c-0.785-0.093-1.53-0.027-2.282-0.009c-0.373,0.021-0.759-0.01-1.123,0.042l-1.092,0.141
				c-2.907,0.375-5.635,1.269-8.246,2.692c-5.201,2.858-9.93,8.022-13.551,14.269c-0.91,1.578-1.768,3.208-2.536,4.875
				c-0.379,0.833-0.746,1.672-1.077,2.501c-0.166,0.416-0.328,0.827-0.472,1.224l-0.334,0.947c-0.058-0.016-0.125-0.006-0.176-0.046
				l-0.139-0.159c-0.09-0.11-0.189-0.205-0.271-0.335c-0.169-0.249-0.341-0.496-0.504-0.758c-0.318-0.531-0.64-1.073-0.933-1.639
				c-0.603-1.124-1.162-2.303-1.683-3.505C450.092,1095.538,449.178,1093.002,448.423,1090.37z"/>
		</g>
	</g>
</g>
<g>
	<path fill="#E3715D" d="M177.563,704.312c-0.418,0-0.826,0.032-1.229,0.082c-2.507-13.499-11.64-25.011-24.333-31.817
		c-3.811,6.779-11.068,11.364-19.399,11.364c-10.185,0-18.765-6.849-21.402-16.19c-0.134,0.034-0.27-0.725-0.403-0.689
		c-3.038-2.375-7.19-4.964-11.18-8.645c-1.014-0.935-2.408-2.224-3.798-2.538c-1.528-0.345-2.3,0.796-2.578,2.141
		c-0.58,2.815-0.204,5.92-0.307,8.773c-0.114,3.19-0.216,6.383-0.322,9.577c-6.871,4.995-12.259,11.536-15.513,19.02h-8.977
		c-3.044,0-5.511,2.466-5.511,5.51v18.109c0,3.043,2.467,5.511,5.511,5.511h7.485c3.376,10.535,10.877,19.53,20.859,25.506v11.76
		c0,1.74,1.41,3.15,3.15,3.15h12.071c1.739,0,3.149-1.41,3.149-3.15v-4.885c3.39,0.62,6.901,0.948,10.498,0.948
		c3.599,0,7.107-0.336,10.497-0.958v4.895c0,1.74,1.411,3.15,3.15,3.15h11.286c1.739,0,3.149-1.41,3.149-3.15v-11.312
		c12.576-7.251,21.389-19.216,23.243-33.083c0.296,0.025,0.597,0.042,0.902,0.042c4.493,0,8.136-2.938,8.136-6.56
		S182.056,704.312,177.563,704.312z M96.959,700.046c-3.861,0-7.088-2.683-7.941-6.284c1.06,1.496,2.803,2.476,4.778,2.476
		c3.234,0,5.856-2.622,5.856-5.855c0-3.233-2.622-5.854-5.856-5.854c-0.145,0-0.287,0.012-0.427,0.021
		c1.085-0.531,2.302-0.839,3.591-0.839c4.513,0,8.169,3.657,8.169,8.168C105.129,696.39,101.473,700.046,96.959,700.046z"/>
	<g>
		<circle fill="#827C6F" cx="132.815" cy="657.728" r="18.239"/>
		<path fill-rule="evenodd" clip-rule="evenodd" fill="#FFFFFF" d="M138.273,652.383c-1.581-0.213-3.056-0.427-4.536-0.596
			c-0.386-0.044-0.792,0.034-1.179,0.108c-0.671,0.13-1.162,0.505-1.252,1.215c-0.085,0.684,0.19,1.246,0.829,1.538
			c0.798,0.362,1.632,0.646,2.434,1.001c1.059,0.47,2.159,0.882,3.141,1.487c1.977,1.215,2.707,3.059,2.322,5.332
			c-0.366,2.165-1.841,3.219-3.825,3.738c-0.164,0.042-0.326,0.089-0.583,0.161c0.033,1.031,0.066,2.071,0.106,3.255
			c-1.096-0.01-2.184-0.023-3.39-0.036c-0.065-1.066-0.128-2.094-0.184-3.018c-1.732-0.451-3.387-0.883-5.116-1.333
			c0.398-1.194,0.727-2.176,1.023-3.061c1.499,0.324,2.893,0.687,4.308,0.908c0.713,0.11,1.473,0.013,2.199-0.079
			c0.648-0.083,1.192-0.404,1.352-1.117c0.166-0.744-0.06-1.396-0.697-1.779c-0.673-0.407-1.413-0.708-2.142-1.014
			c-1.071-0.447-2.197-0.78-3.232-1.297c-2.044-1.017-2.917-2.669-2.702-4.854c0.218-2.198,1.38-3.604,3.597-4.221
			c0.557-0.156,0.731-0.407,0.691-0.939c-0.05-0.701-0.06-1.405-0.092-2.228c1.175,0.027,2.268,0.052,3.453,0.079
			c0.046,0.953,0.092,1.843,0.134,2.729c1.107,0.249,2.179,0.486,3.25,0.735c0.571,0.133,0.882,0.368,0.633,1.069
			C138.541,650.929,138.422,651.746,138.273,652.383z"/>
	</g>
</g>
<g>
	<circle fill="#827C6F" cx="455.603" cy="755.574" r="16.821"/>
	<path fill-rule="evenodd" clip-rule="evenodd" fill="#FFFFFF" d="M460.638,750.645c-1.459-0.196-2.82-0.395-4.183-0.55
		c-0.357-0.04-0.732,0.032-1.088,0.101c-0.62,0.12-1.071,0.466-1.156,1.12c-0.079,0.63,0.176,1.149,0.765,1.419
		c0.736,0.333,1.504,0.595,2.245,0.922c0.977,0.434,1.991,0.814,2.896,1.372c1.823,1.12,2.497,2.82,2.144,4.917
		c-0.338,1.996-1.698,2.968-3.529,3.447c-0.15,0.039-0.3,0.083-0.537,0.148c0.031,0.951,0.062,1.91,0.099,3.001
		c-1.012-0.009-2.016-0.021-3.126-0.033c-0.062-0.982-0.12-1.931-0.171-2.783c-1.597-0.417-3.123-0.815-4.718-1.23
		c0.365-1.101,0.671-2.006,0.942-2.822c1.382,0.299,2.669,0.633,3.974,0.837c0.657,0.102,1.357,0.011,2.027-0.073
		c0.597-0.075,1.099-0.372,1.246-1.03c0.152-0.686-0.054-1.288-0.643-1.642c-0.62-0.375-1.303-0.654-1.976-0.935
		c-0.989-0.412-2.026-0.72-2.98-1.196c-1.887-0.938-2.691-2.462-2.493-4.478c0.202-2.028,1.274-3.324,3.317-3.893
		c0.514-0.144,0.675-0.376,0.637-0.867c-0.046-0.647-0.054-1.295-0.083-2.054c1.083,0.024,2.09,0.047,3.184,0.072
		c0.043,0.878,0.085,1.7,0.124,2.518c1.021,0.229,2.009,0.447,2.998,0.677c0.526,0.124,0.812,0.34,0.583,0.986
		C460.883,749.303,460.775,750.056,460.638,750.645z"/>
</g>
<g>
	<path fill="#E3715D" d="M508.48,676.705c-0.374,0.098-0.731,0.222-1.078,0.36c-5.146-10.904-15.232-18.78-27.337-22.178
		c-0.044-0.016-0.087-0.03-0.136-0.045c-5.843-1.889-11.035-2.728-15.605-2.882l-4.141,9.87l9.267,12.319l-13.798,3.631
		l9.158,13.532L458.5,702.13l12.906,7.797l-10.22,16.595l9.664,10.997c1.203-0.23,2.408-0.489,3.612-0.806
		c3.21-0.845,6.26-1.968,9.138-3.319l1.149,4.366c0.407,1.552,1.996,2.479,3.55,2.071l10.064-2.649
		c1.552-0.408,2.478-1.997,2.069-3.548l-2.656-10.089c9.514-9.419,14.566-22.159,12.966-34.962c0.27-0.048,0.542-0.104,0.814-0.174
		c4.008-1.056,6.566-4.53,5.715-7.761C516.424,677.417,512.486,675.65,508.48,676.705z"/>
	<path fill="#E3715D" d="M435.275,720.49l19.424-10.848l-13.191-12.888l13.705-6.854l-7.639-16.899l14.185-0.414l-7.701-12.074
		l10.864-8.51c-11.803-4.993-20.953-3.158-25.018-1.808c-0.028-0.078-0.056-0.132-0.092-0.127c-2.545-2.482-6.093-5.273-9.382-9.048
		c-0.834-0.958-1.983-2.279-3.228-2.708c-1.364-0.47-2.186,0.499-2.578,1.704c-0.813,2.524-0.781,5.407-1.164,8.013
		c-0.423,2.914-0.837,5.83-1.256,8.747c-6.801,3.89-12.396,9.345-16.13,15.879l-8.23-0.901c-2.792-0.306-5.302,1.708-5.607,4.497
		l-1.819,16.602c-0.305,2.79,1.708,5.3,4.499,5.605l6.862,0.753c2.037,9.998,8.01,18.997,16.56,25.479l-1.18,10.782
		c-0.175,1.595,0.975,3.028,2.57,3.204l11.066,1.213c1.596,0.174,3.029-0.977,3.203-2.572l0.49-4.478
		c1.903,0.568,10.754,2.99,12.757,3.35L435.275,720.49z M423.813,678.918c-3.54-0.388-6.229-3.172-6.647-6.56
		c0.821,1.479,2.319,2.552,4.13,2.75c2.966,0.325,5.631-1.815,5.955-4.779c0.326-2.964-1.813-5.631-4.778-5.956
		c-0.132-0.015-0.264-0.017-0.395-0.024c1.05-0.377,2.195-0.538,3.377-0.408c4.138,0.454,7.123,4.173,6.67,8.309
		C431.668,676.387,427.95,679.372,423.813,678.918z"/>
</g>
<g>
	<g>
		<g>
			<polygon fill="#A09B91" points="1011.312,767.538 1022.959,755.893 1022.959,769.131 1022.959,958.288 1030.92,958.288 
				1011.312,977.893 991.709,958.288 999.667,958.288 999.667,769.131 999.667,755.893 			"/>
		</g>
	</g>
</g>
<g>
	<g>
		<g>
			<path fill="#A09B91" d="M689.2,767.139c0.515-1.245,1.146-2.478,1.775-3.648c0.607-1.169,1.303-2.294,2.032-3.354
				c0.69-1.067,1.514-2.04,2.304-2.939c0.412-0.438,0.857-0.82,1.283-1.194c0.207-0.208,0.456-0.298,0.682-0.431l0.346-0.174
				c0.119-0.022,0.252,0.129,0.369,0.196l-0.003-0.156l-0.005-0.077c-0.001-0.007,0.002,0.02,0.004,0.028l0.018,0.15l0.014,0.151
				l0.039,0.238c0.058,0.326,0.08,0.62,0.177,1.009l0.237,1.112l0.322,1.176c0.445,1.58,1.04,3.217,1.732,4.847
				c2.457,5.811,6.258,11.472,10.718,16.688c4.511,5.203,9.631,10.109,15.38,14.446l2.107,1.672l2.229,1.556l4.451,3.122
				l4.663,2.896c1.572,0.944,3.068,1.982,4.721,2.828l4.86,2.658l2.428,1.332c0.822,0.426,1.672,0.813,2.507,1.222l5.027,2.427
				l2.513,1.216l2.582,1.104l5.174,2.197c1.731,0.72,3.426,1.508,5.211,2.129l10.598,3.946l10.809,3.512l2.702,0.878
				c0.905,0.282,1.829,0.521,2.743,0.783l5.496,1.542c7.281,2.183,14.771,3.799,22.184,5.628c3.726,0.86,7.503,1.557,11.251,2.344
				c3.763,0.737,7.489,1.609,11.294,2.193c30.249,5.41,61.032,8.648,91.938,10.576l11.601,0.657l5.801,0.329
				c1.933,0.113,3.874,0.141,5.812,0.215l23.256,0.764l10.341,0.109l0.112-7.96c6.351,6.604,12.794,13.209,19.328,19.814
				c-6.534,6.465-13.161,12.93-19.88,19.393l0.112-7.958l-10.516-0.112l-23.701-0.777c-1.976-0.076-3.95-0.105-5.926-0.221
				l-5.927-0.335l-11.854-0.672c-31.604-1.973-63.225-5.283-94.651-10.904c-3.938-0.608-7.844-1.514-11.764-2.284
				c-3.915-0.821-7.842-1.549-11.746-2.45c-7.793-1.916-15.619-3.615-23.35-5.923l-5.812-1.633
				c-0.967-0.279-1.939-0.532-2.903-0.831l-2.884-0.935l-11.531-3.751l-11.42-4.25c-1.912-0.669-3.777-1.527-5.66-2.31l-5.637-2.396
				c-7.487-3.294-14.86-6.971-22.079-11.051c-1.832-0.948-3.572-2.13-5.354-3.203l-5.311-3.309l-5.169-3.616l-2.581-1.813
				l-2.5-1.972c-6.742-5.111-13.043-11.058-18.773-17.685c-0.713-0.834-1.437-1.653-2.137-2.502l-2.01-2.653
				c-0.662-0.892-1.347-1.759-1.985-2.675l-1.853-2.815c-2.474-3.749-4.628-7.809-6.48-12.1c-1.031-2.433-1.951-4.947-2.704-7.614
				l-0.543-2.019c-0.165-0.693-0.309-1.416-0.458-2.123c-0.156-0.686-0.268-1.489-0.385-2.252l-0.084-0.581l-0.072-0.672
				l-0.065-0.673l-0.033-0.462l-0.026-0.569c0.133,0.309,0.274,0.703,0.415,0.922l0.419,0.55c0.281,0.35,0.557,0.745,0.85,1.015
				c0.58,0.584,1.15,1.166,1.74,1.681c1.2,0.999,2.366,1.939,3.611,2.734c1.215,0.82,2.435,1.563,3.702,2.222
				C686.694,765.983,687.908,766.604,689.2,767.139z"/>
		</g>
	</g>
</g>
<g>
	<rect x="265.336" y="238.526" fill="#928D81" width="47.679" height="13.384"/>
	<rect x="282.484" y="221.378" fill="#928D81" width="13.384" height="47.679"/>
</g>
<path fill="#827C6F" d="M432.843,302.836c-0.005,5.733-0.005,11.466,0.011,17.201c0.016,6.478,5.138,11.627,11.603,11.634
	c23.157,0.021,46.313,0.016,69.472,0.001c5.892-0.003,10.44-3.845,11.574-9.676c0.044-0.233,0.161-0.451,0.244-0.675
	c0-23.644,0-47.286,0-70.925c-0.507-1.781-1.772-3.005-3.046-4.25c-6.83-6.688-13.659-13.383-20.452-20.111
	c-1.857-1.84-4.027-2.707-6.622-2.705c-16.982,0.015-33.969-0.001-50.954,0.012c-6.776,0.007-11.813,5.099-11.822,11.9
	c0,0.001,0,0.003,0,0.005l-0.006-0.005v0.213c-0.03,2.131-0.433,4.401,0,6.373L432.843,302.836L432.843,302.836z M444.355,309.024
	l0.008,0.004v-52.583c0,0.001,0.001,0.001,0.002,0.002c0-0.463,0-0.929,0-1.394c-0.001-6.05-0.006-12.103-0.002-18.154
	c0-1.817,0.227-2.045,1.994-2.045c14.402-0.001,28.804-0.001,43.208-0.001c0.397,0,0.795,0,1.378,0c0,0.509,0,0.934,0,1.359
	c0,4.558-0.011,9.117,0.001,13.676c0.013,4.943,3.252,8.188,8.188,8.201c4.519,0.013,9.037,0.003,13.556,0.003
	c0.438,0,0.877,0,1.492,0c0,0.512,0,0.938,0,1.365c0,19.567,0,39.134,0,58.7c0,1.773-0.24,2.007-2.036,2.007
	c-21.905,0-43.813-0.001-65.719-0.003c-1.867,0-2.057-0.197-2.058-2.094C444.363,315.051,444.356,312.038,444.355,309.024z"/>
<rect x="451.771" y="288.551" fill="#827C6F" width="56.64" height="6.062"/>
<rect x="451.771" y="304.617" fill="#827C6F" width="56.64" height="6.062"/>
<g>
	<rect x="381.598" y="305.753" fill="#FFFFFF" width="76.813" height="43.831"/>
	<g>
		<path fill="#E3715D" d="M463.944,304.506c0,15.447,0,30.895,0,46.341c-0.11,0.252-0.234,0.5-0.333,0.758
			c-0.8,2.131-2.803,3.532-5.089,3.532c-25.678,0.002-51.355,0.002-77.031,0c-2.326,0-4.324-1.424-5.115-3.615
			c-0.083-0.232-0.204-0.45-0.308-0.675c0-15.447,0-30.893,0-46.341c0.104-0.224,0.223-0.442,0.308-0.675
			c0.791-2.19,2.789-3.612,5.114-3.614c25.676-0.002,51.354-0.002,77.032,0c2.324,0.001,4.323,1.423,5.114,3.614
			C463.72,304.062,463.841,304.282,463.944,304.506z M381.598,349.584c25.655,0,51.231,0,76.813,0c0-7.317,0-14.57,0-21.862
			c-25.62,0-51.198,0-76.813,0C381.598,335.022,381.598,342.277,381.598,349.584z M381.598,316.628c25.655,0,51.231,0,76.812,0
			c0-3.653,0-7.246,0-10.875c-25.619,0-51.198,0-76.812,0C381.598,309.394,381.598,312.985,381.598,316.628z"/>
		<path fill="#E3715D" d="M403.469,344.115c-5.48,0-10.901,0-16.367,0c0-3.627,0-7.218,0-10.877c5.423,0,10.863,0,16.367,0
			C403.469,336.822,403.469,340.435,403.469,344.115z"/>
		<path fill="#E3715D" d="M425.533,344.112c0-1.818,0-3.579,0-5.395c1.8,0,3.581,0,5.409,0c0,1.792,0,3.573,0,5.395
			C429.147,344.112,427.387,344.112,425.533,344.112z"/>
		<path fill="#E3715D" d="M441.916,344.115c-1.82,0-3.581,0-5.386,0c0-1.796,0-3.558,0-5.386c1.763,0,3.543,0,5.386,0
			C441.916,340.485,441.916,342.265,441.916,344.115z"/>
		<path fill="#E3715D" d="M452.908,344.137c-1.824,0-3.565,0-5.373,0c0-1.794,0-3.576,0-5.418c1.759,0,3.538,0,5.373,0
			C452.908,340.504,452.908,342.283,452.908,344.137z"/>
		<path fill="#827C6F" d="M458.41,316.628c-25.58,0-51.156,0-76.812,0v13.006l0,0c0-0.639,0-1.274,0-1.913
			c25.615,0,51.192,0,76.812,0V314.57h-0.001C458.41,315.256,458.41,315.938,458.41,316.628z"/>
	</g>
</g>
<rect x="448.125" y="263.094" fill="none" width="62.141" height="16.86"/>
<text transform="matrix(1 0 0 1 449.9399 276.8125)" fill="#E3715D" font-family="'MyriadPro-Semibold'" font-size="19.3236">LOANS</text>
<path fill-rule="evenodd" clip-rule="evenodd" fill="#8ABBE6" d="M110.737,302.79c-0.035-17.156-0.031-34.313,0.006-51.47
	c0-1.333-0.396-2.329-1.264-3.308c-4.35-4.917-8.672-9.862-12.952-14.841c-0.443-0.516-0.744-1.312-0.777-1.993
	c-0.098-2.159-0.03-4.328-0.049-6.492c-0.003-0.463-0.103-0.928-0.152-1.329c-1.44-0.429-27.069-0.33-27.992,0.105
	c-0.031,0.424-0.098,0.899-0.098,1.376c-0.013,2.052-0.03,4.105,0.003,6.157c0.016,0.913-0.27,1.631-0.878,2.322
	c-4.246,4.814-8.432,9.682-12.696,14.473c-1.032,1.159-1.47,2.336-1.47,3.905c0.042,27.875,0.03,55.751,0.024,83.629
	c0,1.081-0.09,2.163-0.109,3.241c-0.098,5.036,1.871,9.13,7.302,9.838c0.701,0.091,1.415,0.088,2.125,0.088
	c13.208,0.006,26.42,0.006,39.632,0.002c0.559,0,1.125,0.024,1.677-0.039c0.73-0.084,1.452-0.198,2.163-0.427
	c0.043-0.016,0.086-0.028,0.132-0.047c0.609-0.209,1.208-0.506,1.794-0.958c-0.054-0.031-0.098-0.057-0.15-0.087
	c1.796-1.421,3.72-3.605,3.72-3.605v-37.23c0.008-0.121,0.014-0.243,0.014-0.375C110.741,304.75,110.739,303.77,110.737,302.79z"/>
<rect x="451.771" y="245.737" fill="#827C6F" width="33.149" height="6.062"/>
<path fill-rule="evenodd" clip-rule="evenodd" fill="#827C6F" d="M167.65,300.669c-1.689,2.22-3.402,4.204-4.814,6.378
	c-3.827,5.901-6.285,12.362-7.272,19.336c-0.125,0.883,0.14,1.935,0.535,2.757c0.586,1.221,1.734,1.276,2.615,0.219
	c0.499-0.593,0.859-1.306,1.239-1.987c1.996-3.587,3.906-7.223,5.987-10.758c1.971-3.359,4.312-6.455,7.254-9.051
	c1.912-1.687,4.069-2.964,6.696-2.43c1.604,0.328,3.226,0.979,4.626,1.835c3.514,2.15,6.002,5.342,8.125,8.805
	c2.858,4.663,4.857,9.644,5.599,15.109c0.723,5.352-1.268,9.485-5.434,12.692c-3.375,2.601-7.308,4.016-11.36,5.121
	c-6.147,1.677-12.438,2.545-18.776,2.895c-7.111,0.392-14.237,0.526-21.36,0.756c-7.924,0.255-15.819-0.061-23.612-1.637
	c-5.604-1.133-10.972-2.914-15.552-6.516c-5.121-4.027-7.666-9.434-8.238-15.813c-0.203-2.287,0.614-4.417,1.737-6.394
	c2.236-3.937,5.461-6.98,8.933-9.778c5.638-4.538,11.837-8.194,18.271-11.462c0.194-0.097,0.406-0.158,0.792-0.085
	c-0.222,0.301-0.429,0.607-0.663,0.899c-3.647,4.598-7.165,9.289-9.54,14.704c-0.607,1.388-1.042,2.879-1.336,4.368
	c-0.182,0.914-0.054,1.935,0.137,2.865c0.167,0.829,0.641,1.579,1.644,1.995c0.212-0.41,0.432-0.78,0.607-1.169
	c2.662-5.993,6.093-11.463,10.798-16.078c5.771-5.664,12.682-9.239,20.53-11.056c0.312-0.073,0.638-0.087,1.289-0.176
	c-0.374,0.556-0.562,0.881-0.797,1.17c-4.619,5.731-8.562,11.864-11.062,18.832c-0.959,2.676-1.725,5.41-1.803,8.28
	c-0.04,1.407,0.276,1.984,1.182,2.251c0.935,0.279,2.059-0.237,2.594-1.288c0.404-0.795,0.695-1.649,1.042-2.475
	c2.882-6.84,6.791-12.961,12.666-17.635c4.546-3.621,9.717-5.641,15.606-5.558C166.888,300.596,167.247,300.638,167.65,300.669z"/>
<text transform="matrix(1 0 0 1 57.7114 293.4287)" fill="#FFFFFF" font-family="'MyriadPro-Semibold'" font-size="22">MILK</text>
<g>
	<rect x="-908.183" y="218.234" fill="none" stroke="#928D81" stroke-miterlimit="10" width="573.934" height="289.823"/>
	<rect x="-908.183" y="91.633" fill="none" stroke="#928D81" stroke-miterlimit="10" width="573.934" height="126.602"/>
	<rect x="-908.183" y="1052.352" fill="none" stroke="#928D81" stroke-miterlimit="10" width="573.934" height="289.823"/>
	<rect x="-908.183" y="925.75" fill="none" stroke="#928D81" stroke-miterlimit="10" width="573.934" height="126.602"/>
	<rect x="-908.183" y="635.928" fill="none" stroke="#928D81" stroke-miterlimit="10" width="573.934" height="289.823"/>
	<rect x="-908.183" y="509.326" fill="none" stroke="#928D81" stroke-miterlimit="10" width="573.934" height="126.602"/>
</g>
<g>
	<rect x="949.417" y="974.218" fill="none" width="160" height="41.814"/>
	<text transform="matrix(1 0 0 1 980.2798 986.4409)"><tspan x="0" y="0" fill="#555555" font-family="'Helvetica'" font-size="17">Cash outflow </tspan><tspan x="10.381" y="20.4" fill="#555555" font-family="'Helvetica'" font-size="17">S$ 15,000</tspan></text>
	<rect x="949.417" y="541.946" fill="none" width="160" height="42.709"/>
	<text transform="matrix(1 0 0 1 984.0532 554.1685)"><tspan x="0" y="0" fill="#555555" font-family="'Helvetica'" font-size="17">Expenditure </tspan><tspan x="6.607" y="20.4" fill="#555555" font-family="'Helvetica'" font-size="17">S$ 12,000</tspan></text>
	<rect x="687.426" y="541.946" fill="none" width="160" height="42.709"/>
	<text transform="matrix(1 0 0 1 737.186 554.1685)"><tspan x="0" y="0" fill="#555555" font-family="'Helvetica'" font-size="17">Savings </tspan><tspan x="-3.789" y="20.4" fill="#555555" font-family="'Helvetica'" font-size="17">S$ 3,000</tspan></text>
	<rect x="913.143" y="112.772" fill="none" width="232.547" height="60"/>
	<text transform="matrix(1 0 0 1 968.9409 124.9951)"><tspan x="0" y="0" fill="#555555" font-family="'Helvetica'" font-size="17">Debt repayment </tspan><tspan x="26.446" y="20.4" fill="#555555" font-family="'Helvetica'" font-size="17">S$ 2,000</tspan></text>
	<rect x="687.426" y="111.772" fill="none" width="160" height="60"/>
	<text transform="matrix(1 0 0 1 730.0981 123.9951)"><tspan x="0" y="0" fill="#555555" font-family="'Helvetica'" font-size="17">Expenses </tspan><tspan x="-1.428" y="20.4" fill="#555555" font-family="'Helvetica'" font-size="17">S$ 10,000</tspan></text>
	<rect x="686.35" y="974.218" fill="none" width="160" height="41.814"/>
	<text transform="matrix(1 0 0 1 720.0513 986.4409)"><tspan x="0" y="0" fill="#555555" font-family="'Helvetica'" font-size="17">Cash intflow </tspan><tspan x="7.543" y="20.4" fill="#555555" font-family="'Helvetica'" font-size="17">S$ 30,000</tspan></text>
	<rect x="821.928" y="1403.672" fill="none" width="160" height="43.142"/>
	<text transform="matrix(1 0 0 1 853.2681 1415.895)"><tspan x="0" y="0" fill="#555555" font-family="'Helvetica'" font-size="17">Net cashflow </tspan><tspan x="9.904" y="20.4" fill="#555555" font-family="'Helvetica'" font-size="17">S$ 15,000</tspan></text>
</g>
<g>
	<g>
		<g>
			<polygon fill="#A09B91" points="1000.68,314.591 1012.328,302.946 1012.328,316.184 1012.328,427.705 1020.289,427.705 
				1000.68,447.31 981.078,427.705 989.036,427.705 989.036,316.184 989.036,302.946 			"/>
		</g>
	</g>
</g>
<path fill="none" stroke="#928D81" stroke-width="22" stroke-miterlimit="10" d="M1002.331,373.128H745.792c0,0-75-1.761-75-64.729"
	/>
<path fill="#A09B91" d="M461.665,502.992V398.431v-6.96v-13.238h-23.406v7.453l0.114,0.156v5.629v45.944H195.129l-0.294,0.004
	c-0.291,0.009-28.842,0.556-47.524-17.589c-10.691-10.384-16.135-25.275-16.182-44.26l-22,0.054
	c0.062,25.136,7.75,45.318,22.854,59.987c23.433,22.759,56.66,23.809,62.572,23.809c0.3,0,0.531-0.002,0.686-0.005h243.131v43.577
	h-7.958l19.603,19.605l19.608-19.605H461.665z"/>
<path fill="#A09B91" d="M461.665,919.604V815.043v-6.96v-13.238h-23.406v7.453l0.114,0.156v5.629v45.944H195.129l-0.294,0.004
	c-0.291,0.009-28.842,0.556-47.524-17.589c-10.691-10.384-16.135-25.275-16.182-44.26l-22,0.054
	c0.062,25.136,7.75,45.318,22.854,59.987c23.433,22.759,56.66,23.809,62.572,23.809c0.3,0,0.531-0.002,0.686-0.005h243.131v43.577
	h-7.958l19.603,19.605l19.608-19.605H461.665z"/>
<g>
	<rect x="1.708" y="1.838" fill="#8ABBE6" width="573.934" height="91.633"/>
	<path fill="#827C6F" d="M573.934,3.677v87.956H3.416V3.677H573.934 M577.35,0H0v95.31h577.35V0L577.35,0z"/>
</g>
<g>
	<path fill="#827C6F" d="M574.629,94.633v1099.011H3V94.633H574.629 M577.629,91.633H0v1105.011h577.629V91.633L577.629,91.633z"/>
</g>
</svg>
