<?xml version="1.0" encoding="utf-8"?>
<!-- Generator: Adobe Illustrator 16.0.0, SVG Export Plug-In . SVG Version: 6.00 Build 0)  -->
<!DOCTYPE svg PUBLIC "-//W3C//DTD SVG 1.1//EN" "http://www.w3.org/Graphics/SVG/1.1/DTD/svg11.dtd">
<svg version="1.1" id="Layer_1" xmlns="http://www.w3.org/2000/svg" xmlns:xlink="http://www.w3.org/1999/xlink" x="0px" y="0px"
	 width="800px" height="800px" viewBox="0 0 800 800" enable-background="new 0 0 800 800" xml:space="preserve">
<linearGradient id="SVGID_1_" gradientUnits="userSpaceOnUse" x1="-207.499" y1="474.5605" x2="-207.4991" y2="1020.0264" gradientTransform="matrix(1 0 0 -1 607.5 1089)">
	<stop  offset="0" style="stop-color:#525252"/>
	<stop  offset="0.2163" style="stop-color:#757575"/>
	<stop  offset="0.5781" style="stop-color:#A9A9A9"/>
	<stop  offset="0.8505" style="stop-color:#CACACA"/>
	<stop  offset="1" style="stop-color:#D6D6D6"/>
</linearGradient>
<path fill="url(#SVGID_1_)" d="M400.007,614.439c-64.993-36.521-146.096-92.4-190.65-162.379
	c-26.331-41.355-27.91-69.445-28.002-72.47l0.065-0.853l-0.062-0.046V121.75c9.068,0.78,18.204,1.173,27.36,1.173
	c87.466,0,158.812-35.182,190.646-53.95c29.925,19.118,96.203,53.012,189.979,53.017c0.005,0,0.015,0,0.021,0
	c9.679,0,19.46-0.368,29.283-1.1v258.794c-0.119,3.459-1.914,31.408-27.998,72.375C565.301,491.866,511.773,551.714,400.007,614.439
	z"/>
<linearGradient id="SVGID_2_" gradientUnits="userSpaceOnUse" x1="-207.499" y1="474.5605" x2="-207.4991" y2="1020.0264" gradientTransform="matrix(1 0 0 -1 607.5 1089)">
	<stop  offset="0" style="stop-color:#525252"/>
	<stop  offset="0.2163" style="stop-color:#757575"/>
	<stop  offset="0.5781" style="stop-color:#A9A9A9"/>
	<stop  offset="0.8505" style="stop-color:#CACACA"/>
	<stop  offset="1" style="stop-color:#D6D6D6"/>
</linearGradient>
<path fill="url(#SVGID_2_)" d="M400.007,614.439c-64.993-36.521-146.096-92.4-190.65-162.379
	c-26.331-41.355-27.91-69.445-28.002-72.47l0.065-0.853l-0.062-0.046V121.75c9.068,0.78,18.204,1.173,27.36,1.173
	c87.466,0,158.812-35.182,190.646-53.95c29.925,19.118,96.203,53.012,189.979,53.017c0.005,0,0.015,0,0.021,0
	c9.679,0,19.46-0.368,29.283-1.1v258.794c-0.119,3.459-1.914,31.408-27.998,72.375C565.301,491.866,511.773,551.714,400.007,614.439
	z"/>
<linearGradient id="SVGID_3_" gradientUnits="userSpaceOnUse" x1="-207.4985" y1="1054.9189" x2="-207.4986" y2="441.4561" gradientTransform="matrix(1 0 0 -1 607.5 1089)">
	<stop  offset="0" style="stop-color:#A38500"/>
	<stop  offset="0.3844" style="stop-color:#C2A31A"/>
	<stop  offset="1" style="stop-color:#FAD94B"/>
</linearGradient>
<path fill="url(#SVGID_3_)" d="M398.854,102.46c7.927,4.468,17.078,9.207,27.396,13.889c22.237,10.094,45.808,18.126,70.056,23.873
	c30.146,7.145,61.449,10.768,93.039,10.768c0.103,0,0.201,0,0.304,0v227.704v0.327c-0.202,2.669-2.665,26.767-26.979,62.831
	c-15.723,23.322-37.199,46.807-63.833,69.792c-27.624,23.847-60.778,47.111-98.829,69.378
	c-38.051-22.267-71.207-45.531-98.831-69.378c-26.634-22.985-48.11-46.47-63.834-69.792c-24.314-36.062-26.777-60.162-26.979-62.831
	v-0.327V151.92c28.891-0.135,58.438-3.832,87.854-10.993c23.625-5.751,47.244-13.749,70.2-23.768
	C379.896,112.147,390.104,107.114,398.854,102.46 M400.177,34.081c0,0-82.759,59.842-191.46,59.842
	c-18.147,0-37.03-1.669-56.359-5.564v290.335c0,0-5.295,132.231,247.644,268.85c0.003,0,0.003,0,0.003,0
	c252.937-136.619,247.64-268.85,247.64-268.85V88.359c-20.534,3.232-39.983,4.631-58.302,4.631
	C470.572,92.991,400.177,34.081,400.177,34.081L400.177,34.081z"/>
<linearGradient id="SVGID_4_" gradientUnits="userSpaceOnUse" x1="-207.4995" y1="630.7715" x2="-207.4995" y2="1070.2573" gradientTransform="matrix(1 0 0 -1 607.5 1089)">
	<stop  offset="0.395" style="stop-color:#FFFFFF"/>
	<stop  offset="0.4722" style="stop-color:#D0D0D0"/>
	<stop  offset="0.6463" style="stop-color:#5C5C5C"/>
	<stop  offset="0.7772" style="stop-color:#000000"/>
</linearGradient>
<path opacity="0.3" fill="url(#SVGID_4_)" enable-background="new    " d="M572.643,167.669
	c-76.896-2.972-136.253-25.955-173.964-45.926c-39.302,19.911-99.577,43.18-171.321,46.72v183.858
	c82.851-56.78,203.803-99.958,345.285-121.162V167.669z"/>
<path fill="#A0A0A0" d="M383.428,486.536v-32.498c-24.176-2.533-44.16-9.913-59.42-21.948
	c-19.466-15.345-29.336-36.713-29.336-63.51v-2h54.112l0.243,1.72c1.568,11.106,4.655,19.474,9.175,24.869
	c5.579,6.632,14.059,11.092,25.226,13.272v-64.564l-2.151-0.472c-27.007-5.967-45.88-12.585-56.102-19.673
	c-17.509-11.983-26.392-30.928-26.392-56.302c0-23.101,8.626-42.567,25.64-57.859c14.112-12.681,33.956-20.18,59.005-22.302v-23.87
	h31.646v24.087c20.559,2.297,38.783,9.25,54.199,20.68c19.444,14.428,29.782,35.612,30.727,62.964l0.071,2.069h-54.669l-0.115-1.877
	c-0.899-14.563-7.207-24.613-19.283-30.722c-3.271-1.638-6.938-2.965-10.93-3.952V294.9l25.176,5.937
	c19.619,4.616,34.578,10.911,44.461,18.711c15.49,12.226,23.344,30.106,23.344,53.144c0,23.58-9.235,43.431-27.458,59.007
	c-15.971,13.647-38.009,21.386-65.521,23.006v31.831H383.428z M415.074,407.424c6.544-0.637,12.21-1.771,16.866-3.383
	c14.277-4.982,21.225-13.949,21.225-27.409c0-7.667-3.306-13.445-10.106-17.663c-6.104-3.688-15.518-7.085-27.981-10.097
	L415.074,407.424L415.074,407.424z M383.428,233.272c-8.019,1.14-14.815,3.524-20.236,7.098
	c-7.786,5.135-11.571,12.099-11.571,21.291c0,8.309,3.681,14.348,11.252,18.461c3.702,2.088,10.604,4.486,20.559,7.149
	L383.428,233.272L383.428,233.272z"/>
<path fill="#FFFFFF" d="M483.472,321.117c-9.692-7.652-24.255-13.764-43.681-18.334l-26.717-6.3v-64.34
	c5.097,1.056,9.712,2.608,13.832,4.672c12.646,6.399,19.438,17.194,20.377,32.384h50.718c-0.924-26.841-10.901-47.317-29.919-61.426
	c-15.654-11.607-33.994-18.428-55.008-20.485V163.4h-27.646v23.718c-25.561,1.877-45.464,9.178-59.668,21.941
	c-16.647,14.966-24.977,33.755-24.977,56.372c0,24.789,8.508,43.008,25.531,54.659c10.051,6.969,28.514,13.425,55.388,19.363
	l3.726,0.817v68.562c-12.84-2.083-22.438-6.865-28.759-14.378c-4.78-5.711-7.989-14.334-9.622-25.873h-50.375
	c0,26.274,9.523,46.922,28.574,61.938c15.412,12.155,35.477,19.389,60.182,21.707v32.312h27.646V452.81
	c28.051-1.354,50.138-8.884,66.223-22.632c17.839-15.25,26.758-34.408,26.758-57.487
	C506.055,350.189,498.525,332.999,483.472,321.117z M361.914,281.879c-8.199-4.455-12.297-11.193-12.297-20.219
	c0-9.823,4.156-17.478,12.471-22.96c6.211-4.095,13.991-6.66,23.34-7.696v58.861C373.916,286.885,366.068,284.223,361.914,281.879z
	 M432.595,405.932c-5.392,1.864-11.917,3.079-19.521,3.676v-63.259c13.947,3.213,24.3,6.854,31.038,10.924
	c7.368,4.57,11.053,11.025,11.053,19.362C455.165,390.914,447.645,400.68,432.595,405.932z"/>
<rect x="-0.004" y="659.604" fill="none" width="800" height="124.396"/>
<g enable-background="new    ">
	<path fill="#3F3F3F" d="M272.383,742.104v-27.393c0-2.701-0.049-4.98-0.146-6.836s-0.391-3.369-0.879-4.541
		s-1.245-2.026-2.271-2.563s-2.466-0.806-4.321-0.806c-1.302,0-2.588,0.285-3.857,0.854c-1.27,0.57-2.653,1.376-4.15,2.417v38.867
		H239.57v-27.393c0-2.669-0.057-4.939-0.171-6.812c-0.114-1.871-0.415-3.394-0.903-4.565s-1.245-2.026-2.271-2.563
		s-2.45-0.806-4.272-0.806c-1.4,0-2.767,0.326-4.102,0.977c-1.335,0.651-2.637,1.416-3.906,2.295v38.867h-17.09V687.27h17.09v6.055
		c2.799-2.376,5.436-4.231,7.91-5.566c2.474-1.334,5.257-2.002,8.35-2.002c3.353,0,6.299,0.798,8.838,2.393
		c2.539,1.596,4.476,3.972,5.811,7.129c3.288-3.06,6.388-5.411,9.302-7.056c2.913-1.644,5.867-2.466,8.862-2.466
		c2.539,0,4.817,0.407,6.836,1.221c2.018,0.814,3.727,2.035,5.127,3.662c1.53,1.758,2.677,3.85,3.442,6.274
		c0.765,2.426,1.147,5.591,1.147,9.497v35.693H272.383z"/>
	<path fill="#3F3F3F" d="M353.389,687.27l-27.686,74.951h-18.359l8.301-21.436l-20.117-53.516h17.969l11.523,34.375l10.791-34.375
		H353.389z"/>
	<path fill="#3F3F3F" d="M416.719,692.348c0,3.386-0.537,6.608-1.611,9.668c-1.074,3.061-2.621,5.615-4.639,7.666
		c-1.237,1.27-2.596,2.441-4.077,3.516s-3.117,1.986-4.907,2.734c-1.791,0.749-3.735,1.335-5.835,1.758
		c-2.1,0.424-4.452,0.635-7.056,0.635h-9.57v23.779h-18.262v-72.705h28.223c4.199,0,7.82,0.383,10.864,1.147
		c3.044,0.766,5.802,1.978,8.276,3.638c2.734,1.823,4.85,4.257,6.348,7.3C415.97,684.527,416.719,688.148,416.719,692.348z
		 M397.969,692.787c0-2.051-0.488-3.816-1.465-5.298c-0.977-1.48-2.148-2.498-3.516-3.052c-1.726-0.748-3.377-1.18-4.956-1.294
		c-1.579-0.113-3.719-0.171-6.421-0.171h-2.588v21.777h1.27c1.725,0,3.353-0.016,4.883-0.049c1.53-0.032,2.864-0.146,4.004-0.342
		c0.977-0.162,2.01-0.479,3.101-0.952c1.09-0.472,1.929-1.001,2.515-1.587c1.237-1.204,2.075-2.457,2.515-3.76
		C397.749,696.759,397.969,695.001,397.969,692.787z"/>
	<path fill="#3F3F3F" d="M478.145,714.711c0,9.018-2.466,16.122-7.397,21.313c-4.932,5.192-11.906,7.788-20.923,7.788
		c-8.952,0-15.91-2.596-20.874-7.788c-4.964-5.191-7.446-12.296-7.446-21.313c0-9.114,2.482-16.251,7.446-21.411
		c4.964-5.159,11.922-7.739,20.874-7.739c8.984,0,15.95,2.597,20.898,7.788C475.67,698.541,478.145,705.662,478.145,714.711z
		 M460.615,714.809c0-3.255-0.269-5.965-0.806-8.13c-0.537-2.164-1.278-3.897-2.222-5.2c-1.01-1.367-2.148-2.319-3.418-2.856
		s-2.719-0.806-4.346-0.806c-1.53,0-2.914,0.236-4.15,0.708c-1.237,0.473-2.377,1.376-3.418,2.71
		c-0.977,1.27-1.758,3.012-2.344,5.225c-0.586,2.214-0.879,4.997-0.879,8.35c0,3.354,0.276,6.063,0.83,8.13
		c0.553,2.067,1.27,3.72,2.148,4.956c0.911,1.27,2.051,2.197,3.418,2.783s2.881,0.879,4.541,0.879c1.367,0,2.759-0.293,4.175-0.879
		s2.547-1.465,3.394-2.637c1.009-1.399,1.773-3.084,2.295-5.054C460.354,721.019,460.615,718.292,460.615,714.809z"/>
	<path fill="#3F3F3F" d="M504.316,742.104h-17.09v-75.977h17.09V742.104z"/>
	<path fill="#3F3F3F" d="M534.98,679.457h-18.066v-13.33h18.066V679.457z M534.492,742.104h-17.09V687.27h17.09V742.104z"/>
	<path fill="#3F3F3F" d="M574.482,743.568c-4.525,0-8.667-0.57-12.427-1.709s-7.023-2.896-9.79-5.273
		c-2.734-2.376-4.867-5.362-6.396-8.96c-1.53-3.597-2.295-7.837-2.295-12.72c0-5.24,0.83-9.7,2.49-13.379
		c1.66-3.678,3.906-6.705,6.738-9.082c2.734-2.278,5.949-3.963,9.644-5.054c3.694-1.09,7.544-1.636,11.548-1.636
		c3.027,0,6.055,0.351,9.082,1.05c3.027,0.7,6.07,1.815,9.131,3.345v14.648h-2.197c-0.684-0.65-1.521-1.367-2.515-2.148
		s-2.075-1.497-3.247-2.148c-1.237-0.684-2.637-1.261-4.199-1.733c-1.562-0.472-3.305-0.708-5.225-0.708
		c-4.362,0-7.739,1.522-10.132,4.565c-2.393,3.044-3.589,7.138-3.589,12.28c0,5.502,1.277,9.604,3.833,12.305
		c2.556,2.702,5.948,4.053,10.181,4.053c2.148,0,4.036-0.244,5.664-0.732c1.627-0.488,3.027-1.074,4.199-1.758
		c1.139-0.684,2.115-1.392,2.93-2.124c0.813-0.732,1.514-1.392,2.1-1.978h2.197v14.648c-0.977,0.424-2.107,0.912-3.394,1.465
		c-1.286,0.554-2.597,1.01-3.931,1.367c-1.66,0.455-3.215,0.806-4.663,1.05S576.858,743.568,574.482,743.568z"/>
	<path fill="#3F3F3F" d="M651.484,687.27l-27.686,74.951h-18.359l8.301-21.436l-20.117-53.516h17.969l11.523,34.375l10.791-34.375
		H651.484z"/>
</g>
<path fill="none" d="M589.342,139.991c-30.736,0-61.187-3.523-90.503-10.472c-23.56-5.583-46.452-13.385-68.045-23.186
	c-12.415-5.635-23.056-11.327-31.811-16.481c-37.076,20.399-106.716,51.072-190.269,51.072c-3.122,0-6.244-0.043-9.36-0.129V373.22
	c87.082-70.973,230.583-124.257,401.285-145.933v-87.453C596.863,139.938,593.095,139.991,589.342,139.991z"/>
<path fill="none" d="M199.357,378.694v0.657c0.145,2.602,2.192,28.23,27.371,66.418c16.064,24.362,38.123,48.837,65.565,72.733
	c29.804,25.956,65.954,51.201,107.708,75.233c41.75-24.031,77.905-49.279,107.706-75.233c27.441-23.897,49.501-48.371,65.562-72.734
	c25.182-38.188,27.229-63.816,27.371-66.417v-0.657V227.286c-170.705,21.676-314.203,74.96-401.285,145.933L199.357,378.694
	L199.357,378.694z"/>
<linearGradient id="SVGID_5_" gradientUnits="userSpaceOnUse" x1="-204.4019" y1="441.4551" x2="-204.402" y2="1054.918" gradientTransform="matrix(1 0 0 -1 607.5 1089)">
	<stop  offset="0" style="stop-color:#FEDF52"/>
	<stop  offset="0.3197" style="stop-color:#FEDB4D"/>
	<stop  offset="0.7166" style="stop-color:#FECE3D"/>
	<stop  offset="1" style="stop-color:#FEC22E"/>
</linearGradient>
<path fill="url(#SVGID_5_)" d="M647.643,222.186c-15.876,1.434-31.549,3.138-47,5.1v151.409v0.657
	c-0.145,2.602-2.189,28.23-27.368,66.419c-16.062,24.361-38.122,48.836-65.563,72.732c-29.801,25.954-65.956,51.202-107.706,75.233
	c-41.754-24.032-77.904-49.277-107.708-75.233c-27.442-23.896-49.501-48.371-65.565-72.732
	c-25.179-38.189-27.227-63.818-27.371-66.419v-0.657v-5.476c-15.432,12.577-29.096,25.708-40.822,39.319
	c15.02,47.958,66.363,140.429,241.466,235.007c0.003,0,0.003,0,0.003,0c252.937-136.619,247.641-268.85,247.641-268.85V222.186
	H647.643z"/>
<linearGradient id="SVGID_6_" gradientUnits="userSpaceOnUse" x1="-207.5015" y1="639.96" x2="-207.5016" y2="1029.3657" gradientTransform="matrix(1 0 0 -1 607.5 1089)">
	<stop  offset="0.1269" style="stop-color:#FEE882"/>
	<stop  offset="0.2953" style="stop-color:#FEE67D"/>
	<stop  offset="0.5048" style="stop-color:#FEDF6D"/>
	<stop  offset="0.736" style="stop-color:#FED354"/>
	<stop  offset="0.9813" style="stop-color:#FEC331"/>
	<stop  offset="1" style="stop-color:#FEC22E"/>
</linearGradient>
<path fill="url(#SVGID_6_)" d="M199.357,373.219V140.794c3.116,0.086,6.238,0.129,9.36,0.129c83.55,0,153.189-30.672,190.269-51.072
	c8.755,5.155,19.396,10.846,31.811,16.481c21.593,9.801,44.485,17.603,68.045,23.186c29.316,6.948,59.769,10.472,90.503,10.472
	c3.753,0,7.521-0.053,11.303-0.158v87.453c15.449-1.962,31.122-3.667,47-5.1V88.359c-20.535,3.232-39.985,4.631-58.303,4.631
	c-118.771,0-189.165-58.91-189.165-58.91s-82.759,59.842-191.46,59.842c-18.147,0-37.031-1.67-56.36-5.564v290.335
	c0,0-0.498,12.525,6.178,33.843C170.262,398.927,183.926,385.796,199.357,373.219z"/>
<path fill="none" d="M426.906,234.815c-4.12-2.064-8.735-3.616-13.832-4.672v24.094h31.608
	C441.525,245.688,435.6,239.213,426.906,234.815z"/>
<path fill="none" d="M444.112,355.271c-6.738-4.071-17.091-7.711-31.038-10.924v63.262c7.604-0.6,14.129-1.812,19.521-3.678
	c15.05-5.25,22.57-15.02,22.57-29.3C455.165,366.295,451.48,359.84,444.112,355.271z"/>
<g id="Layer_3" display="none">
	<path display="inline" fill="#E0BA19" d="M-2060,463.64"/>
</g>
<g id="Layer_4">
</g>
</svg>
