<?xml version="1.0" encoding="utf-8"?>
<!-- Generator: Adobe Illustrator 16.0.0, SVG Export Plug-In . SVG Version: 6.00 Build 0)  -->
<!DOCTYPE svg PUBLIC "-//W3C//DTD SVG 1.1//EN" "http://www.w3.org/Graphics/SVG/1.1/DTD/svg11.dtd">
<svg version="1.1" id="Layer_1" xmlns="http://www.w3.org/2000/svg" xmlns:xlink="http://www.w3.org/1999/xlink" x="0px" y="0px"
	 width="480px" height="480px" viewBox="0 0 480 480" enable-background="new 0 0 480 480" xml:space="preserve">
<path fill-rule="evenodd" clip-rule="evenodd" fill="#FFFFFF" stroke="#9E9E9E" stroke-width="13" stroke-linejoin="bevel" stroke-miterlimit="10" d="
	M465.229,240.167c0-124.384-100.843-225.22-225.231-225.22c-124.386,0-225.225,100.836-225.225,225.22
	c0,124.395,100.839,225.235,225.225,225.235C364.386,465.402,465.229,364.562,465.229,240.167z"/>
<g>
	<g>
		<path fill="none" stroke="#9E9E9E" stroke-width="16" stroke-miterlimit="10" d="M87.909,323.899c0,2.762,2.239,5,5,5h287.371
			c2.762,0,5-2.238,5-5V140.002c0-2.761-2.238-5-5-5H92.909c-2.761,0-5,2.239-5,5V323.899z"/>
	</g>
	<path fill="none" stroke="#9E9E9E" stroke-width="16" stroke-miterlimit="10" d="M275.76,231.257
		c34.712,30.2,75.484,67.001,110.144,97.092"/>
	<path fill="none" stroke="#9E9E9E" stroke-width="16" stroke-miterlimit="10" d="M87.909,328.899
		c33.94-29.729,74.806-66.609,108.873-95.824"/>
	<path fill="none" stroke="#9E9E9E" stroke-width="16" stroke-miterlimit="10" d="M87.909,135.002
		c0,0,110.751,117.009,149.157,117.009c26.776,0,143.542-108.879,148.213-117.009"/>
</g>
<circle fill-rule="evenodd" clip-rule="evenodd" fill="#FFFFFF" stroke="#FED82F" stroke-width="13" stroke-linejoin="bevel" stroke-miterlimit="10" cx="359.52" cy="307.272" r="50.74"/>
<polyline fill-rule="evenodd" clip-rule="evenodd" fill="#FFFFFF" stroke="#FED82F" stroke-width="13" stroke-linejoin="bevel" stroke-miterlimit="10" points="
	330.554,318.826 353.026,335.306 388.484,288.362 "/>
</svg>
