<?xml version="1.0" encoding="utf-8"?>
<!-- Generator: Adobe Illustrator 16.0.0, SVG Export Plug-In . SVG Version: 6.00 Build 0)  -->
<!DOCTYPE svg PUBLIC "-//W3C//DTD SVG 1.1//EN" "http://www.w3.org/Graphics/SVG/1.1/DTD/svg11.dtd">
<svg version="1.1" id="Layer_1" xmlns="http://www.w3.org/2000/svg" xmlns:xlink="http://www.w3.org/1999/xlink" x="0px" y="0px"
	 width="748px" height="380.844px" viewBox="0 0 748 380.844" enable-background="new 0 0 748 380.844" xml:space="preserve">
<g>
	<rect x="39.59" y="2" fill="#8ABBE6" width="672.064" height="99.675"/>
	<path fill="#827C6F" d="M709.654,4v95.675H41.59V4H709.654 M713.654,0H37.59v103.675h676.064V0L713.654,0z"/>
</g>
<path fill="#827C6F" d="M537.672,303.289c-0.005,5.975-0.005,11.949,0.012,17.926c0.018,6.751,5.355,12.117,12.094,12.125
	c24.134,0.021,48.265,0.016,72.4,0.001c6.143-0.003,10.88-4.008,12.062-10.084c0.046-0.243,0.167-0.47,0.254-0.704
	c0-24.642,0-49.279,0-73.914c-0.528-1.855-1.847-3.133-3.175-4.43c-7.118-6.971-14.235-13.948-21.314-20.959
	c-1.935-1.918-4.196-2.82-6.9-2.818c-17.697,0.016-35.401-0.002-53.103,0.012c-7.062,0.008-12.311,5.314-12.32,12.402
	c0,0,0,0.002,0,0.004l-0.007-0.004v0.223c-0.03,2.221-0.451,4.584,0,6.642L537.672,303.289L537.672,303.289z M549.67,309.736
	l0.009,0.005v-54.8c0,0,0.001,0,0.002,0.002c0-0.481,0-0.969,0-1.453c-0.001-6.307-0.006-12.613-0.002-18.92
	c0-1.895,0.237-2.131,2.078-2.131c15.009-0.002,30.019-0.002,45.029-0.002c0.413,0,0.829,0,1.437,0c0,0.53,0,0.974,0,1.416
	c0,4.75-0.013,9.502,0.001,14.254c0.014,5.15,3.39,8.531,8.533,8.547c4.711,0.013,9.419,0.003,14.128,0.003c0.457,0,0.915,0,1.555,0
	c0,0.532,0,0.978,0,1.422c0,20.394,0,40.784,0,61.176c0,1.847-0.248,2.091-2.121,2.091c-22.827,0-45.659,0-68.489-0.002
	c-1.946,0-2.146-0.205-2.146-2.183C549.679,316.02,549.671,312.879,549.67,309.736z"/>
<rect x="557.399" y="287.359" fill="#827C6F" width="59.026" height="6.317"/>
<rect x="557.399" y="305.188" fill="#827C6F" width="59.026" height="6.317"/>
<g>
	<rect x="484.267" y="306.329" fill="#FFFFFF" width="80.052" height="45.679"/>
	<g>
		<path fill="#E3715D" d="M570.085,305.029c0,16.099,0,32.197,0,48.295c-0.115,0.263-0.243,0.521-0.347,0.79
			c-0.835,2.221-2.922,3.681-5.305,3.681c-26.762,0.002-53.521,0.002-80.278,0c-2.424,0-4.507-1.484-5.33-3.768
			c-0.087-0.241-0.212-0.469-0.321-0.703c0-16.098,0-32.195,0-48.295c0.109-0.234,0.232-0.461,0.321-0.703
			c0.823-2.283,2.906-3.766,5.329-3.768c26.759-0.002,53.52-0.002,80.279,0c2.422,0.002,4.506,1.482,5.329,3.768
			C569.851,304.566,569.979,304.795,570.085,305.029z M484.267,352.008c26.735,0,53.392,0,80.052,0c0-7.626,0-15.185,0-22.783
			c-26.7,0-53.355,0-80.052,0C484.267,336.831,484.267,344.395,484.267,352.008z M484.267,317.662c26.735,0,53.392,0,80.051,0
			c0-3.807,0-7.553,0-11.333c-26.699,0-53.356,0-80.051,0C484.267,310.123,484.267,313.865,484.267,317.662z"/>
		<path fill="#E3715D" d="M507.06,346.309c-5.711,0-11.359,0-17.058,0c0-3.779,0-7.522,0-11.336c5.653,0,11.321,0,17.058,0
			C507.06,338.708,507.06,342.473,507.06,346.309z"/>
		<path fill="#E3715D" d="M530.055,346.305c0-1.895,0-3.729,0-5.621c1.875,0,3.731,0,5.638,0c0,1.866,0,3.724,0,5.621
			C533.821,346.305,531.986,346.305,530.055,346.305z"/>
		<path fill="#E3715D" d="M547.128,346.309c-1.896,0-3.731,0-5.612,0c0-1.873,0-3.709,0-5.613c1.837,0,3.691,0,5.612,0
			C547.128,342.523,547.128,344.38,547.128,346.309z"/>
		<path fill="#E3715D" d="M558.584,346.331c-1.901,0-3.715,0-5.6,0c0-1.869,0-3.728,0-5.646c1.834,0,3.687,0,5.6,0
			C558.584,342.545,558.584,344.398,558.584,346.331z"/>
		<path fill="#827C6F" d="M564.317,317.662c-26.658,0-53.312,0-80.051,0v13.555l0,0c0-0.667,0-1.328,0-1.994
			c26.695,0,53.351,0,80.051,0v-13.705h-0.001C564.317,316.232,564.317,316.941,564.317,317.662z"/>
	</g>
</g>
<rect x="553.599" y="261.871" fill="none" width="64.763" height="17.57"/>
<g enable-background="new    ">
	<path fill="#E3715D" d="M556.92,262.593h2.477v11.501h5.58v2.074h-8.057V262.593z"/>
	<path fill="#E3715D" d="M578.107,269.239c0,4.552-2.76,7.15-6.506,7.15c-3.827,0-6.244-2.921-6.244-6.909
		c0-4.169,2.618-7.109,6.445-7.109C575.771,262.371,578.107,265.372,578.107,269.239z M567.976,269.44
		c0,2.76,1.39,4.955,3.767,4.955c2.396,0,3.746-2.216,3.746-5.056c0-2.558-1.269-4.975-3.746-4.975
		C569.285,264.365,567.976,266.641,567.976,269.44z"/>
	<path fill="#E3715D" d="M582.656,272.321l-1.168,3.847h-2.559l4.352-13.575h3.162l4.41,13.575h-2.658l-1.229-3.847H582.656z
		 M586.544,270.447l-1.067-3.343c-0.262-0.826-0.483-1.753-0.686-2.538h-0.04c-0.201,0.785-0.402,1.732-0.645,2.538l-1.047,3.343
		H586.544z"/>
	<path fill="#E3715D" d="M592.746,276.168v-13.575h2.819l3.505,5.82c0.906,1.511,1.691,3.082,2.316,4.553h0.04
		c-0.161-1.813-0.222-3.565-0.222-5.64v-4.733h2.296v13.575h-2.558l-3.545-5.962c-0.866-1.49-1.772-3.162-2.438-4.693l-0.061,0.021
		c0.102,1.752,0.121,3.545,0.121,5.78v4.854H592.746z"/>
	<path fill="#E3715D" d="M606.299,273.469c0.805,0.464,2.014,0.866,3.283,0.866c1.591,0,2.477-0.745,2.477-1.853
		c0-1.027-0.685-1.632-2.417-2.256c-2.235-0.806-3.665-1.994-3.665-3.948c0-2.216,1.853-3.907,4.793-3.907
		c1.471,0,2.559,0.322,3.264,0.685l-0.604,1.994c-0.483-0.262-1.431-0.645-2.699-0.645c-1.571,0-2.256,0.846-2.256,1.632
		c0,1.047,0.786,1.53,2.599,2.235c2.356,0.886,3.504,2.074,3.504,4.028c0,2.176-1.651,4.068-5.156,4.068
		c-1.43,0-2.92-0.402-3.666-0.846L606.299,273.469z"/>
</g>
<rect x="557.399" y="243.781" fill="#827C6F" width="34.546" height="6.318"/>
<g>
	<path fill="#827C6F" d="M192.361,318.354c-0.586,0.158-1.293,0.518-2.002,0.521c-7.436,0.04-14.873,0.023-22.49,0.023
		c-0.076-0.859-0.2-1.588-0.202-2.317c-0.016-5.153-0.009-10.308-0.009-15.462c0-0.667,0.021-1.335-0.007-2.004
		c-0.101-2.539-0.572-3.025-3.011-3.141c-0.288-0.018-0.574-0.007-0.86-0.007c-5.345,0-10.69-0.017-16.037,0.007
		c-3.545,0.01-3.866,0.353-3.873,3.998c-0.009,5.25-0.001,10.5-0.001,15.75c0,0.94,0,1.885,0,3.183c-2.895,0-5.629,0-8.363,0
		c-2.769,0-5.541,0.099-8.304-0.029c-2.699-0.123-5.498,0.614-8.035-0.562c-0.551-2.39-0.749-43.826-0.256-49.014
		c12.149-10.76,24.429-21.634,36.868-32.652c12.321,10.912,24.647,21.83,36.821,32.612
		C193.106,273.913,192.922,315.977,192.361,318.354z"/>
	<path fill="#8ABBE6" d="M155.781,229.22c-15.963,14.13-31.755,28.106-47.606,42.138c-1.754-1.972-3.464-3.891-5.4-6.062
		c17.622-15.602,35.225-31.186,53.008-46.93c17.798,15.765,35.35,31.312,52.968,46.916c-1.845,2.094-3.532,4.016-5.354,6.088
		C187.484,257.282,171.663,243.275,155.781,229.22z"/>
	<path fill="#8ABBE6" d="M131.415,233.126c-4.239,3.834-8.251,7.459-12.529,11.325c0-6.541,0-12.743,0-19.121
		c4.207,0,8.424,0,12.928,0C131.678,227.986,131.549,230.52,131.415,233.126z"/>
</g>
<g>
	<g>
		<path fill="#8ABBE6" d="M171.56,357.251c-2.192-0.821-2.848-2.458-2.827-4.715c0.078-7.849,0.007-15.693,0.04-23.541
			c0.017-3.979-0.457-8.013,1.481-11.985c-1.488,0-2.725,0.025-3.96-0.007c-2.012-0.037-2.925-1.269-2.354-3.198
			c0.343-1.166,0.742-2.312,1.184-3.449c0.803-2.063,2.629-3.235,4.959-3.265c1.167-0.019,2.631,0.33,3.423-0.239
			c0.794-0.563,0.933-2.066,1.333-3.164c2.063-5.627,4.133-11.25,6.17-16.883c0.982-2.719,2.971-4.453,5.453-5.728
			c4.363-2.24,9.053-3.21,13.9-3.603c7.987-0.647,15.986-0.677,23.984-0.229c5.529,0.306,11.004,0.963,16.154,3.242
			c3.095,1.369,5.258,3.46,6.398,6.762c2.145,6.22,4.544,12.35,6.75,18.546c0.375,1.062,0.871,1.345,1.932,1.33
			c1.693-0.024,3.506-0.438,5.008,0.724c0.724,0.56,1.497,1.229,1.895,2.019c0.658,1.323,1.123,2.758,1.503,4.192
			c0.464,1.748-0.492,2.879-2.33,2.939c-0.625,0.025-1.256,0.008-1.881,0.013c-0.625,0-1.25,0-2.066,0
			c0.147,0.474,0.307,0.812,0.368,1.173c0.355,2.028,0.956,4.064,0.975,6.101c0.111,9.418,0.007,18.833,0.082,28.249
			c0.01,2.249-0.641,3.891-2.829,4.715c-4.785,0-9.577,0-14.356,0c-2.17-0.74-3.023-2.287-2.862-4.536
			c0.096-1.36-0.068-2.746,0.042-4.108c0.105-1.23-0.337-1.487-1.508-1.479c-14.658,0.035-29.312,0.022-43.968,0.022
			c-1.293,0-2.59,0.028-3.88-0.012c-0.753-0.027-1.05,0.215-1.026,1c0.05,1.526-0.068,3.057,0.034,4.579
			c0.146,2.255-0.691,3.794-2.864,4.536C181.133,357.251,176.345,357.251,171.56,357.251z M246.576,308.639
			c-0.167-0.695-0.233-1.074-0.353-1.436c-1.938-5.91-3.845-11.833-5.88-17.711c-0.283-0.832-1.109-1.575-1.858-2.112
			c-0.711-0.506-1.631-0.747-2.495-1.002c-4.514-1.317-9.173-1.767-13.824-1.841c-6.861-0.107-13.728-0.033-20.578,0.264
			c-3.3,0.143-6.59,0.875-9.843,1.525c-2.349,0.465-4.074,1.748-4.859,4.242c-1.125,3.584-2.542,7.072-3.712,10.639
			c-0.765,2.331-1.316,4.734-2.049,7.424C203.044,313.266,224.723,313.311,246.576,308.639z M184.412,332.632
			c0.005-0.11,0.013-0.211,0.018-0.323c2.112,0,4.231,0.074,6.339-0.021c2.372-0.099,3.622-1.539,3.158-3.517
			c-0.294-1.258-1.291-1.948-2.372-2.44c-3.066-1.379-6.137-2.746-9.253-4.009c-1.925-0.785-3.926-1.362-6.064-0.92
			c-1.404,0.289-2.187,0.957-2.368,2.379c-0.152,1.195-0.159,2.422-0.167,3.628c-0.023,2.766,0.766,3.897,3.498,4.403
			C179.573,332.252,182.007,332.368,184.412,332.632z M243.39,332.309c0,0.057,0,0.103,0,0.158c0.232,0,0.469,0.012,0.705-0.007
			c2.649-0.172,5.332,0.013,7.872-1.049c1.458-0.611,2.224-1.647,2.205-3.248c-0.012-0.902,0.005-1.804-0.005-2.704
			c-0.037-3.328-1.4-4.529-4.722-4.182c-0.16,0.019-0.312,0.037-0.464,0.08c-1.098,0.289-2.238,0.472-3.275,0.899
			c-3.182,1.312-6.362,2.638-9.454,4.146c-0.932,0.453-1.893,1.402-2.249,2.354c-0.706,1.881,0.692,3.42,3.048,3.53
			C239.159,332.382,241.273,332.309,243.39,332.309z"/>
		<g>
			<path fill="#827C6F" d="M189.017,347.316c-0.004-0.059-0.015-0.116-0.015-0.174h-20.237c-0.005,1.799-0.014,3.599-0.03,5.395
				c-0.022,2.256,0.634,3.893,2.826,4.715h14.357c2.169-0.74,3.01-2.279,2.864-4.536c-0.102-1.521,0.016-3.053-0.034-4.579
				C188.734,347.719,188.826,347.469,189.017,347.316z"/>
		</g>
		<path fill="#827C6F" d="M259.11,347.145h-20.371c-0.006,0.024-0.014,0.049-0.019,0.075c-0.003,0.032-0.004,0.062-0.008,0.095
			c0.346,0.197,0.475,0.576,0.416,1.293c-0.11,1.362,0.054,2.748-0.042,4.111c-0.161,2.248,0.691,3.795,2.863,4.534h14.356
			c2.189-0.821,2.839-2.464,2.828-4.713C259.12,350.741,259.115,348.941,259.11,347.145z"/>
	</g>
	<path fill="#FFFFFF" d="M240.43,289.492c-0.282-0.832-1.109-1.575-1.858-2.112c-0.712-0.506-1.631-0.747-2.495-1.002
		c-4.514-1.317-9.172-1.767-13.825-1.841c-6.861-0.107-13.728-0.033-20.578,0.264c-3.3,0.143-6.59,0.875-9.844,1.525
		c-2.35,0.465-4.074,1.748-4.859,4.242c-1.125,3.584-2.542,7.072-3.712,10.639c-0.765,2.331-1.315,4.734-2.049,7.424
		c21.919,4.635,43.596,4.678,65.451,0.008c-0.167-0.695-0.233-1.074-0.354-1.436C244.372,301.294,242.464,295.371,240.43,289.492z"
		/>
</g>
<rect x="347.337" y="240.249" fill="#928D81" width="47.679" height="13.384"/>
<path fill="#827C6F" d="M713.654,97.646H37.323v278.829h-0.012v4.37h0.012h676.294h0.025v-1.694h0.013L713.654,97.646
	L713.654,97.646z M41.323,98.568h668.331v277.907H41.323V98.568z"/>
</svg>
