<?xml version="1.0" encoding="utf-8"?>
<!-- Generator: Adobe Illustrator 16.0.0, SVG Export Plug-In . SVG Version: 6.00 Build 0)  -->
<!DOCTYPE svg PUBLIC "-//W3C//DTD SVG 1.1//EN" "http://www.w3.org/Graphics/SVG/1.1/DTD/svg11.dtd">
<svg version="1.1" id="Layer_1" xmlns="http://www.w3.org/2000/svg" xmlns:xlink="http://www.w3.org/1999/xlink" x="0px" y="0px"
	 width="500px" height="455px" viewBox="0 0 500 455" enable-background="new 0 0 500 455" xml:space="preserve">
<path fill="#827C6F" d="M379.519,88.9c-0.004,5.044-0.004,10.088,0.01,15.132c0.014,5.699,4.52,10.229,10.207,10.235
	c20.373,0.018,40.745,0.014,61.118,0.001c5.184-0.003,9.186-3.382,10.183-8.512c0.039-0.205,0.142-0.397,0.215-0.594
	c0-20.8,0-41.6,0-62.397c-0.446-1.567-1.56-2.644-2.68-3.739c-6.009-5.884-12.017-11.774-17.993-17.693
	c-1.634-1.619-3.543-2.382-5.825-2.38c-14.94,0.013-29.885-0.001-44.827,0.011c-5.962,0.006-10.394,4.485-10.401,10.469
	c0,0.001,0,0.003,0,0.005l-0.005-0.005v0.188c-0.026,1.875-0.381,3.872,0,5.606L379.519,88.9L379.519,88.9z M389.646,94.344
	l0.007,0.003v-46.26c0,0.001,0.001,0.001,0.002,0.002c0-0.408,0-0.817,0-1.226c-0.001-5.323-0.006-10.647-0.002-15.971
	c0-1.599,0.199-1.799,1.754-1.799c12.671-0.001,25.341-0.001,38.013-0.001c0.35,0,0.699,0,1.212,0c0,0.447,0,0.821,0,1.195
	c0,4.01-0.009,8.021,0.001,12.032c0.012,4.349,2.861,7.204,7.204,7.215c3.976,0.011,7.95,0.003,11.926,0.003
	c0.386,0,0.771,0,1.312,0c0,0.451,0,0.826,0,1.201c0,17.214,0,34.428,0,51.641c0,1.56-0.211,1.766-1.791,1.766
	c-19.271,0-38.545-0.001-57.816-0.003c-1.643,0-1.81-0.173-1.811-1.842C389.653,99.646,389.647,96.995,389.646,94.344z"/>
<path fill="#928D81" d="M365.891,145.156c-1.2,7.338-3.074,14.296-5.979,20.332c-1.711,3.555-3.756,6.789-6.195,9.636
	c-2.445,2.84-5.271,5.317-8.473,7.452c-6.401,4.257-14.262,7.175-22.771,8.945c-1.047,0.252-2.127,0.445-3.209,0.635
	c-1.083,0.187-2.146,0.417-3.253,0.555l-3.294,0.477l-4.022,0.646c-5.42,0.814-10.828,2.352-16.138,4.201l-3.93,1.612
	c-0.65,0.282-1.314,0.521-1.951,0.841l-1.908,0.963c-1.264,0.663-2.562,1.252-3.787,1.991l-3.662,2.241
	c-4.768,3.168-9.266,6.794-13.202,10.925c-3.923,4.136-7.375,8.642-10.341,13.375c-1.561,2.485-2.955,5.041-4.229,7.635
	c-1.275-2.596-2.67-5.15-4.231-7.637c-2.964-4.732-6.418-9.238-10.34-13.375c-3.938-4.131-8.436-7.756-13.203-10.925l-3.663-2.241
	c-1.225-0.739-2.523-1.328-3.786-1.991l-1.909-0.962c-0.636-0.32-1.301-0.56-1.951-0.841l-3.931-1.613
	c-5.308-1.849-10.716-3.387-16.137-4.201l-4.022-0.646l-3.295-0.477c-1.107-0.138-2.17-0.368-3.253-0.554
	c-1.082-0.19-2.161-0.384-3.209-0.635c-8.507-1.771-16.367-4.688-22.769-8.946c-3.2-2.134-6.026-4.611-8.472-7.451
	c-2.438-2.847-4.484-6.08-6.195-9.636c-2.905-6.035-4.779-12.993-5.979-20.33H109.65c1.384,10.04,3.75,20.405,8.548,30.438
	c2.477,5.154,5.625,10.173,9.483,14.673c3.856,4.498,8.377,8.441,13.221,11.668c4.846,3.237,9.988,5.775,15.174,7.775
	c5.191,2.014,10.436,3.481,15.644,4.579c1.306,0.307,2.605,0.543,3.905,0.773c1.298,0.226,2.604,0.496,3.895,0.663l3.884,0.56
	l3.137,0.516c4.152,0.604,8.071,1.772,11.896,3.069l2.776,1.149c0.458,0.199,0.94,0.355,1.381,0.585l1.323,0.68
	c0.873,0.469,1.796,0.857,2.635,1.375l2.523,1.546c3.267,2.195,6.357,4.648,9.097,7.525c2.725,2.892,5.188,6.082,7.36,9.541
	c2.181,3.453,3.993,7.228,5.575,11.136c3.143,7.834,5.152,16.393,6.146,25.067c0.232,1.979,0.394,3.961,0.509,5.928
	c0.033,0.562,0.048,1.109,0.069,1.662h-12.738l24.992,33.778L274,286.066h-12.738c0.021-0.553,0.036-1.103,0.068-1.662
	c0.115-1.967,0.277-3.949,0.51-5.928c0.994-8.677,3.003-17.233,6.146-25.067c1.58-3.908,3.395-7.681,5.574-11.136
	c2.172-3.459,4.635-6.649,7.359-9.539c2.738-2.879,5.829-5.331,9.096-7.525l2.522-1.546c0.84-0.519,1.762-0.907,2.635-1.375
	l1.324-0.68c0.438-0.229,0.922-0.387,1.381-0.585l2.775-1.149c3.823-1.297,7.744-2.467,11.896-3.07l3.136-0.515l3.885-0.561
	c1.292-0.166,2.598-0.438,3.896-0.663c1.3-0.229,2.6-0.466,3.904-0.772c5.209-1.099,10.454-2.566,15.645-4.579
	c5.187-2,10.328-4.538,15.176-7.776c4.844-3.226,9.362-7.17,13.221-11.668c3.857-4.5,7.007-9.519,9.483-14.673
	c4.799-10.034,7.164-20.399,8.55-30.44L365.891,145.156L365.891,145.156z"/>
<g>
	<path fill="#827C6F" d="M113.737,97.149c-0.463,0.126-1.021,0.408-1.581,0.412c-5.872,0.032-11.745,0.018-17.759,0.018
		c-0.06-0.678-0.158-1.253-0.159-1.829c-0.013-4.069-0.007-8.139-0.007-12.21c0-0.526,0.016-1.054-0.006-1.582
		c-0.08-2.005-0.452-2.389-2.378-2.48c-0.227-0.012-0.453-0.004-0.679-0.004c-4.221,0-8.442-0.013-12.663,0.004
		c-2.8,0.009-3.053,0.279-3.058,3.158c-0.008,4.146-0.001,8.29-0.001,12.437c0,0.744,0,1.489,0,2.513c-2.286,0-4.445,0-6.604,0
		c-2.186,0-4.375,0.078-6.557-0.023c-2.131-0.097-4.341,0.485-6.345-0.444c-0.435-1.885-0.591-34.606-0.202-38.701
		c9.593-8.496,19.29-17.083,29.112-25.784c9.729,8.616,19.462,17.237,29.075,25.752C114.325,62.057,114.18,95.273,113.737,97.149z"
		/>
	<path fill="#8ABBE6" d="M84.852,26.766C72.247,37.924,59.778,48.96,47.261,60.04c-1.385-1.557-2.735-3.072-4.264-4.788
		c13.915-12.319,27.815-24.625,41.857-37.058c14.054,12.449,27.914,24.725,41.826,37.046c-1.457,1.654-2.789,3.171-4.228,4.808
		C109.886,48.925,97.393,37.865,84.852,26.766z"/>
	<path fill="#8ABBE6" d="M65.612,29.851c-3.348,3.028-6.516,5.89-9.894,8.943c0-5.165,0-10.062,0-15.098c3.322,0,6.652,0,10.208,0
		C65.82,25.793,65.718,27.793,65.612,29.851z"/>
</g>
<rect x="396.171" y="76.333" fill="#827C6F" width="49.829" height="5.333"/>
<rect x="396.171" y="90.467" fill="#827C6F" width="49.829" height="5.333"/>
<g>
	<rect x="334.436" y="91.467" fill="#FFFFFF" width="67.577" height="38.56"/>
	<g>
		<path fill="#E3715D" d="M406.88,90.369c0,13.59,0,27.18,0,40.769c-0.098,0.222-0.206,0.44-0.293,0.667
			c-0.704,1.875-2.466,3.107-4.478,3.107c-22.59,0.002-45.18,0.002-67.769,0c-2.046,0-3.804-1.253-4.5-3.18
			c-0.073-0.204-0.18-0.396-0.271-0.594c0-13.589,0-27.178,0-40.769c0.091-0.197,0.196-0.389,0.271-0.594
			c0.696-1.927,2.454-3.178,4.499-3.18c22.589-0.001,45.179-0.001,67.77,0c2.045,0.001,3.804,1.252,4.5,3.18
			C406.683,89.979,406.789,90.172,406.88,90.369z M334.436,130.027c22.57,0,45.071,0,67.577,0c0-6.437,0-12.818,0-19.233
			c-22.539,0-45.042,0-67.577,0C334.436,117.216,334.436,123.598,334.436,130.027z M334.436,101.034c22.57,0,45.071,0,67.575,0
			c0-3.214,0-6.375,0-9.567c-22.538,0-45.042,0-67.575,0C334.436,94.669,334.436,97.829,334.436,101.034z"/>
		<path fill="#E3715D" d="M353.677,125.216c-4.821,0-9.591,0-14.399,0c0-3.191,0-6.351,0-9.57c4.771,0,9.558,0,14.399,0
			C353.677,118.8,353.677,121.978,353.677,125.216z"/>
		<path fill="#E3715D" d="M373.087,125.213c0-1.6,0-3.149,0-4.746c1.584,0,3.15,0,4.759,0c0,1.577,0,3.143,0,4.746
			C376.267,125.213,374.719,125.213,373.087,125.213z"/>
		<path fill="#E3715D" d="M387.5,125.216c-1.602,0-3.15,0-4.738,0c0-1.58,0-3.13,0-4.739c1.551,0,3.117,0,4.738,0
			C387.5,122.022,387.5,123.588,387.5,125.216z"/>
		<path fill="#E3715D" d="M397.171,125.235c-1.605,0-3.137,0-4.728,0c0-1.579,0-3.146,0-4.766c1.548,0,3.113,0,4.728,0
			C397.171,122.039,397.171,123.604,397.171,125.235z"/>
		<path fill="#827C6F" d="M402.011,101.034c-22.504,0-45.005,0-67.575,0v11.442l0,0c0-0.562,0-1.121,0-1.683
			c22.535,0,45.037,0,67.576,0v-11.57h-0.001C402.011,99.827,402.011,100.427,402.011,101.034z"/>
	</g>
</g>
<rect x="392.963" y="53.937" fill="none" width="54.668" height="14.833"/>
<g enable-background="new    ">
	<path fill="#E3715D" d="M395.767,54.549h2.091v9.706h4.709v1.751h-6.8V54.549z"/>
	<path fill="#E3715D" d="M413.65,60.158c0,3.842-2.33,6.034-5.491,6.034c-3.229,0-5.27-2.464-5.27-5.83c0-3.519,2.21-6,5.439-6
		C411.678,54.362,413.65,56.895,413.65,60.158z M405.1,60.328c0,2.329,1.173,4.182,3.179,4.182c2.022,0,3.161-1.869,3.161-4.267
		c0-2.158-1.07-4.198-3.161-4.198C406.205,56.045,405.1,57.966,405.1,60.328z"/>
	<path fill="#E3715D" d="M417.492,62.759l-0.986,3.247h-2.158l3.672-11.457h2.668l3.723,11.457h-2.243l-1.037-3.247H417.492z
		 M420.773,61.179l-0.901-2.822c-0.221-0.696-0.407-1.479-0.578-2.142h-0.034c-0.17,0.663-0.34,1.462-0.543,2.142l-0.885,2.822
		H420.773z"/>
	<path fill="#E3715D" d="M426.01,66.006V54.549h2.379l2.958,4.913c0.765,1.274,1.428,2.601,1.954,3.841h0.035
		c-0.137-1.529-0.188-3.008-0.188-4.759v-3.995h1.938v11.457h-2.158l-2.992-5.031c-0.73-1.258-1.496-2.669-2.057-3.961l-0.051,0.018
		c0.085,1.479,0.102,2.991,0.102,4.878v4.097H426.01z"/>
	<path fill="#E3715D" d="M437.45,63.729c0.681,0.391,1.7,0.73,2.771,0.73c1.344,0,2.092-0.629,2.092-1.563
		c0-0.867-0.578-1.377-2.041-1.904c-1.887-0.68-3.094-1.683-3.094-3.331c0-1.87,1.564-3.298,4.047-3.298
		c1.24,0,2.158,0.271,2.753,0.578l-0.51,1.683c-0.408-0.222-1.207-0.544-2.278-0.544c-1.325,0-1.903,0.714-1.903,1.377
		c0,0.884,0.663,1.292,2.192,1.887c1.989,0.748,2.958,1.751,2.958,3.399c0,1.836-1.394,3.434-4.352,3.434
		c-1.207,0-2.465-0.34-3.094-0.714L437.45,63.729z"/>
</g>
<rect x="396.171" y="38.667" fill="#827C6F" width="29.163" height="5.333"/>
<path fill="#8ABBE6" d="M159.06,127.887c0.002-0.301,0-0.603-0.009-0.903l0,0C159.06,127.285,159.062,127.586,159.06,127.887z"/>
<path fill="#8ABBE6" d="M198.825,129.79c0,0.27-0.006,0.54-0.025,0.809c-0.007,0.106-0.003,0.204-0.004,0.306
	c0.001-0.103-0.003-0.199,0.004-0.304C198.819,130.331,198.826,130.061,198.825,129.79z"/>
<path fill="#8ABBE6" d="M198.833,127.351c0,0.001,0,0.001,0,0.002c-0.022,0.27-0.03,0.541-0.031,0.812
	c0.001-0.271,0.009-0.541,0.031-0.81C198.833,127.354,198.833,127.352,198.833,127.351z"/>
<path fill="#8ABBE6" d="M198.835,126.949c0.001,0.015,0.004,0.027,0.005,0.042C198.839,126.976,198.836,126.964,198.835,126.949z"/>
<path fill="#8ABBE6" d="M198.677,126.478c0.001,0.001,0.002,0.003,0.003,0.004C198.679,126.481,198.678,126.479,198.677,126.478z"/>
<path fill="#8ABBE6" d="M198.792,126.703c-0.002-0.009-0.006-0.017-0.009-0.026C198.785,126.686,198.789,126.693,198.792,126.703z"
	/>
<path fill="#8ABBE6" d="M159.076,130.6c0.015,0.222,0.017,0.435,0.006,0.639c0.01-0.205,0.008-0.419-0.006-0.642
	c-0.02-0.3-0.029-0.601-0.032-0.902C159.047,129.997,159.056,130.299,159.076,130.6z"/>
<path fill="#8ABBE6" d="M156.815,134.179c-3.778,0.003-7.559,0.003-11.337,0.003h11.337c1.5-0.512,2.195-1.507,2.267-2.943
	C159.01,132.674,158.315,133.667,156.815,134.179z"/>
<path fill="#8ABBE6" d="M159.044,129.695c-0.006-0.602,0.012-1.205,0.016-1.808C159.056,128.49,159.038,129.093,159.044,129.695z"/>
<path fill="#8ABBE6" d="M159.05,126.982c0,0,0,0.001,0,0.002c-0.01-0.33,0.063-0.527,0.213-0.646c0-0.003,0-0.006-0.001-0.009
	C159.11,126.448,159.04,126.649,159.05,126.982z"/>
<path fill="#8ABBE6" d="M198.782,126.677c-0.025-0.075-0.06-0.14-0.102-0.194C198.723,126.537,198.756,126.602,198.782,126.677z"/>
<path fill="#8ABBE6" d="M198.835,126.949c-0.007-0.092-0.022-0.174-0.044-0.247C198.814,126.774,198.827,126.858,198.835,126.949z"
	/>
<path fill="#8ABBE6" d="M212.396,134.18c-3.779,0-7.562,0-11.336,0c-1.611-0.55-2.293-1.668-2.264-3.276
	c-0.03,1.608,0.651,2.727,2.264,3.277L212.396,134.18c1.296-0.486,1.91-1.337,2.131-2.482
	C214.305,132.842,213.692,133.692,212.396,134.18z"/>
<path fill="#8ABBE6" d="M198.802,128.165c-0.002,0.541,0.023,1.084,0.023,1.625C198.825,129.249,198.8,128.706,198.802,128.165z"/>
<path fill="#8ABBE6" d="M198.505,126.332c0,0.001,0,0.001,0,0.002c0.067,0.039,0.124,0.086,0.171,0.144
	C198.63,126.419,198.573,126.37,198.505,126.332z"/>
<path fill="#8ABBE6" d="M198.84,126.991c0.006,0.106,0.004,0.225-0.007,0.359C198.845,127.215,198.846,127.098,198.84,126.991z"/>
<g>
	<g>
		<path fill="#8ABBE6" d="M97.312,134.182c-1.731-0.649-2.249-1.941-2.233-3.723c0.062-6.197,0.006-12.393,0.032-18.589
			c0.013-3.141-0.361-6.326,1.17-9.464c-1.175,0-2.152,0.02-3.127-0.005c-1.589-0.029-2.31-1.002-1.859-2.526
			c0.271-0.92,0.586-1.826,0.935-2.722c0.634-1.631,2.076-2.557,3.916-2.579c0.922-0.015,2.077,0.261,2.703-0.189
			c0.627-0.445,0.737-1.632,1.053-2.498c1.629-4.443,3.263-8.883,4.872-13.332c0.776-2.146,2.346-3.516,4.306-4.522
			c3.445-1.769,7.149-2.535,10.976-2.845c6.307-0.511,12.623-0.533,18.939-0.179c4.366,0.241,8.689,0.76,12.756,2.56
			c2.444,1.082,4.152,2.732,5.052,5.339c1.694,4.911,3.588,9.75,5.33,14.645c0.296,0.838,0.688,1.061,1.525,1.05
			c1.337-0.021,2.769-0.348,3.955,0.571c0.571,0.441,1.181,0.969,1.496,1.593c0.52,1.045,0.886,2.178,1.187,3.311
			c0.366,1.38-0.389,2.274-1.84,2.322c-0.493,0.021-0.992,0.006-1.486,0.01c-0.493,0-0.987,0-1.631,0
			c0.116,0.373,0.242,0.64,0.29,0.926c0.281,1.602,0.755,3.21,0.77,4.816c0.088,7.437,0.006,14.871,0.065,22.307
			c0.008,1.775-0.506,3.072-2.234,3.723c-3.779,0-7.562,0-11.336,0c-1.714-0.585-2.387-1.806-2.26-3.582
			c0.076-1.075-0.054-2.168,0.033-3.245c0.083-0.972-0.266-1.175-1.191-1.169c-11.574,0.028-23.146,0.019-34.718,0.019
			c-1.021,0-2.045,0.022-3.064-0.01c-0.595-0.021-0.83,0.17-0.81,0.789c0.039,1.205-0.054,2.414,0.026,3.615
			c0.116,1.782-0.546,2.997-2.261,3.582C104.871,134.182,101.09,134.182,97.312,134.182z M156.547,95.795
			c-0.132-0.548-0.184-0.848-0.279-1.133c-1.53-4.667-3.036-9.344-4.643-13.985c-0.223-0.657-0.876-1.244-1.467-1.668
			c-0.562-0.4-1.288-0.59-1.97-0.791c-3.564-1.041-7.243-1.396-10.916-1.454c-5.418-0.085-10.84-0.026-16.249,0.208
			c-2.606,0.113-5.204,0.691-7.773,1.205c-1.855,0.367-3.217,1.38-3.837,3.35c-0.888,2.829-2.007,5.584-2.931,8.4
			c-0.604,1.84-1.039,3.738-1.618,5.862C122.173,99.449,139.291,99.484,156.547,95.795z M107.46,114.741
			c0.004-0.087,0.01-0.167,0.014-0.255c1.668,0,3.341,0.059,5.006-0.016c1.873-0.078,2.86-1.215,2.493-2.777
			c-0.232-0.993-1.019-1.539-1.873-1.927c-2.421-1.089-4.846-2.169-7.306-3.166c-1.52-0.62-3.1-1.075-4.789-0.726
			c-1.109,0.228-1.726,0.755-1.869,1.878c-0.121,0.943-0.126,1.912-0.132,2.865c-0.018,2.184,0.605,3.078,2.762,3.477
			C103.639,114.441,105.561,114.533,107.46,114.741z M154.031,114.486c0,0.043,0,0.081,0,0.126c0.184,0,0.371,0.008,0.557-0.006
			c2.092-0.136,4.21,0.01,6.216-0.828c1.151-0.483,1.756-1.302,1.741-2.565c-0.01-0.712,0.004-1.424-0.004-2.135
			c-0.029-2.628-1.105-3.576-3.728-3.301c-0.127,0.014-0.247,0.029-0.367,0.063c-0.867,0.228-1.767,0.372-2.586,0.711
			c-2.513,1.037-5.024,2.082-7.465,3.273c-0.736,0.357-1.495,1.108-1.776,1.857c-0.557,1.486,0.547,2.702,2.407,2.788
			C150.69,114.544,152.36,114.486,154.031,114.486z"/>
		<g>
			<path fill="#827C6F" d="M111.096,126.337c-0.003-0.046-0.012-0.092-0.012-0.138h-15.98c-0.004,1.42-0.011,2.841-0.024,4.26
				c-0.017,1.781,0.501,3.073,2.232,3.723h11.337c1.713-0.585,2.377-1.8,2.261-3.582c-0.08-1.201,0.013-2.41-0.026-3.616
				C110.873,126.654,110.946,126.457,111.096,126.337z"/>
		</g>
		<path fill="#827C6F" d="M166.445,126.2h-16.086c-0.005,0.02-0.011,0.039-0.015,0.06c-0.002,0.025-0.003,0.049-0.006,0.075
			c0.273,0.155,0.375,0.455,0.328,1.021c-0.087,1.076,0.043,2.17-0.033,3.245c-0.127,1.776,0.545,2.996,2.26,3.581h11.336
			c1.729-0.649,2.242-1.946,2.233-3.722C166.452,129.041,166.448,127.62,166.445,126.2z"/>
	</g>
	<path fill="#FFFFFF" d="M151.694,80.677c-0.223-0.657-0.876-1.244-1.467-1.668c-0.562-0.4-1.288-0.59-1.97-0.791
		c-3.564-1.041-7.243-1.396-10.916-1.454c-5.418-0.085-10.84-0.026-16.249,0.208c-2.606,0.113-5.204,0.691-7.773,1.205
		c-1.855,0.367-3.217,1.38-3.837,3.35c-0.888,2.829-2.007,5.584-2.931,8.4c-0.604,1.84-1.039,3.738-1.618,5.862
		c17.308,3.659,34.425,3.694,51.682,0.006c-0.132-0.548-0.184-0.848-0.279-1.133C154.806,89.996,153.3,85.319,151.694,80.677z"/>
</g>
<path fill="#B5B1A7" d="M265.4,368.832c22.684,15.466,36.455,47.58,17.244,71.049c-8.004,9.775-18.346,9.836-29.979,11.209
	c-0.308,0.036-0.621,0.06-0.947,0.06c-0.598,0-1.188-0.005-1.77-0.009c-0.584,0.004-1.174,0.009-1.773,0.009
	c-0.323,0-0.639-0.021-0.946-0.06c-7.338-0.203-15.384-1.119-22.021-4.438c-13.498-6.745-18.397-22.679-16.604-36.868
	c2.159-17.107,13.879-29.56,25.891-40.953c5.326-5.051,0.166-11.429,0.166-11.429l-9.441-16.895c0,0,8.447-6.459,15.9,2.981
	c1.48-4.108,3.68-5.861,8.83-5.861c6.11-0.052,7.348,1.752,8.827,5.861c7.453-9.44,15.899-2.981,15.899-2.981l-9.44,16.895
	C265.236,357.404,258.104,363.855,265.4,368.832z"/>
<path fill="#827C6F" d="M266.236,363.035c0,2.611-2.508,4.729-5.602,4.729h-21.276c-3.092,0-5.601-2.117-5.601-4.729l0,0
	c0-2.612,2.509-4.729,5.601-4.729h21.276C263.729,358.307,266.236,360.423,266.236,363.035L266.236,363.035z"/>
<rect x="224.863" y="386.555" fill="none" width="51.624" height="50.152"/>
<text transform="matrix(1 0 0 1 234.2695 428.9736)" fill="#FFFFFF" font-family="'Helvetica-Bold'" font-size="58.9971">$</text>
<rect x="225.707" y="17.004" fill="#928D81" width="47.679" height="13.384"/>
</svg>
