<?xml version="1.0" encoding="utf-8"?>
<!-- Generator: Adobe Illustrator 16.0.0, SVG Export Plug-In . SVG Version: 6.00 Build 0)  -->
<!DOCTYPE svg PUBLIC "-//W3C//DTD SVG 1.1//EN" "http://www.w3.org/Graphics/SVG/1.1/DTD/svg11.dtd">
<svg version="1.1" id="Layer_1" xmlns="http://www.w3.org/2000/svg" xmlns:xlink="http://www.w3.org/1999/xlink" x="0px" y="0px"
	 width="748px" height="434.5px" viewBox="0 -78.078 748 434.5" enable-background="new 0 -78.078 748 434.5" xml:space="preserve">
<g>
	<rect x="39.59" y="-76.078" fill="#8ABBE6" width="672.064" height="99.675"/>
	<path fill="#827C6F" d="M709.654-74.078v95.675H41.59v-95.675H709.654 M713.654-78.078H37.59V25.597h676.064V-78.078
		L713.654-78.078z"/>
</g>
<path fill="#827C6F" d="M534.047,257.018c-0.006,7.125-0.006,14.25,0.015,21.377c0.021,8.051,6.387,14.45,14.423,14.46
	c28.78,0.025,57.557,0.019,86.338,0.001c7.326-0.004,12.975-4.779,14.385-12.025c0.055-0.29,0.199-0.561,0.303-0.84
	c0-29.386,0-58.767,0-88.144c-0.63-2.212-2.202-3.736-3.786-5.283c-8.488-8.312-16.976-16.633-25.418-24.993
	c-2.307-2.288-5.004-3.364-8.228-3.361c-21.104,0.02-42.217-0.002-63.327,0.014c-8.421,0.01-14.681,6.337-14.692,14.79
	c0,0,0,0.003,0,0.005l-0.008-0.005v0.266c-0.036,2.649-0.538,5.467,0,7.922L534.047,257.018L534.047,257.018z M548.355,264.706
	l0.01,0.006v-65.35c0,0,0.002,0,0.003,0.003c0-0.574,0-1.155,0-1.733c-0.001-7.521-0.007-15.041-0.003-22.562
	c0-2.26,0.283-2.541,2.479-2.541c17.898-0.002,35.799-0.002,53.698-0.002c0.493,0,0.989,0,1.713,0c0,0.631,0,1.161,0,1.688
	c0,5.664-0.015,11.331,0.002,16.998c0.017,6.141,4.043,10.174,10.176,10.192c5.618,0.015,11.232,0.003,16.848,0.003
	c0.545,0,1.091,0,1.854,0c0,0.635,0,1.166,0,1.696c0,24.319,0,48.636,0,72.953c0,2.202-0.295,2.493-2.529,2.493
	c-27.222,0-54.449,0-81.674-0.002c-2.321,0-2.561-0.245-2.561-2.604C548.365,272.199,548.356,268.454,548.355,264.706z"/>
<rect x="557.573" y="238.021" fill="#827C6F" width="70.389" height="7.532"/>
<rect x="557.573" y="259.282" fill="#827C6F" width="70.389" height="7.533"/>
<g>
	<rect x="470.36" y="260.644" fill="#FFFFFF" width="95.465" height="54.473"/>
	<g>
		<path fill="#E3715D" d="M572.7,259.094c0,19.197,0,38.396,0,57.592c-0.137,0.313-0.29,0.621-0.413,0.942
			c-0.996,2.648-3.484,4.39-6.327,4.39c-31.914,0.002-63.824,0.002-95.732,0c-2.891,0-5.374-1.771-6.356-4.493
			c-0.104-0.288-0.252-0.559-0.383-0.839c0-19.196,0-38.394,0-57.592c0.131-0.28,0.277-0.55,0.383-0.839
			c0.982-2.723,3.466-4.49,6.355-4.493c31.91-0.002,63.823-0.002,95.733,0c2.89,0.003,5.374,1.767,6.355,4.493
			C572.421,258.541,572.573,258.813,572.7,259.094z M470.36,315.116c31.883,0,63.672,0,95.465,0c0-9.095,0-18.108,0-27.17
			c-31.841,0-63.628,0-95.465,0C470.36,297.018,470.36,306.037,470.36,315.116z M470.36,274.158c31.883,0,63.672,0,95.464,0
			c0-4.539,0-9.007,0-13.515c-31.84,0-63.629,0-95.464,0C470.36,265.168,470.36,269.63,470.36,274.158z"/>
		<path fill="#E3715D" d="M497.542,308.319c-6.811,0-13.546,0-20.342,0c0-4.506,0-8.97,0-13.518c6.741,0,13.501,0,20.342,0
			C497.542,299.256,497.542,303.745,497.542,308.319z"/>
		<path fill="#E3715D" d="M524.964,308.315c0-2.26,0-4.447,0-6.704c2.235,0,4.449,0,6.724,0c0,2.226,0,4.442,0,6.704
			C529.455,308.315,527.268,308.315,524.964,308.315z"/>
		<path fill="#E3715D" d="M545.324,308.319c-2.261,0-4.45,0-6.693,0c0-2.233,0-4.423,0-6.693c2.19,0,4.402,0,6.693,0
			C545.324,303.806,545.324,306.02,545.324,308.319z"/>
		<path fill="#E3715D" d="M558.985,308.347c-2.268,0-4.43,0-6.678,0c0-2.229,0-4.445,0-6.732c2.188,0,4.396,0,6.678,0
			C558.985,303.831,558.985,306.042,558.985,308.347z"/>
		<path fill="#827C6F" d="M565.822,274.158c-31.79,0-63.576,0-95.463,0v16.164l0,0c0-0.795,0-1.584,0-2.378
			c31.835,0,63.623,0,95.463,0v-16.344h-0.001C565.822,272.453,565.822,273.299,565.822,274.158z"/>
	</g>
</g>
<rect x="553.04" y="207.626" fill="none" width="77.232" height="20.953"/>
<g enable-background="new    ">
	<path fill="#E3715D" d="M557.001,208.487h2.953v13.715h6.654v2.474h-9.607V208.487z"/>
	<path fill="#E3715D" d="M582.268,216.413c0,5.428-3.292,8.525-7.76,8.525c-4.562,0-7.445-3.483-7.445-8.238
		c0-4.973,3.121-8.478,7.686-8.478C579.481,208.223,582.268,211.802,582.268,216.413z M570.186,216.651
		c0,3.293,1.658,5.909,4.492,5.909c2.857,0,4.468-2.643,4.468-6.028c0-3.051-1.515-5.933-4.468-5.933
		C571.747,210.601,570.186,213.314,570.186,216.651z"/>
	<path fill="#E3715D" d="M587.692,220.088l-1.394,4.588h-3.052l5.19-16.188h3.771l5.258,16.188h-3.168l-1.467-4.588H587.692z
		 M592.328,217.854l-1.272-3.987c-0.312-0.985-0.575-2.09-0.817-3.025h-0.048c-0.24,0.936-0.48,2.064-0.769,3.025l-1.25,3.987
		H592.328z"/>
	<path fill="#E3715D" d="M599.725,224.676v-16.188h3.36l4.181,6.94c1.08,1.802,2.017,3.676,2.762,5.43h0.048
		c-0.192-2.163-0.265-4.252-0.265-6.726v-5.645h2.738v16.188h-3.05l-4.229-7.11c-1.031-1.776-2.112-3.771-2.906-5.596l-0.072,0.024
		c0.121,2.09,0.144,4.228,0.144,6.894v5.788H599.725z"/>
	<path fill="#E3715D" d="M615.887,221.457c0.959,0.554,2.4,1.032,3.915,1.032c1.896,0,2.953-0.888,2.953-2.209
		c0-1.225-0.816-1.947-2.882-2.689c-2.665-0.962-4.371-2.379-4.371-4.71c0-2.642,2.21-4.658,5.717-4.658
		c1.754,0,3.051,0.384,3.893,0.817l-0.722,2.377c-0.575-0.312-1.706-0.77-3.218-0.77c-1.873,0-2.691,1.01-2.691,1.947
		c0,1.248,0.938,1.823,3.101,2.664c2.809,1.058,4.179,2.474,4.179,4.804c0,2.596-1.97,4.852-6.149,4.852
		c-1.705,0-3.481-0.479-4.372-1.01L615.887,221.457z"/>
</g>
<rect x="557.573" y="186.054" fill="#827C6F" width="41.196" height="7.535"/>
<g>
	<path fill="#827C6F" d="M193.731,274.045c-0.676,0.183-1.492,0.599-2.31,0.602c-8.578,0.047-17.158,0.027-25.944,0.027
		c-0.088-0.991-0.231-1.832-0.233-2.673c-0.019-5.945-0.01-11.892-0.01-17.837c0-0.77,0.024-1.54-0.009-2.312
		c-0.116-2.929-0.659-3.49-3.473-3.623c-0.332-0.021-0.662-0.009-0.992-0.009c-6.166,0-12.332-0.02-18.5,0.009
		c-4.09,0.012-4.46,0.407-4.468,4.612c-0.011,6.057-0.001,12.113-0.001,18.17c0,1.083,0,2.174,0,3.671c-3.34,0-6.494,0-9.648,0
		c-3.194,0-6.392,0.114-9.579-0.033c-3.114-0.143-6.343,0.708-9.27-0.648c-0.636-2.758-0.864-50.558-0.295-56.543
		c14.015-12.413,28.181-24.957,42.531-37.667c14.214,12.588,28.433,25.183,42.477,37.62
		C194.591,222.778,194.378,271.303,193.731,274.045z"/>
	<path fill="#8ABBE6" d="M151.533,171.22c-18.416,16.301-36.633,32.424-54.919,48.61c-2.023-2.274-3.996-4.488-6.229-6.992
		c20.329-17.999,40.636-35.978,61.151-54.139c20.532,18.187,40.779,36.121,61.104,54.123c-2.128,2.415-4.074,4.632-6.176,7.022
		C188.105,203.593,169.854,187.435,151.533,171.22z"/>
	<path fill="#8ABBE6" d="M123.424,175.727c-4.891,4.423-9.519,8.604-14.453,13.064c0-7.546,0-14.7,0-22.059
		c4.853,0,9.718,0,14.914,0C123.728,169.797,123.578,172.72,123.424,175.727z"/>
</g>
<g>
	<g>
		<path fill="#8ABBE6" d="M169.735,318.918c-2.528-0.947-3.286-2.836-3.261-5.439c0.09-9.054,0.008-18.104,0.046-27.157
			c0.02-4.591-0.527-9.243,1.708-13.826c-1.716,0-3.144,0.029-4.568-0.008c-2.321-0.043-3.375-1.464-2.716-3.689
			c0.396-1.346,0.856-2.667,1.366-3.979c0.926-2.379,3.033-3.73,5.721-3.766c1.347-0.021,3.035,0.381,3.949-0.276
			c0.916-0.648,1.077-2.383,1.538-3.649c2.38-6.492,4.768-12.979,7.118-19.477c1.133-3.137,3.427-5.137,6.291-6.607
			c5.034-2.584,10.444-3.703,16.035-4.156c9.214-0.746,18.442-0.781,27.668-0.265c6.378,0.353,12.694,1.111,18.635,3.739
			c3.57,1.579,6.065,3.992,7.38,7.802c2.475,7.175,5.242,14.247,7.787,21.395c0.433,1.226,1.005,1.553,2.229,1.534
			c1.953-0.027,4.044-0.505,5.777,0.836c0.835,0.646,1.727,1.417,2.186,2.329c0.759,1.526,1.296,3.181,1.734,4.836
			c0.536,2.017-0.567,3.321-2.688,3.39c-0.721,0.028-1.449,0.01-2.17,0.015c-0.721,0-1.442,0-2.383,0
			c0.169,0.548,0.354,0.938,0.424,1.354c0.41,2.339,1.103,4.688,1.125,7.038c0.128,10.864,0.008,21.726,0.095,32.588
			c0.012,2.595-0.739,4.488-3.263,5.439c-5.52,0-11.048,0-16.562,0c-2.503-0.854-3.487-2.639-3.302-5.233
			c0.111-1.569-0.078-3.168,0.048-4.739c0.122-1.419-0.389-1.715-1.739-1.706c-16.91,0.041-33.814,0.025-50.722,0.025
			c-1.491,0-2.987,0.032-4.476-0.014c-0.869-0.031-1.211,0.248-1.184,1.153c0.058,1.761-0.078,3.526,0.039,5.282
			c0.168,2.602-0.797,4.377-3.304,5.233C180.779,318.918,175.256,318.918,169.735,318.918z M256.274,262.838
			c-0.192-0.802-0.269-1.239-0.407-1.656c-2.235-6.817-4.436-13.65-6.784-20.431c-0.326-0.96-1.279-1.817-2.143-2.438
			c-0.82-0.583-1.881-0.861-2.878-1.155c-5.208-1.52-10.583-2.038-15.948-2.124c-7.915-0.124-15.837-0.038-23.739,0.305
			c-3.807,0.164-7.603,1.009-11.355,1.76c-2.71,0.536-4.7,2.017-5.605,4.894c-1.298,4.135-2.933,8.158-4.283,12.272
			c-0.882,2.689-1.518,5.462-2.364,8.564C206.056,268.176,231.065,268.228,256.274,262.838z M184.562,290.517
			c0.006-0.127,0.015-0.243,0.021-0.373c2.436,0,4.881,0.086,7.312-0.023c2.736-0.113,4.179-1.775,3.644-4.057
			c-0.34-1.451-1.49-2.247-2.737-2.815c-3.537-1.591-7.08-3.168-10.674-4.624c-2.221-0.906-4.53-1.572-6.996-1.062
			c-1.62,0.333-2.523,1.104-2.731,2.744c-0.175,1.379-0.184,2.794-0.193,4.186c-0.026,3.19,0.884,4.496,4.036,5.079
			C178.979,290.078,181.787,290.213,184.562,290.517z M252.599,290.144c0,0.066,0,0.12,0,0.183c0.268,0,0.541,0.014,0.813-0.008
			c3.056-0.198,6.15,0.015,9.081-1.21c1.682-0.705,2.566-1.9,2.544-3.747c-0.014-1.041,0.005-2.08-0.006-3.119
			c-0.042-3.839-1.615-5.225-5.447-4.824c-0.185,0.021-0.36,0.043-0.535,0.093c-1.267,0.333-2.582,0.544-3.778,1.036
			c-3.671,1.515-7.34,3.044-10.907,4.783c-1.075,0.523-2.184,1.617-2.594,2.716c-0.814,2.169,0.798,3.945,3.516,4.072
			C247.718,290.229,250.157,290.144,252.599,290.144z"/>
		<g>
			<path fill="#827C6F" d="M189.874,307.457c-0.004-0.068-0.018-0.134-0.018-0.2h-23.345c-0.006,2.075-0.017,4.151-0.035,6.223
				c-0.025,2.603,0.732,4.491,3.26,5.439h16.562c2.502-0.854,3.473-2.63,3.304-5.233c-0.118-1.754,0.018-3.521-0.04-5.282
				C189.547,307.921,189.654,307.633,189.874,307.457z"/>
		</g>
		<path fill="#827C6F" d="M270.733,307.259h-23.5c-0.007,0.028-0.016,0.057-0.021,0.087c-0.004,0.037-0.005,0.072-0.01,0.109
			c0.399,0.228,0.548,0.664,0.48,1.491c-0.126,1.571,0.062,3.17-0.048,4.743c-0.186,2.593,0.797,4.378,3.303,5.23h16.561
			c2.525-0.947,3.275-2.843,3.262-5.437C270.745,311.408,270.74,309.332,270.733,307.259z"/>
	</g>
	<path fill="#FFFFFF" d="M249.185,240.751c-0.326-0.96-1.28-1.817-2.144-2.438c-0.821-0.583-1.881-0.861-2.878-1.155
		c-5.208-1.52-10.581-2.038-15.949-2.124c-7.915-0.124-15.836-0.038-23.739,0.305c-3.807,0.164-7.603,1.009-11.356,1.76
		c-2.711,0.536-4.7,2.017-5.605,4.894c-1.298,4.135-2.932,8.158-4.283,12.272c-0.882,2.689-1.517,5.462-2.363,8.564
		c25.286,5.347,50.293,5.396,75.505,0.009c-0.193-0.802-0.269-1.239-0.408-1.656C253.732,254.365,251.531,247.532,249.185,240.751z"
		/>
</g>
<rect x="347.337" y="191.249" fill="#928D81" width="47.679" height="13.384"/>
<path fill="#827C6F" d="M713.654,24.551H37.323v326.75h-0.012v5.121h0.012h676.294h0.024v-1.985h0.014L713.654,24.551
	L713.654,24.551z M41.323,25.631h668.331v325.67H41.323V25.631z"/>
</svg>
