<?xml version="1.0" encoding="utf-8"?>
<!-- Generator: Adobe Illustrator 16.0.0, SVG Export Plug-In . SVG Version: 6.00 Build 0)  -->
<!DOCTYPE svg PUBLIC "-//W3C//DTD SVG 1.1//EN" "http://www.w3.org/Graphics/SVG/1.1/DTD/svg11.dtd">
<svg version="1.1" xmlns="http://www.w3.org/2000/svg" xmlns:xlink="http://www.w3.org/1999/xlink" x="0px" y="0px" width="200px"
	 height="200px" viewBox="0 0 200 200" enable-background="new 0 0 200 200" xml:space="preserve">
<g id="Layer_1">
	<g>
		<path fill-rule="evenodd" clip-rule="evenodd" fill="#9D9D9D" d="M109.715,20.297c2.603,0.414,5.194,0.927,7.811,1.226
			c21.725,2.483,41.553,10.094,59.482,22.476c6.775,4.679,13.002,10.153,19.25,15.084c-4.766,4.801-9.091,9.157-13.551,13.649
			c-22.559-21.662-49.894-33.479-81.811-33.477c-31.829,0.004-59.103,11.739-81.866,33.543c-4.303-4.384-8.591-8.752-13.49-13.743
			c6.475-5.071,13.102-10.82,20.281-15.768c16.788-11.572,35.52-18.425,55.624-21.583c3.531-0.555,7.088-0.943,10.633-1.408
			C97.957,20.297,103.836,20.297,109.715,20.297z"/>
		<path fill-rule="evenodd" clip-rule="evenodd" fill="#9D9D9D" d="M155.943,99.768c-15.244-14.614-33.573-22.476-54.931-22.499
			c-21.38-0.023-39.748,7.747-54.903,22.28c-4.412-4.458-8.732-8.824-13.065-13.204c33.96-35.503,96.754-39.198,136.005,0.098
			C164.745,90.819,160.441,95.194,155.943,99.768z"/>
		<path fill-rule="evenodd" clip-rule="evenodd" fill="#9D9D9D" d="M72.626,126.496c-4.272-4.302-8.542-8.603-12.829-12.92
			c18.859-21.177,58.731-24.514,82.314-0.129c-4.35,4.33-8.696,8.657-13.048,12.989C113.455,111.697,89.071,111.118,72.626,126.496z
			"/>
		<circle fill-rule="evenodd" clip-rule="evenodd" fill="#9D9D9D" cx="100.931" cy="154.5" r="15.137"/>
	</g>
	<g>
		<path fill-rule="evenodd" clip-rule="evenodd" fill="#9D9D9D" d="M159.249,154.561c-0.14,2.256-0.236,4.518-0.448,6.767
			c-0.069,0.736-0.313,1.527-0.706,2.148c-0.817,1.296-2.563,1.292-3.385-0.002c-0.385-0.604-0.651-1.368-0.704-2.078
			c-0.321-4.253-0.598-8.509-0.809-12.77c-0.044-0.901,0.134-1.857,0.422-2.718c0.308-0.927,1.068-1.441,2.122-1.378
			c0.419,0.023,0.84,0.028,1.258-0.002c1.117-0.083,1.847,0.483,2.234,1.442c0.247,0.611,0.43,1.309,0.409,1.96
			C159.566,150.143,159.39,152.352,159.249,154.561C159.25,154.561,159.25,154.561,159.249,154.561z"/>
		<path fill-rule="evenodd" clip-rule="evenodd" fill="#9D9D9D" d="M159.265,169.823c-0.01,1.529-1.253,2.784-2.755,2.781
			c-1.51-0.005-2.729-1.25-2.732-2.79c-0.005-1.575,1.25-2.85,2.776-2.817C158.064,167.029,159.274,168.29,159.265,169.823z"/>
		<g>
			<path fill="#9D9D9D" d="M183.882,181.384h-54.929c-0.922,0-1.774-0.489-2.24-1.284c-0.465-0.796-0.475-1.778-0.022-2.583
				l27.464-48.894c0.459-0.817,1.325-1.323,2.264-1.323c0.938,0,1.804,0.506,2.263,1.323l27.464,48.894
				c0.452,0.805,0.442,1.787-0.022,2.583C185.656,180.895,184.804,181.384,183.882,181.384z M133.389,176.193h46.058l-23.028-40.998
				L133.389,176.193z"/>
		</g>
	</g>
</g>
<g id="Layer_2" display="none">
	<g display="inline">
		<path fill-rule="evenodd" clip-rule="evenodd" d="M116.658,75.357c-0.771,12.439-1.297,24.903-2.467,37.307
			c-0.384,4.062-1.731,8.42-3.896,11.85c-4.501,7.142-14.13,7.116-18.656-0.014c-2.12-3.332-3.594-7.541-3.892-11.456
			c-1.766-23.45-3.29-46.917-4.45-70.407c-0.248-4.965,0.736-10.239,2.321-14.982c1.701-5.112,5.889-7.948,11.703-7.6
			c2.307,0.131,4.627,0.156,6.933-0.01c6.162-0.459,10.185,2.665,12.319,7.954c1.367,3.37,2.372,7.216,2.25,10.809
			c-0.413,12.192-1.389,24.369-2.154,36.551C116.669,75.357,116.669,75.357,116.658,75.357z"/>
		<path fill-rule="evenodd" clip-rule="evenodd" d="M116.75,159.506c-0.057,8.433-6.909,15.351-15.185,15.336
			c-8.327-0.025-15.054-6.89-15.079-15.381c-0.021-8.688,6.903-15.71,15.315-15.535C110.134,144.104,116.8,151.054,116.75,159.506z"
			/>
	</g>
</g>
</svg>
