<?xml version="1.0" encoding="utf-8"?>
<!-- Generator: Adobe Illustrator 16.0.0, SVG Export Plug-In . SVG Version: 6.00 Build 0)  -->
<!DOCTYPE svg PUBLIC "-//W3C//DTD SVG 1.1//EN" "http://www.w3.org/Graphics/SVG/1.1/DTD/svg11.dtd">
<svg version="1.1" id="Layer_1" xmlns="http://www.w3.org/2000/svg" xmlns:xlink="http://www.w3.org/1999/xlink" x="0px" y="0px"
	 width="500px" height="465px" viewBox="0 0 500 465" enable-background="new 0 0 500 465" xml:space="preserve">
<path fill="#E3715D" d="M420.751,389.925c-0.392,0-0.774,0.03-1.151,0.076c-2.35-12.652-10.91-23.44-22.805-29.82
	c-3.571,6.354-10.373,10.651-18.182,10.651c-9.546,0-17.587-6.419-20.058-15.174c-0.126,0.031-0.253-0.679-0.378-0.646
	c-2.848-2.226-6.739-4.653-10.479-8.102c-0.95-0.876-2.257-2.084-3.559-2.379c-1.432-0.323-2.156,0.747-2.416,2.007
	c-0.544,2.639-0.192,5.549-0.288,8.223c-0.107,2.99-0.203,5.982-0.302,8.975c-6.44,4.682-11.489,10.812-14.539,17.826h-8.413
	c-2.853,0-5.165,2.312-5.165,5.165v16.972c0,2.853,2.312,5.165,5.165,5.165h7.015c3.164,9.875,10.195,18.304,19.55,23.906v11.021
	c0,1.631,1.321,2.952,2.952,2.952h11.314c1.63,0,2.951-1.321,2.951-2.952v-4.578c3.177,0.581,6.468,0.889,9.839,0.889
	c3.373,0,6.661-0.316,9.838-0.898v4.588c0,1.631,1.322,2.952,2.952,2.952h10.577c1.63,0,2.951-1.321,2.951-2.952v-10.603
	c11.786-6.795,20.046-18.009,21.783-31.006c0.278,0.024,0.56,0.04,0.846,0.04c4.211,0,7.625-2.754,7.625-6.149
	S424.962,389.925,420.751,389.925z M345.208,385.927c-3.619,0-6.644-2.515-7.442-5.89c0.993,1.403,2.627,2.321,4.477,2.321
	c3.031,0,5.488-2.457,5.488-5.488c0-3.03-2.457-5.487-5.488-5.487c-0.136,0-0.268,0.011-0.4,0.02
	c1.017-0.499,2.157-0.787,3.366-0.787c4.229,0,7.656,3.427,7.656,7.656C352.864,382.5,349.437,385.927,345.208,385.927z"/>
<g>
	<path fill="#827C6F" d="M379.425,347.133v4.932c0.656-0.085,1.134-0.236,1.435-0.455c0.523-0.387,0.785-1.055,0.785-2.005
		c0-0.723-0.245-1.295-0.736-1.715C380.617,347.646,380.123,347.394,379.425,347.133z"/>
	<path fill="#827C6F" d="M378.813,329.171c-9.44,0-17.095,7.653-17.095,17.094c0,9.441,7.654,17.094,17.095,17.094
		c9.441,0,17.095-7.652,17.095-17.094C395.908,336.824,388.255,329.171,378.813,329.171z M382.805,353.842
		c-0.951,0.589-2.077,0.934-3.38,1.034v2.534h-1.224v-2.51c-1.656-0.185-2.892-0.546-3.707-1.084
		c-1.438-0.967-2.144-2.614-2.119-4.943h3.405c0.118,1.06,0.281,1.77,0.492,2.132c0.328,0.563,0.971,0.929,1.929,1.097v-5.385
		l-1.021-0.302c-1.607-0.472-2.74-1.128-3.399-1.968c-0.66-0.842-0.99-1.854-0.99-3.039c0-0.783,0.129-1.492,0.386-2.132
		c0.256-0.639,0.615-1.189,1.078-1.651c0.596-0.598,1.261-1.01,1.992-1.236c0.445-0.143,1.098-0.248,1.954-0.315v-1.677h1.224v1.701
		c1.364,0.11,2.436,0.446,3.214,1.01c1.414,0.899,2.146,2.358,2.195,4.376h-3.315c-0.066-0.748-0.191-1.295-0.374-1.64
		c-0.316-0.596-0.889-0.924-1.72-0.983v4.804c1.991,0.691,3.332,1.3,4.018,1.829c1.13,0.883,1.695,2.128,1.695,3.733
		C385.138,351.345,384.359,352.883,382.805,353.842z"/>
	<path fill="#827C6F" d="M376.045,341.004c0,0.706,0.265,1.266,0.795,1.678c0.294,0.227,0.748,0.437,1.361,0.63v-4.426
		c-0.731,0.017-1.273,0.212-1.627,0.587C376.222,339.846,376.045,340.357,376.045,341.004z"/>
</g>
<g>
	<path fill="#FED82F" d="M122.544,456.789l-2.414-1.304c-19.647-10.612-33.512-22.45-41.207-35.187
		c-5.771-9.551-5.957-16.346-5.935-17.621v-58.294l6.081,1.225c2.961,0.598,6.03,0.9,9.12,0.9c17.543,0,31.284-9.693,31.42-9.792
		l3.198-2.289l3.026,2.517c0.011,0.009,2.932,2.384,8.182,4.72c4.797,2.134,12.602,4.676,22.534,4.676c0,0,0.001,0,0.001,0
		c3.177,0,6.433-0.259,9.679-0.768l5.867-0.925v58.029c0.022,1.275-0.162,8.069-5.935,17.622
		c-7.695,12.736-21.559,24.574-41.206,35.187L122.544,456.789z M83.145,402.911c0.021,0.63,0.343,5.665,5.033,13.043
		c8.027,12.623,22.66,22.695,34.366,29.268c11.707-6.572,26.339-16.645,34.366-29.268c4.746-7.466,5.019-12.533,5.034-13.063
		l-0.011-0.148l0.011-0.01v-46.443c-1.809,0.138-3.609,0.208-5.391,0.208c-0.001,0-0.001,0-0.002,0
		c-16.884-0.001-28.792-6.128-34.117-9.545c-5.669,3.354-18.498,9.711-34.243,9.711c-1.688,0-3.374-0.073-5.045-0.222V402.911z"/>
</g>
<g>
	<path fill="#827C6F" d="M122.544,445.98l-1.987-1.073c-16.176-8.737-27.591-18.483-33.928-28.97
		c-4.751-7.864-4.904-13.459-4.886-14.509v-47.996l5.006,1.009c2.439,0.492,4.965,0.741,7.509,0.741
		c14.444,0,25.757-7.98,25.87-8.062l2.633-1.885l2.492,2.072c0.01,0.007,2.414,1.963,6.736,3.886
		c3.95,1.757,10.375,3.851,18.553,3.851c0.001,0,0.001,0,0.002,0c2.615,0,5.296-0.213,7.969-0.633l4.831-0.762v47.778
		c0.018,1.051-0.134,6.644-4.886,14.51c-6.336,10.486-17.751,20.232-33.927,28.97L122.544,445.98z"/>
</g>
<g>
	<path fill="#FFFFFF" d="M124.292,425.93h-3.495v-7.17c-4.732-0.528-8.263-1.562-10.593-3.099
		c-4.107-2.763-6.125-7.471-6.053-14.124h9.728c0.336,3.026,0.805,5.057,1.405,6.089c0.937,1.609,2.774,2.654,5.513,3.135v-15.386
		l-2.918-0.864c-4.588-1.345-7.825-3.219-9.71-5.621c-1.886-2.401-2.828-5.296-2.828-8.684c0-2.233,0.366-4.263,1.099-6.088
		c0.732-1.826,1.759-3.4,3.081-4.721c1.705-1.705,3.603-2.882,5.692-3.531c1.273-0.408,3.135-0.708,5.585-0.9v-4.792h3.495v4.863
		c3.897,0.312,6.957,1.274,9.181,2.883c4.041,2.57,6.132,6.738,6.276,12.503h-9.476c-0.19-2.139-0.546-3.699-1.068-4.685
		c-0.902-1.705-2.54-2.642-4.913-2.81v13.728c5.691,1.969,9.518,3.711,11.479,5.225c3.227,2.522,4.842,6.076,4.842,10.664
		c0,6.054-2.223,10.449-6.666,13.188c-2.714,1.682-5.933,2.666-9.656,2.955V425.93z M120.796,373.001
		c-2.09,0.048-3.639,0.606-4.648,1.675c-1.009,1.069-1.513,2.528-1.513,4.378c0,2.018,0.757,3.615,2.27,4.792
		c0.84,0.648,2.137,1.249,3.891,1.802V373.001z M124.292,410.652c1.875-0.239,3.241-0.672,4.097-1.297
		c1.497-1.105,2.245-3.015,2.245-5.729c0-2.065-0.701-3.698-2.102-4.9c-0.831-0.696-2.244-1.417-4.239-2.161V410.652z"/>
</g>
<g>
	<g>
		<g>
			<g>
				<path fill="#928D81" d="M753.26,159.71c2.118-1.74,4.222-3.571,6.252-5.524c1.027-0.974,2.022-1.982,3.018-3.032
					c0.492-0.53,0.991-1.055,1.472-1.624c0.241-0.286,0.486-0.552,0.724-0.862c0.236-0.33,0.479-0.556,0.705-1.04
					c0.029,0.924,0.027,1.456,0.027,2.135l-0.023,1.897c-0.033,1.24-0.08,2.472-0.15,3.689c-0.143,2.438-0.341,4.854-0.623,7.259
					c-1.213,10.526-3.618,20.975-7.668,31.102c-2.039,5.049-4.436,10.027-7.41,14.761c-2.963,4.734-6.418,9.239-10.339,13.375
					c-3.938,4.131-8.435,7.757-13.202,10.925l-3.663,2.241c-1.226,0.739-2.523,1.328-3.786,1.991l-1.909,0.963
					c-0.636,0.32-1.302,0.559-1.952,0.841l-3.93,1.612c-5.308,1.85-10.715,3.387-16.137,4.201l-4.021,0.646l-3.295,0.477
					c-1.107,0.138-2.17,0.368-3.254,0.555c-1.081,0.189-2.16,0.383-3.208,0.635c-8.508,1.771-16.368,4.688-22.771,8.945
					c-3.199,2.135-6.026,4.612-8.473,7.452c-2.438,2.847-4.484,6.081-6.195,9.636c-3.424,7.114-5.426,15.503-6.567,24.293
					l-0.38,3.325l-0.075,0.666l-0.022,0.249l-0.086,1.001l-0.173,2l7.937,0.629c-6.981,5.292-13.703,11.487-20.21,18.041
					c-6.557-6.515-12.937-13.397-18.879-21.135l7.934,0.628l0.198-2.29l0.1-1.145l0.025-0.286l0.087-0.776l0.444-3.88
					c1.364-10.348,3.729-21.065,8.686-31.429c2.477-5.154,5.625-10.173,9.484-14.673c3.855-4.498,8.376-8.442,13.221-11.668
					c4.846-3.238,9.988-5.776,15.174-7.776c5.191-2.013,10.436-3.48,15.645-4.579c1.306-0.307,2.605-0.543,3.904-0.772
					c1.299-0.226,2.604-0.497,3.895-0.663l3.885-0.561l3.137-0.515c4.152-0.604,8.07-1.773,11.896-3.07l2.776-1.149
					c0.458-0.198,0.94-0.355,1.381-0.585l1.323-0.68c0.872-0.468,1.796-0.856,2.635-1.375l2.522-1.545
					c3.267-2.195,6.357-4.648,9.096-7.526c2.725-2.89,5.188-6.081,7.36-9.54c2.181-3.455,3.993-7.227,5.575-11.135
					c3.143-7.834,5.152-16.392,6.145-25.068c0.233-1.978,0.395-3.961,0.51-5.928c0.058-0.985,0.094-1.958,0.121-2.924l0.018-1.412
					l-0.01-1.174c0.243,0.001,0.489,0.261,0.734,0.416c0.246,0.175,0.486,0.394,0.73,0.593c0.49,0.402,0.963,0.847,1.443,1.287
					c0.948,0.89,1.898,1.823,2.814,2.787C749.736,155.548,751.516,157.586,753.26,159.71z"/>
			</g>
		</g>
	</g>
	<g>
		<g>
			<g>
				<path fill="#928D81" d="M754.362,159.71c1.745-2.124,3.524-4.162,5.383-6.087c0.916-0.963,1.867-1.897,2.816-2.787
					c0.479-0.44,0.953-0.886,1.443-1.288c0.243-0.199,0.483-0.418,0.729-0.593c0.246-0.155,0.492-0.415,0.735-0.416l-0.01,1.174
					l0.018,1.412c0.027,0.966,0.063,1.939,0.121,2.924c0.115,1.967,0.276,3.951,0.509,5.928c0.993,8.676,3.003,17.234,6.146,25.068
					c1.582,3.909,3.395,7.681,5.575,11.136c2.173,3.459,4.636,6.65,7.36,9.54c2.739,2.878,5.83,5.332,9.097,7.527l2.523,1.545
					c0.839,0.519,1.762,0.907,2.635,1.375l1.323,0.68c0.44,0.229,0.923,0.386,1.381,0.585l2.776,1.149
					c3.825,1.297,7.744,2.466,11.896,3.069l3.137,0.516l3.884,0.56c1.291,0.167,2.597,0.438,3.895,0.663
					c1.3,0.23,2.6,0.467,3.905,0.773c5.208,1.098,10.452,2.565,15.644,4.579c5.186,2,10.328,4.538,15.174,7.775
					c4.844,3.227,9.364,7.17,13.221,11.668c3.858,4.5,7.007,9.519,9.483,14.673c4.955,10.362,7.32,21.08,8.685,31.427l0.444,3.881
					l0.087,0.775l0.025,0.286l0.1,1.145l0.198,2.29l7.937-0.628c-5.945,7.737-12.326,14.62-18.885,21.135
					c-6.506-6.554-13.225-12.749-20.204-18.041l7.934-0.628l-0.173-2.001l-0.086-1l-0.022-0.25l-0.076-0.665l-0.379-3.325
					c-1.142-8.79-3.144-17.179-6.567-24.292c-1.711-3.556-3.757-6.789-6.195-9.636c-2.445-2.84-5.271-5.317-8.472-7.451
					c-6.401-4.258-14.262-7.175-22.769-8.946c-1.048-0.251-2.127-0.444-3.209-0.635c-1.083-0.186-2.146-0.416-3.253-0.554
					l-3.295-0.477l-4.022-0.646c-5.421-0.814-10.829-2.353-16.137-4.201l-3.931-1.613c-0.65-0.281-1.315-0.521-1.951-0.841
					l-1.909-0.962c-1.263-0.663-2.562-1.252-3.786-1.991l-3.663-2.241c-4.768-3.169-9.266-6.794-13.203-10.925
					c-3.922-4.137-7.376-8.642-10.34-13.376c-2.975-4.734-5.37-9.713-7.411-14.762c-4.049-10.127-6.455-20.577-7.668-31.103
					c-0.281-2.405-0.48-4.821-0.622-7.259c-0.07-1.217-0.117-2.449-0.151-3.689l-0.023-1.897c0.001-0.679-0.001-1.211,0.028-2.136
					c0.226,0.484,0.468,0.71,0.704,1.04c0.238,0.311,0.482,0.577,0.725,0.863c0.48,0.568,0.979,1.093,1.471,1.624
					c0.994,1.05,1.99,2.058,3.018,3.033C750.143,156.139,752.245,157.971,754.362,159.71z"/>
			</g>
		</g>
	</g>
</g>
<path fill-rule="evenodd" clip-rule="evenodd" fill="#827C6F" d="M196.288,49.472c0.532-1.87,1.863-3.155,3.198-4.462
	c7.174-7.024,14.343-14.055,21.478-21.12c1.951-1.932,4.229-2.843,6.955-2.841c17.835,0.015,35.671-0.002,53.508,0.013
	c7.117,0.007,12.407,5.354,12.417,12.497c0.004,2.585,0.605,5.388-0.206,7.689c-0.795,2.248-3.041,3.983-4.655,5.94
	c-1.429,1.73-2.889,3.438-4.285,5.195c-0.6,0.755-1.053,1.626-1.616,2.412c-0.3,0.419-0.693,0.771-1.332,1.03
	c0-0.486,0-0.975,0-1.462c0.001-6.354,0.006-12.71,0.003-19.064c0-1.909-0.239-2.148-2.095-2.148
	c-15.124-0.002-30.248-0.002-45.374-0.002c-0.418,0-0.835,0-1.446,0c0,0.534,0,0.98,0,1.427c0,4.787,0.01,9.575-0.002,14.362
	c-0.014,5.191-3.416,8.599-8.6,8.613c-4.745,0.012-9.49,0.003-14.235,0.003c-0.459,0-0.919,0-1.566,0c0,0.539,0,0.986,0,1.434
	c0,20.547,0,41.095,0.001,61.642c0,1.861,0.251,2.108,2.137,2.108c23.005,0,46.01-0.002,69.015-0.005c1.96,0,2.16-0.206,2.161-2.199
	c0.004-5.847-0.004-11.693,0.021-17.539c0.001-0.471,0.069-1.079,0.358-1.389c3.816-4.08,7.678-8.117,11.622-12.263
	c0.037,0.372,0.091,0.676,0.091,0.978c0.005,10.762,0.022,21.522-0.003,32.284c-0.016,6.802-5.394,12.211-12.184,12.217
	c-24.318,0.021-48.637,0.017-72.955,0.002c-6.188-0.004-10.965-4.037-12.154-10.16c-0.047-0.245-0.17-0.474-0.257-0.709
	C196.288,99.126,196.288,74.299,196.288,49.472z"/>
<g>
	<path fill-rule="evenodd" clip-rule="evenodd" fill="#E3715D" d="M286.426,61.417c4.287,3.556,8.519,7.062,12.857,10.661
		c-1.912,2.239-3.75,4.441-5.642,6.595c-8.946,10.192-18.107,20.179-28.429,29.017c-2.37,2.03-4.981,3.785-7.535,5.589
		c-0.707,0.5-1.585,0.8-2.426,1.055c-1.306,0.395-2.129-0.261-1.924-1.618c0.187-1.242,0.429-2.553,1.006-3.644
		c2.689-5.077,5.271-10.234,8.319-15.093c7.025-11.203,15.012-21.729,23.315-32.013C286.103,61.803,286.236,61.643,286.426,61.417z"
		/>
	<path fill-rule="evenodd" clip-rule="evenodd" fill="#E3715D" d="M302.513,68.221c-4.38-3.63-8.607-7.136-12.92-10.71
		c2.262-2.72,4.422-5.423,6.693-8.029c3.335-3.826,6.664-7.664,10.171-11.33c1.527-1.597,3.401-2.913,5.274-4.111
		c1.974-1.263,4.057-0.963,5.939,0.403c1.768,1.283,3.492,2.69,3.694,5.05c0.098,1.136-0.131,2.355-0.473,3.456
		c-0.358,1.156-0.941,2.267-1.576,3.305C314.505,54.117,308.271,60.884,302.513,68.221z"/>
</g>
<path fill-rule="evenodd" clip-rule="evenodd" fill="#827C6F" d="M245.092,65.795c7.493,0,14.984,0,22.475,0.002
	c1.719,0,1.875,0.162,1.875,1.895c0,0.762-0.114,1.545,0.024,2.281c0.285,1.511-0.587,2.498-1.451,3.467
	c-0.246,0.276-0.816,0.367-1.237,0.369c-11.895,0.018-23.788,0.015-35.682,0.014c-2.92,0-5.841-0.029-8.762,0.013
	c-1.134,0.017-1.631-0.413-1.6-1.564c0.044-1.607,0.003-3.217,0.013-4.825c0.008-1.427,0.24-1.647,1.741-1.648
	C230.024,65.794,237.558,65.795,245.092,65.795z"/>
<path fill-rule="evenodd" clip-rule="evenodd" fill="#827C6F" d="M261.753,82.063c-1.755,2.677-3.378,5.186-5.055,7.66
	c-0.16,0.237-0.649,0.354-0.985,0.354c-11.176,0.017-22.353,0.008-33.528,0.02c-1.018,0-1.468-0.421-1.448-1.449
	c0.033-1.65,0.051-3.303-0.005-4.952c-0.042-1.206,0.445-1.65,1.647-1.647c9.186,0.026,18.373,0.014,27.558,0.014
	C253.789,82.062,257.64,82.063,261.753,82.063z"/>
<path fill-rule="evenodd" clip-rule="evenodd" fill="#827C6F" d="M238.076,106.078c1.311-1.018,2.533-1.983,3.773-2.926
	c1.587-1.206,2.873-1.279,4.565-0.255c0.972,0.588,1.923,1.211,2.811,1.771c-0.774,2.383-1.514,4.659-2.256,6.942
	c-0.032-0.008-0.14-0.001-0.191-0.051c-1.669-1.612-3.123-1.156-4.569,0.375c-0.632,0.669-1.439,1.175-2.187,1.729
	c-1.772,1.316-3.594,1.181-5.112-0.419c-1.624-1.711-3.209-3.461-4.941-5.334c-0.875,1.67-1.64,3.205-2.474,4.703
	c-0.752,1.35-2.226,2.068-3.611,1.853c-1.542-0.24-2.756-1.274-2.996-2.864c-0.118-0.777,0.023-1.713,0.367-2.422
	c1.476-3.039,3.04-6.038,4.633-9.018c1.315-2.46,4.091-2.794,6.02-0.749C233.961,101.589,235.978,103.806,238.076,106.078z"/>
<path fill-rule="evenodd" clip-rule="evenodd" fill="#827C6F" d="M257.206,49.417c-3.473,0-6.944-0.03-10.416,0.018
	c-1.206,0.017-1.693-0.44-1.654-1.644c0.053-1.649,0.034-3.302,0.006-4.953c-0.017-1.018,0.427-1.456,1.448-1.453
	c7.155,0.014,14.311,0.013,21.466,0c0.96-0.001,1.399,0.412,1.391,1.373c-0.017,1.693-0.038,3.388,0.008,5.08
	c0.03,1.138-0.434,1.602-1.579,1.591C264.319,49.395,260.763,49.417,257.206,49.417z"/>
<path fill="#928D81" d="M390.431,302.664l-0.198-2.29l-0.1-1.145l-0.025-0.286l-0.087-0.775l-0.444-3.881
	c-1.364-10.347-3.729-21.064-8.685-31.427c-2.477-5.154-5.625-10.173-9.483-14.673c-3.856-4.498-8.377-8.441-13.221-11.668
	c-4.846-3.237-9.988-5.775-15.174-7.775c-5.191-2.014-10.436-3.481-15.644-4.579c-1.306-0.307-2.605-0.543-3.905-0.773
	c-1.298-0.226-2.604-0.496-3.895-0.663l-3.884-0.56l-3.137-0.516c-4.152-0.604-8.071-1.772-11.896-3.069l-2.776-1.149
	c-0.458-0.199-0.94-0.355-1.381-0.585l-1.323-0.68c-0.873-0.469-1.796-0.857-2.635-1.375l-2.523-1.545
	c-3.267-2.195-6.357-4.648-9.097-7.527c-2.725-2.89-5.188-6.081-7.36-9.54c-2.181-3.455-3.993-7.227-5.575-11.136
	c-3.143-7.834-5.152-16.392-6.146-25.068c-0.232-1.978-0.394-3.961-0.509-5.928c-0.058-0.985-0.094-1.958-0.121-2.924l-0.018-1.412
	l0.01-1.174c-0.006,0-0.013,0.004-0.02,0.004c-0.004-0.271-0.009-0.561-0.021-0.917l-23.233,0c-0.011,0.357-0.017,0.646-0.021,0.917
	c-0.006,0-0.013-0.004-0.019-0.004l0.01,1.174l-0.018,1.412c-0.027,0.966-0.063,1.939-0.121,2.924
	c-0.115,1.966-0.277,3.95-0.51,5.928c-0.993,8.676-3.002,17.234-6.146,25.068c-1.582,3.908-3.395,7.681-5.575,11.135
	c-2.173,3.459-4.636,6.65-7.36,9.54c-2.738,2.878-5.829,5.331-9.096,7.526l-2.522,1.545c-0.839,0.519-1.762,0.907-2.635,1.375
	l-1.324,0.68c-0.44,0.229-0.922,0.387-1.381,0.585l-2.776,1.149c-3.825,1.297-7.744,2.467-11.896,3.07l-3.136,0.515l-3.884,0.561
	c-1.292,0.166-2.597,0.438-3.895,0.663c-1.299,0.229-2.599,0.466-3.904,0.772c-5.209,1.099-10.454,2.566-15.645,4.579
	c-5.186,2-10.328,4.538-15.174,7.776c-4.844,3.226-9.364,7.17-13.221,11.668c-3.859,4.5-7.007,9.519-9.484,14.673
	c-4.956,10.363-7.321,21.081-8.685,31.429l-0.444,3.88l-0.087,0.776l-0.025,0.286l-0.1,1.145l-0.198,2.29l-7.934-0.628
	c5.943,7.737,12.322,14.62,18.879,21.135c6.507-6.554,13.229-12.749,20.21-18.041l-7.937-0.629l0.173-2l0.086-1.001l0.022-0.249
	l0.076-0.666l0.379-3.325c1.142-8.79,3.144-17.179,6.568-24.293c1.711-3.555,3.757-6.789,6.195-9.636
	c2.446-2.84,5.272-5.317,8.473-7.452c6.402-4.257,14.262-7.175,22.77-8.945c1.047-0.252,2.127-0.445,3.208-0.635
	c1.083-0.187,2.146-0.417,3.253-0.555l3.294-0.477l4.022-0.646c5.421-0.814,10.829-2.352,16.137-4.201l3.93-1.612
	c0.65-0.282,1.315-0.521,1.952-0.841l1.909-0.963c1.263-0.663,2.561-1.252,3.786-1.991l3.663-2.241
	c4.768-3.168,9.265-6.794,13.203-10.925c3.921-4.136,7.375-8.641,10.339-13.375c1.561-2.485,2.956-5.04,4.23-7.634
	c1.275,2.595,2.67,5.15,4.231,7.636c2.964,4.734,6.418,9.239,10.34,13.376c3.938,4.131,8.436,7.756,13.203,10.925l3.663,2.241
	c1.225,0.739,2.523,1.328,3.786,1.991l1.909,0.962c0.636,0.32,1.301,0.56,1.951,0.841l3.931,1.613
	c5.308,1.849,10.716,3.387,16.137,4.201l4.022,0.646l3.295,0.477c1.107,0.138,2.17,0.368,3.253,0.554
	c1.082,0.19,2.161,0.384,3.209,0.635c8.507,1.771,16.367,4.688,22.769,8.946c3.2,2.134,6.026,4.611,8.472,7.451
	c2.438,2.847,4.484,6.08,6.195,9.636c3.424,7.113,5.426,15.502,6.567,24.292l0.379,3.325l0.076,0.665l0.022,0.25l0.086,1
	l0.173,2.001l-7.934,0.628c6.979,5.292,13.698,11.487,20.204,18.041c6.559-6.515,12.939-13.397,18.885-21.135L390.431,302.664z"/>
</svg>
