<?xml version="1.0" encoding="utf-8"?>
<!-- Generator: Adobe Illustrator 16.0.0, SVG Export Plug-In . SVG Version: 6.00 Build 0)  -->
<!DOCTYPE svg PUBLIC "-//W3C//DTD SVG 1.1//EN" "http://www.w3.org/Graphics/SVG/1.1/DTD/svg11.dtd">
<svg version="1.1" id="Layer_1" xmlns="http://www.w3.org/2000/svg" xmlns:xlink="http://www.w3.org/1999/xlink" x="0px" y="0px"
	 width="480px" height="480px" viewBox="0 0 480 480" enable-background="new 0 0 480 480" xml:space="preserve">
<path fill-rule="evenodd" clip-rule="evenodd" fill="#9E9E9E" d="M294.44,140.223c3.619,0.385,4.689,1.395,5.325,4.936
	c1.025,5.71,0.016,11.36-0.588,17.014c-0.374,3.468-0.857,6.934-1.491,10.365c-0.267,1.453-0.92,2.881-1.616,4.201
	c-1.402,2.66-3.473,4.25-6.999,3.369c-0.428,2.394-0.815,4.716-1.265,7.029c-1.622,8.344-4.167,16.353-8.812,23.557
	c-1.071,1.664-2.239,3.34-3.67,4.684c-1.319,1.24-1.612,2.494-1.469,4.176c0.711,8.55,1.39,17.102,1.953,25.661
	c0.1,1.517,0.789,1.724,2.003,1.902c16.046,2.365,31.81,6.088,47.123,11.33c14.551,4.977,28.162,12.041,39.806,22.295
	c16.698,14.705,27.336,32.935,31.024,54.995c0.85,5.063,1.3,10.2,1.782,15.32c0.146,1.54-0.201,3.126-0.339,4.692
	c-0.041,0.477-0.351,1.069-0.165,1.403c1.272,2.311-0.598,3.06-1.996,3.55c-6.195,2.179-12.365,4.515-18.712,6.144
	c-16.226,4.167-32.772,6.673-49.378,8.796c-29.873,3.816-59.869,5.554-89.975,5.471c-19.371-0.056-38.709-0.903-58.016-2.58
	c-23.462-2.032-46.801-4.918-69.804-10.044c-7.804-1.74-15.492-4.095-23.109-6.553c-4.984-1.605-6.544-2.671-6.214-10.015
	c0.71-15.692,4.189-30.771,11.864-44.549c9.529-17.117,23.291-30.021,40.662-39.133c16.101-8.442,33.19-13.982,50.925-17.657
	c5.499-1.138,11.062-1.987,16.606-2.896c1.179-0.194,1.573-0.702,1.699-1.855c1.003-9.14,2.084-18.268,3.09-27.406
	c0.059-0.523-0.149-1.254-0.506-1.622c-6.894-7.018-10.209-15.825-12.519-25.106c-0.906-3.642-1.508-7.362-2.273-11.165
	c-4.476,0.775-6.841-1.979-7.84-5.6c-1.25-4.523-2.081-9.23-2.465-13.908c-0.437-5.373-0.346-10.806-0.155-16.202
	c0.085-2.35,1.387-4.309,4.288-4.528c-0.85-5.6-1.747-11.072-2.494-16.565c-1.376-10.128-1.972-20.264,1.155-30.204
	c3.79-12.035,11.678-21.092,21.79-28.158C221.5,52.91,240.845,49.88,261.53,57.22c7.453,2.643,13.344,7.477,18.286,13.568
	c8.043,9.918,12.451,21.492,15.834,33.634c2.065,7.421,1.89,14.744,0.62,22.202C295.504,131.13,295.039,135.687,294.44,140.223z"/>
<circle fill-rule="evenodd" clip-rule="evenodd" fill="none" stroke="#9E9E9E" stroke-width="16" stroke-miterlimit="10" cx="240" cy="237.409" r="226.579"/>
</svg>
