<?xml version="1.0" encoding="utf-8"?>
<!-- Generator: Adobe Illustrator 16.0.0, SVG Export Plug-In . SVG Version: 6.00 Build 0)  -->
<!DOCTYPE svg PUBLIC "-//W3C//DTD SVG 1.1//EN" "http://www.w3.org/Graphics/SVG/1.1/DTD/svg11.dtd">
<svg version="1.1" id="Layer_1" xmlns="http://www.w3.org/2000/svg" xmlns:xlink="http://www.w3.org/1999/xlink" x="0px" y="0px"
	 width="432px" height="432px" viewBox="0 0 432 432" enable-background="new 0 0 432 432" xml:space="preserve">
<path fill="#FEFEFE" d="M-0.006,235.199C-0.006,157.536,0,79.874-0.048,2.21c-0.001-1.739,0.294-2.243,2.168-2.242
	c142.528,0.054,285.056,0.055,427.584-0.007c2.004-0.001,2.303,0.475,2.302,2.363c-0.054,142.449-0.054,284.897-0.001,427.345
	c0.001,1.877-0.279,2.37-2.295,2.369c-142.528-0.062-285.057-0.062-427.585-0.008c-1.862,0-2.176-0.485-2.175-2.235
	c0.05-63.586,0.042-127.172,0.042-190.758c0.078-0.012,0.206-0.059,0.228-0.029c3.203,4.439,8.365,4.922,13.008,6.455
	c1.271,0.419,2.603,0.691,3.727,1.485c0.728,0.632,0.824,1.499,0.928,2.385c1.387,11.764,9.732,19.836,21.523,20.149
	c6.675,0.178,12.448-2.511,16.867-7.729c0.656-0.774,1.183-1.75,2.349-1.923c4.527,1.013,8.915,2.521,13.326,3.914
	c18.295,5.773,36.633,11.407,54.941,17.14c7.625,2.388,15.29,4.649,22.844,7.26c0.974,0.678,1.014,1.72,1.113,2.764
	c0.865,9.068,5.689,15.235,14.078,18.462c8.517,3.276,16.101,1.241,22.751-4.783c0.708-0.641,1.369-1.336,1.994-2.061
	c0.73-0.844,1.602-1.291,2.738-1.113c4.28,1.024,8.355,2.743,12.618,3.812c3.792,0.951,7.417-1.969,7.38-5.754
	c-0.016-1.618-1.27-2.741-1.55-4.239c0.94-3.687,2.432-7.208,3.296-10.921c0.169-0.355,0.427-0.631,0.768-0.829
	c0.378-0.145,0.75-0.132,1.111,0.053c0.192,0.167,0.344,0.367,0.458,0.595c1.289,3.656,2.38,7.379,3.516,11.087
	c-0.181,0.707-0.661,1.271-0.934,1.933c-0.884,2.146-0.864,4.241,0.678,6.077c1.498,1.784,3.444,2.481,5.781,1.997
	c4.311-0.895,8.347-2.7,12.605-3.762c0.464-0.116,0.922-0.262,1.41-0.245c1.435,0.515,2.172,1.833,3.172,2.828
	c7.522,7.481,17.271,9.022,26.506,3.849c6.399-3.586,9.963-9.239,10.879-16.532c0.108-0.864,0.003-1.765,0.471-2.564
	c0.81-1.011,2.034-1.228,3.159-1.587c13.396-4.263,26.843-8.358,40.252-12.577c14.171-4.458,28.393-8.756,42.547-13.269
	c1.895-0.604,3.76-1.352,5.786-1.441c0.976,0.293,1.559,1.068,2.183,1.792c9.895,11.49,28.221,10.101,35.857-3.534
	c1.531-2.733,2.227-5.797,2.685-8.894c0.104-0.706,0.063-1.442,0.461-2.082c1.962-1.315,4.266-1.744,6.466-2.414
	c1.988-0.606,3.974-1.219,5.928-1.922c2.648-0.954,4.668-3.339,4.468-5.643c-0.222-2.55-1.521-4.505-4.07-5.424
	c-0.595-0.215-1.234-0.374-1.636-0.938c1.059-1.428,0.807-2.858,0.3-4.466c-4.18-13.234-9.852-25.712-18.934-36.349
	c-9.001-10.541-20.062-17.379-34.248-18.653c-6.607-0.593-12.934,0.373-19.137,2.27c-13.152,4.022-26.286,8.108-39.399,12.257
	c-8.387,2.653-16.78,5.287-25.221,7.759c-3.072,0.9-5.295,2.238-6.847,5.309c-3.999,7.918-8.215,15.732-12.331,23.594
	c-3.856,7.366-7.81,14.684-11.553,22.108c-0.82,1.629-2.083,2.524-3.774,3.062c-7.087,2.253-14.249,4.265-21.288,6.664
	c-7.156,2.849-12.056,7.882-14.684,15.131c-0.403,1.113-0.576,2.343-1.488,3.227c-0.334,0.177-0.679,0.198-1.036,0.083
	c-0.935-0.536-1.08-1.528-1.398-2.423c-2.654-7.466-7.42-12.958-14.885-15.929c-6.366-2.141-12.735-4.281-19.214-6.031
	c-3.352-0.905-5.56-2.709-7.089-5.809c-3.394-6.88-7.113-13.597-10.621-20.42c-4.167-8.103-8.663-16.033-12.635-24.235
	c-0.977-2.017-2.462-3.145-4.616-3.799c-18.659-5.669-37.271-11.486-55.879-17.319c-6.094-1.911-12.104-4.151-18.469-5.104
	c-15.268-2.284-28.414,2.282-39.72,12.476c-9.208,8.303-15.329,18.734-20.141,30.023c-1.695,3.977-3.123,8.044-4.46,12.149
	c-0.455,1.396-0.694,2.784-0.428,4.237C3.638,232.179,1.857,233.739-0.006,235.199z"/>
<path fill-rule="evenodd" clip-rule="evenodd" fill="#474849" d="M16.809,247.194c-4.117-1.261-8.229-2.537-12.353-3.774
	c-2.273-0.683-3.468-2.419-4.463-4.381c0-1.28,0-2.56,0-3.84c1.276-2.036,2.785-3.788,5.293-4.313
	c0.649-0.649,1.466-0.659,2.235-0.418c4.104,1.289,8.284,2.341,12.292,3.928c0.372,0.147,0.692,0.393,0.952,0.705
	c0.401,0.81,0.075,1.549-0.272,2.255c-1.295,2.639-2.188,5.396-2.613,8.311C17.787,246.304,17.858,247.173,16.809,247.194z"/>
<path fill-rule="evenodd" clip-rule="evenodd" fill="#5B5A5E" d="M206.354,174.442c-1.387-4.185-1.435-8.118,0.212-11.941
	c0.504-1.17,0.026-1.531-0.835-2.011c-4.866-2.71-8.364-6.659-10.268-11.893c-0.554-1.521-1.601-1.231-2.671-1.327
	c-9.333-0.839-16.223-5.392-19.796-14.07c-3.521-8.551-2.196-16.725,3.9-23.748c5.566-6.413,12.811-8.699,21.183-7.433
	c0.771,0.116,1.529,0.314,2.588,0.535c-1-3.017-1.729-5.848-1.25-8.811c1.097-6.777,4.842-11.352,11.408-13.458
	c1.18-0.378,1.594-0.657,1.413-2.059c-0.81-6.258,2.376-10.924,8.419-12.655c6.316-1.811,13.511,4.559,12.753,11.48
	c-0.216,1.973,0.042,2.882,2.152,3.111c1.755,0.19,3.426,0.987,4.776,2.107c1.287,1.067,2.116,0.963,3.457-0.012
	c12.409-9.024,29.65-6.413,38.935,5.807c9.242,12.165,7.061,29.563-4.999,39.043c-1.578,1.241-2.26,2.327-2.191,4.479
	c0.686,21.75-19.631,35.571-39.803,27.188c-0.431-0.179-0.826-0.511-1.492-0.188c0.48,0.81,1.146,1.541,1.37,2.389
	c0.573,2.17,1.976,2.345,3.938,2.323c8.887-0.102,16.38,6.308,17.808,15.031c1.272,7.779-2.357,15.257-9.212,18.979
	c-6.7,3.637-14.976,2.652-20.769-2.475c-0.471-0.416-0.93-0.843-1.652-1.499c-0.21,2.91-0.618,5.542-1.825,7.949
	c-0.477,0.95,0.154,1.009,0.768,1.286c4.831,2.183,7.315,5.877,7,10.334c-0.32,4.516-3.102,7.77-8.017,9.312
	c-0.549,0.172-1.176,0.207-1.26,0.889c-0.27,2.199-1.604,4.026-1.145,6.589c0.904,5.056-1.643,8.622-7.02,11.072
	c1.232,1.505,2.199,3.106,1.774,5.156c-0.238,1.149-0.823,2.072-1.721,2.794c-1.846,1.483-4.664,1.334-6.369-0.315
	c-2.046-1.979-1.946-4.39,0.327-7.51c-0.225-0.628-0.897-0.544-1.35-0.779c-3.749-1.952-5.784-5.042-5.785-9.236
	c-0.002-4.196,1.935-7.512,5.825-9.136c1.99-0.83,1.838-2.949,3.237-3.885c1.767-1.184,1.503-2.611,1.199-4.355
	c-0.236-1.354-0.529-1.588-1.915-1.424c-9.081,1.081-17.039-3.521-20.268-11.57c-4.78-11.912,3.188-24.804,16.008-25.903
	C205.507,174.572,205.819,174.516,206.354,174.442z"/>
<path fill-rule="evenodd" clip-rule="evenodd" fill="#827C6F" d="M20.646,235.196c-3.877-1.207-7.759-2.396-11.627-3.633
	c-1.222-0.391-2.437-0.731-3.732-0.678c-0.311-0.722-1.05-1.11-0.704-2.263c4.667-15.553,11.162-30.136,22.564-42.029
	c9.901-10.328,21.919-16.127,36.443-16.023c5.061,0.037,10.011,0.953,14.843,2.458c22.416,6.979,44.823,13.987,67.255,20.913
	c1.765,0.545,2.801,1.475,3.638,3.079c8.235,15.795,16.558,31.545,24.794,47.339c0.765,1.466,1.735,2.288,3.309,2.773
	c7.245,2.234,14.456,4.581,21.679,6.887c0.298,0.627,0.176,1.258-0.021,1.87c-2.225,6.921-4.38,13.863-6.579,20.792
	c-0.073,0.229-0.222,0.423-0.371,0.611c-1.542,0.303-1.984-1.068-2.652-1.899c-4.342-5.399-10.11-8.087-16.857-8.181
	c-6.686-0.093-12.408,2.562-16.835,7.729c-0.662,0.773-1.191,1.736-2.339,1.936c-5.352-0.72-10.336-2.775-15.423-4.396
	c-14.932-4.761-29.927-9.316-44.875-14.021c-9.913-3.12-19.848-6.171-29.736-9.374c-1.533-0.609-2.036-1.798-2.143-3.387
	c-0.611-9.048-7.385-16.981-16.207-19.106c-8.854-2.132-16.16,0.501-22.192,7.135C22.266,234.4,21.868,235.437,20.646,235.196z"/>
<path fill-rule="evenodd" clip-rule="evenodd" fill="#E2725D" d="M231.824,254.02c6.94-2.647,14.127-4.535,21.205-6.753
	c1.922-0.603,3.054-1.587,3.975-3.36c8.248-15.875,16.599-31.696,24.884-47.552c0.604-1.153,1.397-1.798,2.636-2.183
	c22.871-7.092,45.665-14.444,68.614-21.275c21.338-6.352,39.019,0.255,53.288,16.703c9.813,11.312,15.562,24.793,19.872,38.984
	c0.576,1.897-1.018,1.542-1.521,2.283c-1.771,1.475-4.024,1.825-6.12,2.408c-2.871,0.799-5.567,2.324-8.663,2.259
	c-0.777-0.301-1.275-0.927-1.79-1.538c-8.41-10.007-22.841-10.975-32.245-1.962c-3.46,3.316-5.606,7.532-6.229,12.391
	c-0.173,1.345-0.278,2.7-1.003,3.902c-2.979,1.805-6.366,2.548-9.632,3.543c-11.998,3.656-23.916,7.57-35.923,11.187
	c-11.472,3.454-22.822,7.296-34.343,10.592c-3.753,1.073-7.353,2.681-11.255,3.243c-1.146-0.162-1.717-1.063-2.385-1.85
	c-9.027-10.646-25.309-10.366-34.033,0.559c-0.589,0.737-0.877,1.962-2.24,1.755c-1.833-3.126-2.309-6.73-3.506-10.083
	c-1.228-3.436-2.29-6.94-3.282-10.459C231.872,255.91,231.471,255,231.824,254.02z"/>
<path fill-rule="evenodd" clip-rule="evenodd" fill="#C6483A" d="M277.291,276.576c10.476-3.261,20.954-6.51,31.426-9.784
	c12.97-4.055,25.889-8.277,38.915-12.138c7.012-2.077,13.934-4.433,20.963-6.444c0.538,0.28,0.864,0.763,0.919,1.322
	c0.32,3.302,1.373,6.363,2.891,9.289c0.218,0.421,0.3,0.91,0.036,1.375c-27.104,8.461-54.21,16.921-81.314,25.386
	c-3.425,1.069-6.841,2.161-10.261,3.243c-0.622-0.391-0.652-1.044-0.717-1.666c-0.293-2.861-1.178-5.542-2.4-8.129
	C277.386,278.263,276.855,277.501,277.291,276.576z"/>
<path fill-rule="evenodd" clip-rule="evenodd" fill="#474849" d="M63.348,248.595c8.372,2.601,16.747,5.191,25.115,7.803
	c20.085,6.267,40.167,12.547,60.254,18.808c1.594,0.496,3.221,0.887,4.833,1.326c0.531,0.619,0.177,1.205-0.113,1.751
	c-1.43,2.692-2.284,5.549-2.608,8.582c-0.075,0.704,0.059,1.704-1.166,1.675c-10.362-3.191-20.731-6.361-31.085-9.578
	c-19.494-6.058-38.979-12.143-58.466-18.219c-0.531-0.166-1.049-0.374-1.574-0.562c-0.316-0.651-0.058-1.251,0.215-1.816
	c1.286-2.66,2.165-5.438,2.558-8.372C61.467,248.819,61.924,247.973,63.348,248.595z"/>
<path fill-rule="evenodd" clip-rule="evenodd" fill="#556771" d="M372.44,260.196c-2.259-3.683-3.349-7.74-3.846-11.987
	c0.479-8.296,3.613-15.105,10.872-19.675c9.423-5.931,22.408-3.651,29.284,5.186c0.392,0.504,0.8,0.996,1.2,1.494
	c2.719,2.097,4.912,9.117,3.786,12.114c-0.791,11.628-7.097,19.874-17.373,22.133C386.454,271.638,378.52,268.181,372.44,260.196z"
	/>
<path fill-rule="evenodd" clip-rule="evenodd" fill="#556771" d="M63.348,248.595c-0.768,0.015-1.391,0.152-1.429,1.143
	c-0.147,3.793-1.679,7.146-3.381,10.442c-3.528,4.393-7.685,7.84-13.322,9.226c-13.723,3.375-26.817-6.053-27.925-20.152
	c-0.056-0.71,0.005-1.449-0.48-2.06c0.732-4.174,2-8.177,3.836-11.998c2.311-2.259,4.313-4.771,7.134-6.568
	c9.504-6.06,23.013-3.692,29.697,5.393c2.702,3.673,4.508,7.667,4.418,12.314C61.872,247.522,62.63,247.995,63.348,248.595z"/>
<path fill-rule="evenodd" clip-rule="evenodd" fill="#556771" d="M149.663,288.54c1.114-1.111,0.415-2.579,0.728-3.864
	c0.699-2.87,1.86-5.525,3.159-8.145c3.209-3.808,6.752-7.099,11.635-8.766c8.432-2.879,18.87-0.258,24.501,6.963
	c0.726,0.931,1.546,1.788,2.323,2.68c0.107,0.07,0.215,0.143,0.325,0.212c2.348,3.546,3.191,7.501,3.179,11.688
	c-0.027,3.138-0.743,6.134-2.037,8.973c-0.534,1.171-0.886,2.353-1.026,3.615c-1.501-0.446-2.05,0.731-2.841,1.598
	c-6.214,6.811-13.819,9.627-22.835,7.195c-9.055-2.443-14.446-8.565-16.443-17.726C150.008,291.495,150.539,289.912,149.663,288.54z
	"/>
<path fill-rule="evenodd" clip-rule="evenodd" fill="#556771" d="M277.291,276.576c1.966,3.858,3.62,7.807,3.573,12.25
	c-0.599,13.395-10.303,23.056-23.059,22.684c-7.671-0.224-13.651-3.88-18.203-9.972c-1.22-0.406-1.582-1.533-2.025-2.532
	c-1.339-3.018-2.305-6.132-2.108-9.496c-0.145-4.285,0.539-8.351,3.174-11.895c0.115-0.064,0.231-0.127,0.348-0.189
	c3.38-4.852,7.642-8.628,13.502-10.021c9.579-2.275,17.593,0.396,23.822,8.128C276.612,275.902,276.965,276.229,277.291,276.576z"/>
<path fill-rule="evenodd" clip-rule="evenodd" fill="#FBDA2E" d="M231.824,254.02c2.463,7.779,5.203,15.474,7.166,23.405
	l0.018-0.015c-0.578,0.585-1.292,0.929-2.071,1.149c-6.07,1.722-12,3.9-18.085,5.571c-0.896,0.245-1.809,0.766-2.745,0.091
	c-0.074-0.174-0.149-0.347-0.224-0.521c-0.233-0.339-0.446-0.687-0.525-1.099c-0.849-2.819-0.494-5.642-0.023-8.467
	c0.027-0.57,0.236-1.069,0.589-1.513c1.944-7.828,6.388-13.755,13.48-17.64C230.16,254.57,231.015,254.336,231.824,254.02z"/>
<path fill-rule="evenodd" clip-rule="evenodd" fill="#FBDA2E" d="M192.008,277.408c-0.123-2.06,0.883-3.846,1.458-5.72
	c1.812-5.911,3.751-11.782,5.641-17.669c7.544,3.027,12.424,8.543,15.069,16.142c0.285,0.82,0.549,1.647,0.823,2.471
	c0.535,0.532,0.475,1.225,0.511,1.892c-0.178,2.401-0.515,4.801-0.07,7.208c0.063,0.694,0.078,1.379-0.384,1.97
	c-0.127,0.175-0.255,0.349-0.383,0.523c-0.835,0.553-1.69,0.323-2.535,0.042c-5.918-1.972-11.893-3.764-17.85-5.612
	c-0.846-0.264-1.663-0.582-2.289-1.249L192.008,277.408z"/>
<path fill-rule="evenodd" clip-rule="evenodd" fill="#C6483A" d="M235.926,289.492c0.176,4.335,1.504,8.319,3.677,12.046
	c-4.538,1.432-9.052,2.949-13.624,4.264c-2.998,0.863-5.71-0.318-7.214-2.806c-1.548-2.56-1.179-5.352,1.034-7.815
	c0.307-0.771,0.821-1.421,1.589-1.68c4.568-1.54,9.077-3.284,13.849-4.145C235.471,289.313,235.704,289.404,235.926,289.492z"/>
<path fill-rule="evenodd" clip-rule="evenodd" fill="#474849" d="M192.449,301.896c-1.147-0.708-0.682-1.527-0.218-2.411
	c1.649-3.142,2.615-6.472,2.634-10.045c2.477-0.28,4.65,0.918,6.928,1.521c2.385,0.631,4.675,1.629,7.059,2.318
	c1.019,0.295,1.96,0.747,2.249,1.926c2.191,2.569,2.52,5.32,0.942,7.878c-1.497,2.427-4.291,3.567-7.296,2.696
	C200.619,304.583,196.545,303.2,192.449,301.896z"/>
<path fill-rule="evenodd" clip-rule="evenodd" fill="#C6483A" d="M413.737,247.328c-0.253-4.354-1.452-8.412-3.787-12.114
	c3.948-1.192,7.893-2.394,11.844-3.572c0.983-0.294,1.988-0.519,2.982-0.774c3.656,0.622,6.053,2.913,6.411,6.127
	c0.278,2.496-2.183,5.608-5.329,6.607C421.83,244.88,417.779,246.088,413.737,247.328z"/>
<path fill-rule="evenodd" clip-rule="evenodd" fill="#E2725D" d="M235.926,289.492c-4.273,1.599-8.756,2.536-13.044,4.121
	c-1.138,0.421-1.949,1.276-3.083,1.567c-1.955-3.41-2.664-7.238-3.692-10.959c6.861-2.091,13.721-4.187,20.585-6.267
	c0.758-0.229,1.544-0.365,2.316-0.544C237.132,281.221,235.883,285.192,235.926,289.492z"/>
<path fill-rule="evenodd" clip-rule="evenodd" fill="#837D6F" d="M211.101,295.205c-3.071-2.084-6.767-2.521-10.135-3.822
	c-1.987-0.768-4.064-1.303-6.1-1.942c0.33-4.317-1.388-8.148-2.866-12.035c6.559,1.999,13.118,4.003,19.679,5.995
	c0.991,0.301,1.996,0.551,2.995,0.824C213.875,288.012,212.857,291.728,211.101,295.205z"/>
<path fill-rule="evenodd" clip-rule="evenodd" fill="#F8EFDF" d="M215.053,274.484c-0.018-0.617-0.036-1.234-0.054-1.852
	c0.308-0.004,0.616-0.006,0.924-0.009c-0.003,0.448-0.007,0.896-0.01,1.345C215.734,274.32,215.646,274.824,215.053,274.484z"/>
<path fill-rule="evenodd" clip-rule="evenodd" fill="#F7EAD4" d="M215.056,283.701c0-0.621-0.001-1.242-0.002-1.863
	c1.003-0.331,0.491,0.721,0.873,0.957c-0.015,0.303-0.029,0.604-0.044,0.907C215.607,283.702,215.332,283.702,215.056,283.701z"/>
<path fill-rule="evenodd" clip-rule="evenodd" fill="#F3F3F4" d="M154.468,239.931c-14.487-4.514-28.773-8.964-43.059-13.417
	c-4.496-1.401-8.963-2.905-13.497-4.171c-1.797-0.502-1.954-1.19-1.421-2.839c2.747-8.507,5.403-17.045,7.997-25.601
	c0.495-1.634,1.035-2.114,2.81-1.54c8.504,2.751,17.053,5.362,25.599,7.981c1.148,0.352,1.897,0.949,2.461,2.028
	c5.801,11.113,11.656,22.197,17.468,33.304C153.503,236.973,154.209,238.288,154.468,239.931z"/>
<path fill-rule="evenodd" clip-rule="evenodd" fill="#F3F3F4" d="M65.79,180.791c5.678-0.278,10.736,2.174,16.004,3.674
	c3.761,1.071,7.462,2.354,11.217,3.449c1.375,0.4,1.701,0.911,1.235,2.367c-2.797,8.74-5.532,17.501-8.148,26.296
	c-0.537,1.805-1.322,1.677-2.741,1.23c-14.161-4.458-28.336-8.872-42.516-13.267c-1.968-0.61-3.987-1.055-6.213-1.637
	c7.767-10.954,16.65-20.017,30.629-22.061C65.423,180.715,65.601,180.698,65.79,180.791z"/>
<path fill-rule="evenodd" clip-rule="evenodd" fill="#474849" d="M108.259,238.779c-3.192-0.983-6.384-1.967-9.576-2.95
	c-0.229-0.07-0.46-0.13-0.688-0.203c-6.325-2.037-6.283-2.023-4.069-8.427c0.417-1.205,0.868-1.466,2.035-1.099
	c4.704,1.482,9.426,2.905,14.148,4.33c0.774,0.233,1.386,0.578,1.126,1.487c-0.589,2.066-1.236,4.115-1.878,6.166
	C109.2,238.588,108.874,238.91,108.259,238.779z"/>
<path fill-rule="evenodd" clip-rule="evenodd" fill="#777161" d="M65.79,180.791c-0.178,0.017-0.355,0.035-0.534,0.052
	c-0.236-0.577-0.106-0.864,0.581-0.849c1.24,0.028,2.482,0.008,4.176,0.008C68.378,180.887,66.951,180.01,65.79,180.791z"/>
<path fill-rule="evenodd" clip-rule="evenodd" fill="#F3F3F4" d="M276.137,239.806c2.169-4.974,4.746-9.55,7.183-14.195
	c4.007-7.644,8.027-15.281,11.998-22.945c0.626-1.209,1.415-1.994,2.759-2.402c8.562-2.603,17.115-5.235,25.641-7.954
	c1.478-0.471,2.117-0.28,2.586,1.263c2.671,8.791,5.402,17.563,8.188,26.319c0.432,1.357,0.244,1.916-1.187,2.357
	c-18.775,5.795-37.531,11.65-56.295,17.483C276.806,239.797,276.573,239.773,276.137,239.806z"/>
<path fill-rule="evenodd" clip-rule="evenodd" fill="#F3F3F4" d="M363.706,180.877c6.291,0.081,11.863,2.323,16.981,5.798
	c5.825,3.957,10.475,9.095,14.527,14.809c0.624,0.88,1.175,1.495-0.478,1.918c-13.307,3.412-26.257,8.008-39.402,11.959
	c-2.829,0.85-5.668,1.679-8.459,2.643c-1.243,0.43-1.61,0.077-1.973-1.104c-2.737-8.929-5.536-17.84-8.363-26.742
	c-0.393-1.238-0.219-1.796,1.136-2.203c7.11-2.135,14.188-4.376,21.276-6.587C360.506,180.885,362.104,180.898,363.706,180.877z"/>
<path fill-rule="evenodd" clip-rule="evenodd" fill="#C6483A" d="M338.433,232.361c0.45,1.221-0.123,1.493-0.64,1.656
	c-5.016,1.583-10.047,3.115-15.058,4.714c-0.929,0.296-1.096-0.19-1.298-0.862c-0.575-1.907-1.136-3.819-1.787-5.7
	c-0.36-1.042,0.09-1.446,0.983-1.72c4.801-1.468,9.604-2.928,14.39-4.447c0.835-0.266,1.4-0.26,1.68,0.643
	C337.338,228.7,337.949,230.761,338.433,232.361z"/>
<path fill-rule="evenodd" clip-rule="evenodd" fill="#E06650" d="M365.688,180.351c-1.554,0-3.107,0-4.66,0
	C362.571,179.868,364.127,179.969,365.688,180.351z"/>
<path fill-rule="evenodd" clip-rule="evenodd" fill="#204165" d="M376.748,247.537c-0.521-7.295,6.77-14.692,14.692-14.351
	c8.073,0.349,13.879,6.347,14.223,14.621c0.299,7.206-6.958,14.562-14.748,14.416C383.716,262.087,376.124,255.299,376.748,247.537z
	"/>
<path fill-rule="evenodd" clip-rule="evenodd" fill="#204165" d="M39.559,262.093c-7.528,0.164-14.337-5.473-14.374-14.378
	c-0.036-8.771,6.68-14.415,14.534-14.538c6.578-0.103,14.438,5.443,14.497,14.454C54.269,255.753,47.796,262.104,39.559,262.093z"/>
<path fill-rule="evenodd" clip-rule="evenodd" fill="#204165" d="M172.548,303.378c-8.234,0.586-14.711-6.989-14.661-14.134
	c0.06-8.327,6.391-14.698,14.707-14.708c7.969-0.009,14.564,6.634,14.448,14.522C186.921,297.328,180.544,303.663,172.548,303.378z"
	/>
<path fill-rule="evenodd" clip-rule="evenodd" fill="#204165" d="M258.48,303.379c-8.352,0.524-14.609-6.784-14.654-14.37
	c-0.047-7.957,6.444-14.461,14.4-14.46c8.901,0.001,14.618,6.454,14.75,14.604C273.118,297.856,265.508,303.913,258.48,303.379z"/>
<path fill-rule="evenodd" clip-rule="evenodd" fill="#EDC250" d="M215.927,282.794c-0.291-0.319-0.582-0.639-0.873-0.957
	c0-2.451-0.001-4.902-0.001-7.354c0.287-0.172,0.574-0.343,0.861-0.516C215.531,276.911,215.201,279.853,215.927,282.794z"/>
</svg>
