<?xml version="1.0" encoding="utf-8"?>
<!-- Generator: Adobe Illustrator 16.0.0, SVG Export Plug-In . SVG Version: 6.00 Build 0)  -->
<!DOCTYPE svg PUBLIC "-//W3C//DTD SVG 1.1//EN" "http://www.w3.org/Graphics/SVG/1.1/DTD/svg11.dtd">
<svg version="1.1" id="Layer_1" xmlns="http://www.w3.org/2000/svg" xmlns:xlink="http://www.w3.org/1999/xlink" x="0px" y="0px"
	 width="432px" height="432px" viewBox="0 0 432 432" enable-background="new 0 0 432 432" xml:space="preserve">
<path fill-rule="evenodd" clip-rule="evenodd" fill="#F4F4F3" d="M251.937,288.46c-0.269,2.22-1.65,2.446-3.625,2.442
	c-30.225-0.066-60.45-0.052-90.676-0.03c-1.319,0.001-2.555,0.052-3.116-1.46c-0.668-0.68-0.635-1.552-0.667-2.406
	c0.063-1.631,0.021-3.265,0.027-4.896c-0.431-9.396-4.396-17.127-11.428-23.198c-13.668-11.8-34.029-10.762-46.396,2.36
	c-5.87,6.229-8.961,13.712-9.05,22.361c-0.013,1.304,0.439,2.742-0.687,3.868c-0.979-2.122-0.024-4.404-0.888-6.589
	c0,1.475-0.038,2.951,0.011,4.424c0.042,1.281-0.245,1.817-1.625,1.135c-9.986-4.941-17.451-12.284-22.013-22.556
	c-2.567-5.78-4.03-11.748-3.699-18.06c0.234-4.461,1.789-8.689,2.795-13.009c2.667-11.451,5.416-22.883,8.221-34.301
	c2.823-11.489,4.819-23.241,10.701-33.771c4.836-8.659,11.183-15.764,20.008-20.591c8.662-4.738,17.909-6.769,27.694-6.949
	c3.725-0.068,7.49,0.596,11.178-0.448c0.924-0.346,1.887-0.273,2.844-0.272c9.343,0.005,18.687,0.002,28.03,0.001
	c3.996,0,3.996-0.004,4.625-3.821c0.106-0.292,0.282-0.533,0.524-0.726c0.637,0.566,0.447,1.327,0.451,2.025
	c0.015,3.554-0.377,3.27,3.435,3.27c50.39,0.004,100.778,0.002,151.168,0.004c11.372,0,20.584,6.675,24.275,17.447
	c2.398,6.998,3.287,14.177,3.578,21.556c0.896,22.775,0.308,45.553,0.349,68.328c0.023,13.238-4.61,24.846-14.393,34.011
	c-6.215,5.822-13.529,9.8-22.026,11.222c-1.133,0.188-1.337,0.914-1.883,1.507c-0.78-0.734-0.425-1.623-0.346-2.479
	c1.346-14.604-4.086-25.939-16.551-33.703c-10.728-6.682-26.524-5.588-36.662,2.134c-7.156,5.449-11.379,12.603-13.188,21.312
	c-0.478,2.3-0.222,4.621-0.32,6.932C252.571,286.544,252.835,287.642,251.937,288.46z"/>
<path fill-rule="evenodd" clip-rule="evenodd" fill="#757576" d="M251.937,288.46c-0.662-8.728,1.137-16.793,6.259-24.037
	c8.646-12.225,24.596-17.377,38.929-12.494c14.256,4.855,23.693,18.527,23.064,33.467c-0.083,1.984-0.334,3.962-0.507,5.943
	c-1.44,5.276-3.412,10.306-7.035,14.513c-9.202,10.684-20.824,14.99-34.525,11.695c-13.792-3.315-22.258-12.466-25.616-26.273
	C252.279,290.345,252.125,289.398,251.937,288.46z"/>
<path fill-rule="evenodd" clip-rule="evenodd" fill="#757576" d="M154.502,286.997c0.006,0.805,0.011,1.61,0.017,2.415
	c-1.372,6.867-4.004,13.161-8.961,18.217c-9.725,9.919-21.482,13.425-34.794,9.426c-13.291-3.992-21.249-13.29-23.963-26.965
	c-0.171-0.86-0.321-1.725-0.481-2.588c-0.488-9.286,1.852-17.668,7.777-24.982c8.503-10.496,22.857-14.871,36.318-10.971
	c12.75,3.695,22.575,15.331,24.085,28.541c0.063,0.549,0.005,1.111,0.003,1.667C154.176,283.504,154.179,285.25,154.502,286.997z"/>
<path fill-rule="evenodd" clip-rule="evenodd" fill="#E2725D" d="M138.719,131.493c0.554-11.037,8.459-16.927,16.974-17.557
	c9.238-0.684,18.649,6.536,18.953,17.452c-0.775,0.934-1.862,0.788-2.88,0.79c-10.035,0.019-20.071,0.016-30.106,0.003
	C140.634,132.18,139.566,132.288,138.719,131.493z"/>
<path fill-rule="evenodd" clip-rule="evenodd" fill="#EBEBEB" d="M174.704,132.47c0.003,4.797,0.003,4.798-4.767,4.798
	c-9.582,0-19.165,0.008-28.747-0.014c-0.839-0.002-1.777,0.317-2.485-0.467c0.004-1.438,0.008-2.876,0.013-4.315
	c0.755-0.625,1.665-0.473,2.53-0.474c10.308-0.011,20.616-0.011,30.924,0C173.038,131.998,173.947,131.85,174.704,132.47z"/>
<path fill-rule="evenodd" clip-rule="evenodd" fill="#EBF1F2" d="M174.704,132.47c-11.995,0.001-23.991,0.001-35.985,0.002
	c0-0.326,0-0.652,0.001-0.979c11.268,0.046,22.536,0.097,33.804,0.127c0.708,0.002,1.416-0.151,2.123-0.231
	c0.026,0.193,0.054,0.387,0.081,0.58C174.719,132.136,174.711,132.303,174.704,132.47z"/>
<path fill-rule="evenodd" clip-rule="evenodd" fill="#E2725D" d="M221.701,219.84c-0.713-0.789-1.649-0.399-2.474-0.407
	c-8.122-0.065-16.245-0.086-24.368-0.12c-0.714-0.913-0.453-1.989-0.464-3.004c-0.091-7.811,0.137-15.625-0.128-23.435
	c0.715-0.788,1.655-0.417,2.485-0.421c7.596-0.031,15.192-0.078,22.786,0.022c1.982,0.026,2.644-0.564,2.619-2.575
	c-0.096-7.674-0.044-15.35-0.033-23.026c0.001-0.936-0.231-1.947,0.64-2.684c0.397-0.366,0.892-0.273,1.357-0.273
	c7.692-0.004,15.384-0.004,23.076,0c0.466,0,0.96-0.092,1.358,0.271c0.172,0.311,0.344,0.621,0.515,0.932
	c-0.488,1.963-0.187,3.957-0.201,5.934c-0.049,6.215-0.032,12.431,0,18.646c0.004,0.755-0.334,1.596,0.322,2.272
	c0.84,0.649,1.824,0.458,2.767,0.459c7.657,0.008,15.316,0.061,22.974-0.035c1.894-0.023,2.48,0.541,2.455,2.446
	c-0.099,7.337-0.098,14.678-0.001,22.016c0.025,1.955-0.527,2.629-2.553,2.601c-7.577-0.107-15.156-0.057-22.734-0.024
	c-0.826,0.004-1.767-0.376-2.475,0.424l-0.021,0.019c-0.785,0.71-0.404,1.644-0.408,2.465c-0.032,7.538-0.013,15.077-0.026,22.615
	c-0.001,0.928,0.244,1.928-0.557,2.7c-1.398,0.48-2.844,0.216-4.264,0.223c-6.63,0.032-13.261,0.029-19.891-0.007
	c-0.734-0.004-1.601,0.407-2.21-0.401c-0.043-8.368-0.075-16.736-0.146-25.104c-0.007-0.836,0.342-1.762-0.381-2.502L221.701,219.84
	z"/>
<path fill-rule="evenodd" clip-rule="evenodd" fill="#8ABBE5" d="M152.131,205.873c-18.865,0.019-37.729,0.057-56.594,0.036
	c-3.153-0.003-4.508-1.833-3.72-4.906c2.829-11.044,5.602-22.104,8.61-33.1c2.213-8.09,7.863-12.44,16.143-12.923
	c0.412-0.255,0.852-0.371,1.335-0.275c10.293,0.282,20.587,0.037,30.881,0.135c1.169,0.011,2.418-0.267,3.442,0.621
	c0.033,0.318,0.063-0.09,0.066,0.229c0.177,16.585,0.07,33.171,0.049,49.757C152.342,205.59,152.205,205.731,152.131,205.873z"/>
<path fill-rule="evenodd" clip-rule="evenodd" fill="#A9CCE9" d="M152.131,205.873c0.004-16.79,0.008-33.579,0.012-50.368
	c-0.821-0.464-1.716-0.231-2.572-0.233c-9.786-0.019-19.571-0.006-29.357-0.021c-0.863-0.001-1.75,0.187-2.59-0.188
	c-0.351-0.026-0.702-0.053-1.054-0.081c0.038-0.139,0.067-0.279,0.087-0.421c0.417-0.324,0.909-0.243,1.38-0.244
	c11.077-0.004,22.154-0.004,33.231,0.001c0.467,0,0.967-0.098,1.355,0.292c-0.006,16.344-0.007,32.689-0.03,49.033
	C152.592,204.398,152.9,205.26,152.131,205.873z"/>
<path fill-rule="evenodd" clip-rule="evenodd" fill="#FEFAF4" d="M151.984,206.797c-18.931,0-37.861,0-56.792,0
	c0-0.079,0-0.158-0.001-0.237c18.964,0,37.927,0,56.891,0C152.05,206.639,152.017,206.718,151.984,206.797z"/>
<path fill-rule="evenodd" clip-rule="evenodd" fill="#F5FAFA" d="M221.722,219.864c0,8.931,0,17.861,0,26.792
	c-0.153,0.001-0.307,0.003-0.46,0.005c0-1.717,0-3.434,0-5.15c0-6.313-0.061-12.628,0.038-18.939
	c0.027-1.794-0.519-2.33-2.311-2.309c-7.271,0.092-14.544,0.047-21.816,0.024c-0.752-0.002-1.554,0.244-2.639-0.447
	c9.307,0,18.237,0,27.167,0L221.722,219.864z"/>
<path fill-rule="evenodd" clip-rule="evenodd" fill="#E0654F" d="M194.268,192.874c0.947,0.714,0.577,1.749,0.58,2.649
	c0.026,7.93,0.014,15.86,0.012,23.79c-0.951-0.048-0.872-0.758-0.872-1.389c0.001-8.134,0.008-16.268,0.027-24.401
	C194.016,193.306,194.18,193.09,194.268,192.874z"/>
<path fill-rule="evenodd" clip-rule="evenodd" fill="#FDFAF5" d="M152.623,154.61c-11.989-0.017-23.978-0.033-35.966-0.05
	c-0.078-0.015-0.178-0.006-0.23-0.052c-0.092-0.081-0.156-0.195-0.231-0.294c0.531-0.049,1.062-0.14,1.592-0.141
	c10.876-0.008,21.752-0.011,32.627,0.006C151.174,154.08,152.044,153.789,152.623,154.61z"/>
<path fill-rule="evenodd" clip-rule="evenodd" fill="#F6FEFE" d="M249.625,219.856c0.505,0.414,0.433,0.992,0.433,1.546
	c0.001,8.145,0.002,16.29-0.007,24.436c0,0.276-0.094,0.553-0.447,0.811c0-8.925,0-17.849,0-26.773L249.625,219.856z"/>
<path fill-rule="evenodd" clip-rule="evenodd" fill="#F6FEFE" d="M222.248,247.47c7.829,0.045,15.659,0.089,23.488,0.137
	c0.959,0.006,1.917,0.032,2.876,0.049c-0.101,0.923-0.815,0.459-1.213,0.461c-7.679,0.031-15.357,0.031-23.036,0.011
	C223.618,248.125,222.716,248.444,222.248,247.47z"/>
<path fill-rule="evenodd" clip-rule="evenodd" fill="#E0664F" d="M249.192,191.971c-0.693-0.396-0.569-1.076-0.569-1.696
	c-0.005-7.874-0.004-15.749-0.003-23.623c0-0.553-0.056-1.126,0.452-1.532C249.111,174.07,249.152,183.021,249.192,191.971z"/>
<path fill-rule="evenodd" clip-rule="evenodd" fill="#F5FAFA" d="M248.557,164.188c-8.598,0.001-17.194,0.001-25.792,0.002
	c-0.251-0.463,0.066-0.523,0.396-0.523c8.333-0.005,16.666-0.004,24.998,0.001c0.143,0,0.328,0.034,0.412,0.127
	C248.633,163.864,248.565,164.053,248.557,164.188z"/>
<path fill-rule="evenodd" clip-rule="evenodd" fill="#656566" d="M154.502,286.997c-0.698-1.747-0.7-3.493,0.001-5.24
	C154.703,283.504,154.699,285.25,154.502,286.997z"/>
<path fill-rule="evenodd" clip-rule="evenodd" fill="#D8D9D8" d="M286.787,263.447c11.502,0.054,20.923,9.571,20.815,21.03
	c-0.108,11.488-9.565,20.788-21.104,20.755c-11.535-0.032-20.774-9.429-20.696-21.051
	C265.879,272.535,275.133,263.393,286.787,263.447z"/>
<path fill-rule="evenodd" clip-rule="evenodd" fill="#D8D9D8" d="M99.412,284.254c0.584-2.545,0.655-5.17,1.665-7.661
	c3.596-8.87,12.68-14.233,22.292-13.003c9.347,1.198,16.698,8.817,17.837,18.321c1.353,11.285-6.412,21.512-18.223,23.222
	c-10.328,1.494-20.821-6.033-23.016-16.636c-0.274-1.324,0.052-2.725-0.553-3.998C99.413,284.418,99.412,284.336,99.412,284.254z"/>
<path fill-rule="evenodd" clip-rule="evenodd" fill="#707071" d="M99.412,284.254c0.043,0.082,0.043,0.164,0,0.245
	c-0.057,0.834-0.114,1.669-0.171,2.503c-0.087-0.007-0.175-0.014-0.262-0.021c0-1.897,0-3.794,0-5.691
	c0.09-0.004,0.18-0.008,0.27-0.012C99.303,282.271,99.357,283.262,99.412,284.254z"/>
<path fill-rule="evenodd" clip-rule="evenodd" fill="#7FB5E3" d="M117.624,155.062c10.841-0.012,21.682-0.026,32.522-0.027
	c0.688,0,1.458-0.218,1.997,0.47c-10.676,0.001-21.352,0.009-32.027-0.013C119.278,155.491,118.347,155.814,117.624,155.062z"/>
</svg>
