<?xml version="1.0" encoding="utf-8"?>
<!-- Generator: Adobe Illustrator 16.0.0, SVG Export Plug-In . SVG Version: 6.00 Build 0)  -->
<!DOCTYPE svg PUBLIC "-//W3C//DTD SVG 1.1//EN" "http://www.w3.org/Graphics/SVG/1.1/DTD/svg11.dtd">
<svg version="1.1" id="Layer_1" xmlns="http://www.w3.org/2000/svg" xmlns:xlink="http://www.w3.org/1999/xlink" x="0px" y="0px"
	 width="432px" height="432px" viewBox="0 0 432 432" enable-background="new 0 0 432 432" xml:space="preserve">
<path fill="#757576" d="M310.866,287.956c7.72,1.728,11.339,6.196,11.34,14.002c0,17.508,0.012,35.017-0.021,52.522
	c-0.003,1.571,0.314,2.861,1.234,4.217c2.215,3.259,2.185,6.781,0.338,10.221c-1.835,3.42-5.144,5.239-8.653,5.159
	c-3.712-0.084-7.076-2.104-8.724-5.837c-1.605-3.645-1.341-7.264,1.297-10.329c1.148-1.335,1.617-2.597,1.537-4.276
	c-0.099-2.074-0.138-4.165,0.011-6.232c0.133-1.838-0.393-2.457-2.344-2.428c-7.673,0.116-15.35,0.047-23.023,0.047
	c-16.709,0-33.416,0-50.125,0.006c-0.957,0-1.914,0.061-2.871,0.093c-0.797-0.031-1.594-0.093-2.391-0.093
	c-37.462-0.004-74.926,0.025-112.389-0.068c-2.51-0.007-3.28,0.71-2.917,3.048c0.109,0.702,0.039,1.437,0.013,2.154
	c-0.137,3.8-0.368,7.616,2.324,10.808c0.878,0.667,0.056,1.749,0.608,2.495c-0.001,0.388-0.002,0.775-0.003,1.163
	c-0.546,0.751,0.281,1.84-0.616,2.504c-1.223,2.864-3.151,5.051-6.061,6.289c-0.756,0.553-1.701,0.572-2.535,0.904
	c-0.54-0.002-1.08-0.004-1.62-0.006c-0.849-0.283-1.753-0.396-2.55-0.838c-3.468-1.248-5.477-3.758-6.309-7.287
	c-0.28-1.428-0.275-2.856-0.002-4.285c0.208-1.797,1.175-3.289,2.273-4.578c0.966-1.135,1.253-2.249,1.251-3.666
	c-0.033-17.102-0.02-34.202-0.026-51.303c0-0.797-0.066-1.592-0.102-2.387c-1.708-0.518-3.457-0.19-5.185-0.233
	c-6.258-0.155-12.523,0.235-18.779-0.205c-3.296-0.688-5.204-3.015-5.146-6.246c0.021-1.198,0.005-2.396,0-3.597
	c-0.018-4.351,2.363-6.774,6.814-6.855c2.715-0.049,5.433-0.009,8.149-0.009c19.255,0,38.511,0.002,57.766-0.004
	c1.037,0,2.072-0.06,3.108-0.093c0.695-0.574,1.515-0.336,2.295-0.352c8.198-0.172,16.373,0.561,24.57,0.623
	c4.518,0.034,9.053,0.359,13.586,0.398c0.942,0.009,1.937-0.022,2.629,0.826c-0.539,1.254-1.541,0.221-2.233,0.733
	c2.968-0.596,6.024-0.321,9.029-0.866c1.984-0.184,3.972-0.496,5.915,0.234c0.247,0.148,0.363,0.373,0.347,0.659
	c-0.429,0.497-1.012,0.292-1.536,0.419c2.874-0.979,5.908-0.055,8.802-0.834c1.118-0.188,2.244-0.128,3.368-0.154
	c2.282,0.044,4.563-0.171,6.841-0.042c0.973,0.056,2.111-0.153,2.623,1.081c-2.914,0.777-5.854,0.117-8.215,0.348
	c2.417-0.291,5.426,0.582,8.385-0.466c0.932-0.612,1.992-0.518,3.021-0.524c9.34-0.053,18.658,0.582,27.985,0.818
	c8.136,0.208,16.264,0.868,24.411,0.635c1.318-0.037,2.748-0.293,3.859,0.797c-0.436,1.412-1.75,0.176-2.443,0.81
	c-0.314,0.054,0.15,0.377-0.022,0.106c2.97-0.801,6.058-0.455,9.058-0.945c1.098-0.212,2.189-0.27,3.272,0.079
	c0.259,0.089,0.502,0.211,0.731,0.354c3.201,0.552,6.399,0.482,9.601,0.007c1.119-0.213,2.253-0.137,3.381-0.182
	C307.504,287.393,309.297,286.818,310.866,287.956z"/>
<path fill="#8ABBE5" d="M234.658,221.868c1.848,1.597,4.183,0.991,6.273,1.245c13.75,1.67,27.654,2.406,40.823,7.312
	c8.209,3.058,15.775,7.095,20.892,14.524c4.457,6.477,5.918,13.672,4.42,21.428c-0.84,0.846-1.928,0.668-2.943,0.668
	c-39.234,0.016-78.471,0.016-117.706-0.001c-1.016,0-2.105,0.188-2.943-0.663c-0.278-3.777-0.283-3.928-4.18-3.801
	c-10.959,0.355-20.853-3.417-30.571-7.788c-9.849-4.431-19.021-10.101-28.31-15.581c-11.404-6.729-11.358-19.334-5.771-28.287
	c3.089-4.949,7.732-7.31,13.027-8.863c2.401-0.375,4.801-0.383,7.202,0.005c8.154,3.529,15.824,8.074,24.078,11.405
	c3.892,1.57,7.75,3.208,11.765,4.447c-0.853,0.831-1.458,0.898-4.163,0.473c-0.462-0.011-0.923-0.021-1.385-0.031
	c-0.915-0.553-2,0.084-2.923-0.422c-7.516-0.893-14.362-3.422-20.109-8.464c-1.718-1.507-3.749-2.261-5.773-3.11
	c-1.952-0.374-3.903-0.381-5.854,0.003c-5.34,1.363-9.01,4.395-10.05,10.056c-0.538,0.737,0.047,1.671-0.422,2.421
	c0,0.332,0,0.664,0,0.997c0.461,0.76-0.103,1.692,0.412,2.444c0.036,2.935,1.656,5.243,3.61,7.008
	c8.488,7.666,18.553,12.267,29.717,14.541c0.229,0.047,0.476,0.007,0.714,0.007c0.748,0.54,1.715-0.096,2.459,0.46
	c0.128,0.056,0.26,0.065,0.396,0.03c0.762,0.51,1.718-0.085,2.478,0.436c0.301,0.012,0.601,0.024,0.901,0.036
	c1.083,0.564,2.314-0.094,3.404,0.41c3.853,0.206,7.706,0.201,11.559,0.004c1.099-0.506,2.333,0.142,3.428-0.405
	c0.291-0.011,0.582-0.021,0.873-0.029c0.93-0.53,1.99-0.001,2.941-0.364c0.742-1.178,0.407-2.478,0.369-3.72
	c-0.231-7.568-0.28-15.135,0.084-22.698c0.016-0.322,0.111-0.626,0.266-0.91c0.659-0.628,1.375-0.446,2.1-0.147
	c0.142,0.048,0.286,0.054,0.431,0.02c1.241,0.622,2.65-0.168,3.89,0.464c0.29,0.011,0.579,0.021,0.869,0.031
	c0.931,0.526,2.024-0.097,2.957,0.417c0.463,0.018,0.926,0.035,1.389,0.053c0.917,0.555,2.01-0.095,2.933,0.43
	c0.466,0.016,0.932,0.031,1.398,0.047c0.746,0.518,1.667-0.029,2.427,0.399c0.631,0.026,1.262,0.054,1.893,0.08
	c0.912,0.558,1.996-0.081,2.916,0.421c0.465,0.021,0.93,0.041,1.395,0.062c1.247,0.617,2.664-0.18,3.907,0.47
	c0.136,0.047,0.273,0.052,0.412,0.013c1.247,0.614,2.663-0.18,3.907,0.467c0.137,0.05,0.275,0.053,0.417,0.012
	c1.08,0.582,2.324-0.122,3.407,0.436c0.308,0.014,0.614,0.027,0.921,0.041c0.91,0.559,1.991-0.074,2.91,0.418
	c1.426,0.229,2.85,0.536,4.292,0.121C230.525,221.157,232.605,221.341,234.658,221.868z"/>
<path fill="#E2725D" d="M282.279,287.459c-0.527-0.499-1.19-0.373-1.82-0.388c-8.225-0.192-16.453-0.275-24.672-0.601
	c-11.01-0.433-22.014-0.963-33.034-0.93l-0.011,0.001c-3.174-0.847-6.423-0.173-9.624-0.476c-0.149-0.217-0.129-0.416,0.053-0.594
	c0.146-0.046,0.306-0.1,0.46-0.074c0.239,0.039,0.221-0.053,0-0.02c-3.468,0.516-6.972,0.277-10.454,0.514
	c-0.244-0.023-0.465-0.104-0.667-0.238c-2.072-0.01-4.143-0.02-6.215-0.027c-2.215,0.307-4.43,0.447-6.639-0.055
	c-0.453-0.428-1.022-0.377-1.58-0.391c-7.891-0.184-15.8-0.102-23.666-0.641c-5.959-0.408-11.951,0.122-17.875-0.811
	c-4.655-2.571-9.287-5.188-13.974-7.701c-7.664-4.111-15.368-8.149-23.048-12.231c-9.895-5.26-19.783-10.53-29.671-15.802
	c-9.685-5.163-19.395-10.281-29.032-15.533c-2.867-1.562-4.712-4.137-5.646-7.305c-0.436-1.949-0.613-3.885,0.328-5.756
	c1.052-4.679,4.513-6.622,8.739-7.695c1.285-0.285,2.571-0.604,3.806,0.176c0.368,0.112,0.758,0.181,1.101,0.345
	c2.342,1.125,4.555,2.648,5.798-1.51c0.366-1.225,2.554-1.589,4.28-1.057c2.544,0.783,4.705,2.294,7.033,3.487
	c5.525,2.831,11.056,5.651,16.573,8.497c4.875,2.516,5.367,4.973,1.766,9.15c8.757,4.669,17.489,9.328,26.224,13.982
	c13.817,7.359,27.643,14.703,41.445,22.094c1.385,0.742,2.754,1.095,4.328,1.068c5.593-0.09,11.187-0.078,16.781-0.105
	c0.135,0.045,0.271,0.09,0.409,0.134c0.287,0.076,0.576,0.124,0.872,0.142c31.743,0.069,63.482,0.011,95.222,0.025
	c8.954,0.006,17.908,0.021,26.862-0.015c0.46,0.016,0.927-0.054,1.379,0.087c4.751,0.879,8.102,4.109,9.007,8.691
	c0.833,4.207-1.08,8.553-4.892,11.11c-0.458,0.308-0.906,0.63-1.36,0.944c-1.707-0.001-3.413-0.002-5.12-0.003
	c-0.189-0.168-0.403-0.296-0.644-0.384c-2.043-0.271-4.071,0.228-6.111,0.104c-2.104-0.062-4.208,0.084-6.309-0.082
	c-0.131-0.022-0.261-0.048-0.391-0.071c-1.123-0.002-2.246-0.004-3.368-0.007C286.707,287.811,284.49,287.95,282.279,287.459z"/>
<path fill="#757576" d="M234.658,221.868c-2.166,0.832-4.19,0-6.243-0.529c7.133-3.282,10.278-9.452,12.228-16.6
	c2.492-9.146,7.69-15.055,17.912-16.557c0.859-0.126,1.702-0.361,2.553-0.546c1.113-0.527,2.367,0.115,3.481-0.41
	c0.601-0.026,1.2-0.052,1.8-0.078c5.65-0.44,11.312-0.056,16.965-0.207c2.699-0.072,5.41,0.276,8.101-0.2
	c0.128,0.081,0.248,0.071,0.36-0.031c0.899-0.602,2.012,0.112,2.916-0.465l-0.027,0.014c0.748-0.608,1.734,0.032,2.502-0.478
	c7.465-1.17,14.307-3.766,20.248-8.576c6.614-5.355,9.226-12.673,10.366-20.73c0.109-0.78,0.853-1.392,0.522-2.251
	c0.419-0.804-0.012-1.726,0.354-2.537c-0.158-3.526-0.317-7.052-0.478-10.579c-0.857-0.608-1.923,0.081-2.795-0.444
	c-3.114-0.658-4.69-2.874-4.668-6.08c0.067-8.953,0.133-17.907-0.024-26.857c-0.059-3.32,1.248-5.361,4.221-6.525
	c1.394-0.353,2.812-0.061,4.214-0.168c0.712-0.055,1.688,0.333,1.765-0.936c0.079-1.287-1.086-0.816-1.663-1.176
	c-4.288-0.807-6.204-2.581-6.815-6.312c-0.173-0.699-0.404-1.473,0.651-1.617c1.026-0.14,2.101-0.205,2.278,1.26
	c0.611,2.802,2.654,4.238,5.3,3.758c0.472-0.086,0.822-0.157,1.184-0.598c2.152-2.637,3.385-2.569,5.396,0.179
	c0.132,0.181,0.364,0.288,0.55,0.429c6.229,0.347,12.454,0.394,18.682-0.026c0.054-0.156,0.106-0.312,0.162-0.469
	c-0.459-3.045-0.432-6.092-0.021-9.139c0.308-1.523,1.524-0.819,2.31-0.83c5.66-0.081,5.651-0.052,5.668,5.625
	c0.005,1.607,0.084,3.214,0.129,4.822c1.236,0.493,2.527,0.213,3.789,0.22c6.798,0.034,13.597,0.023,20.395,0.006
	c0.786-0.002,1.602,0.188,2.359-0.202c2.995-0.235,4.061-2.338,4.693-4.857c0.833-0.333,1.668-0.307,2.503-0.009
	c0.559,0.839,0.334,1.65-0.087,2.455c-1.211,2.802-3.159,4.733-6.262,5.302c-8.637-0.027-17.272-0.035-25.909-0.103
	c-1.27-0.01-1.751,0.445-1.625,1.672c0.048,0.475,0.006,0.959,0.006,1.439c0,80.621,0,161.242,0,241.863
	c0.001,3.092,0.007,3.19,3.091,3.074c8.867-0.335,15.467,3.245,19.549,11.189c0.496,0.966,1.304,1.333,2.107,1.83
	c2.938,1.812,4.283,5.046,3.449,8.236c-0.812,3.112-4.015,6.139-7.021,6.005c-2.578-0.115-4.975-1.259-6.492-3.553
	c-1.628-2.459-1.943-5.215-0.386-7.696c1.136-1.81,0.596-2.874-0.573-4.157c-2.393-2.626-5.282-4.042-8.878-4.02
	c-5.759,0.035-11.52,0.035-17.276-0.002c-3.234-0.021-5.902,1.23-8.176,3.43c-1.485,1.438-2.212,2.646-1.02,5.068
	c2.6,5.271-1.006,10.293-6.859,10.94c-2.907,0.321-6.261-2.836-7.104-5.909c-0.871-3.17,0.425-6.641,3.333-8.259
	c1.273-0.708,2.008-1.649,2.697-2.864c3.732-6.582,9.397-10.037,17.001-10.22c0.88-0.021,1.766-0.063,2.639,0.011
	c1.479,0.129,2.345-0.281,2.072-1.971c-0.062-0.391-0.009-0.798-0.009-1.197c0-80.541,0.002-161.083-0.008-241.625
	c-0.001-3.754,0.483-3.237-3.354-3.261c-4.479-0.028-8.958-0.009-13.437-0.004c-0.861,0.001-1.875-0.204-1.852,1.188
	c0.025,1.399,1.07,1.112,1.907,1.138c1.039,0.032,2.085-0.03,3.117,0.066c2.972,0.278,5.236,2.571,5.255,5.55
	c0.059,9.357,0.058,18.716,0.007,28.073c-0.019,3.246-2.13,5.436-5.555,5.752c-1.317,0.122-1.919,0.474-1.748,1.834
	c0.251,2.004-1.205,1.656-2.354,1.634c-1.031-0.02-2.482,0.428-2.241-1.476c0.212-1.676-0.572-1.971-2.067-1.969
	c-1.906,0.002-1.438,1.267-1.492,2.301c-0.396,7.724-0.99,15.441-3.411,22.837c-3.915,11.963-12.835,18.44-24.45,21.933
	c-8.846,2.659-17.871,3.26-27.037,2.993c-6.707-0.196-13.42-0.252-20.051,1.209c-6.311,1.391-10.567,5.031-12.744,11.105
	c-1.104,3.083-2.141,6.189-3.287,9.255C240.479,216.182,238.041,219.391,234.658,221.868z"/>
<path fill="#8ABBE5" d="M97.916,174.714c4.087,0.737,8.008,1.804,11.418,4.406c4.584,3.498,7.369,7.994,8.292,13.673
	c0.088,0.543,0.307,1.066,0.464,1.599c0.326,1.438,0.36,2.875-0.017,4.311c-0.963,5.221-2.915,9.911-6.991,13.548
	c-5.97,5.327-12.823,6.817-20.502,4.897c-8.413-2.104-13.148-7.744-15.388-15.869c-0.288-1.042-0.062-2.063-0.333-3.062
	c-0.354-1.11-0.315-2.223-0.021-3.338c0.458-10.292,8.281-18.645,18.11-19.726c0.863-0.095,1.713-0.305,2.57-0.461
	C96.32,174.366,97.12,174.327,97.916,174.714z"/>
<path fill="#8ABBE5" d="M163.206,240.984c-0.623-0.023-1.246-0.047-1.869-0.07c-0.92-0.562-2.032,0.128-2.95-0.453l-0.208-0.044
	l-0.212,0.021c-0.749-0.539-1.718,0.101-2.462-0.461c-4.696-0.734-9.215-2.098-13.589-3.933c-5.429-2.276-10.42-5.252-15.038-8.956
	c-5.351-4.292-6.418-10.386-2.103-15.478c3.018-3.561,9.776-4.688,14.99-0.064c5.813,5.157,12.794,7.849,20.476,8.779
	c0.752,0.522,1.699-0.07,2.455,0.431c0.459,0.018,0.918,0.034,1.378,0.053c1.416,0.592,2.958-0.137,4.376,0.42
	c0.969,0.002,1.938,0.004,2.907,0.006c1.733-0.582,3.579,0.191,5.309-0.438c0.31-0.014,0.621-0.027,0.931-0.042
	c0.768-0.487,1.714,0.075,2.481-0.418c0.769-0.012,1.537-0.022,2.306-0.035c1.93-0.454,1.147,1.104,1.154,1.761
	c0.067,5.778,0.042,11.56,0.038,17.338c0.04,0.859-0.663,0.854-1.207,1.037h0.013c-1.229,0.68-2.646-0.151-3.879,0.488
	c-0.472,0.02-0.943,0.037-1.415,0.057C172.46,241.297,167.833,241.288,163.206,240.984z"/>
<path fill="#80C2F4" d="M183.474,266.382c41.198-0.001,82.396-0.003,123.593-0.004c0.028,0.146,0.03,0.291,0.003,0.437
	c-0.725,0.705-1.646,0.514-2.504,0.514c-39.555,0.011-79.109,0.011-118.666,0.003c-0.867,0-1.771,0.144-2.55-0.426l0.016-0.068
	C183.373,266.678,183.409,266.525,183.474,266.382z"/>
<path fill="#97C2E8" d="M183.298,240.111c0.016-5.985,0.036-11.971,0.04-17.955c0-0.762,0.226-1.684-0.955-1.855
	c0.16-0.156,0.321-0.314,0.481-0.471c0.63-0.883-0.133-2.004,0.495-2.887l-0.013,0.014c0.175-0.193,0.336-0.184,0.484,0.031
	c-0.002,8.509,0.011,17.018-0.027,25.525c-0.004,0.824,0.538,2.049-1.019,2.224c-0.13-0.183-0.104-0.325,0.104-0.425l-0.012,0.006
	C183.483,242.962,182.764,241.475,183.298,240.111z"/>
<path fill="#FDFDFD" d="M391.279,96.027c-1.783,0.583-3.617,0.238-5.423,0.253c-6.189,0.051-12.382,0.03-18.571,0.007
	c-0.851-0.003-1.749,0.248-2.549-0.284C373.584,96.011,382.432,96.02,391.279,96.027z"/>
<path fill="#FDFDFD" d="M291.453,186.742c-3.939,0.853-7.934,0.4-11.901,0.458c-4.387,0.064-8.774-0.028-13.163-0.052
	c0.49-0.575,1.162-0.441,1.787-0.44C275.936,186.715,283.693,186.729,291.453,186.742z"/>
<path fill="#FDFDFD" d="M75.845,299.535c7.251,0.007,14.503-0.001,21.754,0.041c0.733,0.004,1.598-0.4,2.21,0.396
	c-7.156,0.002-14.313,0.012-21.47-0.012C77.5,299.959,76.573,300.268,75.845,299.535z"/>
<path fill="#FDFDFD" d="M356.488,95.994c-2.97,0.702-5.98,0.258-8.967,0.266c-3.235,0.009-6.491,0.384-9.715-0.24
	C344.034,96.012,350.261,96.003,356.488,95.994z"/>
<path fill="#FDFDFD" d="M163.206,240.984c4.627,0,9.255-0.002,13.882-0.004c-1.647,0.932-3.442,0.435-5.141,0.39
	C169.034,241.293,166.077,241.971,163.206,240.984z"/>
<path fill="#FDFDFD" d="M329.266,98.922c0.775,0.022,1.808-0.586,1.897,0.953c0.081,1.377-0.769,1.303-1.685,1.298
	c-1.51-0.009-3.02,0.018-4.528,0.029c1.227-0.829,2.603-0.227,3.896-0.411c0.589-0.083,1.401,0.259,1.669-0.5
	C330.892,99.224,329.543,99.518,329.266,98.922z"/>
<path fill="#FDFDFD" d="M356.631,86.386c0.007,3.046,0.013,6.093,0.021,9.139C355.805,92.481,355.834,89.434,356.631,86.386z"/>
<path fill="#FDFDFD" d="M134.871,202.068c-2.401-0.001-4.801-0.003-7.202-0.005C130.07,201.287,132.471,201.274,134.871,202.068z"/>
<path fill="#FDFDFD" d="M45.494,218.404c-0.533,1.895-0.439,3.824-0.329,5.756C44.366,222.189,44.093,220.249,45.494,218.404z"/>
<path fill="#FDFDFD" d="M130.506,206.367c1.951-0.713,3.902-0.722,5.854-0.003C134.409,206.365,132.458,206.366,130.506,206.367z"/>
<path fill="#FDFDFD" d="M325.38,92.252c-0.365-0.998-1.127-1.171-2.081-1.067c-0.965,0.105-0.729,0.854-0.85,1.424
	c-0.567-0.861-0.676-1.701,0.584-1.842C324.079,90.65,325.572,90.238,325.38,92.252z"/>
<path fill="#FDFDFD" d="M166.551,218.393c1.371-0.315,2.871,0.514,4.164-0.473c0.39,0.225,0.665,0.714,0.117,0.782
	C169.408,218.88,167.917,219.266,166.551,218.393z"/>
<path fill="#FDFDFD" d="M176.666,220.796c-1.716,0.792-3.537,0.319-5.309,0.438C173.059,220.268,174.902,221.009,176.666,220.796z"
	/>
<path fill="#FDFDFD" d="M183.298,240.111c-0.13,1.402,0.525,2.885-0.421,4.207c-0.236-1.286,0.48-2.695-0.508-3.883
	C182.604,240.114,182.934,240.062,183.298,240.111z"/>
<path fill="#FDFDFD" d="M118.072,198.703c0.006-1.437,0.011-2.874,0.017-4.311C118.82,195.832,118.843,197.269,118.072,198.703z"/>
<path fill="#FDFDFD" d="M96.413,361.907c0.001,1.429,0.001,2.856,0.002,4.284C95.749,364.766,95.753,363.336,96.413,361.907z"/>
<path fill="#A9A9AA" d="M398.39,93.616c-0.017-0.792-0.032-1.584-0.05-2.376c0.32-0.33,0.648-0.329,0.984-0.022
	C399.394,92.166,399.347,93.068,398.39,93.616z"/>
<path fill="#FDFDFD" d="M168.451,221.229c-1.463-0.09-2.977,0.342-4.376-0.42C165.532,220.959,167.064,220.333,168.451,221.229z"/>
<path fill="#FDFDFD" d="M178.502,240.925c1.22-0.745,2.583-0.35,3.879-0.487C181.194,241.441,179.792,240.73,178.502,240.925z"/>
<path fill="#FDFDFD" d="M216.467,220.312c-1.307-0.117-2.676,0.282-3.907-0.469C213.859,220.018,215.262,219.337,216.467,220.312z"
	/>
<path fill="#FDFDFD" d="M212.147,219.833c-1.306-0.12-2.675,0.285-3.906-0.47C209.541,219.538,210.944,218.855,212.147,219.833z"/>
<path fill="#FDFDFD" d="M190.065,217.424c-1.301-0.117-2.664,0.289-3.889-0.465C187.469,217.139,188.865,216.463,190.065,217.424z"
	/>
<path fill="#FDFDFD" d="M58.039,210.885c-1.269-0.059-2.537-0.118-3.806-0.176C55.535,210.054,56.819,209.778,58.039,210.885z"/>
<path fill="#FDFDFD" d="M102.724,373.479c0.988-0.144,1.789,0.285,2.549,0.838C104.315,374.369,103.303,374.583,102.724,373.479z"/>
<path fill="#FDFDFD" d="M106.894,374.323c0.766-0.522,1.574-0.927,2.535-0.904C108.89,374.579,107.863,374.369,106.894,374.323z"/>
<path fill="#FDFDFD" d="M179.112,244.812c-1.077,0.693-2.275,0.359-3.428,0.404C176.743,244.372,177.968,244.934,179.112,244.812z"
	/>
<path fill="#FDFDFD" d="M164.125,245.213c-1.145-0.047-2.336,0.291-3.403-0.41C161.857,244.938,163.076,244.374,164.125,245.213z"/>
<path fill="#FDFDFD" d="M399.324,91.217c-0.328,0.007-0.656,0.015-0.984,0.022c-0.789-0.023-1.577-0.046-2.366-0.07
	C397.101,90.467,398.219,90.403,399.324,91.217z"/>
<path fill="#FDFDFD" d="M264.589,187.226c-1.118,0.489-2.308,0.39-3.481,0.41C262.182,186.765,263.426,187.336,264.589,187.226z"/>
<path fill="#FDFDFD" d="M74.838,194.879c0.007,1.113,0.014,2.225,0.021,3.338C74.121,197.109,74.146,195.996,74.838,194.879z"/>
<path fill="#FDFDFD" d="M220.291,220.759c-1.145-0.075-2.344,0.273-3.408-0.437C218.02,220.467,219.249,219.878,220.291,220.759z"/>
<path fill="#FDFDFD" d="M325.423,140.664c0.94,0.096,1.974-0.393,2.796,0.444C327.286,140.965,326.25,141.47,325.423,140.664z"/>
<path fill="#FDFDFD" d="M294.729,186.246c-0.902,0.588-1.922,0.447-2.916,0.465C292.67,185.831,293.752,186.368,294.729,186.246z"/>
<path fill="#FDFDFD" d="M183.359,216.943c-0.213,0.953,0.432,2.055-0.495,2.887C183.027,218.867,182.46,217.78,183.359,216.943z"/>
<path fill="#FDFDFD" d="M193.891,217.872c-0.998-0.049-2.042,0.233-2.956-0.417C191.925,217.555,193.001,217.047,193.891,217.872z"
	/>
<path fill="#FDFDFD" d="M162.243,217.939c0.985,0.061,2.022-0.237,2.922,0.42C164.188,218.246,163.121,218.751,162.243,217.939z"/>
<path fill="#FDFDFD" d="M198.212,218.354c-0.993-0.033-2.028,0.221-2.932-0.429C196.261,218.039,197.334,217.525,198.212,218.354z"
	/>
<path fill="#FDFDFD" d="M182.889,244.312c-0.022,0.146-0.056,0.285-0.103,0.424c-0.934,0.015-1.868,0.029-2.801,0.045
	C180.837,243.909,181.917,244.445,182.889,244.312z"/>
<path fill="#FDFDFD" d="M158.387,240.461c0.995,0.071,2.045-0.218,2.949,0.453C160.348,240.798,159.26,241.331,158.387,240.461z"/>
<path fill="#FDFDFD" d="M224.122,221.217c-0.981-0.05-2.015,0.238-2.909-0.417C222.186,220.918,223.247,220.417,224.122,221.217z"/>
<path fill="#FDFDFD" d="M206.846,219.302c-0.987-0.028-2.019,0.243-2.915-0.421C204.905,218.998,205.97,218.494,206.846,219.302z"/>
<path fill="#FDFDFD" d="M162.696,220.756c-0.836-0.041-1.72,0.196-2.454-0.431C161.071,220.405,161.987,219.984,162.696,220.756z"/>
<path fill="#FDFDFD" d="M180.078,220.336c-0.747,0.614-1.633,0.4-2.481,0.419C178.317,219.982,179.238,220.402,180.078,220.336z"/>
<path fill="#FDFDFD" d="M120.446,222.285c-0.64-0.73-0.446-1.602-0.412-2.445C120.776,220.553,120.368,221.46,120.446,222.285z"/>
<path fill="#FDFDFD" d="M183.831,216.988c-0.162-0.012-0.323-0.021-0.484-0.031c0.794-0.741,1.593-0.722,2.397-0.018
	C185.106,216.956,184.469,216.973,183.831,216.988z"/>
<path fill="#FDFDFD" d="M120.034,218.844c-0.019-0.835-0.199-1.697,0.422-2.421C120.365,217.238,120.775,218.143,120.034,218.844z"
	/>
<path fill="#FDFDFD" d="M155.505,239.977c0.836,0.067,1.731-0.174,2.462,0.461C157.134,240.352,156.202,240.788,155.505,239.977z"/>
<path fill="#FDFDFD" d="M202.038,218.801c-0.832,0.006-1.695,0.203-2.427-0.398C200.428,218.482,201.324,218.084,202.038,218.801z"
	/>
<path fill="#FDFDFD" d="M156.947,244.301c-0.839-0.046-1.731,0.186-2.459-0.46C155.32,243.928,156.25,243.493,156.947,244.301z"/>
<path fill="#FDFDFD" d="M297.204,185.782c-0.759,0.55-1.64,0.467-2.502,0.478C295.4,185.391,296.354,185.858,297.204,185.782z"/>
<path fill="#FDFDFD" d="M97.916,174.714c-0.799-0.007-1.599-0.015-2.398-0.022C96.323,174,97.123,173.988,97.916,174.714z"/>
<path fill="#FDFDFD" d="M116.109,363.463c-0.203-0.832-0.405-1.664-0.608-2.495C116.604,361.58,115.998,362.607,116.109,363.463z"/>
<path fill="#FDFDFD" d="M328.694,151.687c0.047,0.868,0.132,1.741-0.354,2.536C328.382,153.367,327.999,152.452,328.694,151.687z"/>
<path fill="#FDFDFD" d="M115.489,367.13c0.206-0.834,0.411-1.668,0.617-2.503C115.995,365.484,116.612,366.521,115.489,367.13z"/>
<path fill="#FDFDFD" d="M159.821,244.768c-0.843-0.048-1.737,0.197-2.478-0.438C158.182,244.402,159.108,243.977,159.821,244.768z"
	/>
<path fill="#B79EA7" d="M183.352,266.904c1.357-0.016,2.715-0.045,4.073-0.045c39.404-0.002,78.808-0.002,118.21-0.004
	c0.479,0,0.958-0.026,1.438-0.041c0.348,0.131,0.694,0.264,1.042,0.396c-0.317,0.051-0.634,0.103-0.949,0.151
	c-0.841,0.394-1.733,0.199-2.599,0.199c-39.551,0.012-79.099,0.012-118.646-0.004c-0.855,0-1.759,0.262-2.569-0.262
	C183.338,267.165,183.338,267.034,183.352,266.904z"/>
<path fill="#FEFEFE" d="M211.436,300.989c31.669,0,63.339,0.021,95.009-0.046c2.134-0.004,2.833,0.453,2.803,2.725
	c-0.133,10.075-0.096,20.153-0.022,30.229c0.015,1.777-0.313,2.479-2.32,2.479c-63.819-0.057-127.639-0.053-191.458-0.011
	c-1.752,0.001-2.325-0.401-2.308-2.249c0.093-10.235,0.105-20.475-0.006-30.709c-0.023-2.078,0.656-2.461,2.576-2.458
	C147.616,301.006,179.525,300.989,211.436,300.989z"/>
<path fill="#B77468" d="M202.511,284.655c0.188-0.034,0.376-0.067,0.564-0.102c3.34-0.233,6.68-0.366,10.015,0.07
	c0.006,0.147,0.015,0.296,0.028,0.444c-1.135,0.021-2.27,0.043-3.405,0.063c-2.384,0.297-4.767,0.372-7.145-0.056
	C202.556,284.938,202.537,284.795,202.511,284.655z"/>
<path fill="#687478" d="M189.657,284.573c2.213,0.019,4.426,0.036,6.639,0.055c-3.153,1.07-6.369,0.149-10.126,0.562
	C187.656,284.336,188.698,284.788,189.657,284.573z"/>
<path fill="#677479" d="M202.569,285.078c2.382,0.02,4.764,0.037,7.146,0.055c-3.142,1.008-6.345,0.146-9.855,0.508
	C200.908,284.796,201.788,285.257,202.569,285.078z"/>
<path fill="#697478" d="M282.279,287.459c2.216,0.02,4.431,0.037,6.646,0.057c-3.151,1.053-6.364,0.147-9.563,0.099
	C280.335,287.562,281.307,287.511,282.279,287.459z"/>
<path fill="#677478" d="M302.365,288.02c-3.359,0.68-6.715,0.778-10.064-0.064c2.153-0.934,4.42-0.245,6.622-0.457
	C300.073,287.654,301.329,287.109,302.365,288.02z"/>
<path fill="#697478" d="M222.753,285.542c-2.993,1.137-6.06,0.19-9.094,0.002c3.026,0,6.055,0,9.083-0.001L222.753,285.542z"/>
<path fill="#A58179" d="M299.029,287.936c-2.243,0.006-4.485,0.014-6.729,0.02c0-0.145-0.003-0.289-0.008-0.434l0.038-0.121
	c2.096-0.281,4.199-0.096,6.3-0.106C298.932,287.402,299.064,287.617,299.029,287.936z"/>
<path fill="#BB7466" d="M299.029,287.936c-0.011-0.131-0.018-0.261-0.02-0.391c0.116-0.083,0.233-0.166,0.351-0.249
	c2.125,0.063,4.264-0.304,6.373,0.214c0,0.147,0.004,0.297,0.013,0.443c-1.127,0.021-2.254,0.044-3.381,0.066
	C301.253,287.991,300.141,287.963,299.029,287.936z"/>
<path fill="#E87258" d="M183.35,267.296c41.271,0.021,82.542,0.044,123.814,0.065c-0.723,0.757-1.657,0.441-2.497,0.441
	c-39.62,0.018-79.24,0.018-118.861,0C184.975,267.804,184.024,268.148,183.35,267.296z"/>
<path fill="#F07159" d="M213.09,284.625c-3.338-0.023-6.678-0.047-10.016-0.07c4.085-0.992,8.217-0.084,12.331-0.318
	C214.7,284.812,213.862,284.52,213.09,284.625z"/>
<path fill="#E67B66" d="M299.011,287.545c-2.228-0.048-4.454-0.096-6.68-0.145c2.187-0.832,4.459-0.176,6.682-0.385
	c0.158,0.101,0.211,0.199,0.159,0.299c-0.053,0.102-0.104,0.15-0.158,0.15L299.011,287.545z"/>
<path fill="#F07159" d="M299.014,287.466c0-0.149-0.001-0.3-0.001-0.45c2.234,0.25,4.545-0.549,6.722,0.494
	C303.493,287.495,301.254,287.48,299.014,287.466z"/>
<path fill="#E2725D" d="M334.618,128.154c-4.304,0.028-7.266-3.846-5.961-7.929c1.169-3.657,3.146-6.933,5.115-10.202
	c0.607-1.011,1.101-0.922,1.648,0.059c1.86,3.326,3.948,6.54,5.056,10.235C341.67,124.295,338.799,128.127,334.618,128.154z"/>
<path fill="#40403F" d="M334.67,101.218c-0.681,0.051-1.012-0.291-1.031-0.945c-0.02-0.628-0.056-1.301,0.816-1.393
	c0.666-0.07,1.01,0.281,1.026,0.943C335.497,100.451,335.546,101.107,334.67,101.218z"/>
</svg>
