<?xml version="1.0" encoding="utf-8"?>
<!-- Generator: Adobe Illustrator 16.0.0, SVG Export Plug-In . SVG Version: 6.00 Build 0)  -->
<!DOCTYPE svg PUBLIC "-//W3C//DTD SVG 1.1//EN" "http://www.w3.org/Graphics/SVG/1.1/DTD/svg11.dtd">
<svg version="1.1" id="Layer_1" xmlns="http://www.w3.org/2000/svg" xmlns:xlink="http://www.w3.org/1999/xlink" x="0px" y="0px"
	 width="432px" height="432px" viewBox="0 0 432 432" enable-background="new 0 0 432 432" xml:space="preserve">
<path fill-rule="evenodd" clip-rule="evenodd" fill="#827C6F" d="M272.625,256.717c1.7,6.674,2.997,13.151,3.494,19.79
	c1.726,23.047-3.483,44.399-16.352,63.555c-18.215,27.114-43.749,42.61-76.39,45.393c-52.545,4.479-99.208-31.901-108.329-84.002
	c-7.327-41.852,13.357-84.873,50.663-105.439c12.27-6.765,25.316-11.011,39.295-12.24c1.456-0.128,1.883-0.664,1.877-2.07
	c-0.043-11.198,0.02-22.396-0.056-33.594c-0.019-2.816-1.215-5.445-1.943-8.134c-4.386-16.191-8.864-32.357-13.229-48.553
	c-0.492-1.823-1.154-2.581-3.206-2.542c-7.756,0.145-15.517,0.096-23.275,0.042c-4.327-0.029-7.749-2.995-8.184-6.913
	c-0.504-4.55,1.827-8.183,6.077-9.324c0.907-0.244,1.897-0.241,2.849-0.243c9.998-0.016,19.997-0.01,29.995-0.01
	c5.534,0,8.229,2.07,9.672,7.344c5.077,18.57,10.198,37.128,15.209,55.715c0.472,1.75,1.214,2.201,2.939,2.195
	c20.396-0.059,40.792-0.063,61.189-0.026c9.39,0.018,17.662,2.811,23.782,10.326c4.433,5.442,6.404,11.915,7.224,18.768
	c0.322,2.693,0.482,5.417,0.528,8.129c0.088,5.237-3.325,8.711-8.597,8.864c-1.838,0.054-3.679,0.011-5.519,0.011
	c-23.676-0.002-47.352-0.004-71.028-0.006c-0.631,0-1.262,0-1.893,0c4.262,1.082,8.542,1.907,12.737,3.09
	c14.94,4.213,28.261,11.419,39.852,21.747c1.652,1.472,3.265,2.148,5.524,2.137c19.597-0.093,39.193-0.048,58.79-0.057
	c5.005-0.002,9.908,0.663,14.552,2.565c10.009,4.101,14.964,12.005,16.563,22.371c0.416,2.696,0.544,5.403,0.543,8.126
	c-0.008,23.437,0.027,46.872-0.059,70.308c-0.007,2.07,0.661,2.812,2.571,3.406c15.676,4.87,26.11,19.588,25.04,35.973
	c-1.154,17.673-13.559,30.977-30.54,33.515c-18.435,2.756-36.008-9.259-40.146-27.446c-4.136-18.177,6.456-36.543,24.386-42.081
	c1.753-0.542,2.378-1.163,2.37-3.049c-0.077-18.396-0.08-36.793,0.001-55.189c0.009-2.014-0.552-2.507-2.524-2.495
	c-14.717,0.083-29.435,0.045-44.151,0.045C274.223,256.717,273.518,256.717,272.625,256.717z"/>
<path fill-rule="evenodd" clip-rule="evenodd" fill="#FDFDF5" d="M91.714,301.398c-0.101-1.99-0.419-3.946-0.944-5.868
	c-0.419-0.402-0.367-0.968-0.505-1.468c-0.037-1.092,0.002-2.188-0.278-3.26c-0.219-4.409-0.735-8.825,0.336-13.199
	c0.895-6.153,1.675-12.34,3.732-18.246c11.434-32.835,34.226-52.464,68.454-58.748c1.875-0.344,3.773-0.571,5.66-0.854
	c4.369-1.074,8.779-0.556,13.179-0.34c1.072,0.27,2.17,0.25,3.265,0.278c0.501,0.135,1.071,0.079,1.466,0.517
	c6.354,1.195,12.723,2.373,18.732,4.853c31.104,12.835,49.814,35.729,54.347,69.156c5.698,42.021-21.965,82.141-62.953,92.463
	c-44.733,11.266-89.673-14.442-102.674-58.73c-0.088-0.302-0.252-0.581-0.381-0.871C92.042,305.347,91.132,303.562,91.714,301.398z"
	/>
<path fill-rule="evenodd" clip-rule="evenodd" fill="#FDFDF5" d="M250.105,154.929c5.087,1.205,8.472,5.718,9.066,12.084
	c-0.271,0.179-0.57,0.26-0.895,0.244c-23.655-0.073-47.31-0.004-70.965-0.046c-1.323-0.002-2.744,0.345-3.912-0.663
	c0-3.84-0.001-7.682-0.001-11.522c0.848-0.809,1.923-0.667,2.945-0.668c19.211-0.015,38.422,0.007,57.632-0.032
	C246.055,154.321,248.034,155.034,250.105,154.929z"/>
<path fill-rule="evenodd" clip-rule="evenodd" fill="#FDFDF5" d="M322.439,355.217c2.141,3.747,5.584,5.326,9.414,4.318
	c3.89-1.023,6.123-4.045,6.135-8.345c0.013-5.035,0.038-10.071-0.019-15.106c-0.018-1.609,0.412-1.763,1.757-0.994
	c7.155,4.093,10.763,12.851,8.712,21.321c-1.911,7.894-9.455,14.033-17.537,14.273c-9.445,0.28-17.158-5.229-19.639-14.026
	c-2.408-8.542,1.378-17.453,9.275-21.835c0.242,0.166,0.417,0.385,0.528,0.655c0.462,4.443,0.099,8.901,0.213,13.353
	c0.024,0.954-0.044,1.911,0.099,2.854c0.078,0.23,0.185,0.453,0.325,0.655c0.261,0.391,0.334,0.863,0.537,1.281
	C322.517,354.127,322.539,354.664,322.439,355.217z"/>
<path fill-rule="evenodd" clip-rule="evenodd" fill="#FDFDF5" d="M309.102,227.479c6.715,0.205,10.688,3.332,11.576,9.109
	c-0.184,3.468-0.277,3.582-3.762,3.585c-16.045,0.014-32.09,0.005-48.134,0.005c-0.798,0-1.6,0.026-2.369-0.246
	c-2.267-3.816-4.533-7.634-6.8-11.451c0.577-1.248,1.729-0.966,2.725-0.966c15.35,0.005,30.7-0.061,46.052,0.03
	C308.633,227.546,308.865,227.513,309.102,227.479z"/>
<path fill-rule="evenodd" clip-rule="evenodd" fill="#FDFDFD" d="M309.102,227.479c-0.774,0.856-1.799,0.484-2.708,0.485
	c-14.508,0.024-29.017,0.017-43.524,0.018c-1.11,0-2.242-0.135-3.256,0.499c-0.399-0.268-0.799-0.535-1.226-0.822
	c0.803-0.805,1.464-0.51,2.042-0.511c14.798-0.021,29.597-0.021,44.395-0.007C306.254,227.143,307.705,226.997,309.102,227.479z"/>
<path fill-rule="evenodd" clip-rule="evenodd" fill="#9D988B" d="M258.671,166.952c0.167,0.021,0.334,0.041,0.501,0.061
	c0.002,0.164,0.004,0.328,0.007,0.492c-0.667,0.403-1.404,0.225-2.108,0.225c-23.873,0.01-47.746,0.01-71.619,0
	c-0.704,0-1.442,0.181-2.107-0.228c0.007-0.172,0.015-0.344,0.022-0.515c0.602-0.313,1.251-0.188,1.881-0.189
	c23.844-0.006,47.687-0.006,71.531-0.001C257.411,166.797,258.057,166.696,258.671,166.952z"/>
<path fill-rule="evenodd" clip-rule="evenodd" fill="#797264" d="M183.344,167.502c25.278,0,50.556,0.001,75.834,0.003
	c-0.707,0.786-1.646,0.466-2.483,0.467c-23.623,0.017-47.247,0.017-70.87,0C184.988,167.972,184.049,168.293,183.344,167.502z"/>
<path fill-rule="evenodd" clip-rule="evenodd" fill="#FEFEFE" d="M258.671,166.952c-12.79,0.024-25.58,0.063-38.37,0.07
	c-12.312,0.006-24.623-0.022-36.934-0.035c-0.046-0.151-0.035-0.297,0.034-0.439c24.25,0,48.501-0.004,72.752,0.011
	C256.997,166.56,257.92,166.263,258.671,166.952z"/>
<path fill-rule="evenodd" clip-rule="evenodd" fill="#FDFDFD" d="M250.105,154.929c-0.229,0.363-0.565,0.595-0.989,0.543
	c-8.097-0.993-16.225-0.336-24.336-0.411c-13.792-0.126-27.587-0.035-41.381-0.036c-0.07-0.155-0.071-0.31-0.002-0.465
	c0.843-0.818,1.919-0.684,2.943-0.685c19.071-0.014,38.143-0.012,57.214-0.005c1.583,0,3.127,0.314,4.67,0.627
	C248.875,154.544,249.549,154.481,250.105,154.929z"/>
<path fill-rule="evenodd" clip-rule="evenodd" fill="#EAE7DE" d="M248.225,154.498c-18.578,0.016-37.158,0.032-55.737,0.049
	c-3.03,0.002-6.061,0.009-9.091,0.013c-0.061-0.148-0.072-0.301-0.036-0.458c0.737-0.665,1.651-0.507,2.515-0.507
	c19.661,0.007,39.322-0.041,58.983,0.019c0.481,0.026,0.922,0.188,1.346,0.408c0.169,0.004,0.339,0.009,0.508,0.013
	c0.455-0.244,0.9-0.364,1.302,0.097C248.089,154.252,248.158,154.374,248.225,154.498z"/>
<path fill-rule="evenodd" clip-rule="evenodd" fill="#7B7567" d="M246.205,154.022c-0.318-0.008-0.636-0.015-0.953-0.023
	c-0.85-0.335-1.737-0.17-2.605-0.171c-18.905-0.011-37.811-0.005-56.717-0.02c-0.861,0-1.756,0.22-2.585-0.221
	c0.624-0.734,1.477-0.47,2.24-0.47c19.371-0.013,38.741-0.011,58.112-0.008C244.638,153.11,245.661,152.918,246.205,154.022z"/>
<path fill-rule="evenodd" clip-rule="evenodd" fill="#90897D" d="M183.345,153.588c19.716,0,39.433-0.005,59.148,0.015
	c0.923,0.001,1.928-0.329,2.759,0.396c-17.912,0.022-35.823,0.044-53.735,0.069c-2.718,0.004-5.438,0.023-8.156,0.035
	C183.356,153.931,183.35,153.76,183.345,153.588z"/>
<path fill-rule="evenodd" clip-rule="evenodd" fill="#FEFEFD" d="M266.413,239.932c0.815-0.771,1.826-0.413,2.743-0.415
	c15.56-0.023,31.12-0.06,46.681,0.029c2.402,0.013,4.465,0.07,4.841-2.958c0.164,0.637,0.328,1.273,0.492,1.91
	c0.497,1.068,0.118,1.69-0.998,1.891c-0.71,0.127-1.435,0.067-2.152,0.068c-16.216,0.002-32.433,0.005-48.648-0.007
	c-1.022-0.001-2.089,0.198-3.04-0.399L266.413,239.932z"/>
<path fill-rule="evenodd" clip-rule="evenodd" fill="#B3AFA3" d="M266.331,240.051c17.434-0.023,34.868-0.041,52.302-0.084
	c1.071-0.002,2.579,0.544,2.537-1.469c0.129,0.018,0.258,0.038,0.386,0.061c0.339,0.646,0.453,1.283-0.07,1.896l-0.205-0.008
	l-0.201,0.033c-0.594,0.343-1.247,0.206-1.875,0.207c-16.987,0.007-33.976,0.007-50.963-0.001c-0.626-0.001-1.281,0.149-1.868-0.223
	C266.352,240.327,266.338,240.189,266.331,240.051z"/>
<path fill-rule="evenodd" clip-rule="evenodd" fill="#7E7769" d="M266.373,240.464c18.235,0.006,36.472,0.011,54.706,0.017
	c-0.404,0.513-0.979,0.458-1.534,0.458c-17.476,0.002-34.95,0.002-52.426-0.001c-0.23,0-0.468-0.023-0.686-0.092
	C266.379,240.828,266.392,240.597,266.373,240.464z"/>
<path fill-rule="evenodd" clip-rule="evenodd" fill="#817B6D" d="M186.08,200.211c-0.437-0.038-0.873-0.076-1.31-0.114
	c-0.977-0.479-2.08,0.05-3.064-0.38c-4.512,0.013-9.024,0.026-13.536,0.039c-0.853-0.064-1.707-0.129-2.561-0.194
	c7.382-1.317,14.724-1.059,22.061,0.48C187.14,200.099,186.61,200.155,186.08,200.211z"/>
<path fill-rule="evenodd" clip-rule="evenodd" fill="#817B6D" d="M90.324,277.604c-0.013,4.519-0.026,9.036-0.039,13.555
	c0.439,0.976-0.101,2.074,0.382,3.044c0.034,0.442,0.069,0.886,0.104,1.328c-0.152,0.511,0.154,1.121-0.37,1.612
	c-1.322-7.373-1.588-14.716-0.267-22.1C90.197,275.896,90.26,276.75,90.324,277.604z"/>
<path fill-rule="evenodd" clip-rule="evenodd" fill="#7D7769" d="M322.439,355.217c-0.56-0.315-0.373-0.88-0.452-1.356
	c-1.224-4.862-0.421-9.81-0.576-14.715c-0.054-1.697-0.513-3.519,0.641-5.094c0.432,0.328,0.466,0.798,0.481,1.287
	c0.199,6.449-0.422,12.913,0.351,19.353C322.902,354.847,322.595,355.041,322.439,355.217z"/>
<path fill-rule="evenodd" clip-rule="evenodd" fill="#8F887B" d="M322.052,334.052c-0.021,6.604-0.043,13.206-0.064,19.809
	c-0.149-0.359-0.3-0.72-0.449-1.079c-0.629-0.853-0.431-1.844-0.436-2.786c-0.019-4.238,0.004-8.477-0.017-12.715
	c-0.006-0.939,0.214-1.938-0.479-2.766C320.962,333.967,321.522,334.058,322.052,334.052z"/>
<path fill-rule="evenodd" clip-rule="evenodd" fill="#E6E4DB" d="M320.607,334.515c1.331,0.025,0.947,1.047,0.949,1.748
	c0.015,5.506-0.008,11.012-0.019,16.519c-0.14-0.013-0.278-0.018-0.418-0.013c-0.575-3.132-0.105-6.293-0.261-9.437
	c-0.136-2.749,0.288-5.516-0.248-8.254c-0.039-0.08-0.063-0.165-0.073-0.255C320.536,334.715,320.559,334.612,320.607,334.515z"/>
<path fill-rule="evenodd" clip-rule="evenodd" fill="#7D7769" d="M182.511,166.413c0-3.944,0-7.888,0-11.832
	c0.079,0,0.159,0.001,0.238,0.001c0,3.957,0,7.914,0,11.87C182.67,166.438,182.59,166.426,182.511,166.413z"/>
<path fill-rule="evenodd" clip-rule="evenodd" fill="#807A6C" d="M91.714,301.398c-0.212,2.069,1.118,3.749,1.437,5.685
	c-0.028,0.311-0.057,0.621-0.084,0.933C92.305,305.867,90.471,303.942,91.714,301.398z"/>
<path fill-rule="evenodd" clip-rule="evenodd" fill="#7B7567" d="M248.015,154.131c-0.434-0.032-0.868-0.064-1.302-0.097
	c0.679-0.791,1.535-0.294,2.422-0.49C248.876,154.296,248.342,153.962,248.015,154.131z"/>
<path fill-rule="evenodd" clip-rule="evenodd" fill="#777062" d="M321.485,240.455c0.023-0.632,0.047-1.265,0.07-1.896
	C322.453,239.226,322.131,239.846,321.485,240.455z"/>
<path fill-rule="evenodd" clip-rule="evenodd" fill="#827C6F" d="M183.947,358.12c-1.121,0.522-2.308,0.443-3.492,0.387
	c-3.671-0.382-7.342-0.352-11.015-0.016c-11.156-0.528-21.541-3.807-31.09-9.427c-20.927-12.314-33.335-30.586-36.941-54.619
	c-5.748-38.31,21.262-75.842,59.479-82.873c39.63-7.291,77.012,16.773,86.479,55.706c0.925,3.801,1.684,7.647,1.693,11.593
	c-0.302,3.828-0.272,7.657-0.019,11.486c0.077,1.027,0.123,2.051-0.36,3.012c-0.426-0.395-0.357-0.845-0.286-0.989
	c0.084,0.399-0.241,1.13,0.215,1.832c-0.953,9.61-4.033,18.561-8.878,26.842c-11.965,20.453-29.689,32.75-53.046,36.875
	c-0.622,0.11-1.269,0.082-1.904,0.119c-0.243-0.26-0.568-0.264-0.878-0.237c-0.424,0.036-0.875-0.142-1.467,0.24
	C183.104,357.752,183.557,357.688,183.947,358.12z"/>
<path fill-rule="evenodd" clip-rule="evenodd" fill="#7E786A" d="M249.043,290.357c-0.694-3.83-0.719-7.659,0.019-11.486
	C249.446,282.7,249.424,286.529,249.043,290.357z"/>
<path fill-rule="evenodd" clip-rule="evenodd" fill="#797264" d="M169.44,358.491c3.673-0.714,7.344-0.735,11.015,0.016
	C176.783,358.784,173.112,358.792,169.44,358.491z"/>
<path fill-rule="evenodd" clip-rule="evenodd" fill="#827C6F" d="M181.706,199.717c1.028,0.07,2.127-0.424,3.064,0.38
	C183.729,200.132,182.686,200.175,181.706,199.717z"/>
<path fill-rule="evenodd" clip-rule="evenodd" fill="#827C6F" d="M90.667,294.202c-0.801-0.93-0.312-2.021-0.382-3.043
	C90.756,292.13,90.687,293.169,90.667,294.202z"/>
<path fill-rule="evenodd" clip-rule="evenodd" fill="#746E5F" d="M248.611,294.212c-0.738-0.732-0.51-1.565-0.202-2.841
	c0.13,0.949,0.201,1.473,0.273,1.998C248.659,293.65,248.635,293.931,248.611,294.212z"/>
<path fill-rule="evenodd" clip-rule="evenodd" fill="#746D5E" d="M183.947,358.12c-0.527-0.075-1.055-0.15-1.971-0.282
	c1.241-0.31,2.074-0.535,2.807,0.21C184.505,358.071,184.226,358.096,183.947,358.12z"/>
<path fill-rule="evenodd" clip-rule="evenodd" fill="#FEFEFE" d="M320.611,335.078c0.844,0.681,0.455,1.626,0.463,2.446
	c0.046,5.081,0.036,10.162,0.046,15.244c-0.823-0.683-0.486-1.622-0.492-2.452C320.598,345.237,320.611,340.158,320.611,335.078z"/>
<path fill-rule="evenodd" clip-rule="evenodd" fill="#FEFEFE" d="M175.091,220.223c14.837,0.017,28.026,4.733,39.771,13.78
	c1.851,1.425,1.666,2.202,0.106,3.534c-1.516,1.294-2.893,2.762-4.245,4.231c-2.084,2.266-2.132,5.101-0.208,7.1
	c2.067,2.149,4.892,2.197,7.253,0.014c1.701-1.573,3.352-3.212,4.908-4.927c0.942-1.037,1.487-1,2.362,0.097
	c7.608,9.537,12.409,20.31,13.86,32.42c2.127,17.756-2.484,33.704-13.381,47.882c-1.235,1.608-2.034,1.801-3.381,0.192
	c-1.33-1.588-2.869-3.01-4.389-4.427c-2.195-2.049-5.131-2.077-7.112-0.15c-1.986,1.932-2.054,4.898-0.041,7.105
	c1.561,1.711,3.17,3.399,4.914,4.919c1.395,1.215,0.808,1.828-0.306,2.71c-8.031,6.365-17.006,10.769-27.061,12.765
	c-19.578,3.887-37.224-0.521-53.043-12.613c-1.497-1.145-1.716-1.879-0.186-3.156c1.589-1.327,3.011-2.867,4.433-4.382
	c2.219-2.363,2.275-5.172,0.223-7.278c-1.972-2.023-4.954-1.991-7.285,0.171c-1.641,1.522-3.258,3.082-4.747,4.749
	c-1.049,1.173-1.632,1.03-2.541-0.171c-15.695-20.746-18.541-43.098-8.36-67.038c2.104-4.946,5.08-9.404,8.423-13.629
	c1.009-1.274,1.54-1.128,2.508-0.059c1.5,1.658,3.107,3.227,4.744,4.753c2.353,2.195,5.248,2.223,7.277,0.155
	c2.036-2.072,1.961-4.912-0.268-7.272c-1.536-1.627-3.081-3.261-4.761-4.733c-1.216-1.065-0.954-1.603,0.185-2.507
	c9.281-7.38,19.736-12.013,31.489-13.688C169.17,220.351,172.115,220.14,175.091,220.223z"/>
<path fill-rule="evenodd" clip-rule="evenodd" fill="#E2725D" d="M175.375,247.602c20.361,0.17,36.879,16.935,36.668,37.214
	c-0.21,20.204-16.95,36.773-37.042,36.665c-20.482-0.11-37.047-16.879-36.834-37.287
	C138.381,263.729,154.955,247.43,175.375,247.602z"/>
<path fill-rule="evenodd" clip-rule="evenodd" fill="#8ABBE5" d="M175.06,257.331c3.604,0.586,7.228,0.914,10.664,2.426
	c10.616,4.673,17.324,15.763,16.245,27.172c-1.111,11.756-9.963,21.622-21.54,24.007c-15.022,3.095-30.131-7.543-32.061-22.573
	c-2.02-15.738,9.23-29.634,24.853-30.711c0.543-0.038,1.077-0.207,1.616-0.315L175.06,257.331z"/>
<path fill-rule="evenodd" clip-rule="evenodd" fill="#EA694E" d="M175.06,257.331c0,0-0.224,0.004-0.224,0.005
	c-0.836-0.065-1.674-0.131-2.511-0.196c0.007-0.085,0.014-0.169,0.021-0.254c1.895,0,3.79,0,5.684,0
	c0.004,0.088,0.008,0.176,0.012,0.264C177.048,257.21,176.054,257.271,175.06,257.331z"/>
</svg>
