<?xml version="1.0" encoding="utf-8"?>
<!-- Generator: Adobe Illustrator 16.0.0, SVG Export Plug-In . SVG Version: 6.00 Build 0)  -->
<!DOCTYPE svg PUBLIC "-//W3C//DTD SVG 1.1//EN" "http://www.w3.org/Graphics/SVG/1.1/DTD/svg11.dtd">
<svg version="1.1" id="Layer_1" xmlns="http://www.w3.org/2000/svg" xmlns:xlink="http://www.w3.org/1999/xlink" x="0px" y="0px"
	 width="432px" height="432px" viewBox="0 0 432 432" enable-background="new 0 0 432 432" xml:space="preserve">
<path fill-rule="evenodd" clip-rule="evenodd" fill="#445A6A" d="M208.769,237.146c-7.492-1.716-13.607-5.403-17.524-12.239
	c-1.366-2.385-2.308-4.917-2.543-7.666c-0.3-3.51,1.494-6.424,4.468-7.383c3.318-1.07,6.187,0.096,8.031,3.449
	c1.075,1.953,1.861,4.062,2.895,6.041c1.002,1.917,2.189,3.727,4.14,4.859c2.492,0.431,4.717,1.876,7.312,1.909
	c1.416,0.387,2.831,0.378,4.245-0.006c1.056-0.211,2.141-0.252,3.182-0.541c4.127-1.138,7.547-3.117,8.779-7.577
	c0.917-3.321-0.337-6.629-3.218-8.582c-1.726-1.17-3.586-2.089-5.617-2.63c-3.467-0.933-6.956-1.771-10.439-2.632
	c-1.327-0.328-2.601-0.758-3.684-1.63c-1.922-0.751-3.865-1.453-5.763-2.262c-10.883-4.638-15.029-13.172-11.942-24.525
	c0.454-4.501,3.63-7.155,6.832-9.646c2.535-1.973,5.522-3.23,8.719-3.823c1.622-0.3,2.461-1.016,2.608-2.821
	c0.168-2.065,0.845-4.067,2.19-5.752c3.556-2.904,6.323-2.903,9.626-0.006c1.36,1.475,2.047,3.314,2.133,5.227
	c0.088,1.949,1.199,2.315,2.727,2.629c5.941,1.217,11.199,3.696,15.229,8.411c0.848,0.991,1.597,1.979,1.696,3.327
	c0.433,1.442,0.992,2.862,1.271,4.334c0.557,2.936-0.108,5.587-2.506,7.53c-2.284,1.851-4.817,1.839-7.404,0.609
	c-1.175-0.249-1.85-1.073-2.522-2.001c-1.601-2.208-2.458-4.863-4.251-6.947c-5.732-5.647-16.015-5.403-21.477,0.52
	c-2.113,3.494-1.458,6.552,1.887,8.832c1.797,1.225,3.798,1.974,5.874,2.561c1.702,0.639,3.479,0.996,5.243,1.405
	c2.213,0.616,4.469,1.066,6.659,1.761c0.815,0.258,1.729,0.356,2.276,1.155c2.366,0.918,4.765,1.762,7.095,2.767
	c7.419,3.198,12.04,8.544,12.488,16.878c0.444,8.241-2.428,15.011-9.283,19.853c-4.345,3.068-9.3,4.485-14.513,5.14
	c-0.983,0.282-0.899,1.191-1.146,1.92c-1.189,3.503-3.295,5.003-6.753,4.84c-2.929-0.139-5.248-2.247-5.995-5.554
	C209.626,238.152,209.556,237.464,208.769,237.146z"/>
<path fill-rule="evenodd" clip-rule="evenodd" fill="#C6C5C5" d="M208.769,237.146c1.473-0.147,1.322,1.051,1.597,1.912
	c1.105,3.46,2.968,4.848,6.255,4.771c2.796-0.064,4.345-1.618,5.281-4.097c0.32-0.85,0.15-2.286,1.783-2.06
	c-0.551,0.676-0.51,1.476-0.509,2.28c0.014,37.108,0.021,74.215,0.03,111.323c-0.285,0.146,0.138,0.105-0.169,0.161
	c-4.76,0.856-9.518,1.09-14.261-0.12c0.552-0.866,0.448-1.837,0.448-2.792c0-36.198,0-72.397-0.001-108.596
	C209.224,238.978,209.359,238.002,208.769,237.146z"/>
<path fill-rule="evenodd" clip-rule="evenodd" fill="#C6C5C5" d="M211.695,154.09c-1.023,1.908-1.903,3.902-1.896,6.085
	c0.005,1.646-0.782,2.144-2.21,2.451c-5.646,1.217-10.502,3.789-14.062,8.497c-1.065,1.41-1.684,3.041-2.437,4.608
	c0-1.189-0.551-2.122-1.315-2.988c-2.162-2.452-3.833-5.293-6.132-7.648c-1.55-1.589-1.938-3.701-1.564-5.776
	c0.304-1.683,0.276-3.337,0.276-5.003c0.013-27.102,0.006-54.205,0.003-81.307c0.172-0.161,0.301-0.409,0.548-0.438
	c3.999-0.487,7.999-0.898,11.963,0.259c0.439,0.734,0.318,1.547,0.316,2.34c-0.053,24.715-0.006,49.43-0.021,74.145
	c0,0.56,0.033,1.121,0.016,1.679c-0.048,1.612,0.71,2.299,2.32,2.294c3.599-0.01,7.199-0.032,10.797,0.016
	C209.475,153.317,210.729,153.119,211.695,154.09z"/>
<path fill-rule="evenodd" clip-rule="evenodd" fill="#C6C5C5" d="M242.85,173.276c-4.148-6.547-10.248-10.059-17.765-11.226
	c-1.713-0.266-2.465-0.825-2.451-2.657c0.014-1.926-0.743-3.723-1.779-5.366c0.921-0.849,2.079-0.714,3.181-0.727
	c3.271-0.035,6.544,0.002,9.816-0.017c3.245-0.019,3.411-0.163,3.421-3.349c0.024-7.342,0.014-14.684,0.007-22.027
	c-0.014-17.638,0.039-35.274-0.026-52.912c-0.003-0.716-0.079-1.44,0.25-2.118c2.545-1.32,5.28-0.53,7.925-0.659
	c1.536-0.075,3.188-0.399,4.586,0.679c0.013,28.362-0.143,56.726,0.212,85.083c0.056,4.456-0.958,7.751-3.747,10.863
	C245.205,170.264,244.056,171.795,242.85,173.276z"/>
<path fill-rule="evenodd" clip-rule="evenodd" fill="#445A6A" d="M250.014,72.898c-4.152,0.047-8.305,0.095-12.456,0.142
	c-0.936,0.81-2.088,0.687-3.188,0.688c-12.098,0.021-24.195,0.02-36.293,0c-1.1-0.002-2.251,0.121-3.189-0.684
	c-4.176-0.013-8.353-0.025-12.529-0.038c-0.541-4.373-0.293-8.769-0.15-13.141c0.083-2.548,5.04-4.479,8.193-3.458
	c3.322,1.076,4.07,1.987,3.955,5.541c-0.059,1.801,0.33,2.439,2.321,2.424c13.037-0.102,26.076-0.106,39.113,0.003
	c2.057,0.018,2.331-0.726,2.272-2.46c-0.122-3.596,0.546-4.427,3.907-5.509c2.239-0.721,6.272,0.361,7.533,1.982
	c0.54,0.693,0.545,1.467,0.542,2.272C250.029,64.74,250.023,68.819,250.014,72.898z"/>
<path fill-rule="evenodd" clip-rule="evenodd" fill="#445A6A" d="M208.777,351.317c4.81-0.014,9.62-0.027,14.43-0.041
	c3.896,0.33,4.34,0.804,4.34,4.662c0.002,5.516,0.011,11.031-0.003,16.547c-0.007,2.956-1.225,4.163-4.242,4.178
	c-4.637,0.023-9.273,0.022-13.909,0.001c-3.081-0.015-4.171-1.115-4.177-4.178c-0.01-5.756-0.01-11.511,0-17.267
	C205.22,352.239,205.753,351.671,208.777,351.317z"/>
<path fill-rule="evenodd" clip-rule="evenodd" fill="#C6C5C5" d="M223.183,226.061c-1.039,0.594-2.182,0.556-3.319,0.544
	c-1.468-0.101-2.936-0.105-4.403,0.004c-2.69,0.045-5.088-0.785-7.225-2.402c0.645-0.101,0.989-0.457,0.986-1.129
	c-0.03-6.555-0.054-13.109-0.102-19.664c-0.002-0.3-0.211-0.598-0.324-0.896c4.78,1.343,9.705,2.141,14.388,3.848
	c0.689,0.773,0.758,1.729,0.764,2.69c0.029,4.772,0.03,9.545-0.001,14.317C223.94,224.332,223.885,225.292,223.183,226.061z"/>
<path fill-rule="evenodd" clip-rule="evenodd" fill="#C6C5C5" d="M227.898,193.036c-3.039-0.735-6.115-1.333-9.041-2.483
	c-0.865-1.146,0.019-1.942,0.612-2.73c2.814-3.734,5.613-7.48,8.494-11.163c1.688,1.721,2.446,4.019,3.709,6.005
	c0.725,1.14,1.528,2.19,2.537,3.085c-1.856,0.838-2.455,2.807-3.73,4.169C229.559,190.901,228.754,191.993,227.898,193.036z"/>
<path fill-rule="evenodd" clip-rule="evenodd" fill="#FEFEFE" d="M227.964,176.659c-0.894,3.16-3.601,5.11-5.2,7.802
	c-1.233,2.074-3.453,3.516-3.905,6.092c-1.86-0.124-3.64-0.55-5.306-1.403c-2.851-3.099-5.292-6.523-7.812-9.882
	c-0.494-0.658-0.728-1.41-0.389-2.236C209.042,170.826,224.41,170.393,227.964,176.659z"/>
<path fill-rule="evenodd" clip-rule="evenodd" fill="#FEFEFE" d="M223.183,226.061c0-6.565,0.001-13.13,0.001-19.695
	c4.114,0.979,7.72,2.753,9.063,7.107C234.01,219.185,229.87,224.796,223.183,226.061z"/>
<path fill-rule="evenodd" clip-rule="evenodd" fill="#C6C5C5" d="M205.351,177.031c1.278,3.438,4.144,5.771,6.074,8.754
	c0.72,1.113,1.937,1.917,2.127,3.364c-2.657-0.383-4.975-1.569-7.012-3.232C203.715,183.61,203.354,180.469,205.351,177.031z"/>
<path fill-rule="evenodd" clip-rule="evenodd" fill="#D8D4D1" d="M215.46,226.608c1.466-0.874,2.934-0.868,4.403-0.004
	C218.396,226.979,216.928,226.975,215.46,226.608z"/>
<path fill-rule="evenodd" clip-rule="evenodd" fill="#3B5364" d="M222.566,352.165c-4.263,0-8.526,0-12.789,0
	c0-0.079,0-0.158,0.001-0.237c4.276,0,8.553,0,12.828,0C222.594,352.007,222.58,352.086,222.566,352.165z"/>
</svg>
