<?xml version="1.0" encoding="utf-8"?>
<!-- Generator: Adobe Illustrator 16.0.0, SVG Export Plug-In . SVG Version: 6.00 Build 0)  -->
<!DOCTYPE svg PUBLIC "-//W3C//DTD SVG 1.1//EN" "http://www.w3.org/Graphics/SVG/1.1/DTD/svg11.dtd">
<svg version="1.1" id="Layer_1" xmlns="http://www.w3.org/2000/svg" xmlns:xlink="http://www.w3.org/1999/xlink" x="0px" y="0px"
	 width="432px" height="432px" viewBox="0 0 432 432" enable-background="new 0 0 432 432" xml:space="preserve">
<path fill-rule="evenodd" clip-rule="evenodd" fill="#8ABBE5" d="M199.636,211.573c0-0.42-0.001-0.841-0.001-1.262
	c2.582-0.684,5.181-0.149,7.333-0.313c-2.099-0.126-4.66,0.089-7.205-0.09c-0.492-0.387-0.523-0.889-0.356-1.436
	c1.863-1.418,4.016-0.196,5.657-0.655c-1.527-0.138-3.406,0.252-5.256-0.203c-0.349-0.238-0.428-0.579-0.38-0.968
	c0.066-0.245,0.212-0.431,0.432-0.556c1.975-0.416,3.979-0.044,5.636-0.188c-1.645-0.172-3.643,0.295-5.603-0.238
	c-0.077-0.084-0.151-0.17-0.227-0.256c0.021-0.318,0.044-0.637,0.065-0.956c1.224-0.882,2.621-0.403,3.932-0.442
	c2.757-0.082,5.518-0.022,8.277-0.027c-3.264,0-6.528,0.019-9.791-0.015c-0.84-0.009-1.774,0.277-2.473-0.5
	c-0.021-0.425-0.042-0.849-0.064-1.273c2.67-0.825,5.333-0.135,7.999-0.166c0.3,0.315-0.307,0.178-0.052-0.016
	c-2.608-0.631-5.317,0.307-7.914-0.505c-0.005-0.426-0.01-0.851-0.015-1.277c2.478-0.703,5.006-0.15,7.507-0.329
	c-1.842,0.021-3.684-0.001-5.525-0.013c-0.684-0.004-1.476,0.205-1.869-0.66c-0.037-0.308-0.074-0.616-0.111-0.923
	c0.068-0.092,0.136-0.184,0.204-0.277c1.92-0.646,3.897-0.042,5.404-0.287c-1.362-0.066-3.163,0.098-4.96-0.075
	c-0.232-0.077-0.424-0.211-0.582-0.393c-0.016-0.314-0.032-0.629-0.047-0.942c0.074-0.085,0.148-0.17,0.222-0.256
	c1.791-0.529,3.626-0.088,5.179-0.254c-1.569-0.167-3.426,0.312-5.232-0.271c-0.069-0.089-0.137-0.18-0.205-0.271
	c0.053-0.144,0.117-0.283,0.192-0.417c0.754-0.801,1.754-0.649,2.692-0.658c3.665-0.03,7.33,0.003,10.968-0.023
	c-0.026-0.003,0.144-0.081,0.144-0.081s-0.185-0.022-0.213-0.017c-3.621,0.015-7.213,0.022-10.806,0.001
	c-1.023-0.006-2.093,0.152-2.998-0.553c-0.36-0.545-0.363-1.085,0.02-1.62c2.641-0.328,5.274-0.092,7.237-0.152
	c-1.914-0.2-4.539,0.153-7.133-0.122c-0.482-0.476-0.487-1.007-0.181-1.572c2.527-0.523,5.092-0.074,7.42-0.247
	c-2.186-0.011-4.583,0.017-6.982-0.021c-0.72-0.183-0.681-0.739-0.639-1.292c0.066-0.249,0.207-0.454,0.412-0.609
	c2.115-0.915,4.414,0.06,6.523-0.608c-2.18-0.128-4.411,0.666-6.456-0.582c-0.075-0.14-0.138-0.284-0.187-0.435
	c0.072-0.088,0.145-0.176,0.216-0.265c1.864-0.58,3.78-0.049,5.282-0.272c-1.486-0.106-3.363,0.203-5.229-0.159
	c-0.248-0.129-0.417-0.32-0.52-0.577c-0.102-0.586-0.134-1.141,0.577-1.385c4.784-0.046,9.568-0.008,14.108-0.028
	c-4.641-0.211-9.541,0.377-14.416-0.317c-0.01-0.414-0.02-0.828-0.03-1.242c2.449-0.808,4.987-0.094,7.835-0.454
	c-2.751,0.145-5.131,0.08-7.512,0.058c-0.697-0.236-0.661-0.785-0.581-1.349c0.082-0.253,0.242-0.449,0.47-0.583
	c2.042-0.437,4.116-0.033,5.76-0.2c-1.487-0.049-3.39,0.094-5.292-0.071c-0.244-0.07-0.443-0.202-0.601-0.397
	c-0.02-0.306-0.04-0.612-0.059-0.918c0.073-0.088,0.145-0.176,0.217-0.265c1.931-0.582,3.914-0.072,5.577-0.265
	c-1.616-0.083-3.526,0.148-5.429-0.124c-0.239-0.104-0.415-0.27-0.537-0.498c-0.096-0.391-0.039-0.74,0.269-1.021
	c2.093-0.583,4.226-0.114,5.983-0.259c-1.832-0.39-4.153,0.622-6.269-0.591c-0.208-0.577-0.176-1.097,0.334-1.513
	c5.045-0.13,10.085-0.033,13.657-0.064c-3.561-0.149-8.604,0.103-13.637-0.071c-0.562-0.436-0.567-0.977-0.292-1.566
	c2.522-0.643,5.101-0.072,7.394-0.305c-2.145,0.012-4.537,0.02-6.929-0.012c-0.72-0.184-0.68-0.739-0.638-1.292
	c0.066-0.249,0.207-0.454,0.412-0.609c2.115-0.914,4.414,0.06,6.523-0.607c-2.18-0.128-4.411,0.666-6.456-0.582
	c-0.075-0.14-0.138-0.285-0.187-0.435c0.072-0.088,0.145-0.176,0.217-0.265c1.907-0.579,3.865-0.078,5.519-0.264
	c-1.626-0.102-3.534,0.176-5.434-0.15c-0.247-0.119-0.422-0.3-0.537-0.546c-0.133-0.566-0.154-1.094,0.455-1.417
	c2.46-0.064,4.92-0.065,7.599,0.007c-2.737-0.282-5.305,0.331-7.802-0.371c-0.008-0.415-0.017-0.829-0.025-1.243
	c1.587-0.719,3.262-0.299,4.892-0.33c3.231-0.06,6.464-0.059,9.696,0.007c0.319-0.015-0.079-0.537,0.033-0.237
	c-4.719,0.423-9.448,0.093-14.171,0.18c-0.782-0.142-0.771-0.716-0.72-1.308c0.069-0.26,0.22-0.467,0.443-0.615
	c2.045-0.465,4.125-0.072,5.867-0.217c-1.572-0.061-3.469,0.092-5.364-0.077c-0.244-0.07-0.443-0.203-0.601-0.397
	c-0.019-0.307-0.037-0.613-0.054-0.92c0.073-0.088,0.146-0.176,0.218-0.265c1.789-0.562,3.628-0.066,5.1-0.269
	c-1.505-0.18-3.385,0.346-5.205-0.285c-0.133-0.125-0.188-0.259-0.168-0.403c0.021-0.148,0.05-0.223,0.087-0.223
	c0.007-0.172,0.015-0.344,0.021-0.516c1.993-1.034,4.136-0.185,5.874-0.479c-1.796-0.307-3.982,0.52-6.047-0.462
	c-0.288-0.556-0.274-1.079,0.151-1.562c2.771-0.279,5.539-0.089,7.64-0.114c-2.094-0.272-4.892,0.217-7.655-0.182
	c-0.433-0.556-0.432-1.103,0.029-1.642c4.958-0.299,9.928,0.016,14.33-0.141c0.87-0.198,0.427-0.617,0.594-0.344
	c0.066,0.107,0.022,0.193-0.131,0.197c-4.956,0.13-9.915,0.518-14.859-0.191c0.01-0.417,0.021-0.834,0.031-1.252
	c2.285-0.735,4.617-0.021,6.542-0.342c-1.223,0.04-2.824,0.041-4.424,0.014c-0.75-0.013-1.63,0.258-2.074-0.701
	c-0.01-0.167-0.02-0.333-0.03-0.5c-0.136-0.224-0.107-0.432,0.059-0.625c1.898-0.738,3.875-0.059,5.529-0.326
	c-1.212-0.267-2.82,0.521-4.226-0.501c0.163-1.088,1.076-0.962,1.811-1.128c1.84-0.558,3.821-0.255,5.641-0.939
	c1.852-0.591,3.787-0.624,5.69-0.794c8.845-0.792,17.693-0.661,26.543,0.013c3.248,0.823,3.303,0.858,3.305,4.134
	c0.011,21.313,0.009,42.627,0,63.941c-0.001,1.031,0.093,2.09-0.562,3.005c-0.786,0.726-1.775,0.622-2.718,0.623
	c-12.655,0.017-25.311,0.02-37.966-0.003c-0.935-0.002-1.94,0.128-2.658-0.721c0.357-1.475,1.596-0.943,2.518-1.078
	c1.704-0.249,3.518,0.479,5.126-0.583c1.63-1.489,3.769-0.407,5.523-1.081c-3.911,0.21-7.785,0.065-11.659,0.084
	c-0.635,0.003-1.269-0.047-1.823-0.424c-0.242-0.198-0.287-0.433-0.138-0.706c0.008-0.163,0.016-0.326,0.024-0.489
	c0.155-1.167,1.082-0.657,1.655-0.676c2.07-0.069,4.145-0.026,6.233-0.028C204.904,211.742,202.269,212.255,199.636,211.573z"/>
<path fill-rule="evenodd" clip-rule="evenodd" fill="#D7D9DB" d="M241.378,359.001c0.018,0.155,0.034,0.312,0.051,0.467
	c-0.806,0.853-1.879,0.782-2.9,0.787c-6.761,0.032-13.523,0.031-20.284,0.002c-0.952-0.004-1.922-0.012-2.737-0.639
	c-0.446-0.729-0.336-1.543-0.334-2.336c0.051-28.852,0.001-57.703,0.033-86.555c0.001-1.495-0.269-3.056,0.634-4.435
	c0.813-0.671,1.798-0.584,2.747-0.586c6.548-0.019,13.095-0.033,19.642,0.003c2.812,0.017,2.944,0.188,2.944,3.021
	c0.002,29.144-0.001,58.287,0.012,87.431C241.184,357.107,240.982,358.079,241.378,359.001z"/>
<path fill-rule="evenodd" clip-rule="evenodd" fill="#D7D9DB" d="M241.421,262.059c-0.009,0.16-0.009,0.319-0.001,0.479
	c-0.528,0.598-1.249,0.651-1.965,0.654c-7.29,0.035-14.581,0.054-21.871-0.009c-0.478-0.004-0.946-0.094-1.381-0.306
	c-0.276-0.158-0.481-0.384-0.62-0.669c-0.698-2.978-0.222-6.004-0.335-9.007c-0.099-2.616,0.118-5.239-0.16-7.851
	c-0.05-0.284-0.069-0.571-0.071-0.857c-0.008-0.279,0.017-0.56,0.058-0.836c0.361-2.938,0.316-5.879,0.007-8.821
	c-0.056-0.404-0.053-0.809-0.006-1.214c0.361-2.927,0.272-5.856,0.074-8.79c-0.091-0.425-0.083-0.847,0.01-1.271
	c0.211-0.741,0.529-1.405,1.278-1.754c2.933-0.538,5.892-0.21,8.838-0.249c4.392-0.06,8.785-0.026,13.178-0.008
	c1.027,0.004,2.1-0.121,2.949,0.683h0.007c0.837,0.911,0.785,2.055,0.787,3.166c0.018,11.163,0.018,22.325,0,33.488
	C242.196,259.999,242.244,261.141,241.421,262.059z"/>
<path fill-rule="evenodd" clip-rule="evenodd" fill="#C0C1C2" d="M201.544,359.436c-0.006-31.156-0.012-62.312-0.019-93.469
	c3.244-1.258,6.512-1.026,9.792-0.162c0.76,1.053,0.645,2.28,0.646,3.468c0.014,28.919,0.013,57.837,0.001,86.756
	c0,1.188,0.113,2.413-0.602,3.486C208.083,360.661,204.807,360.806,201.544,359.436z"/>
<path fill-rule="evenodd" clip-rule="evenodd" fill="#EBEBEB" d="M240.412,146.407c-4.13,0-8.259-0.354-12.372-0.362
	c-6.57-0.014-13.159,0.258-19.685,1.239c-2.476-0.053-4.938,0.301-7.415,0.251c-0.957-0.019-1.937,0.055-2.72-0.672
	c-0.003-0.159-0.002-0.317,0.002-0.477c1.475-1.128,3.19-0.528,4.801-0.647c1.332-0.098,2.675,0.057,4.001-0.096
	c0.203-0.092,0.381-0.222,0.525-0.395c0.077-0.211,0.16-0.417,0.236-0.627c0.075-0.215,0.176-0.417,0.297-0.608
	c0.147-0.171,0.326-0.301,0.531-0.395c1.311-0.215,2.635-0.064,3.953-0.107c0.32-0.011,0.553,0.008,0.233,0.007
	c-0.031,0-0.062-0.015-0.109-0.02c-3.873-0.05-7.721,0.345-11.579,0.199c-1.013-0.038-2.072,0.119-2.899-0.693
	c0.041-7.77,0.038-7.78,7.703-9.649c2.001-0.488,4.012-0.96,6.039-1.319c3.374-0.597,3.689-1.073,2.583-4.346
	c0.271-0.308,0.603-0.554,1.007-0.589c3.965-0.346,7.932-0.33,11.896-0.008c0.403,0.033,0.739,0.274,1.02,0.572
	c-1.104,3.319-0.774,3.66,2.569,4.395c4.104,0.902,8.314,1.478,12.146,3.413c1.143,0.577,1.623,1.292,1.622,2.602
	c-0.032,25.667-0.022,51.333-0.029,77c0,0.764,0.224,1.678-0.928,1.897c-0.486-0.819-0.242-1.718-0.243-2.576
	c-0.016-21.383-0.012-42.767-0.012-64.151C243.587,146.874,243.587,146.874,240.412,146.407z"/>
<path fill-rule="evenodd" clip-rule="evenodd" fill="#837D6F" d="M213.117,97.557c1.149-1.424,2.691-2.354,4.401-2.735
	c1.65-0.369,2.054-1.057,2.045-2.735c-0.085-15.423-0.05-30.847-0.05-46.271c0-0.387,0-0.773,0-1.581
	c2.072,1.811,3.771,3.125,3.737,6.084c-0.152,13.744-0.036,27.49-0.105,41.236c-0.01,1.821,0.302,2.824,2.29,3.376
	c3.896,1.083,4.566,2.239,4.567,6.332c0.002,8.151,0.006,16.303,0.009,24.454c-0.65,0.737-1.546,0.776-2.418,0.79
	c-3.978,0.063-7.958,0.085-11.936-0.002c-2.535-0.056-2.785-0.384-2.787-2.978c-0.005-7.958-0.007-15.917,0.007-23.875
	C212.879,98.951,212.686,98.214,213.117,97.557z"/>
<path fill-rule="evenodd" clip-rule="evenodd" fill="#847E71" d="M201.544,359.436c3.219,0.007,6.438,0.013,9.657,0.02
	c1.435-0.875,2.87-1.006,4.303,0.004c8.641,0.003,17.282,0.006,25.924,0.009c2.715,0.026,5.431,0.038,8.146,0.089
	c0.709,0.014,1.437,0.076,2.119,0.254c0.787,0.204,1.578,0.601,1.516,1.578c-0.052,0.827-0.791,1.22-1.481,1.376
	c-1.003,0.228-2.048,0.373-3.074,0.375c-18.141,0.021-36.281,0.017-54.422,0.007c-0.794-0.001-1.595-0.079-2.382-0.191
	c-1.062-0.153-2.25-0.46-2.211-1.738c0.038-1.288,1.312-1.571,2.326-1.612C195.155,359.474,198.351,359.481,201.544,359.436z"/>
<path fill-rule="evenodd" clip-rule="evenodd" fill="#C0C1C2" d="M215.968,262.522c8.484,0.005,16.968,0.01,25.452,0.015
	c1.116,0.162,2.301-0.316,3.362,0.358c-0.103,0.121-0.206,0.243-0.308,0.366c-0.949,0.575-2.009,0.427-3.032,0.428
	c-13.305,0.014-26.609,0.019-39.913-0.008c-1.151-0.003-2.428,0.323-3.358-0.758c0.897-0.679,1.946-0.24,2.915-0.397
	c-0.521-5.28-0.198-10.572-0.217-15.859c-0.002-0.715,0.127-1.422,0.606-2.008c3.236-0.926,6.48-0.795,9.73-0.073
	c0.909,1.07,0.696,2.378,0.73,3.622c0.116,4.258-0.188,8.521,0.18,12.765c0.273,0.826,0.938,0.923,1.678,0.921
	C214.574,261.89,215.351,261.941,215.968,262.522z"/>
<path fill-rule="evenodd" clip-rule="evenodd" fill="#837D6F" d="M181.349,265.458c-0.862-0.234-1.207-0.817-0.827-1.605
	c0.39-0.81,1.215-0.914,2.041-0.907c5.064,0.037,10.128,0.068,15.191,0.102c0.511,0.319,1.082,0.214,1.631,0.215
	c14.656,0.004,29.312,0.004,43.97,0.002c0.476,0,0.957,0.043,1.415-0.145l0.012-0.224c6.024,0.017,12.048,0.039,18.071,0.046
	c0.988,0.001,1.978,0.062,2.45,1.065c0.349,0.741-0.204,1.155-0.853,1.407c-2.44,0.511-4.909,0.195-7.363,0.219
	c-5.18,0.051-10.36,0.033-15.541,0.007c-8.034-0.05-16.069-0.043-24.104-0.01c-4.374,0.018-8.74-0.355-13.115-0.214
	c-0.951,0.031-1.912-0.084-2.846,0.196C194.771,265.578,188.057,265.87,181.349,265.458z"/>
<path fill-rule="evenodd" clip-rule="evenodd" fill="#EBEBEB" d="M241.421,262.059c-0.003-13.274-0.007-26.55-0.011-39.826
	c3.364-0.021,3.365-0.021,3.365,3.292c0.001,11.073,0.001,22.146,0,33.221C244.775,262.062,244.774,262.062,241.421,262.059z"/>
<path fill-rule="evenodd" clip-rule="evenodd" fill="#454443" d="M198.228,221.255c-0.018-0.485-0.036-0.97-0.054-1.454
	c0.872-0.736,1.931-0.653,2.961-0.653c13.459-0.009,26.918-0.011,40.377,0.001c0.871,0.001,1.761-0.065,2.571,0.379
	c0.595,0.51,0.531,1.099,0.205,1.719l0.038,0.074c-1.65,0.23-3.313,0.41-4.973,0.401c-11.633-0.063-23.262,0.102-34.891,0.322
	c-1.036,0.02-2.072,0.007-3.104-0.09C200.279,221.886,199.138,222.086,198.228,221.255z"/>
<path fill-rule="evenodd" clip-rule="evenodd" fill="#C0C1C2" d="M201.55,235.641c-0.015-0.276-0.03-0.552-0.045-0.828
	c0.092-0.114,0.184-0.229,0.275-0.345c3.035-0.769,6.086-0.531,9.142-0.137c0.278,0.144,0.486,0.354,0.632,0.631
	c0.429,2.993,0.905,5.99-0.325,8.926c-3.106,0.777-6.238,0.435-9.365,0.202c-0.372-0.235-0.538-0.573-0.483-1.01
	c1.109-1.438,2.688-0.232,3.703-0.727c-1.023-0.187-2.419,0.458-3.633-0.441c-0.158-0.349-0.15-0.69,0.025-1.027
	c1.44-0.888,3.04-0.146,4.292-0.437c-1.282-0.23-2.913,0.492-4.367-0.492c-0.249-0.54-0.225-1.047,0.169-1.512
	c2.017-0.261,4.023-0.106,5.518-0.118c-1.447-0.227-3.458,0.143-5.427-0.115c-0.461-0.394-0.502-0.887-0.335-1.424
	c1.165-1.307,2.711-0.234,3.755-0.669C204.092,235.912,202.711,236.597,201.55,235.641z"/>
<path fill-rule="evenodd" clip-rule="evenodd" fill="#C0C1C2" d="M200.625,227.495c0.18-0.17,0.359-0.341,0.539-0.511
	c1.084-1.783,2.863-0.432,3.983-0.941c-1.075-0.284-2.581,0.617-3.762-0.614c-0.094-0.431-0.005-0.796,0.356-1.076
	c3.091-0.648,6.182-0.608,9.275-0.037c0.26,0.168,0.451,0.394,0.579,0.674c0.484,2.779,0.466,5.561,0.02,8.344
	c-0.116,0.275-0.301,0.496-0.547,0.664c-2.956,0.445-5.926,0.177-8.89,0.156c-0.274-0.06-0.508-0.194-0.699-0.398
	c-0.124-0.373-0.18-0.744,0.075-1.09c1.402-0.76,2.926-0.112,4.101-0.375c-1.195-0.264-2.807,0.555-4.17-0.557
	c0.032-0.29,0.064-0.58,0.097-0.871c1.417-1.019,3.04-0.154,4.275-0.494c-1.293-0.203-2.919,0.44-4.412-0.426
	c-0.287-0.489-0.294-0.981-0.033-1.479c1.705-0.861,3.441-0.433,5.175-0.38c-1.694-0.109-3.427-0.38-5.092,0.168
	c-1.303,0.429-2.466,0.475-3.642-0.229c0.125-0.172,0.249-0.345,0.373-0.518C199.023,227.133,199.823,227.149,200.625,227.495z"/>
<path fill-rule="evenodd" clip-rule="evenodd" fill="#EBEBEB" d="M201.542,244.81c0.011,5.249,0.031,10.498,0.022,15.746
	c-0.001,0.677,0.262,1.458-0.479,1.971c-2.873-0.196-3-2.043-2.912-4.367c0.167-4.465,0.061-8.94,0.068-13.412
	C199.357,243.978,200.459,243.894,201.542,244.81z"/>
<path fill-rule="evenodd" clip-rule="evenodd" fill="#DEE1E4" d="M241.378,359.001c-0.77-0.815-0.423-1.828-0.424-2.747
	c-0.02-29.011-0.044-58.021,0.036-87.032c0.006-2.34-0.671-2.94-2.949-2.896c-7.35,0.142-14.704,0.055-22.057,0.055
	c-0.137-0.342-0.042-0.598,0.286-0.767c6.758-0.433,13.523-0.122,20.286-0.162c1.623-0.01,3.349-0.523,4.882,0.505
	c-0.009,29.896-0.017,59.792-0.027,89.688C241.411,356.764,241.39,357.882,241.378,359.001z"/>
<path fill-rule="evenodd" clip-rule="evenodd" fill="#898988" d="M213.117,97.557c-0.003,8.594,0.04,17.188-0.045,25.78
	c-0.019,1.825,0.418,2.522,2.38,2.462c4.85-0.149,9.706-0.07,14.56-0.083c0.307,0.037,0.613,0.094,0.921,0.106
	c0.624,0.024,1.345-0.055,1.278,0.885c-0.055,0.761-0.659,0.671-1.218,0.697c-0.847,0.04-1.688,0.17-2.532,0.262
	c-4.642,0.008-9.283,0.017-13.923,0.025c-0.554-0.06-1.145-0.02-1.653-0.205c-0.705-0.257-1.821,0.3-2.093-0.694
	c-0.315-1.151,0.885-0.768,1.414-1.09c0.768-0.468,0.43-1.292,0.432-1.954c0.025-7.906,0.004-15.812,0.034-23.717
	C212.675,99.203,212.302,98.258,213.117,97.557z"/>
<path fill-rule="evenodd" clip-rule="evenodd" fill="#737171" d="M244.299,219.825c-15.375-0.008-30.75-0.016-46.125-0.024
	c-0.011-0.305-0.021-0.61-0.032-0.915c1.037-0.775,2.253-0.697,3.441-0.698c13.227-0.01,26.453-0.009,39.681-0.003
	c0.954,0.001,1.919-0.041,2.814,0.394C244.561,218.922,244.584,219.347,244.299,219.825z"/>
<path fill-rule="evenodd" clip-rule="evenodd" fill="#C2C3C4" d="M201.08,221.356c14.416-0.013,28.832-0.024,43.248-0.036
	c-0.853,0.817-1.933,0.244-2.881,0.474c-5.179,0.416-10.365,0.088-15.548,0.171c-3.114,0.051-6.23,0.009-9.341,0.011
	c-1.424,0.707-3.161-0.053-4.522,0.959c-0.368,0.376-0.617,0.878-1.146,1.08c-2.947,0.231-5.895,0.141-8.84,0.055
	c-0.392-0.098-0.702-0.322-0.962-0.619c-0.71-0.951-2.107-0.33-2.841-1.229c-0.001-0.16-0.003-0.32-0.005-0.48
	C199.128,221.186,200.174,221.782,201.08,221.356z"/>
<path fill-rule="evenodd" clip-rule="evenodd" fill="#949086" d="M241.438,265.956c-8.486,0.002-16.974,0.004-25.46,0.005
	c-1.596,0.925-3.187,0.943-4.772-0.026c-3.227,0.011-6.453,0.021-9.68,0.031c-5.889-0.028-11.779-0.047-17.668-0.101
	c-0.844-0.007-1.765,0.288-2.508-0.407c6.748-0.017,13.496-0.033,20.245-0.051c0.508-0.328,1.08-0.218,1.629-0.218
	c12.182-0.006,24.364-0.006,36.545,0c0.55,0,1.121-0.106,1.633,0.21c7.683,0.005,15.366,0.01,23.05,0.015
	c-0.722,0.736-1.648,0.446-2.491,0.452C255.12,265.913,248.279,265.93,241.438,265.956z"/>
<path fill-rule="evenodd" clip-rule="evenodd" fill="#E8EAED" d="M240.412,146.407c3.407-0.042,3.407-0.042,3.408,3.257
	c0.007,22.436,0.015,44.872,0.021,67.308c-0.03,0.185-0.061,0.368-0.091,0.553c-0.194,0.071-0.371,0.041-0.529-0.093
	c-0.09-0.193-0.059-0.359,0.114-0.492c0.015-22.733-0.023-45.466,0.114-68.198C243.467,146.028,241.301,147.312,240.412,146.407z"/>
<path fill-rule="evenodd" clip-rule="evenodd" fill="#726C69" d="M244.26,218.853c-15.373,0.011-30.745,0.021-46.118,0.033
	c-0.453-1.135,0.497-0.899,1.039-1.063c3.026-0.787,6.1-0.279,9.153-0.337c1.494,0.345,3.012,0.208,4.52,0.211
	c9.31,0.014,18.62-0.011,27.929,0.025C242.025,217.727,243.458,217.389,244.26,218.853z"/>
<path fill-rule="evenodd" clip-rule="evenodd" fill="#7D7667" d="M244.771,263.119c-0.688,0.601-1.525,0.37-2.301,0.371
	c-14.151,0.013-28.303,0.013-42.454-0.002c-0.767-0.001-1.619,0.265-2.261-0.441c0.132-0.063,0.271-0.104,0.417-0.123
	c10.754,0.028,21.507,0.05,32.262,0.089C235.212,263.029,239.991,263.083,244.771,263.119z"/>
<path fill-rule="evenodd" clip-rule="evenodd" fill="#82ADD0" d="M208.315,217.955c-3.045-0.044-6.09-0.088-9.135-0.132
	c0.174-0.137,0.348-0.272,0.522-0.408c0.424-0.311,0.916-0.224,1.386-0.224c13.625-0.003,27.25-0.004,40.875,0
	c0.473,0,0.962-0.071,1.39,0.223c0.133,0.037,0.266,0.073,0.399,0.11c0.003,0.11,0.013,0.22,0.03,0.328
	c-0.395,0.374-0.892,0.278-1.359,0.279c-10.981,0.003-21.962,0.004-32.943,0.003C209.082,218.135,208.684,218.14,208.315,217.955z"
	/>
<path fill-rule="evenodd" clip-rule="evenodd" fill="#8DBFEB" d="M243.353,217.414c-14.551,0-29.101,0.001-43.651,0.001
	c-0.026-0.295-0.052-0.59-0.079-0.884c0.083-0.061,0.165-0.122,0.247-0.183c0.09,0.048,0.181,0.095,0.272,0.143
	c0.809,0.779,1.822,0.433,2.739,0.434c13.485,0.023,26.971,0.017,40.456,0.016C243.356,217.098,243.362,217.256,243.353,217.414z"/>
<path fill-rule="evenodd" clip-rule="evenodd" fill="#71767B" d="M208.315,217.955c11.823-0.034,23.646-0.068,35.468-0.103
	c1.636,0.912,1.14,2.143,0.506,3.394c0.004-0.474,0.007-0.947,0.01-1.421c-0.013-0.323-0.025-0.648-0.039-0.973
	c-0.706-0.8-1.649-0.453-2.484-0.455c-10.314-0.024-20.63-0.009-30.944-0.029C209.985,218.367,209.057,218.668,208.315,217.955z"/>
<path fill-rule="evenodd" clip-rule="evenodd" fill="#ACADAD" d="M201.525,223.61c3.233,0.004,6.466,0.008,9.699,0.012
	c1.435-0.912,2.862-0.968,4.281,0.037c-0.014,0.3-0.027,0.601-0.04,0.9c-0.094,0.104-0.188,0.209-0.28,0.314
	c-1.372,0.54-2.717,0.659-3.999-0.25c-3.204,0.001-6.408,0.001-9.611,0.002c-1.126,0.81-2.231,0.883-3.307-0.092
	c-0.012-0.286-0.024-0.572-0.037-0.858C199.312,222.854,200.411,222.811,201.525,223.61z"/>
<path fill-rule="evenodd" clip-rule="evenodd" fill="#9BA6AD" d="M199.676,203.467c5.17,0,10.339,0,15.509,0
	c0.001,0.328,0.003,0.656,0.005,0.984c-5.154,0-10.307,0-15.46,0c-0.453-0.174-1.309,0.201-1.266-0.608
	C198.49,203.357,199.244,203.556,199.676,203.467z"/>
<path fill-rule="evenodd" clip-rule="evenodd" fill="#AEAFAE" d="M201.542,244.81c-1.1-0.021-2.201-0.041-3.301-0.062
	c-0.035-0.146-0.03-0.291,0.016-0.436c0.871-0.81,1.936-0.593,2.967-0.563c0.114,0.018,0.228,0.037,0.342,0.057
	c3.203,0.007,6.406,0.014,9.609,0.021c0.123-0.022,0.245-0.045,0.367-0.068c1.352-0.048,2.747-0.407,3.965,0.538
	c0.017,0.158,0.011,0.316-0.017,0.474c-1.419,1.033-2.847,0.955-4.28,0.033C207.988,244.805,204.765,244.808,201.542,244.81z"/>
<path fill-rule="evenodd" clip-rule="evenodd" fill="#E6E9EB" d="M215.956,221.825c8.497-0.011,16.994-0.021,25.49-0.031
	c-0.02,0.146-0.033,0.292-0.042,0.439c-8.473-0.003-16.945-0.005-25.417-0.007c-0.054-0.063-0.108-0.127-0.162-0.189
	C215.868,221.967,215.912,221.896,215.956,221.825z"/>
<path fill-rule="evenodd" clip-rule="evenodd" fill="#89BEEC" d="M215.503,214.547c-1.351,0.949-2.881,0.264-4.312,0.476
	c-0.968,0.144-2.051-0.382-2.893,0.496c-2.751,0.878-5.54,0.464-8.323,0.247c-0.108-0.102-0.217-0.204-0.325-0.306
	c0.001-0.293,0.002-0.586,0.002-0.879c0.115-0.103,0.229-0.206,0.344-0.308c4.805-0.448,9.62-0.134,14.43-0.163
	C214.835,214.107,215.185,214.3,215.503,214.547z"/>
<path fill-rule="evenodd" clip-rule="evenodd" fill="#AEAEAE" d="M201.56,225.566c2.135,0.179,4.32-0.297,7.03,0.46
	c-2.792,1.086-5.263-0.112-7.428,0.958c-0.655-1.125-2.579,0.52-2.902-1.33C199.339,224.85,200.443,224.943,201.56,225.566z"/>
<path fill-rule="evenodd" clip-rule="evenodd" fill="#B8B9BA" d="M198.221,146.864c3.375,0.203,6.788-0.487,10.134,0.421
	c-1.667,0.946-3.642,0.231-5.344,0.99c-0.776-0.385-1.542-0.21-2.32,0.015c-0.894,0.258-1.739,0.19-2.443-0.508
	C198.239,147.476,198.23,147.169,198.221,146.864z"/>
<path fill-rule="evenodd" clip-rule="evenodd" fill="#ACADAD" d="M201.55,235.641c2.147,0,4.295,0,6.442,0
	c-0.003,0.238-0.007,0.477-0.01,0.715c-2.111,0.577-4.305,0.102-6.446,0.303c-1.115,0.83-2.215,0.779-3.3-0.061
	C198.937,234.88,200.483,236.091,201.55,235.641z"/>
<path fill-rule="evenodd" clip-rule="evenodd" fill="#ACADAD" d="M201.554,241.874c2.136,0.181,4.322-0.284,6.429,0.496
	c-2.097,0.797-4.277,0.327-6.407,0.494c-1.126,0.81-2.231,0.884-3.308-0.092c-0.006-0.279-0.012-0.559-0.019-0.837
	C199.335,241.063,200.437,241.047,201.554,241.874z"/>
<path fill-rule="evenodd" clip-rule="evenodd" fill="#A0A7AC" d="M199.708,175.168c2.703,0,5.407,0,8.11,0
	c-2.604,1.346-5.373,0.769-8.068,0.95c-0.518,0.404-1.013,0.473-1.469-0.093c-0.012-0.267-0.023-0.535-0.035-0.802
	C198.718,174.778,199.207,174.81,199.708,175.168z"/>
<path fill-rule="evenodd" clip-rule="evenodd" fill="#AEAEAD" d="M201.506,229.828c2.128,0,4.257,0,6.385,0
	c0.012,0.216,0.024,0.433,0.036,0.649c-2.036,0.816-4.243,0.157-6.348,0.385c-1.08-0.467-2.642,0.735-3.363-0.973
	C199.299,229.115,200.394,229.018,201.506,229.828z"/>
<path fill-rule="evenodd" clip-rule="evenodd" fill="#9BA3AA" d="M199.716,156.934c2.723,0,5.446,0,8.169,0
	c0.011,0.326,0.022,0.652,0.033,0.978c-2.742,0-5.483,0-8.226,0c-0.624-0.083-1.504,0.237-1.442-0.921
	C198.722,156.537,199.212,156.572,199.716,156.934z"/>
<path fill-rule="evenodd" clip-rule="evenodd" fill="#9BA1A4" d="M199.619,152.991c5.137,0,10.274,0,15.411,0
	c0,0.212,0,0.426,0.001,0.639c-5.116,0-10.232,0-15.348,0c-0.498,0.337-0.984,0.356-1.453-0.056
	C198.476,152.863,199.12,153.099,199.619,152.991z"/>
<path fill-rule="evenodd" clip-rule="evenodd" fill="#E4E4E4" d="M215.515,143.535c-2.352,0.993-4.816,0.196-7.214,0.456
	c-3.358,1.081-6.716,1.092-10.073-0.007c0.002-0.165,0.005-0.329,0.007-0.493C203.995,143.163,209.755,143.076,215.515,143.535z"/>
<path fill-rule="evenodd" clip-rule="evenodd" fill="#93AEC4" d="M215.498,193.9c0.001,0.163,0.002,0.326,0.003,0.489
	c-5.252,0.373-10.503,0.375-15.755-0.002c-0.463-0.155-1.077,0.133-1.39-0.469c1.021-0.716,2.153-0.226,3.209-0.213
	C206.209,193.762,210.861,193.39,215.498,193.9z"/>
<path fill-rule="evenodd" clip-rule="evenodd" fill="#9DA5AB" d="M215.498,193.9c-5.715,0.006-11.429,0.012-17.144,0.019
	c-0.037-0.154-0.075-0.308-0.114-0.462c0.472-0.438,0.961-0.41,1.462-0.055c4.445,0.007,8.89-0.004,13.334,0.039
	C213.866,193.448,214.803,193.098,215.498,193.9z"/>
<path fill-rule="evenodd" clip-rule="evenodd" fill="#A7A7A6" d="M215.515,143.535c-5.76-0.015-11.521-0.029-17.28-0.044
	c-0.007-0.162-0.014-0.323-0.021-0.485c5.04-0.003,10.08-0.022,15.119,0.007C214.072,143.017,214.96,142.652,215.515,143.535z"/>
<path fill-rule="evenodd" clip-rule="evenodd" fill="#9BA3A7" d="M199.683,163.133c5.101,0,10.202,0,15.303,0
	c0.001,0.217,0.002,0.434,0.003,0.651c-5.124,0-10.247,0-15.371,0.001c-0.5-0.107-1.141,0.115-1.39-0.588
	C198.697,162.79,199.183,162.8,199.683,163.133z"/>
<path fill-rule="evenodd" clip-rule="evenodd" fill="#9AA3A9" d="M199.709,173.249c5.087,0,10.175,0,15.263,0
	c0.001,0.194,0.002,0.388,0.003,0.581c-5.103,0-10.205,0-15.308,0c-0.502,0.339-0.985,0.297-1.449-0.077
	c-0.008-0.149,0.001-0.297,0.027-0.444C198.716,172.857,199.206,172.891,199.709,173.249z"/>
<path fill-rule="evenodd" clip-rule="evenodd" fill="#9BA4AB" d="M199.647,183.269c5.099,0,10.198,0,15.297,0
	c0.001,0.211,0.003,0.421,0.004,0.632c-5.093,0-10.186,0-15.278,0c-0.501,0.338-0.984,0.308-1.45-0.07
	C198.499,183.144,199.138,183.372,199.647,183.269z"/>
<path fill-rule="evenodd" clip-rule="evenodd" fill="#A8A8A8" d="M197.852,228.022c3.331,0.181,6.657-1.22,9.99-0.193
	c0.019,0.213,0.037,0.425,0.055,0.638c-1.01,0-2.021-0.006-3.031,0.001c-1.111,0.008-2.221,0.026-3.332,0.04
	c-1.108,0.828-2.219,0.759-3.333,0.014C198.084,228.355,197.968,228.189,197.852,228.022z"/>
<path fill-rule="evenodd" clip-rule="evenodd" fill="#A8A8A8" d="M201.483,231.733c2.132,0,4.264,0,6.396,0
	c0.015,0.23,0.029,0.46,0.043,0.69c-2.027,0.737-4.206,0.175-6.301,0.333c-1.106-0.372-2.37,0.473-3.408-0.438
	C199.148,231.257,200.413,232.038,201.483,231.733z"/>
<path fill-rule="evenodd" clip-rule="evenodd" fill="#88BFEF" d="M199.746,194.388c5.252,0.001,10.504,0.001,15.755,0.002
	c-0.7,0.769-1.625,0.455-2.454,0.46c-4.414,0.029-8.828,0.013-13.241,0.012C199.786,194.704,199.766,194.546,199.746,194.388z"/>
<path fill-rule="evenodd" clip-rule="evenodd" fill="#9CA5AC" d="M199.694,150.71c2.655,1.102,5.483,0.045,8.208,0.276
	c-0.007,0.25-0.015,0.501-0.022,0.752c-2.743,0-5.487,0-8.229,0c-0.369-0.169-1.101,0.247-1.091-0.438
	C198.565,150.756,199.211,150.728,199.694,150.71z"/>
<path fill-rule="evenodd" clip-rule="evenodd" fill="#A2A8AD" d="M199.744,199.229c2.615,0.932,5.367,0.063,8.02,1
	c-2.711,0-5.422,0-8.133,0c-0.428-0.088-1.175,0.099-1.182-0.419C198.44,199.025,199.277,199.383,199.744,199.229z"/>
<path fill-rule="evenodd" clip-rule="evenodd" fill="#9CA3A9" d="M199.636,211.573c2.723,0,5.446,0,8.169,0
	c-2.671,1.089-5.493-0.074-8.123,1.04c-0.461-0.095-1.241,0.265-1.273-0.472C198.376,211.383,199.195,211.723,199.636,211.573z"/>
<path fill-rule="evenodd" clip-rule="evenodd" fill="#E3E2E2" d="M201.554,241.874c-1.102,0.021-2.203,0.041-3.305,0.062
	c0.14-0.674-0.849-1.314-0.058-2.007c0.121-0.014,0.242-0.027,0.362-0.044c1.082,0.162,2.492-0.65,3.061,1.032
	C201.594,241.236,201.574,241.556,201.554,241.874z"/>
<path fill-rule="evenodd" clip-rule="evenodd" fill="#F2F2F2" d="M198.227,143.984c3.358,0.002,6.716,0.004,10.073,0.007
	c0,0.161,0.001,0.322,0.001,0.483c-3.358,1.08-6.716,1.079-10.074,0C198.228,144.311,198.228,144.147,198.227,143.984z"/>
<path fill-rule="evenodd" clip-rule="evenodd" fill="#E9E9E9" d="M198.236,236.598c1.1,0.021,2.2,0.04,3.3,0.061
	c-0.006,0.443-0.012,0.885-0.018,1.327c-1.077,0.968-2.178,0.88-3.295,0.075C198.228,237.572,198.232,237.085,198.236,236.598z"/>
<path fill-rule="evenodd" clip-rule="evenodd" fill="#DDDCDC" d="M198.228,144.474c3.358,0,6.716,0,10.074,0
	c-0.013,0.178-0.025,0.355-0.038,0.534c-3.347,0.975-6.69,1.038-10.029-0.044C198.233,144.8,198.23,144.637,198.228,144.474z"/>
<path fill-rule="evenodd" clip-rule="evenodd" fill="#A2A3A2" d="M198.224,238.061c1.099-0.024,2.197-0.05,3.296-0.075
	c2.103,0,4.207,0,6.311,0c0,0.208,0,0.416,0,0.625c-2.104,0-4.208,0-6.312,0c-1.116,0.809-2.212,0.724-3.293-0.073
	C198.194,238.378,198.194,238.22,198.224,238.061z"/>
<path fill-rule="evenodd" clip-rule="evenodd" fill="#EBEBEB" d="M198.225,238.537c1.098,0.024,2.196,0.048,3.293,0.073
	c0.011,0.447,0.022,0.896,0.034,1.344c-1.068,0.471-2.157,0.295-3.246,0.101l-0.114-0.125
	C198.203,239.465,198.213,239.001,198.225,238.537z"/>
<path fill-rule="evenodd" clip-rule="evenodd" fill="#E7E7E7" d="M198.201,228.521c1.111-0.005,2.223-0.01,3.334-0.014
	c-0.01,0.44-0.019,0.881-0.029,1.32c-1.097,0.021-2.193,0.041-3.29,0.062C198.212,229.434,198.207,228.978,198.201,228.521z"/>
<path fill-rule="evenodd" clip-rule="evenodd" fill="#ABA9A9" d="M198.235,144.963c3.343,0.015,6.687,0.029,10.029,0.044
	c0.01,0.122,0.008,0.242-0.006,0.363c-3.336,0.896-6.678,0.8-10.022,0.044C198.196,145.264,198.195,145.113,198.235,144.963z"/>
<path fill-rule="evenodd" clip-rule="evenodd" fill="#9CA5AC" d="M199.645,165.029c2.696,0,5.391,0,8.086,0
	c0.001,0.211,0.004,0.423,0.006,0.635c-2.69,0-5.38,0-8.07,0c-0.5,0.34-0.982,0.306-1.448-0.069
	C198.495,164.904,199.135,165.13,199.645,165.029z"/>
<path fill-rule="evenodd" clip-rule="evenodd" fill="#9CA1A5" d="M199.664,189.513c2.689,0,5.379,0,8.069,0
	c0.003,0.194,0.006,0.389,0.009,0.583c-2.686,0-5.372,0-8.057,0c-0.497,0.348-0.982,0.369-1.452-0.051
	c-0.033-0.155-0.037-0.31-0.013-0.466C198.686,189.2,199.167,189.172,199.664,189.513z"/>
<path fill-rule="evenodd" clip-rule="evenodd" fill="#9BA1A6" d="M199.678,191.46c2.688,0,5.376,0,8.064,0
	c0.001,0.192,0.004,0.384,0.006,0.576c-2.69,0-5.381,0-8.071,0c-0.499,0.335-0.982,0.344-1.448-0.064
	c-0.028-0.152-0.028-0.304,0-0.457C198.697,191.105,199.182,191.123,199.678,191.46z"/>
<path fill-rule="evenodd" clip-rule="evenodd" fill="#9CA1A5" d="M199.664,171.273c2.691,0,5.381,0,8.072,0
	c0.002,0.199,0.004,0.397,0.006,0.596c-2.688,0-5.375,0-8.062,0c-0.498,0.337-0.983,0.356-1.452-0.055
	c-0.029-0.158-0.033-0.315-0.009-0.474C198.685,170.962,199.166,170.932,199.664,171.273z"/>
<path fill-rule="evenodd" clip-rule="evenodd" fill="#9BA4AA" d="M199.707,155.009c2.683,0,5.367,0,8.05,0
	c0.001,0.194,0.003,0.389,0.004,0.583c-2.699,0-5.397,0-8.096,0c-0.502,0.339-0.984,0.295-1.448-0.076
	c-0.009-0.15,0-0.3,0.027-0.448C198.715,154.619,199.204,154.651,199.707,155.009z"/>
<path fill-rule="evenodd" clip-rule="evenodd" fill="#9CA5AC" d="M199.646,201.507c2.726,0,5.451,0,8.176,0
	c-0.001,0.228-0.002,0.457-0.003,0.684c-2.736,0-5.472,0-8.208,0.001c-0.354-0.093-0.708-0.188-1.062-0.282
	C198.74,201.301,199.287,201.659,199.646,201.507z"/>
<path fill-rule="evenodd" clip-rule="evenodd" fill="#9CA3A8" d="M199.681,181.371c2.696,0,5.393,0,8.089,0
	c0.001,0.218,0.003,0.436,0.005,0.655c-2.72,0-5.439,0-8.159,0.001c-0.501-0.106-1.143,0.113-1.388-0.593
	C198.696,181.029,199.182,181.037,199.681,181.371z"/>
<path fill-rule="evenodd" clip-rule="evenodd" fill="#9BA1A6" d="M199.674,209.686c2.695,0,5.391,0,8.085,0
	c0.001,0.208,0.003,0.416,0.004,0.624c-2.71,0-5.42,0-8.129,0.001c-0.502-0.107-1.147,0.14-1.41-0.565
	C198.692,209.351,199.176,209.348,199.674,209.686z"/>
<path fill-rule="evenodd" clip-rule="evenodd" fill="#D7D6D6" d="M198.237,145.414c3.341-0.014,6.682-0.029,10.022-0.043
	c0.015,0.177,0.03,0.354,0.044,0.531c-3.358,0.395-6.717,0.398-10.076-0.001C198.231,145.738,198.234,145.576,198.237,145.414z"/>
<path fill-rule="evenodd" clip-rule="evenodd" fill="#F4F4F4" d="M198.228,145.9c3.358,0,6.717,0.001,10.076,0.001
	c-2.348,1.068-4.821,0.237-7.226,0.47c-0.943,0.091-1.903,0.015-2.854,0.015C198.225,146.225,198.226,146.062,198.228,145.9z"/>
<path fill-rule="evenodd" clip-rule="evenodd" fill="#87C0F0" d="M199.815,186.707c2.821,0.27,5.708-0.59,8.48,0.501
	c-2.741,0.868-5.521,0.453-8.294,0.247c-0.11-0.1-0.219-0.2-0.329-0.3C199.7,187,199.748,186.85,199.815,186.707z"/>
<path fill-rule="evenodd" clip-rule="evenodd" fill="#87C0F0" d="M199.815,168.469c2.821,0.27,5.708-0.59,8.481,0.5
	c-2.741,0.869-5.521,0.453-8.295,0.247c-0.109-0.1-0.219-0.2-0.328-0.3C199.7,168.761,199.748,168.611,199.815,168.469z"/>
<path fill-rule="evenodd" clip-rule="evenodd" fill="#EFF1F2" d="M198.248,147.782c1.577,0.268,3.26-0.489,4.763,0.494
	c-0.651,0.117-1.382-0.077-1.921,0.486c-0.26,0.335-0.623,0.453-1.027,0.482c-0.669,0.085-1.311,0.058-1.836-0.449
	C198.234,148.457,198.241,148.119,198.248,147.782z"/>
<path fill-rule="evenodd" clip-rule="evenodd" fill="#E6E6E6" d="M198.213,232.319c1.131,0.182,2.357-0.374,3.407,0.438
	c-0.019,0.317-0.039,0.635-0.059,0.952c-0.169,0.134-0.332,0.126-0.486-0.025c-0.053-0.779-0.539-0.521-1.015-0.479
	C199.303,233.268,198.382,233.537,198.213,232.319z"/>
<path fill-rule="evenodd" clip-rule="evenodd" fill="#BDBCBB" d="M201.076,233.684c0.162,0.009,0.325,0.017,0.487,0.025
	c0,0,0.049,0.075,0.049,0.075c0.258,0.298,0.255,0.593-0.008,0.886c0,0-0.097,0.142-0.098,0.143
	c-1.018-0.068-2.036-0.138-3.303-0.224C199.055,233.219,200.212,233.958,201.076,233.684z"/>
<path fill-rule="evenodd" clip-rule="evenodd" fill="#F1F1F1" d="M198.268,242.772c1.102,0.03,2.205,0.062,3.308,0.092
	c-0.003,0.313-0.006,0.627-0.009,0.94l0.01-0.002c-1.11,0.412-2.226,0.351-3.343,0.034
	C198.245,243.482,198.256,243.127,198.268,242.772z"/>
<path fill-rule="evenodd" clip-rule="evenodd" fill="#F1F1F1" d="M201.56,225.566c-1.1,0.029-2.2,0.059-3.3,0.088
	c0.002-0.373,0.005-0.746,0.007-1.119c1.103,0.03,2.205,0.061,3.307,0.091C201.57,224.939,201.565,225.253,201.56,225.566z"/>
<path fill-rule="evenodd" clip-rule="evenodd" fill="#EEEEEE" d="M201.525,223.61c-1.098,0.021-2.196,0.043-3.294,0.065
	c0.003-0.333,0.006-0.666,0.008-0.999c1.119-0.272,2.234-0.429,3.334,0.08C201.557,223.042,201.541,223.326,201.525,223.61z"/>
<path fill-rule="evenodd" clip-rule="evenodd" fill="#E3E2E2" d="M199.679,206.398c0.031,0.324,0.063,0.647,0.094,0.971
	c-0.002,0.871-0.691,0.862-1.271,0.994c-0.102-0.003-0.204-0.008-0.306-0.012c-0.8-0.68,0.194-1.321,0.042-1.987
	C198.728,206.003,199.208,205.958,199.679,206.398z"/>
<path fill-rule="evenodd" clip-rule="evenodd" fill="#BEBDBC" d="M198.227,148.794c0.644,0.015,1.287,0.029,1.93,0.044
	c0.242,0.491-0.226,0.641-0.439,0.912c-0.013,0.153-0.031,0.307-0.053,0.459C198.571,150.361,198.066,149.916,198.227,148.794z"/>
<path fill-rule="evenodd" clip-rule="evenodd" fill="#E9E8E7" d="M198.219,165.594c0.483,0.022,0.965,0.045,1.448,0.068
	c0.004,0.451,0.008,0.902,0.012,1.353c-0.469,0.437-0.95,0.391-1.438,0.034C198.233,166.564,198.226,166.079,198.219,165.594z"/>
<path fill-rule="evenodd" clip-rule="evenodd" fill="#EAE9E8" d="M199.683,163.133c-0.485,0.021-0.969,0.042-1.454,0.064
	c0-0.487,0.001-0.975,0.001-1.462c0.491-0.367,0.973-0.412,1.438,0.044C199.674,162.231,199.678,162.682,199.683,163.133z"/>
<path fill-rule="evenodd" clip-rule="evenodd" fill="#EAE9E8" d="M199.664,171.273c-0.481,0.022-0.962,0.044-1.444,0.067
	c0.002-0.48,0.004-0.96,0.007-1.44c0.489-0.372,0.97-0.417,1.44,0.034C199.666,170.38,199.665,170.826,199.664,171.273z"/>
<path fill-rule="evenodd" clip-rule="evenodd" fill="#E6E5E4" d="M198.217,155.517c0.482,0.025,0.965,0.05,1.448,0.075
	c0.017,0.448,0.033,0.896,0.05,1.343c-0.488,0.019-0.976,0.038-1.465,0.057C198.239,156.5,198.228,156.009,198.217,155.517z"/>
<path fill-rule="evenodd" clip-rule="evenodd" fill="#EEEDEC" d="M199.707,155.009c-0.488,0.02-0.975,0.04-1.462,0.06
	c-0.005-0.499-0.01-0.997-0.015-1.495c0.484,0.018,0.968,0.036,1.452,0.055C199.69,154.09,199.699,154.549,199.707,155.009z"/>
<path fill-rule="evenodd" clip-rule="evenodd" fill="#EEEDEC" d="M198.229,171.813c0.484,0.018,0.968,0.037,1.452,0.055
	c0.009,0.461,0.018,0.921,0.028,1.381c-0.488,0.02-0.976,0.04-1.463,0.06C198.24,172.811,198.235,172.312,198.229,171.813z"/>
<path fill-rule="evenodd" clip-rule="evenodd" fill="#E6E5E4" d="M198.218,173.753c0.483,0.025,0.966,0.05,1.449,0.076
	c0.014,0.447,0.027,0.893,0.041,1.339c-0.487,0.018-0.974,0.036-1.461,0.054C198.237,174.733,198.228,174.243,198.218,173.753z"/>
<path fill-rule="evenodd" clip-rule="evenodd" fill="#EAE9E8" d="M199.681,181.371c-0.484,0.021-0.968,0.042-1.453,0.063
	c0.001-0.487,0.002-0.974,0.003-1.461c0.492-0.365,0.974-0.411,1.439,0.046C199.674,180.47,199.677,180.92,199.681,181.371z"/>
<path fill-rule="evenodd" clip-rule="evenodd" fill="#E9E8E7" d="M198.22,183.831c0.483,0.023,0.966,0.046,1.45,0.069
	c0.003,0.452,0.006,0.903,0.009,1.354c-0.469,0.437-0.95,0.39-1.438,0.034C198.234,184.802,198.227,184.316,198.22,183.831z"/>
<path fill-rule="evenodd" clip-rule="evenodd" fill="#EDECEC" d="M199.674,209.686c-0.483,0.02-0.966,0.04-1.449,0.06
	c-0.009-0.465-0.019-0.93-0.028-1.394c0,0,0.118-0.138,0.118-0.138c0.482-0.17,0.958-0.265,1.406,0.092
	C199.705,208.765,199.689,209.226,199.674,209.686z"/>
<path fill-rule="evenodd" clip-rule="evenodd" fill="#ECEBEA" d="M198.229,191.972c0.482,0.021,0.965,0.042,1.448,0.063
	c0.009,0.456,0.017,0.911,0.026,1.366c-0.487,0.018-0.975,0.037-1.462,0.055C198.237,192.962,198.233,192.467,198.229,191.972z"/>
<path fill-rule="evenodd" clip-rule="evenodd" fill="#E9E8E7" d="M199.678,191.46c-0.482,0.018-0.965,0.037-1.448,0.055
	c0.001-0.49,0.003-0.98,0.004-1.471c0.483,0.017,0.967,0.033,1.451,0.051C199.683,190.551,199.681,191.006,199.678,191.46z"/>
<path fill-rule="evenodd" clip-rule="evenodd" fill="#EAE9E8" d="M199.664,189.513c-0.481,0.022-0.962,0.044-1.443,0.066
	c0.002-0.479,0.004-0.959,0.006-1.439c0.488-0.373,0.969-0.417,1.438,0.033C199.665,188.619,199.664,189.066,199.664,189.513z"/>
<path fill-rule="evenodd" clip-rule="evenodd" fill="#BEBCBB" d="M199.659,213.102c0.024,0.153,0.043,0.306,0.056,0.46
	c0.231,0.305,0.259,0.621,0.051,0.948c0,0-0.114,0.069-0.114,0.07c-0.456-0.131-1.23,0.198-1.265-0.553
	C198.353,213.297,199.005,213.103,199.659,213.102z"/>
<path fill-rule="evenodd" clip-rule="evenodd" fill="#BABAB9" d="M199.671,158.428c0.02,0.156,0.039,0.312,0.056,0.468
	c0.225,0.292,0.233,0.589,0.027,0.894c0,0-0.116,0.082-0.115,0.083c-0.448-0.136-1.232,0.23-1.254-0.538
	C198.364,158.615,199.003,158.399,199.671,158.428z"/>
<path fill-rule="evenodd" clip-rule="evenodd" fill="#B3B2B1" d="M199.668,161.78c-0.479-0.015-0.958-0.03-1.438-0.044
	c0.008-1.058,0.823-0.865,1.462-0.943c0.142,0.024,0.283,0.052,0.424,0.082c0.273,0.464-0.177,0.599-0.383,0.846L199.668,161.78z"/>
<path fill-rule="evenodd" clip-rule="evenodd" fill="#B2B1B0" d="M199.698,197.273c0.14,0.024,0.28,0.052,0.418,0.084
	c0.271,0.462-0.178,0.595-0.384,0.839c0,0-0.1,0.108-0.1,0.108c-0.431-0.088-1.166,0.092-1.191-0.424
	C198.4,197.066,199.232,197.413,199.698,197.273z"/>
<path fill-rule="evenodd" clip-rule="evenodd" fill="#C0C1C2" d="M198.233,243.837c1.114-0.011,2.229-0.022,3.343-0.033
	c-0.984,0.965-2.219,0.296-3.318,0.508C198.227,244.154,198.219,243.996,198.233,243.837z"/>
<path fill-rule="evenodd" clip-rule="evenodd" fill="#C4C4C4" d="M201.573,222.757c-1.111-0.026-2.223-0.053-3.334-0.08
	c-0.019-0.152-0.017-0.304,0.006-0.455C199.349,222.432,200.601,221.726,201.573,222.757z"/>
<path fill-rule="evenodd" clip-rule="evenodd" fill="#B2B1B1" d="M199.67,180.019c-0.48-0.015-0.959-0.03-1.439-0.046
	c0.01-1.058,0.827-0.86,1.465-0.941c0.142,0.024,0.282,0.051,0.422,0.082c0.272,0.464-0.178,0.6-0.386,0.845L199.67,180.019z"/>
<path fill-rule="evenodd" clip-rule="evenodd" fill="#B8B8B7" d="M199.679,206.398c-0.48-0.011-0.96-0.022-1.441-0.034
	c-0.051-1.105,0.791-0.877,1.427-0.958l0.092,0.073c0.21,0.298,0.194,0.592-0.014,0.883L199.679,206.398z"/>
<path fill-rule="evenodd" clip-rule="evenodd" fill="#C4C4C4" d="M201.08,221.356c-0.867,0.71-1.894,0.254-2.84,0.385
	c-0.003-0.162-0.008-0.324-0.012-0.486C199.179,221.288,200.129,221.322,201.08,221.356z"/>
<path fill-rule="evenodd" clip-rule="evenodd" fill="#BEBDBC" d="M199.623,216.531c-0.436-0.082-1.151,0.092-1.197-0.439
	c-0.073-0.855,0.769-0.483,1.224-0.632c0,0,0.115,0.068,0.115,0.068c0.206,0.31,0.192,0.618-0.013,0.921L199.623,216.531z"/>
<path fill-rule="evenodd" clip-rule="evenodd" fill="#BEBDBC" d="M199.651,196.331c-0.461-0.134-1.293,0.225-1.228-0.622
	c0.042-0.533,0.754-0.36,1.191-0.429c0,0,0.139,0.072,0.139,0.072c0.203,0.303,0.221,0.608,0.014,0.917L199.651,196.331z"/>
<path fill-rule="evenodd" clip-rule="evenodd" fill="#BFBDBC" d="M198.241,167.049c0.479-0.011,0.958-0.022,1.438-0.034l0.083,0.032
	c0.205,0.306,0.205,0.612,0,0.918c0,0-0.133,0.067-0.133,0.068C198.972,167.979,198.179,168.116,198.241,167.049z"/>
<path fill-rule="evenodd" clip-rule="evenodd" fill="#B8B8B7" d="M199.665,188.172c-0.479-0.011-0.959-0.021-1.439-0.032
	c-0.045-1.103,0.803-0.893,1.447-0.984l0.086,0.079c0.209,0.302,0.192,0.599-0.016,0.892L199.665,188.172z"/>
<path fill-rule="evenodd" clip-rule="evenodd" fill="#B8B8B7" d="M199.667,169.933c-0.48-0.011-0.96-0.022-1.44-0.034
	c-0.046-1.104,0.802-0.893,1.445-0.983c0,0,0.085,0.079,0.085,0.079c0.209,0.301,0.193,0.599-0.015,0.894L199.667,169.933z"/>
<path fill-rule="evenodd" clip-rule="evenodd" fill="#BFBDBC" d="M198.241,185.288c0.479-0.011,0.958-0.022,1.438-0.034l0.083,0.031
	c0.205,0.307,0.205,0.612,0,0.919c0,0-0.133,0.067-0.133,0.068C198.972,186.217,198.179,186.354,198.241,185.288z"/>
<path fill-rule="evenodd" clip-rule="evenodd" fill="#F3F2F2" d="M198.282,176.025c0.489,0.031,0.979,0.062,1.469,0.093
	c-0.026,0.324-0.052,0.648-0.079,0.973c-0.469,0.439-0.949,0.391-1.438,0.035C198.25,176.76,198.266,176.393,198.282,176.025z"/>
<path fill-rule="evenodd" clip-rule="evenodd" fill="#BABAB9" d="M198.234,177.127c0.479-0.012,0.958-0.023,1.438-0.035l0.096,0.071
	c0.199,0.291,0.185,0.58-0.012,0.866c0,0-0.119,0.083-0.118,0.083C198.98,178.053,198.161,178.226,198.234,177.127z"/>
<path fill-rule="evenodd" clip-rule="evenodd" fill="#E7E7E7" d="M200.625,227.495c-0.8,0.003-1.6,0.007-2.4,0.01
	C199.021,226.784,199.822,226.796,200.625,227.495z"/>
<path fill-rule="evenodd" clip-rule="evenodd" fill="#96A9B9" d="M199.766,214.51c-0.018-0.316-0.035-0.632-0.051-0.948
	c4.582,0.005,9.164-0.005,13.744,0.032c0.781,0.006,1.85-0.398,2.044,0.952C210.257,214.535,205.011,214.522,199.766,214.51z"/>
<path fill-rule="evenodd" clip-rule="evenodd" fill="#9AA5AD" d="M199.721,208.306c-0.469-0.031-0.938-0.061-1.406-0.092
	c0.485-0.282,0.971-0.563,1.457-0.845c2.708,0,5.416,0,8.123,0c-0.006,0.312-0.012,0.624-0.018,0.937
	C205.159,208.306,202.439,208.306,199.721,208.306z"/>
<path fill-rule="evenodd" clip-rule="evenodd" fill="#96A7B6" d="M199.743,206.363c0.004-0.295,0.008-0.59,0.013-0.884
	c2.742,0,5.482,0,8.223,0c0.009,0.294,0.017,0.589,0.025,0.883C205.251,206.363,202.497,206.363,199.743,206.363z"/>
<path fill-rule="evenodd" clip-rule="evenodd" fill="#96AABA" d="M199.767,196.268c-0.005-0.306-0.011-0.611-0.015-0.917
	c2.743,0,5.485,0,8.228,0c0.009,0.306,0.018,0.611,0.027,0.917C205.26,196.268,202.514,196.268,199.767,196.268z"/>
<path fill-rule="evenodd" clip-rule="evenodd" fill="#96AABA" d="M199.751,216.449c0.004-0.307,0.007-0.614,0.012-0.922
	c2.846-0.003,5.69-0.006,8.535-0.009c-0.162,1.167-1.071,0.928-1.815,0.938c-2.114,0.027-4.228,0.025-6.341,0.035
	C200.011,216.476,199.881,216.462,199.751,216.449z"/>
<path fill-rule="evenodd" clip-rule="evenodd" fill="#96AABA" d="M199.761,167.965c0-0.306-0.001-0.613,0-0.918
	c2.74,0,5.48,0,8.219,0c0.009,0.306,0.018,0.612,0.026,0.918C205.257,167.965,202.509,167.965,199.761,167.965z"/>
<path fill-rule="evenodd" clip-rule="evenodd" fill="#97A7B6" d="M199.743,169.889c0.004-0.298,0.009-0.597,0.014-0.894
	c2.847-0.008,5.693-0.017,8.539-0.026c-0.17,1.2-1.111,0.925-1.857,0.931C204.207,169.917,201.975,169.895,199.743,169.889z"/>
<path fill-rule="evenodd" clip-rule="evenodd" fill="#97A4AE" d="M199.755,178.029c0.003-0.289,0.007-0.578,0.011-0.867
	c2.736,0.001,5.472,0.001,8.207,0.001c0.008,0.289,0.016,0.577,0.024,0.866C205.25,178.029,202.503,178.029,199.755,178.029z"/>
<path fill-rule="evenodd" clip-rule="evenodd" fill="#97A4AF" d="M199.754,159.79c-0.01-0.298-0.019-0.597-0.028-0.895
	c2.75,0,5.498,0,8.247,0c0.009,0.298,0.018,0.596,0.027,0.894C205.252,159.79,202.503,159.79,199.754,159.79z"/>
<path fill-rule="evenodd" clip-rule="evenodd" fill="#96A7B6" d="M199.743,188.126c0.005-0.297,0.01-0.595,0.015-0.893
	c2.847-0.008,5.692-0.018,8.538-0.026c-0.17,1.2-1.11,0.925-1.857,0.931C204.207,188.156,201.975,188.133,199.743,188.126z"/>
<path fill-rule="evenodd" clip-rule="evenodd" fill="#96AABA" d="M199.761,186.204c0-0.307-0.001-0.613,0-0.919
	c2.74,0,5.48,0,8.219,0c0.009,0.307,0.018,0.612,0.026,0.919C205.257,186.204,202.509,186.204,199.761,186.204z"/>
<path fill-rule="evenodd" clip-rule="evenodd" fill="#95AABA" d="M199.717,149.751c0.146-0.305,0.293-0.608,0.439-0.913
	c0.312-0.025,0.623-0.051,0.934-0.077c2.301,0,4.601,0,6.901,0c-0.001,0.33-0.001,0.66-0.002,0.99
	C205.231,149.751,202.474,149.751,199.717,149.751z"/>
<path fill-rule="evenodd" clip-rule="evenodd" fill="#99A5B0" d="M199.732,179.958c0.129-0.282,0.258-0.564,0.386-0.846
	c2.595,0.001,5.191,0.001,7.787,0.001c-0.008,0.282-0.016,0.563-0.024,0.845C205.165,179.958,202.448,179.958,199.732,179.958z"/>
<path fill-rule="evenodd" clip-rule="evenodd" fill="#99A5AF" d="M199.732,198.196c0.128-0.28,0.256-0.561,0.384-0.84
	c2.596,0.001,5.192,0.001,7.789,0.001c-0.009,0.279-0.017,0.559-0.025,0.839C205.164,198.196,202.448,198.196,199.732,198.196z"/>
<path fill-rule="evenodd" clip-rule="evenodd" fill="#99A5B0" d="M199.733,161.72c0.128-0.283,0.256-0.565,0.384-0.847
	c2.596,0.001,5.191,0.001,7.788,0.001c-0.008,0.282-0.016,0.563-0.024,0.846C205.165,161.72,202.449,161.72,199.733,161.72z"/>
<path fill-rule="evenodd" clip-rule="evenodd" fill="#E5E7E6" d="M211.206,265.935c1.591,0.009,3.181,0.018,4.772,0.026
	c0.002,0.14,0.005,0.279,0.006,0.419c-0.001,29.939-0.002,59.878-0.008,89.816c0,1.105,0.186,2.247-0.471,3.263
	c-1.435-0.001-2.869-0.003-4.304-0.004C211.203,328.281,211.205,297.107,211.206,265.935z"/>
<path fill-rule="evenodd" clip-rule="evenodd" fill="#E5E7E6" d="M211.21,244.802c1.427-0.011,2.854-0.022,4.28-0.033
	c0.792,0.701,0.47,1.639,0.475,2.476c0.027,4.94,0.011,9.88,0.008,14.819c-1.589,0.373-3.179,0.366-4.769,0.004
	C211.207,256.312,211.208,250.557,211.21,244.802z"/>
<path fill-rule="evenodd" clip-rule="evenodd" fill="#E5E7E6" d="M211.176,243.825c0.008-3.031,0.017-6.062,0.024-9.093
	c1.427-1.043,2.862-0.923,4.303-0.031c0.761,3.043,0.78,6.086-0.012,9.127c-1.437,0.354-2.874,0.357-4.311-0.002L211.176,243.825z"
	/>
<path fill-rule="evenodd" clip-rule="evenodd" fill="#E5E7E6" d="M211.193,233.722c0.005-2.876,0.011-5.753,0.017-8.629
	c1.378-0.632,2.923,0.213,4.293-0.487c0,0-0.037-0.044-0.037-0.045c0.836,3.061,0.803,6.123,0.024,9.188
	C214.053,234.438,212.62,234.494,211.193,233.722z"/>
<path fill-rule="evenodd" clip-rule="evenodd" fill="#E6E8E7" d="M215.505,223.659c-1.427-0.012-2.854-0.024-4.281-0.037
	c-0.007-0.471-0.013-0.941-0.02-1.412c1.588-0.362,3.177-0.357,4.766-0.004l0.016,0.021
	C215.962,222.75,216.062,223.314,215.505,223.659z"/>
<path fill-rule="evenodd" clip-rule="evenodd" fill="#BABAB8" d="M211.193,233.722c1.432,0.009,2.865,0.018,4.297,0.027
	c0.004,0.317,0.008,0.635,0.013,0.952c-1.434,0.01-2.869,0.021-4.303,0.031l-0.037-0.073c-0.259-0.286-0.261-0.574-0.007-0.865
	L211.193,233.722z"/>
<path fill-rule="evenodd" clip-rule="evenodd" fill="#EEF0F2" d="M211.205,262.066c1.589-0.001,3.179-0.002,4.769-0.003
	c0.007,0.153,0.005,0.307-0.005,0.459C214.382,262.352,212.712,263.058,211.205,262.066z"/>
<path fill-rule="evenodd" clip-rule="evenodd" fill="#C0C1C2" d="M211.18,243.826c1.437,0,2.874,0.001,4.311,0.002
	c0.01,0.155,0.016,0.312,0.017,0.467C214.07,244.094,212.537,244.777,211.18,243.826z"/>
<path fill-rule="evenodd" clip-rule="evenodd" fill="#7C7566" d="M241.401,265.399c-13.27,0.003-26.538,0.006-39.808,0.008
	c0.548-0.666,1.311-0.461,2.002-0.462c11.934-0.011,23.867-0.011,35.801,0C240.087,264.946,240.85,264.736,241.401,265.399z"/>
<path fill-rule="evenodd" clip-rule="evenodd" fill="#AAABAB" d="M211.156,233.794c0.002,0.289,0.005,0.578,0.007,0.866
	c-3.187,0.003-6.374,0.007-9.561,0.01c0.002-0.296,0.005-0.591,0.008-0.886C204.793,233.788,207.974,233.791,211.156,233.794z"/>
<path fill-rule="evenodd" clip-rule="evenodd" fill="#A6A7A6" d="M198.306,240.055c1.082-0.033,2.164-0.067,3.246-0.101
	c2.111,0,4.222,0,6.333,0c0.011,0.202,0.022,0.405,0.034,0.607c-2.027,0.788-4.209,0.184-6.305,0.355
	C200.692,239.936,199.214,241.09,198.306,240.055z"/>
<path fill-rule="evenodd" clip-rule="evenodd" fill="#EFF1F0" d="M215.502,224.605c-1.338,0.985-2.866,0.287-4.293,0.487
	c-0.024-0.155-0.032-0.312-0.023-0.469C212.625,224.617,214.064,224.612,215.502,224.605z"/>
<path fill-rule="evenodd" clip-rule="evenodd" fill="#F5F7F7" d="M215.97,222.206c-1.589,0.001-3.177,0.003-4.766,0.004
	c1.52-0.918,3.164-0.301,4.751-0.385C215.969,221.952,215.975,222.079,215.97,222.206z"/>
</svg>
