<?xml version="1.0" encoding="utf-8"?>
<!-- Generator: Adobe Illustrator 16.0.0, SVG Export Plug-In . SVG Version: 6.00 Build 0)  -->
<!DOCTYPE svg PUBLIC "-//W3C//DTD SVG 1.1//EN" "http://www.w3.org/Graphics/SVG/1.1/DTD/svg11.dtd">
<svg version="1.1" id="Layer_1" xmlns="http://www.w3.org/2000/svg" xmlns:xlink="http://www.w3.org/1999/xlink" x="0px" y="0px"
	 width="432px" height="432px" viewBox="0 0 432 432" enable-background="new 0 0 432 432" xml:space="preserve">
<path fill-rule="evenodd" clip-rule="evenodd" fill="#8ABBE5" d="M201.648,286.556c0,6.144-0.475,12.331,0.087,18.422
	c1.789,19.396,0.246,38.812,0.862,58.206c0.075,2.346-0.419,3.261-2.976,3.087c-3.662-0.25-7.354-0.062-11.033-0.063
	c-6.602-0.006-10.39-3.613-10.96-10.13c-1.257-14.378-2.614-28.747-3.947-43.118c-1.104-11.907-1.617-23.914-3.538-35.689
	c-1.695-10.387-0.459-20.724-1.323-31.503c-1.674,4.007-2.423,7.863-3.21,11.69c-0.882,4.291-1.543,8.627-2.351,12.935
	c-0.821,4.376-4.828,7.468-8.909,6.94c-4.579-0.591-7.925-4.352-7.429-9.005c0.734-6.898,2.108-13.707,3.802-20.442
	c2.375-9.446,5.615-18.512,11.756-26.257c5.721-7.217,12.986-12.449,21.246-16.416c1.676-0.804,2.675-0.169,3.71,0.94
	c1.126,1.206,2.097,3.295,3.571,3.191c1.207-0.085,2.415-1.911,3.383-3.152c1.285-1.646,2.55-1.558,4.333-0.812
	c7.579,3.171,14.123,7.779,19.559,13.903c1.144,1.289,1.608,0.575,2.431-0.121c4.466-3.783,9.256-7.066,14.59-9.544
	c1.303-0.605,2.139-0.528,3.095,0.564c1.15,1.315,2.407,3.336,3.76,3.457c1.418,0.126,2.574-2.105,3.775-3.364
	c1.06-1.11,2.068-1.197,3.424-0.628c14.165,5.944,24.021,16.06,29.422,30.441c3.753,9.991,5.673,20.43,7.17,30.945
	c0.589,4.146-2.913,8.235-7.156,8.73c-4.423,0.516-8.408-2.788-9.023-7.395c-1.098-8.236-2.753-16.355-5.374-24.255
	c-0.16-0.485-0.156-1.111-0.788-1.453c-0.678,7.648,0.383,15.106,1.537,22.577c1.618,10.478,3.065,20.979,4.598,31.47
	c0.563,3.863,1.123,7.729,1.759,11.58c0.541,3.272,0.441,3.451-2.758,3.454c-1.919,0.002-3.84,0.033-5.758-0.01
	c-1.176-0.025-1.702,0.44-1.86,1.642c-1.761,13.353-3.597,26.695-5.335,40.051c-0.675,5.181-4.474,8.746-9.682,8.776
	c-4.64,0.026-9.28-0.08-13.916,0.048c-1.844,0.052-2.271-0.567-2.266-2.321c0.059-17.436-0.489-34.894,0.264-52.297
	c0.361-8.362,0.312-16.731,0.776-25.409c1.633,2.182,1.835,4.575,2.248,6.839c0.646,3.53,1.065,7.09,1.066,10.703
	c0.002,3.255,2.205,5.399,5.189,5.382c3.082-0.019,4.876-2.017,4.886-5.521c0.025-10.058-1.941-19.547-8.277-27.682
	c-3.625-4.654-8.334-7.866-13.905-9.829c-1.632-0.575-2.983-0.677-4.026,1.087c-1.024,1.729-2.272,1.75-3.417,0.037
	c-1.12-1.676-2.47-1.708-4.289-1.052c-10.295,3.716-16.396,11.281-19.773,21.34c-1.61,4.795-2.056,9.824-2.417,14.836
	c-0.254,3.522,1.322,6.102,3.832,6.696c3.309,0.784,6.073-1.521,6.177-5.178c0.153-5.363,0.811-10.651,2.317-15.814
	c0.152-0.521,0.397-1.014,0.599-1.519C201.332,286.551,201.49,286.553,201.648,286.556z"/>
<path fill-rule="evenodd" clip-rule="evenodd" fill="#757576" d="M54.915,228.978c1.483,0,2.271,0,3.06,0
	c12.877,0,25.756,0.087,38.631-0.072c2.563-0.032,2.984,0.774,2.943,3.073c-0.137,7.675-0.052,15.355-0.052,23.034
	c0,38.071-0.023,76.144,0.057,114.216c0.005,2.346-0.603,3.126-2.911,2.845c-2.126-0.259-4.938,0.861-6.263-0.407
	c-1.461-1.401-0.466-4.252-0.468-6.462c-0.033-41.271-0.043-82.543,0.028-123.813c0.003-2.267-0.482-2.952-2.853-2.924
	c-11.276,0.136-22.555,0.076-33.832,0.053c-4.659-0.009-7.34-1.939-9.016-6.097c-0.992-2.461,0.4-4.375,1.293-6.328
	c1.242-2.713,3.362-4.845,5.461-6.94c25.922-25.88,51.863-51.743,77.766-77.644c23.47-23.469,46.899-46.979,70.346-70.471
	c2.657-2.662,5.346-5.282,8.473-7.411c5.725-3.898,11.464-3.909,17.244-0.136c2.827,1.845,5.356,4.053,7.732,6.431
	c48.743,48.758,97.476,97.527,146.218,146.287c2.881,2.882,5.979,5.566,8.089,9.126c1.2,2.023,2.114,4.158,1.656,6.569
	c-0.813,4.277-4.086,6.626-9.21,6.634c-10.798,0.015-21.596-0.007-32.394-0.011c-4.141-0.002-4.141-0.001-4.141,4.151
	c0,42.151-0.026,84.304,0.065,126.454c0.005,2.524-0.717,3.2-3.067,2.943c-2.052-0.225-4.796,0.632-6.035-0.412
	c-1.461-1.231-0.484-4.063-0.485-6.191c-0.032-44.471-0.023-88.941-0.023-133.412c0-3.083,0.002-3.083,3.093-3.083
	c12.878-0.001,25.755-0.001,38.633,0c0.77,0,1.539-0.001,3.03-0.001c-3.582-3.606-6.696-6.762-9.831-9.895
	c-28.685-28.662-57.376-57.318-86.058-85.982c-19.234-19.222-38.451-38.462-57.703-57.667c-1.294-1.292-2.749-2.45-4.246-3.504
	c-3.122-2.196-4.707-2.187-7.808,0.104c-1.601,1.182-3.109,2.519-4.519,3.927c-50.122,50.096-100.226,100.208-150.331,150.321
	C56.768,227.003,56.079,227.756,54.915,228.978z"/>
<path fill-rule="evenodd" clip-rule="evenodd" fill="#8ABBE5" d="M169.423,181.794c0.141-11.805,9.922-21.155,21.954-20.985
	c11.303,0.16,20.822,10.063,20.706,21.543c-0.118,11.812-9.935,21.29-21.863,21.111C178.7,203.289,169.284,193.479,169.423,181.794z
	"/>
<path fill-rule="evenodd" clip-rule="evenodd" fill="#8ABBE5" d="M262.751,187.386c-0.019,11.435-9.301,20.544-20.876,20.488
	c-11.44-0.055-20.611-9.339-20.576-20.828c0.034-11.355,9.43-20.573,20.911-20.514C253.669,166.591,262.771,175.83,262.751,187.386z
	"/>
<path fill-rule="evenodd" clip-rule="evenodd" fill="#8BBCE5" d="M213.61,340.138c0-7.903-0.007-15.808,0.004-23.712
	c0.003-2.616,0.715-3.422,2.862-3.417c2.284,0.005,2.787,1.491,2.788,3.352c0.01,15.967-0.016,31.934,0.037,47.901
	c0.005,1.646-0.612,2.014-2.112,1.974c-4.253-0.113-3.551,0.304-3.569-3.584C213.585,355.146,213.61,347.643,213.61,340.138z"/>
<path fill-rule="evenodd" clip-rule="evenodd" fill="#FEFEFE" d="M230.441,250.386c-0.029,7.825-6.391,14.141-14.203,14.101
	c-7.611-0.039-14.07-6.615-14.109-14.367c-0.038-7.549,6.621-14.215,14.266-14.281C224.165,235.771,230.472,242.304,230.441,250.386
	z"/>
</svg>
